<svg width="130" height="118" viewBox="0 0 130 118" xmlns="http://www.w3.org/2000/svg">
    <g fill="none" fill-rule="evenodd">
        <path d="M0 118h130V0H0z"/>
        <path d="M63.042 109.96c-.925 0-1.852-.104-2.674-.197-1.131-.13-2.07-.18-2.951-.151l-.533.017c-.754.027-1.534.055-2.313-.018-.633-.06-1.22-.215-1.786-.365-.33-.087-.661-.175-1.002-.244-.592-.118-1.22-.136-1.974-.054-.734.078-1.597.113-2.447-.224a9.515 9.515 0 0 1-1.042-.512c-.29-.156-.578-.314-.882-.44-.42-.172-.911-.188-1.432-.205-.622-.02-1.265-.041-1.885-.325-.566-.26-.94-.708-1.052-1.264-.127-.631.1-1.337.608-1.887.522-.566 1.168-1.015 1.686-1.376.31-.215.553-.502.809-.807.229-.27.465-.55.765-.802.15-.125.295-.254.439-.382.483-.43.983-.875 1.638-1.176.454-.21.758-.54 1.11-.922a8.59 8.59 0 0 1 .6-.61c.417-.376.794-.63 1.187-.797.21-.09.417-.118.599-.142.16-.022.298-.041.384-.094.167-.102.277-.36.395-.632.109-.255.223-.52.413-.75.446-.543.962-.914 1.577-1.134.54-.195 1.032-.146 1.464-.021.187-.333.433-.695.736-1.081.322-.41.77-.9 1.262-1.375 1.06-1.027 2.104-1.268 3.345-1.315.74-.028 1.34-.14 1.858-.587.097-.084.194-.173.29-.263.342-.315.728-.673 1.208-.882.392-.17.868-.22 1.328-.267.233-.025.458-.047.646-.088.268-.06.469-.166.702-.29.237-.127.506-.27.86-.364 1.17-.311 2.178-.048 3.17.826.248.22.488.449.727.677.162.155.324.31.489.462.28.257.489.535.69.804.132.173.26.347.413.512.35.453.74.668 1.153.897.57.316 1.218.675 1.46 1.58l.08.323c.144.585.218.832.61 1.073.395.242.923.38 1.435.515l.387.104c.827.258 1.376.65 1.69 1.205.17.295.267.597.36.889.08.246.155.479.266.679.249.45.509.478 1.077.536.158.016.323.034.494.062.603.1 1.188.415 1.565.842.447.507.819.996 1.108 1.455.055.088.11.185.165.285.11.196.224.398.34.508.234.222.389.256.81.305 1.538.178 2.003 1.14 2.38 2.197.166.466.466.719.88 1.068l.268.227c.739.646.838 1.229.79 1.605-.178 1.433-2.007 1.653-2.608 1.725a8.054 8.054 0 0 1-1.68.035l-.224-.02c-.416-.038-.808-.075-1.167-.012-.258.046-.51.114-.762.18-.177.046-.353.093-.531.133-1.11.254-2.137.056-3.132-.137-.731-.141-1.422-.273-2.128-.234-1.075.062-2.043.12-3.001.228-.367.04-.736.106-1.104.17-.553.097-1.124.197-1.701.223-.893.044-1.756-.072-2.591-.182-1.045-.137-2.032-.266-3.043-.11-.247.039-.493.083-.74.127-.701.124-1.427.253-2.175.263h-.156" fill="#5F3626"/>
        <path d="M80.438 107.143c.041-.595-.2-1.045-.534-1.52-.409-.581-.645-1.205-.953-1.841-.458-.943-1.172-1.533-2.12-1.978-.64-.3-1.22-.42-1.82-.811-.616-.402-1.202-.738-1.683-1.296-.337-.391-.728-1.148-1.228-1.35-.3-.12-.583-.137-.906-.146-.454-.014-.796-.303-1.244-.287-.619.022-1.02.64-1.48.963-.7.489-1.409.743-2.212 1-.627.2-1.14.46-1.569.967-.309.365-.496.856-.956 1.038-.49.194-1.012.146-1.36-.281-.29-.355-.513-.797-.956-.99-.479-.21-1-.25-1.5-.394-.806-.233-1.004-.947-1.295-1.635-.428-1.013-1.346-1.868-2.276-2.407-.35-.202-.862-.503-.767-.96.1-.48.482-.835.781-1.2.37-.45.776-1.084 1.196-1.49 1.05-1.018 2.205-.801 3.526-1.013 1.252-.202 1.81-1.296 2.902-1.773.492-.215 1.145-.088 1.66-.227.632-.171 1.13-.608 1.782-.731 1.102-.208 1.95.637 2.657 1.319.374.36.861.648 1.162 1.074.33.467.66 1.07 1.145 1.377.507.32 1.035.539 1.435 1.005.373.436.328 1.17.662 1.66.583.857 1.827 1.11 2.766 1.374.954.298 1.203.747 1.491 1.622.216.659.593 1.475 1.263 1.709.303.105.647.09.962.095.464.007.83.135 1.201.412.58.434.86 1.239 1.251 1.827.324.486.811 1.037 1.414 1.156.44.086.9.052 1.293.294.326.202.457.624.572.965.182.544.334 1.03.757 1.436.343.329 1.392.867 1.22 1.45-.13.439-.979.7-1.338.764-.562.099-1.177-.038-1.744-.081-.662-.051-1.329-.057-1.986.056-.55.095-1.215.28-1.757.074-.537-.204-1.568-.413-1.465-.951l.051-.275z" fill="#B08466"/>
        <path d="M87.457 106.106c-.423-.406-.575-.893-.758-1.436-.114-.341-.245-.764-.57-.965-.394-.243-.856-.208-1.294-.294-.603-.12-1.09-.671-1.414-1.156-.392-.588-.672-1.394-1.252-1.827a1.942 1.942 0 0 0-1.2-.413c-.315-.005-.66.01-.962-.095-.67-.234-1.047-1.05-1.264-1.708-.18-.553-.349-.935-.687-1.217-.33.448-.106.823-.252 1.306-.256.85-1.288 1.29-2.182 1.524-1.032.269-2.02-.735-3.045-1.098.283.31.53.714.75.969.482.559 1.068.895 1.683 1.297.6.39 1.181.51 1.82.81.95.446 1.663 1.036 2.12 1.979.31.636.545 1.26.954 1.842.333.474.575.924.534 1.519l-.05.275c-.104.537.927.747 1.464.95.542.206 1.207.022 1.756-.073.657-.113 1.325-.107 1.987-.056.567.043 1.182.18 1.743.08.36-.063 1.208-.325 1.338-.764.172-.582-.876-1.12-1.219-1.45" fill="#9C6F54"/>
        <path d="M87.457 106.106c-.423-.406-.575-.893-.758-1.436a8.824 8.824 0 0 0-.088-.257c.034.297.052.638-.07.869-.18.342-.578.42-.747.788-.173.375-.015.825-.545.99-.455.143-.383-.087-.707-.31-.693-.473-1.433-.024-2.119-.547-.64-.488-.946-.59-1.72-.848-.86-.287-1.072-1.488-1.895-1.807.046.08.101.148.142.234.31.636.545 1.26.954 1.842.333.474.575.924.534 1.519l-.05.275c-.104.537.927.747 1.464.95.542.206 1.207.022 1.756-.073.657-.113 1.325-.107 1.987-.056.567.043 1.182.18 1.743.08.36-.063 1.208-.325 1.338-.764.172-.582-.876-1.12-1.219-1.45" fill="#7C5039"/>
        <path d="M55.579 95.215c-.094.456.416.758.767.96.93.539 1.849 1.394 2.276 2.407.29.688.489 1.402 1.295 1.635.499.144 1.02.185 1.5.394.444.193.667.635.956.99.349.427.869.475 1.36.28.46-.181.647-.672.956-1.037.429-.506.943-.767 1.569-.967.804-.257 1.513-.511 2.212-1a3.37 3.37 0 0 0 .353-.297c-1.067.092-1.66-.45-2.715-.614-.64-.1-.896.209-1.461.31-.64.117-.994-.056-1.613-.086-1.05-.052-2.152.663-3.165.086-1.067-.607-.426-1.91-1.555-2.496-.49-.254-.922-.022-1.407-.46-.417-.374-.542-.827-.53-1.328a.361.361 0 0 1-.017.023c-.3.365-.682.719-.781 1.2" fill="#9C6F54"/>
        <path d="M78.351 103.605c-.595-1.008-1.297-1.419-2.539-1.805-.992-.363-2.109-1.155-2.799-1.957-.386-.447-.767-1.22-1.428-1.256-.34-.018-.73.02-1.046-.14-.522-.265-.85-.206-1.23.225-.403.456-1.305.96-1.868 1.174-.605.231-1.25.426-1.809.762-.654.392-1.035 1.118-1.41 1.758a42.425 42.425 0 0 1-1.118 1.778c-.358.548-.77.874-1.383 1.11-.36.138-.82.26-1.105.536-.272.265-.383.581-.527.92-.19.447-1.428 1.276-1.06 1.777.243.332 1.525.236 1.885.268.778.07 1.551.14 2.333.11 1.062-.039 2.084-.327 3.137-.437.883-.093 1.713-.038 2.588.105 1.014.165 2.083.366 3.11.194.923-.155 1.843-.304 2.776-.39a46.88 46.88 0 0 1 2.875-.199c.48-.014 1.297.292 1.697-.056.307-.267.431-.302.518-.7l.045-.282c.056-.802-.608-1.26-.914-1.927-.24-.524-.434-1.07-.728-1.568" fill="#B08466"/>
        <path d="M78.351 103.605c-.086-.145-.18-.254-.272-.376-.027.166-.169.265-.297.467-.28.445-.25.741-.736.985-.762.382-1.286.758-2.176.657-.74-.084-1.472-.567-2.229-.43-.622.11-.794.683-1.34.883-.804.295-1.688.135-2.359-.22-.985-.526-1.409.243-2.427.144-.364-.036-.632-.27-1.01-.222-.484.063-.822.537-1.274.673-.43.13-1.442-.148-1.488-.74-.023-.306.38-.48.502-.714.153-.29.077-.39.13-.674.031-.179.08-.362.14-.547-.139.216-.27.437-.41.653-.359.548-.772.874-1.384 1.11-.36.138-.82.26-1.105.536-.272.265-.383.581-.527.92-.19.447-1.428 1.276-1.06 1.777.243.332 1.525.236 1.885.268.778.07 1.551.14 2.333.11 1.062-.039 2.084-.327 3.137-.437.883-.093 1.713-.038 2.588.105 1.014.165 2.083.366 3.11.194.923-.155 1.843-.304 2.776-.39a46.88 46.88 0 0 1 2.875-.199c.48-.014 1.297.292 1.697-.056.307-.267.431-.302.518-.7l.045-.282c.056-.802-.608-1.26-.914-1.927-.24-.524-.434-1.07-.728-1.568" fill="#9C6F54"/>
        <path d="M74.858 108.337a46.102 46.102 0 0 1 2.875-.199c.48-.014 1.297.292 1.697-.056.307-.267.431-.302.518-.7l.045-.282c.056-.802-.608-1.26-.914-1.927-.056-.123-.108-.247-.16-.37-.008.087-.009.175-.032.265-.109.442-.286 1.14-.764 1.314-.2.073-.458-.057-.679.014-.343.111-.458.488-.778.605-.489.18-1.295-.255-1.81-.258-.76-.004-1.357.597-2.094.66-1.035.09-2.097.031-3.136.074-.882.038-2.108-.254-2.932.025-.554.188-.817.55-1.46.344-.436-.14-.549-.358-1.075-.206-.542.156-1.076.204-1.623.05-.455-.129-.566-.404-.922-.613-.465-.27-1.349-.14-1.07-.937.085-.24.238-.423.418-.582a1.445 1.445 0 0 0-.346.232c-.272.265-.383.581-.527.92-.19.446-1.429 1.276-1.06 1.777.243.332 1.525.236 1.885.268.778.07 1.551.14 2.333.11 1.062-.039 2.084-.327 3.137-.437.883-.093 1.713-.038 2.588.105 1.014.165 2.083.366 3.11.194.923-.155 1.843-.304 2.776-.39" fill="#7C5039"/>
        <path d="M60.662 100.84c-.83-.167-1.73-.612-2.12-1.46-.475-1.034-.958-1.963-1.995-2.575-.415-.244-.812-.464-1.13-.832-.504-.583-1.43-.882-2.13-.43-.455.293-.875.636-1.058 1.16-.299.861-.736 1.174-1.684 1.331-1.007.166-1.383 1.086-2.069 1.728-.56.523-1.325.844-1.9 1.35-.356.312-.756.62-1.08.964-.267.283-.467.62-.735.901-.475.5-1.093.84-1.63 1.267-.397.316-1.597 1.322-.813 1.861.46.315 1.096.33 1.634.367.555.04 1.16.033 1.694.21.636.21 1.193.625 1.806.892 1.457.636 2.974.005 4.485.344.916.206 1.791.534 2.736.601.753.053 1.678.173 2.398-.12.56-.23.893-.683 1.522-.857.904-.25.944-.967 1.374-1.652.411-.653 1.068-.814 1.736-1.11 1.541-.687 1.102-1.853.33-2.89-.392-.525-.688-.915-1.37-1.05" fill="#B08466"/>
        <path d="M58.593 107.542c.904-.25.944-.967 1.375-1.652.41-.653 1.068-.813 1.735-1.11 1.541-.687 1.102-1.853.33-2.89-.39-.524-.687-.914-1.37-1.05a4.03 4.03 0 0 1-.566-.162c.185.097.345.224.43.474.227.675-.216.821-.772.983-.674.196-.898.351-1.307.88-.399.515-.887.184-1.386.465-.407.23-.616.777-.92 1.121-.37.415-.705.478-1.266.43-.613-.055-.61-.162-.985-.533-.358-.354-.45-.157-.883-.11-.478.05-.834-.47-1.244-.28-.522.242-.889.772-1.515.662-.388-.067-.96-.403-1.096-.792-.085-.245.002-.496-.109-.76-.277-.656-.875-.555-1.476-.446-.648.118-.796-.005-1.096-.47-.122-.188-.247-.187-.263-.419-.014-.196.08-.414.197-.627-.31.264-.636.528-.91.82-.267.283-.467.62-.735.902-.474.498-1.092.84-1.629 1.266-.398.317-1.597 1.322-.813 1.861.46.315 1.096.33 1.633.367.556.04 1.16.033 1.694.21.636.21 1.194.625 1.806.892 1.458.636 2.974.005 4.485.344.916.206 1.792.534 2.737.601.752.053 1.678.173 2.397-.12.56-.23.893-.683 1.522-.857" fill="#9C6F54"/>
        <path d="M58.593 107.542c.904-.25.944-.967 1.375-1.652.41-.653 1.068-.813 1.735-1.11.228-.102.4-.216.547-.337.027-.047.06-.09.082-.142-.699.196-1.723.332-2.375.686-.962.523-1.634 1.601-2.592 2.127-.422.231-.565-.08-1.004-.143-.417-.059-.718.213-1.124.193-.436-.022-.467-.3-.778-.537-.699-.53-.938.08-1.583.24-.693.17-1.696-.158-2.397-.243-.52-.063-.825-.547-1.337-.639-.385-.07-.72.15-1.112.143-1.29-.026-1.19-1.55-2.595-1.106-.69.217-.939.2-1.492-.139-.492-.3-.656-.33-.697-.724-.038.03-.077.056-.114.085-.398.317-1.597 1.322-.813 1.861.46.315 1.096.33 1.633.367.556.04 1.16.033 1.694.21.636.21 1.194.625 1.806.892 1.458.636 2.974.005 4.485.344.916.206 1.792.534 2.737.601.752.053 1.678.173 2.397-.12.56-.23.893-.683 1.522-.857" fill="#7C5039"/>
        <path d="M49.654 110.82c-.36 0-.75-.042-1.16-.126a6.104 6.104 0 0 1-1.6-.54 1.803 1.803 0 0 1-.389-.289c-.072-.065-.145-.13-.233-.185-.12-.073-.233-.075-.39-.078a1.98 1.98 0 0 1-.345-.028c-.44-.086-.786-.363-.904-.724-.105-.319-.018-.65.245-.934a4.192 4.192 0 0 1 2.471-1.314 6.165 6.165 0 0 0 1.664-.477c.456-.2.962-.378 1.574-.31l.11.025-.002.005c.94.24 1.456.853 1.956 1.448.134.16.271.323.417.481.056.06.121.126.19.195.42.418 1.053 1.051.736 1.747-.29.641-1.126.635-1.74.623-.155-.002-.297-.004-.413.006-.273.024-.536.116-.813.213-.267.093-.544.19-.842.23a4.14 4.14 0 0 1-.532.032" fill="#5F3626"/>
        <path d="M53.263 109.506c-.512.261-1.226.08-1.785.176-.405.07-.797.258-1.19.371-.489.142-1.024.054-1.517-.019a5.516 5.516 0 0 1-1.288-.37c-.404-.167-.661-.475-1.02-.697-.21-.13-.5-.11-.733-.118-.345-.01-.488-.462-.237-.696.112-.105.242-.193.367-.283.332-.243.629-.47 1.03-.586.352-.1.727-.127 1.087-.186.88-.143 1.637-.825 2.547-.729.861.224 1.428.914 1.934 1.624.192.27 1.359 1.23.805 1.513" fill="#9E7459"/>
        <path d="M52.844 108.41c.042.23.037.497-.11.631-.184.165-.627.07-.86.082-.226.011-.432.076-.65.097-.337.034-.598-.159-.923-.179-.607-.04-1.068.5-1.669.264-.379-.149-1.032-.246-1.314-.549-.164-.177-.166-.467-.388-.61-.394-.252-.76-.108-.569-.623-.17.104-.33.222-.5.346-.125.091-.256.18-.369.284-.25.234-.107.685.238.696.234.007.524-.012.733.118.358.222.615.53 1.02.696.415.172.842.304 1.287.371.493.073 1.03.16 1.518.02.393-.114.786-.302 1.19-.372.558-.096 1.274.085 1.785-.176.38-.195-.05-.706-.419-1.096" fill="#7C5039"/>
        <path d="M57.45 111.205c-.452 0-.83-.042-1.029-.069-.584-.08-1.183-.22-1.6-.692-.416-.469-.268-1.153.115-1.542.47-.475 1.102-.754 1.66-.978.64-.26 1.184.084 1.623.36.098.06.195.121.293.175.104.045.256.086.414.13.412.116.878.246 1.131.611a1.01 1.01 0 0 1-.22 1.382c-.662.504-1.628.623-2.388.623" fill="#5F3626"/>
        <path d="M59.174 110.227c-.661.37-1.577.357-2.298.33-.654-.026-2.271-.425-1.277-1.372.285-.27.658-.44.997-.615.658-.337 1.028.101 1.578.427l.015.007a.182.182 0 0 0 .036.022c.255.126.525.205.79.303.177.066.36.145.496.293.226.246-.212.536-.337.605" fill="#9B7359"/>
        <path d="M59.168 109.396c-.012.196-.3.305-.476.392-.277.138-.509.351-.84.326-.14-.01-.265-.078-.405-.097-.189-.025-.383.037-.57 0-.193-.037-.33-.174-.5-.26-.143-.07-.268-.068-.42-.099-.36-.074-.378-.248-.333-.49-.008.006-.018.01-.026.017-.993.947.624 1.346 1.278 1.371.721.028 1.637.04 2.298-.329.125-.069.563-.359.336-.605a.972.972 0 0 0-.342-.226" fill="#7C5039"/>
        <path d="M72.395 110.818c-.35 0-.687-.077-1.013-.151-.187-.042-.374-.085-.562-.112a6.34 6.34 0 0 0-.776-.043c-.329-.004-.67-.01-1.015-.077-.118-.023-1.166-.246-1.53-.862a.827.827 0 0 1-.078-.684c.13-.404.591-.713.928-.94l.456-.315c.421-.292.82-.568 1.19-.891 1.098-.95 2.182-1.173 3.224-.665.601.293 1.184.677 1.78 1.076.55.37 1.236.832 1.531 1.53.12.283.115.585-.014.85-.148.306-.443.538-.81.638a3.981 3.981 0 0 1-.719.107 3.796 3.796 0 0 0-.606.086 11.6 11.6 0 0 0-.53.156c-.398.122-.808.248-1.249.288a2.406 2.406 0 0 1-.207.009" fill="#5F3626"/>
        <path d="M74.998 109.583c-.674.084-1.253.253-1.908.439-.959.272-1.873-.21-2.832-.215-.434-.002-.834.01-1.258-.108-.372-.104-1.165-.411-.717-.851.65-.637 1.486-1.063 2.165-1.669.81-.719 1.72-1.094 2.701-.438.36.24.743.447 1.11.678.471.299.938.623 1.325 1.03.16.169.294.362.336.593.08.444-.637.505-.922.541" fill="#A0775C"/>
        <path d="M74.743 107.75c.073.461.236.801-.331 1.055-.438.196-.96.023-1.425.055-.484.033-.978.366-1.456.294-.555-.083-.678-.562-1.278-.524-.213.014-.665.073-.837-.104-.156-.162-.11-.342-.055-.529-.379.263-.752.53-1.078.85-.448.441.346.748.718.851.423.12.823.106 1.257.11.96.004 1.874.486 2.832.214.654-.186 1.234-.355 1.909-.439.285-.036 1-.098.92-.54-.04-.232-.175-.426-.335-.594a5.526 5.526 0 0 0-.84-.699" fill="#7C5039"/>
        <path d="M80.424 110.222c-.233 0-.454-.042-.67-.083-.16-.03-.32-.062-.487-.073a2.55 2.55 0 0 0-.314 0c-.291.009-.624.022-.916-.147-.41-.24-.5-.562-.504-.79-.008-.613.602-1.22.99-1.46.389-.24.92-.573 1.56-.472.543.083 1.124.467 1.508.72l.014.01c.543.416.602.83.556 1.105-.079.47-.53.885-1.209 1.107a1.653 1.653 0 0 1-.528.083" fill="#5F3626"/>
        <path d="M79.979 109.501c-.487-.068-.902-.136-1.393-.152-.611-.02-.372-.643-.096-.932.196-.205.446-.35.685-.49.753-.442 1.418-.005 2.068.455.936.763-.72 1.195-1.264 1.12" fill="#A57D62"/>
        <path d="M81.302 108.439c-.078.211-.496.314-.658.368-.27.089-.547.234-.827.129-.197-.073-.31-.127-.526-.139-.23-.013-.448-.057-.59-.261-.085-.126-.05-.203.007-.299-.075.057-.153.112-.218.181-.276.288-.515.911.096.931.49.017.906.085 1.393.152.53.074 2.11-.335 1.323-1.062" fill="#7C5039"/>
        <path d="M90.384 110.277a1.41 1.41 0 0 1-.239-.02c-.514-.088-.947-.245-1.286-.467-.191-.126-.641-.42-.443-.97.118-.33.406-.53.638-.69.107-.074.2-.161.292-.247.178-.164.378-.35.661-.447.752-.263 1.408.122 1.835.433.074.053.166.1.26.152l.079.042c.219.12.624.342.649.8.03.568-.51.892-.982.997-.171.039-.338.106-.515.177-.282.114-.596.24-.949.24" fill="#5F3626"/>
        <path d="M92.04 109.104c-.1.045-.23.055-.324.072a3.75 3.75 0 0 0-.682.238c-.62.268-1.218.116-1.781-.2-.454-.254.307-.683.499-.857.323-.294.634-.54 1.095-.416.395.106.769.44 1.135.629.127.066.24.238.199.385a.235.235 0 0 1-.141.149" fill="#B08466"/>
        <path d="m91.981 108.57-.01-.006c-.045.089-.197.127-.279.154-.2.067-.409.085-.609.149-.257.081-.404.184-.664.096-.186-.064-.623-.134-.723-.329-.036-.07-.018-.157.011-.241-.238.19-.882.582-.454.822.563.315 1.16.467 1.78.199a3.76 3.76 0 0 1 .683-.238c.094-.017.224-.027.323-.072.067-.03.121-.076.141-.149.041-.147-.072-.319-.199-.385" fill="#7C5039"/>
        <path d="M40.633 109.675c-.424 0-.84-.082-1.164-.316-.307-.223-.355-.462-.34-.623.04-.422.532-.715.822-.853.718-.34 1.535-.3 2.18.104.438.273.465.631.41.883-.096.445-.56.583-.837.666a4.759 4.759 0 0 1-1.07.14" fill="#5F3626"/>
        <path d="M41.606 108.851c-.341.08-.682.143-1.032.117-.253-.018-1.168-.138-.622-.456.416-.243.825-.392 1.31-.249l.337.098c.069.022.136.046.203.074.346.137-.021.364-.196.416" fill="#B08466"/>
        <path d="M50.568 98.632c-.06.162-.228.417-.016.516.26.121.544.045.802-.028.237-.067.414-.17.581-.353.137-.15.317-.323.397-.511a.701.701 0 0 0 .051-.396c.22.219.342.428.2.735-.156.336-.48.58-.79.768-.286.175-.612.317-.952.331-.19.008-.477.001-.62-.146-.22-.223.028-.564.168-.753l.18-.163zM54.221 99.563c.213-.08 1.057-.636.445-.773-.249-.056-.479.026-.662.227-.058.063-.298.45-.272.542.035.13.401.037.489.004" fill="#98745E"/>
        <path d="M82.279 103.996c-.062-.111-.124-.21-.166-.28-.236-.392-.748-.753-1.202-.7-.32.037-.958.218-1.102.597-.13.34.175.263.414.47.262.228.33.45.706.594.343.132.933.226 1.293.166.423-.071.243-.513.057-.847M83.926 104.273c.077.08.15.143.192.175.196.141.668.366.87.132.254-.296-.038-.532-.222-.683-.127-.104-.198-.272-.323-.37-.164-.13-.817-.157-.878.163-.025.136.183.4.361.583" fill="#B88A6B"/>
        <path d="M70.29 100.42c.295.23.617.236.939.02.125-.083.302-.203.308-.37.482.538-.231 1.008-.77 1.057-.21.02-.357-.07-.528-.183-.223-.147-.626-.38-.656-.678-.034-.339.26-.627.563-.718-.121.037-.288.323-.272.442.025.19.284.326.417.43" fill="#98745E"/>
        <path d="M73.639 102.722c.519-1.15-1.146-1.315-.922-.273.046.212.828.482.922.273" fill="#B0856D"/>
        <path d="M58.223 104.052c-.06.137-.154.255.002.34.145.08.318.095.48.098.193.003.475-.147.52-.35.43.657-.85.65-1.193.44-.226-.14-.03-.33.107-.457l.084-.07zM67.495 91.13c-.289.34.141.62.401.787.191.123.392.163.616.19.167.02.428.078.596.044.14-.028.208-.227.187-.356.088.202.354.565.104.738-.267.184-.662.133-.958.067-.286-.064-.497-.162-.705-.369-.153-.152-.402-.304-.46-.522a.521.521 0 0 1 .22-.58" fill="#98745E"/>
        <path d="M49.711 107.643c.042-.214-.295-.329-.421-.382-.222-.093-.46-.146-.687-.042a.82.82 0 0 0-.251.181c-.097.095-.256.17-.328.29-.147.248.094.296.275.324.193.03.385.026.579.034.123.004.249.037.368-.009.127-.048.434-.239.465-.396M44.39 104.3c.227.171.91.013 1.102-.187.212-.222.03-.464-.208-.517a.704.704 0 0 0-.6.172c-.144.136-.532.355-.295.532M72.793 108.041c.171.144.352.27.569.295.158.02.453.033.542-.15.081-.169-.03-.465-.127-.597-.145-.195-.328-.198-.537-.203-.171-.004-.707-.034-.806.17-.092.187.257.4.359.485" fill="#B88A6B"/>
        <path d="M56.257 106.317c.292-.083.7-.507.557-.823-.139-.31-.561-.363-.789-.122-.129.137-.612.459-.531.669.079.207.578.328.763.276M57.676 106.216c.19-.046.426-.36.233-.513-.116-.092-.3-.06-.4.032-.197.177-.16.56.167.48" fill="#98745E"/>
        <path d="M63.426 107.086c.091-.09.245-.177.212-.318-.024-.105-.17-.197-.25-.257-.314-.234-.885-.04-.938.377-.027.207.193.257.342.32.071.032.186.14.26.147.13.013.294-.19.374-.27M64.595 107.211c.198-.25-.318-.397-.482-.302-.087.05-.211.148-.21.26.003.132.14.113.248.118.144.006.343.052.444-.076M75.683 106.34c-.01.187.424.265.56.322.325.135.543-.035.76-.297.087-.105.134-.17.033-.276a.988.988 0 0 0-.297-.19c-.212-.09-.422-.054-.614.061-.143.085-.432.187-.442.38" fill="#7C5039"/>
        <path d="M74.132 105.89c.23-.097.248-.287.06-.427a.977.977 0 0 0-.57-.178c-.118 0-.356-.02-.454.066-.19.164.076.31.184.394.099.076.175.21.3.244.144.04.349-.045.48-.1M74.658 105.834c-.099.111-.084.225.061.282.14.056.255-.01.361-.113.104-.099-.002-.193-.095-.239-.128-.063-.232-.037-.327.07M81.8 101.467c.478-.3-.27-.846-.558-.981-.51-.237-1.005.028-1.404.355-.277.229-.727.525-.221.722.292.115.684.385.998.37.248-.012.484-.157.702-.26.153-.072.34-.116.483-.206M78.732 100.883c-.07-.18-.505-.265-.669-.28-.272-.026-.435.194-.583.411-.168.246.062.316.267.391.247.09 1.15-.108.985-.522M48.011 104.074c.281-.217.231-.517-.085-.677-.31-.158-.625-.007-.872.196-.182.148-.49.268-.304.46.107.11.41.237.561.278.29.08.474-.083.7-.257M48.053 105.108c.196.074.742.087.706-.243-.027-.24-.402-.306-.58-.237-.202.079-.427.366-.126.48M63.977 99.916c.379-.368.41-.663-.088-.976a1.05 1.05 0 0 0-1.156-.01c-.192.116-.733.57-.637.822.083.22.749.381.935.451.459.174.582.066.946-.287M76.354 98.384c.174-.383-.263-.42-.486-.554-.275-.163-.531-.409-.878-.33-.3.066-1.214.615-.843 1.03.115.126.365.182.516.252.18.082.352.203.537.271.453.165.973-.272 1.154-.669M76.861 97.613c.43.18.868-.407.375-.645-.234-.113-.929-.197-.916.23.006.173.402.357.541.415M61.122 93.05c.234-.272.385-.734.04-.984-.355-.257-.997.008-1.389.023-.494.018-.929.057-1.319.405-.145.13-.817.9-.713 1.113.068.136 1.185.221 1.386.273.75.195 1.507-.265 1.995-.83M63.018 91.604c.47.205 1.254-.148 1.577-.487.345-.361.491-1.015-.166-1.018-.546-.002-.854.37-1.183.78-.224.277-.622.553-.228.725M66.293 89.954c.034.281 1.302.361 1.576.361.328 0 1.18-.024 1.07-.555-.05-.24-.614-.561-.818-.645-.355-.148-1.892.31-1.828.839M54.832 96.793c.485-.612-.117-.736-.6-.843-.539-.119-.985-.07-1.314.43-.117.177-.362.633-.306.851.104.401.751.301 1.048.348.2.032.283.095.467 0 .266-.137.523-.556.705-.786M67.32 101.708c.64-.515.216-1.092-.473-.982-.44.07-1.164.288-1.442.67-.128.177-.537.817-.416 1.029.18.319.947.05 1.209.004.496-.09.727-.404 1.122-.721M67.719 100.534c.234.104.739-.068.85-.303.209-.442-.578-.247-.746-.121-.136.102-.358.31-.104.424" fill="#E8BB9C"/>
        <path d="M52.72 103.515c.22-.15.602-.324.27-.544-.313-.206-.745-.465-1.105-.194-.256.193-.464.414-.134.61.268.16.7.311.97.128M51.292 103.406c-.082-.3-.912-.031-.753.274.062.119.438.136.556.088.111-.045.23-.242.197-.362M66.002 97.179c.36.062.716.175 1.073.026.273-.114.62-.466.36-.757-.435-.49-1.64-.166-1.966.305-.284.41.188.367.533.426M84.33 106.106c.351-.096.496-.304.169-.525-.325-.219-.827-.328-1.168-.09-.29.202-.215.34.024.431.274.106.678.266.975.184M70.434 104.496c.12-.333-.21-.418-.475-.457-.325-.048-.77-.215-1.034.018-.455.399-.003.572.354.772.382.213.983.147 1.155-.333M71.463 104.882c.514-.209-.038-.749-.36-.406-.27.29.06.529.36.406" fill="#7C5039"/>
        <path d="M52.026 108.623c.15-.059.41-.15.316-.35-.088-.19-.399-.393-.61-.38-.193.012-.563.212-.694.355-.305.331.797.45.988.375M51.636 107.423c.038-.125-.128-.209-.221-.229-.152-.033-.252.029-.343.149-.201.268.482.351.564.08" fill="#E8BB9C"/>
        <path d="M57.418 109.162c.426-.172-.213-.563-.443-.538-.168.018-.315.185-.396.325-.106.185.097.206.26.23.168.023.415.05.579-.017" fill="#B08466"/>
        <path d="M59.457 101.564c.147-.202-.301-.263-.423-.204-.171.083-.241.256-.004.297.128.022.34.025.427-.093" fill="#7C5039"/>
        <path d="M59.876 101.293c.079.092.27-.027.18-.133-.071-.085-.274.024-.18.133" fill="#7C4737"/>
        <path d="M46.347 106.093c.172-.101-.01-.294-.11-.377a.782.782 0 0 0-.474-.184c-.108-.002-.181.074-.254.144-.04.038-.18.144-.187.202-.014.12.343.174.437.202.173.052.418.113.588.013M47.15 106.364c.045-.136-.252-.296-.357-.187-.09.092.014.208.1.255.09.049.218.057.258-.068" fill="#5F3626"/>
        <path d="M65.9 104.29c.71-.416-.33-.796-.707-.344-.15.18-.217.271.044.343.172.048.511.09.663.001" fill="#7C5039"/>
        <path d="M60.995 96.704c.132-.018.423-.044.423-.044l.15.52.722.282.626-.432.484-.66.59-.406h.397l.123 2.017-1.5.15-1.363.194-.599-.273-.053-1.348z" fill="#B08466"/>
        <path d="M63.865 97.546c.261.082 1.098.093 1.06-.375-.034-.425-.745-.22-.952-.105-.212.118-.48.363-.108.48" fill="#7C5039"/>
        <path d="M61.195 96.734c.02.08.127.163.11.299-.018.135.072.253.169.362.26.294.734.274 1.074.129.33-.143.54-.38.77-.644.288-.332.707-.861 1.158-.778.307.056.459-.23.15-.287a1.735 1.735 0 0 0-1.386.35c-.287.23-.464.583-.768.793a.654.654 0 0 1-.47.105c-.147-.02-.305-.096-.342-.141l-.012-.277s-.025-.066-.071-.121a.527.527 0 0 0-.411-.182c-.314-.005-.284.18-.11.272.047.024.119.039.139.12" fill="#5F3626"/>
        <path d="M68.017 96.077c.132-.018.567-.213.567-.213l1.111.698.657.032.44-.045.308.086-.385 1.183-1.533.109-.784-.503-.562-.7.181-.647z" fill="#B08466"/>
        <path d="M71.52 96.714c-.12-.197-.544-.369-.947-.397-.252-.018-.529.043-.76-.009a1.91 1.91 0 0 1-1.064-.656c-.04-.019-.098-.054-.213-.05-.197.02-.456.305-.66.35-.206.043-.226.27.087.282.205.008.367-.088.56-.136.134-.033.197.071.296.16.256.23.513.53.857.606.264.06.614-.01.88-.008.355.003.54-.152.822.057.105.08.237.277.36.251.14-.03-.06-.218-.103-.264-.043-.045-.07-.109-.116-.186" fill="#5F3626"/>
        <path d="M65.117 90.741s2.835-6.757 13.86-1.882c11.027 4.875 22.526-6.15 16.698-17.02" stroke="#525200" stroke-width="2"/>
        <path d="M65.117 90.741s2.835-6.757 13.86-1.882c11.027 4.875 22.526-6.15 16.698-17.02" stroke="#E2D600" stroke-width=".5"/>
        <path d="M63.469 90.423s9.894-11.435 28.145 13.912" stroke="#525200" stroke-width="2"/>
        <path d="M63.469 90.423s9.894-11.435 28.145 13.912" stroke="#E2D600" stroke-width=".5"/>
        <path d="M48.683 51.25s7.43.484 8.183 10.083" stroke="#525200" stroke-width="2"/>
        <path d="M65.17 56.375S45.3 53.694 64.129 92.903" stroke="#525200" stroke-width="2"/>
        <path d="M65.17 56.375S45.3 53.694 64.129 92.903" stroke="#E2D600" stroke-width=".5"/>
        <path d="M48.683 51.25s7.43.484 8.183 10.083" stroke="#E2D600" stroke-width=".5"/>
        <path d="m79.614 66.157-2.587-.775a109.687 109.687 0 0 0-7.972-1.995c-4.909-1.032-8.775-4.907-8.826-7.553-.022-1.166.465-1.765.876-2.062a2.179 2.179 0 0 1 1.242-.395c.169-.718.535-1.63 1.328-2.333.919-.812 2.15-1.124 3.662-.927 4.697.614 7.948 4.64 8.72 8.294.686 3.242 2.085 5.45 2.1 5.472l1.457 2.274z" fill="#525200"/>
        <path d="M77.315 64.424s-3.573-1.073-8.054-2.016c-4.485-.942-7.992-4.526-8.031-6.593-.037-1.958 1.765-1.373 1.959-1.305l.015.006s-.03-3.933 4.004-3.408c4.03.53 7.135 4.026 7.87 7.51.738 3.483 2.237 5.806 2.237 5.806" fill="#AACB17"/>
        <path d="M77.315 64.424s-7.371-7.146-14.111-9.908c0 0-.03-3.933 4.004-3.408 4.03.53 7.135 4.026 7.87 7.51.738 3.483 2.237 5.806 2.237 5.806" fill="#96AF09"/>
        <path d="m32.774 66.942.245-2.635c.23-1.84 1.39-9.216 5.721-14.374 2.66-3.17 5.79-4.422 8.372-3.35a4.248 4.248 0 0 1 2.538 2.955c.886-.164 2.041-.078 3.073.962.364.37.748 1.058.521 2.26-.522 2.765-4.138 7.197-8.492 9.138-2.625 1.17-4.967 1.844-6.848 2.386-1.354.39-2.888.831-3.158 1.16l-1.972 1.498z" fill="#525200"/>
        <path d="M33.968 64.818s0-.004.005-.008c.922-1.125 5.186-1.513 10.373-3.825 5.195-2.315 9.1-8.327 7.667-9.78-1.197-1.207-2.658-.601-3.115-.367a2.911 2.911 0 0 0-.14.08c.313-3.567-4.519-5.978-9.252-.341-4.733 5.636-5.538 14.24-5.538 14.24" fill="#AACC17"/>
        <path d="M33.968 64.818s0-.004.005-.008c.922-1.125 5.186-1.513 10.373-3.825 5.195-2.315 9.1-8.327 7.667-9.78-1.197-1.207-2.658-.601-3.115-.367a2.911 2.911 0 0 0-.14.08c.313-3.567-4.519-5.978-9.252-.341-4.733 5.636-5.538 14.24-5.538 14.24" fill="#CAD200"/>
        <path d="M33.968 64.818s0-.004.005-.008c.169-.26 5.704-8.646 14.785-13.892.313-3.567-4.519-5.978-9.252-.341-4.733 5.636-5.538 14.24-5.538 14.24" fill="#B1B100"/>
        <path d="M41.756 84.382s4.367.167 7.379 5.131" stroke="#525200" stroke-width="2"/>
        <path d="M41.756 84.382s4.367.167 7.379 5.131" stroke="#E2D600" stroke-width=".5"/>
        <path d="m26.562 103.06.991-2.396c.415-.865 2.045-4.39 2.114-8.293.081-4.587 2.102-10.116 7.412-11.886 1.596-.531 2.92-.414 3.934.35 1.06.799 1.47 2.096 1.624 3.085.944-.122 2.043.067 2.771 1.1.725 1.03.551 3.08.147 4.657-.435 1.698-1.93 5.885-6.402 8.075-2.874 1.405-5.03 2.024-6.605 2.477-1.407.404-2.26.64-3.185 1.205l-2.8 1.627z" fill="#525200"/>
        <path d="M28.28 101.151c1.995-1.984 4.583-1.437 10.433-4.298 5.854-2.867 6.823-9.914 5.878-11.257-.946-1.344-2.865-.376-2.865-.376s.225-5.304-4.33-3.787c-4.56 1.519-6.625 6.277-6.73 10.959-.095 4.539-2.25 8.509-2.382 8.753.002.005.002.005-.003.006" fill="#CAD200"/>
        <path d="M28.284 101.145c.239-.359 6.696-10.011 13.442-15.925 0 0 .225-5.304-4.33-3.787-4.56 1.519-6.625 6.277-6.73 10.959-.095 4.539-2.25 8.509-2.382 8.753" fill="#B1B100"/>
        <path d="M28.28 101.151c1.995-1.984 4.583-1.437 10.433-4.298 5.854-2.867 6.823-9.914 5.878-11.257-.946-1.344-2.865-.376-2.865-.376s.225-5.304-4.33-3.787c-4.56 1.519-6.625 6.277-6.73 10.959-.095 4.539-2.25 8.509-2.382 8.753.002.005.002.005-.003.006" fill="#6C8409" opacity=".55"/>
        <path d="M77.844 80.44s-1.47 2.362.572 5.408c2.043 3.047 5.422 3.419 5.422 3.419" stroke="#525200" stroke-width="2"/>
        <path d="M77.844 80.44s-1.47 2.362.572 5.408c2.043 3.047 5.422 3.419 5.422 3.419" stroke="#E2D600" stroke-width=".5"/>
        <path d="M80.218 87.623c-1.623-.353-2.681-1.45-3.24-2.432-1.564.022-3.51-.591-4.754-2.14-1.046-1.301-1.94-3.728-.25-7.898 3.156-7.798 14.104-8.554 14.569-8.582l.807-.05.217.78c2.195 7.913.737 18.667-4.367 20.153-1.151.335-2.142.352-2.982.169" fill="#525200"/>
        <path d="M77.59 84.136c-2.334.395-7.646-1.308-4.69-8.607 2.956-7.304 13.703-7.96 13.703-7.96 2.253 8.12.4 17.736-3.683 18.925-4.086 1.189-5.33-2.358-5.33-2.358" fill="#B1B100"/>
        <path d="M77.59 84.136s2.916-9.355 9.013-16.567c2.253 8.12.4 17.736-3.683 18.925-4.086 1.189-5.33-2.358-5.33-2.358" fill="#CAD200"/>
        <path d="M77.59 84.136c-2.334.395-7.646-1.308-4.69-8.607 2.956-7.304 13.703-7.96 13.703-7.96 2.253 8.12.4 17.736-3.683 18.925-4.086 1.189-5.33-2.358-5.33-2.358" fill="#6C8409" opacity=".5"/>
        <path d="M93.447 80.599c-1.4.358-3.432.219-6.12-1.583-6.822-4.581-6.997-14.476-7.002-14.895l-.005-.51.409-.302c.178-.132 4.42-3.233 9.82-2.7 5.366.537 10.57 5.899 10.125 10.433-.138 1.434-.69 2.5-1.64 3.166-.64.45-1.344.628-1.961.68.224 1.692-.388 3.539-1.67 4.68a4.699 4.699 0 0 1-1.956 1.03" fill="#525200"/>
        <path d="M81.325 64.111s4.049-3.01 9.124-2.507c5.078.507 9.602 5.545 9.23 9.34-.364 3.79-3.97 2.858-3.97 2.858 1.56 3.033-1.357 8.72-7.825 4.383-6.463-4.34-6.56-14.074-6.56-14.074" fill="#B1B100"/>
        <path d="M81.325 64.111s4.049-3.01 9.124-2.507c5.078.507 9.602 5.545 9.23 9.34-.364 3.79-3.97 2.858-3.97 2.858-4.474-6.67-14.384-9.69-14.384-9.69" fill="#CAD200"/>
        <path d="M82.82 98.025c-4.075-1.307-7.739-4.902-8.484-7.323-.335-1.088-.047-1.772.254-2.154.663-.838 1.596-1.257 2.625-1.216a3.897 3.897 0 0 1 2-2.85c2.226-1.23 5.176-.425 7.888 2.155 4.348 4.136 6.133 10.352 6.533 12.206l.428 2.48-1.538-.903c-.734-.442-2.186-.749-3.34-.945-1.727-.294-3.878-.66-6.332-1.439-.01-.004-.023-.007-.034-.01" fill="#525200"/>
        <path d="m92.75 99.45-.005-.005c-.932-.907-4.754-.826-9.588-2.361-4.841-1.537-8.908-6.484-7.78-7.917.942-1.191 2.3-.8 2.728-.636.043.016.087.037.132.057-.634-3.135 3.415-5.757 8.177-1.225 4.762 4.53 6.335 12.088 6.335 12.088" fill="#CAD200"/>
        <path d="m92.75 99.45-.005-.005c-.176-.214-5.925-7.106-14.508-10.857-.634-3.135 3.415-5.757 8.177-1.225 4.762 4.53 6.335 12.088 6.335 12.088" fill="#B1B100"/>
        <path d="m92.75 99.45-.005-.005c-.932-.907-4.754-.826-9.588-2.361-4.841-1.537-8.908-6.484-7.78-7.917.942-1.191 2.3-.8 2.728-.636.043.016.087.037.132.057-.634-3.135 3.415-5.757 8.177-1.225 4.762 4.53 6.335 12.088 6.335 12.088" fill="#6C8409" opacity=".25"/>
        <path d="M93.199 109.169a13.356 13.356 0 0 1-4.197-1.16c-1.474-.688-3.168-1.857-3.503-3.071-.336-1.218.217-2.188.909-2.84-.665-.748-1.407-1.888-1.351-3.213.054-1.27.804-2.366 2.228-3.261 4.74-2.977 10.282-1.011 13.888 1.823 3.09 2.434 7.462 3.596 8.224 3.757l2.709.754-2.695.679c-1.438.378-2.615 1.075-3.998 2.027-1.35.929-3.197 2.2-6.107 3.528-2.204 1.003-4.326 1.163-6.107.977" fill="#525200"/>
        <path d="M108.836 101.954c-2.8.28-4.02 2.626-9.946 5.328-5.932 2.7-11.991-1.027-12.428-2.611-.437-1.584 1.53-2.451 1.53-2.451s-4.24-3.195-.175-5.75c4.069-2.556 9.056-1.13 12.738 1.764 3.567 2.809 8.002 3.667 8.274 3.719.003.004.003.004.007 0" fill="#AACB17"/>
        <path d="M108.83 101.952c-.43-.043-11.986-1.187-20.839.268 0 0-4.24-3.196-.174-5.75 4.07-2.557 9.056-1.13 12.737 1.763 3.568 2.81 8.002 3.667 8.275 3.72" fill="#96AF09"/>
        <path d="M63.995 76.613s-2.012 5.146 3.614 8.883" stroke="#525200" stroke-width="2"/>
        <path d="M63.995 76.613s-2.012 5.146 3.614 8.883" stroke="#E2D600" stroke-width=".5"/>
        <path d="M65.441 82.482c-1.358-.364-2.44-.946-3.064-1.692-.854-1.024-.854-1.893-.703-2.44.164-.599.555-1.034.958-1.339-.403-.794-.812-1.98-.588-3.283.243-1.417 1.148-2.61 2.691-3.55C69.63 67.202 75.727 68.54 79.22 71.4c3.19 2.612 6.268 3.663 6.3 3.674l2.4.86-2.343 1.015c-.042.017-4.276 1.737-9.2 4.233-3.655 1.853-7.955 2.101-10.935 1.301" fill="#525200"/>
        <path d="M85.201 76.021s-4.253 1.721-9.277 4.268c-5.026 2.55-11.149 1.811-12.779-.14-1.542-1.849.637-2.676.875-2.76l.019-.006s-3.056-3.75 1.216-6.35c4.272-2.597 9.943-1.634 13.331 1.14s6.615 3.848 6.615 3.848" fill="#CAD200"/>
        <path d="M85.201 76.021s-12.572-1.178-21.162 1.362c0 0-3.056-3.75 1.216-6.35 4.272-2.597 9.943-1.634 13.331 1.14s6.615 3.848 6.615 3.848" fill="#B1B100"/>
        <path d="M97.05 89.309s-3.6 2.235-5.676-.984" stroke="#525200" stroke-width="2"/>
        <path d="M97.05 89.309s-3.6 2.235-5.676-.984" stroke="#E2D600" stroke-width=".5"/>
        <path d="M97.932 96.096c-1.003-.266-1.88-.725-2.562-1.375-1.115-1.064-1.493-2.477-1.087-3.963-.579-.52-1.362-1.429-1.598-2.668-.216-1.138.077-2.272.87-3.368 2.327-3.216 6.27-4.415 11.101-3.379.54.116 1.071.235 1.593.352 3.255.726 6.56 1.49 8.416.24l1.966-1.553-1.215 3.02c-.138.342-3.455 8.443-9.672 11.564-2.697 1.355-5.568 1.725-7.812 1.13" fill="#525200"/>
        <path d="M94.365 85.308c-2.18 3.013 1.1 5.11 1.1 5.11-1.799 4.04 3.88 6.643 9.83 3.655 5.951-2.988 9.193-11.045 9.193-11.045-1.956 1.315-5.792.205-10.042-.707-4.25-.912-7.898-.029-10.08 2.987" fill="#B1B100"/>
        <path d="M95.465 90.418c-1.798 4.04 3.88 6.644 9.83 3.655 5.95-2.988 9.194-11.045 9.194-11.045s-6.96 7.234-19.024 7.39" fill="#CAD200"/>
        <path d="M94.365 85.308c-2.18 3.013 1.1 5.11 1.1 5.11-1.799 4.04 3.88 6.643 9.83 3.655 5.951-2.988 9.193-11.045 9.193-11.045-1.956 1.315-5.792.205-10.042-.707-4.25-.912-7.898-.029-10.08 2.987" fill="#6C8409" opacity=".3"/>
        <path d="M52.81 93.455s-4.068-2.056-2.567-6.403c1.501-4.347 14.935-6.379 22.968 5.198" stroke="#525200" stroke-width="2"/>
        <path d="M52.81 93.455s-4.068-2.056-2.567-6.403c1.501-4.347 14.935-6.379 22.968 5.198" stroke="#E2D600" stroke-width=".5"/>
        <path d="M55.247 74.703s3.502 1.974 2.349 8.458" stroke="#525200" stroke-width="2"/>
        <path d="M55.247 74.703s3.646 1.916 2.292 8.775" stroke="#E2D600" stroke-width=".5"/>
        <path d="M49.968 81.626c-2.11.376-5.166.41-8.222-1.363-2.767-1.606-4.482-3.053-5.734-4.109-1.29-1.088-1.953-1.609-3.271-2.19l-2.89-1.326 2.899-.38c.857-.09 4.875-.753 8.189-2.87 3.867-2.468 9.574-3.883 14-.455 1.329 1.03 1.968 2.195 1.897 3.463-.074 1.325-.923 2.387-1.66 3.066.626.717 1.082 1.736.628 2.915-.452 1.176-2.254 2.173-3.788 2.714-.48.17-1.185.381-2.048.535" fill="#525200"/>
        <path d="M32.871 73.122c2.758.552 3.743 3.007 9.376 6.277 5.64 3.268 12.034.153 12.624-1.381.59-1.533-1.282-2.59-1.282-2.59s4.533-2.764.737-5.704c-3.799-2.943-8.902-2.012-12.849.507-3.826 2.446-8.323 2.865-8.599 2.89-.003.004-.003.004-.007 0" fill="#AACB17"/>
        <path d="M32.878 73.121c.43-.001 12.044-.007 20.71 2.308 0 0 4.534-2.765.738-5.705-3.8-2.943-8.901-2.012-12.85.507-3.824 2.446-8.322 2.865-8.598 2.89" fill="#96AF09"/>
        <path d="M61.104 93.441s-4.477-5.387-13.033 1.34c-3.462 2.721-3.245 14.06-10.87 8.814" stroke="#525200" stroke-width="2"/>
        <path d="M61.104 93.441s-4.477-5.387-13.033 1.34c-3.462 2.721-3.245 14.06-10.87 8.814" stroke="#E2D600" stroke-width=".5"/>
        <path d="m45.9 104.757.17-2.233c.08-1.117-.093-2.312-.277-3.369-.227-1.305-.537-3.093-.529-5.682.015-4.087 2.568-6.688 3.665-7.617 1.031-.873 2.508-1.744 3.58-1.572 1.011.165 1.572.854 1.858 1.575.79-.215 1.836-.324 2.771.155.666.342 1.51 1.118 1.74 2.873.596 4.564-2.763 8.022-6.104 9.735-2.734 1.4-4.57 3.712-5.179 4.34l-1.695 1.795z" fill="#525200"/>
        <path d="M46.816 102.534c.736-2.139-.568-3.82-.552-9.058.02-5.242 4.78-8.417 6.083-8.205 1.305.213 1.278 1.941 1.278 1.941s3.76-2.024 4.26 1.804c.501 3.833-2.216 6.998-5.568 8.716-3.25 1.664-5.368 4.616-5.498 4.798-.003 0-.003 0-.003.004" fill="#B1B100"/>
        <path d="M46.82 102.53c.175-.299 4.893-8.36 6.804-15.317 0 0 3.76-2.025 4.261 1.804.502 3.832-2.217 6.997-5.568 8.716-3.252 1.663-5.367 4.615-5.497 4.797" fill="#CAD200"/>
        <path d="M46.816 102.534c.736-2.139-.568-3.82-.552-9.058.02-5.242 4.78-8.417 6.083-8.205 1.305.213 1.278 1.941 1.278 1.941s3.76-2.024 4.26 1.804c.501 3.833-2.216 6.998-5.568 8.716-3.25 1.664-5.368 4.616-5.498 4.798-.003 0-.003 0-.003.004" fill="#6C8409" opacity=".25"/>
        <path d="M35.913 107.96c-2.792 1-6.701-.145-9.823-2.957-5.431-4.893-6.54-14.028-6.585-14.414l-.372-3.233 1.618 2.172c1.5 1.64 4.966 1.773 8.487 1.943.563.027 1.137.055 1.718.088 5.176.292 8.83 2.598 10.289 6.493.495 1.321.477 2.54-.053 3.622-.58 1.182-1.648 1.886-2.373 2.251.009 1.62-.76 2.947-2.182 3.714a5.342 5.342 0 0 1-.724.321" fill="#525200"/>
        <path d="M40.308 98.403c1.375 3.669-2.542 4.885-2.542 4.885.7 4.605-5.794 5.668-11.007.972-5.213-4.695-6.26-13.785-6.26-13.785 1.62 1.88 5.827 1.824 10.4 2.082 4.572.259 8.033 2.173 9.409 5.846" fill="#B1B100"/>
        <path d="M37.766 103.287c.7 4.606-5.794 5.668-11.007.972-5.213-4.695-6.26-13.785-6.26-13.785s5.053 9.291 17.267 12.813" fill="#CAD200"/>
        <path d="M78.707 107.534c-.627-.569-2.572-1.467-4.218-2.1-2.142-.827-4.809-1.855-7.752-3.49-4.852-2.694-8.592-8.19-8.914-11.439-.134-1.355.35-2.075.78-2.44 1.33-1.124 2.721-1.036 3.703-.729a4.817 4.817 0 0 1 3.212-3.249c3.057-.965 6.52.8 9.262 4.72 4.54 6.483 5.071 15.255 5.143 17.361l-.028 2.63-1.188-1.264z" fill="#525200"/>
        <path d="M78.98 106.627s0-.005-.005-.009c-.964-1.413-5.916-2.306-11.752-5.548-5.845-3.246-9.8-10.689-7.972-12.244 1.527-1.29 3.176-.43 3.686-.108.052.033.104.071.156.108 0-4.21 5.907-6.535 10.869.553 4.96 7.088 5.018 17.248 5.018 17.248" fill="#AACB17"/>
        <path d="M78.98 106.627s0-.005-.005-.009c-.17-.322-5.788-10.713-15.882-17.792 0-4.21 5.907-6.535 10.869.553 4.96 7.088 5.018 17.248 5.018 17.248" fill="#96AF09"/>
    </g>
</svg>
