<svg width="130" height="118" viewBox="0 0 130 118" xmlns="http://www.w3.org/2000/svg">
    <g fill="none" fill-rule="evenodd">
        <path d="M0 118h130V0H0z"/>
        <path d="M63.042 109.96c-.925 0-1.852-.104-2.674-.197-1.131-.13-2.07-.18-2.951-.151l-.533.017c-.754.027-1.534.055-2.313-.018-.633-.06-1.22-.215-1.786-.365-.33-.087-.661-.175-1.002-.244-.592-.118-1.22-.136-1.974-.054-.734.078-1.597.113-2.447-.224a9.515 9.515 0 0 1-1.042-.512c-.29-.156-.578-.314-.882-.44-.42-.172-.911-.188-1.432-.205-.622-.02-1.265-.041-1.885-.325-.566-.26-.94-.708-1.052-1.264-.127-.631.1-1.337.608-1.887.522-.566 1.168-1.015 1.686-1.376.31-.215.553-.502.809-.807.229-.27.465-.55.765-.802.15-.125.295-.254.439-.382.483-.43.983-.875 1.638-1.176.454-.21.758-.54 1.11-.922a8.59 8.59 0 0 1 .6-.61c.417-.376.794-.63 1.187-.797.21-.09.417-.118.599-.142.16-.022.298-.041.384-.094.167-.102.277-.36.395-.632.109-.255.223-.52.413-.75.446-.543.962-.914 1.577-1.134.54-.195 1.032-.146 1.464-.021.187-.333.433-.695.736-1.081.322-.41.77-.9 1.262-1.375 1.06-1.027 2.104-1.268 3.345-1.315.74-.028 1.34-.14 1.858-.587.097-.084.194-.173.29-.263.342-.315.728-.673 1.208-.882.392-.17.868-.22 1.328-.267.233-.025.458-.047.646-.088.268-.06.469-.166.702-.29.237-.127.506-.27.86-.364 1.17-.311 2.178-.048 3.17.826.248.22.488.449.727.677.162.155.324.31.489.462.28.257.489.535.69.804.132.173.26.347.413.512.35.453.74.668 1.153.897.57.316 1.218.675 1.46 1.58l.08.323c.144.585.218.832.61 1.073.395.242.923.38 1.435.515l.387.104c.827.258 1.376.65 1.69 1.205.17.295.267.597.36.889.08.246.155.479.266.679.249.45.509.478 1.077.536.158.016.323.034.494.062.603.1 1.188.415 1.565.842.447.507.819.996 1.108 1.455.055.088.11.185.165.285.11.196.224.398.34.508.234.222.389.256.81.305 1.538.178 2.003 1.14 2.38 2.197.166.466.466.719.88 1.068l.268.227c.739.646.838 1.229.79 1.605-.178 1.433-2.007 1.653-2.608 1.725a8.054 8.054 0 0 1-1.68.035l-.224-.02c-.416-.038-.808-.075-1.167-.012-.258.046-.51.114-.762.18-.177.046-.353.093-.531.133-1.11.254-2.137.056-3.132-.137-.731-.141-1.422-.273-2.128-.234-1.075.062-2.043.12-3.001.228-.367.04-.736.106-1.104.17-.553.097-1.124.197-1.701.223-.893.044-1.756-.072-2.591-.182-1.045-.137-2.032-.266-3.043-.11-.247.039-.493.083-.74.127-.701.124-1.427.253-2.175.263h-.156" fill="#5F3626"/>
        <path d="M80.438 107.143c.041-.595-.2-1.045-.534-1.52-.409-.581-.645-1.205-.953-1.841-.458-.943-1.172-1.533-2.12-1.978-.64-.3-1.22-.42-1.82-.811-.616-.402-1.202-.738-1.683-1.296-.337-.391-.728-1.148-1.228-1.35-.3-.12-.583-.137-.906-.146-.454-.014-.796-.303-1.244-.287-.619.022-1.02.64-1.48.963-.7.489-1.409.743-2.212 1-.627.2-1.14.46-1.569.967-.309.365-.496.856-.956 1.038-.49.194-1.012.146-1.36-.281-.29-.355-.513-.797-.956-.99-.479-.21-1-.25-1.5-.394-.806-.233-1.004-.947-1.295-1.635-.428-1.013-1.346-1.868-2.276-2.407-.35-.202-.862-.503-.767-.96.1-.48.482-.835.781-1.2.37-.45.776-1.084 1.196-1.49 1.05-1.018 2.205-.801 3.526-1.013 1.252-.202 1.81-1.296 2.902-1.773.492-.215 1.145-.088 1.66-.227.632-.171 1.13-.608 1.782-.731 1.102-.208 1.95.637 2.657 1.319.374.36.861.648 1.162 1.074.33.467.66 1.07 1.145 1.377.507.32 1.035.539 1.435 1.005.373.436.328 1.17.662 1.66.583.857 1.827 1.11 2.766 1.374.954.298 1.203.747 1.491 1.622.216.659.593 1.475 1.263 1.709.303.105.647.09.962.095.464.007.83.135 1.201.412.58.434.86 1.239 1.251 1.827.324.486.811 1.037 1.414 1.156.44.086.9.052 1.293.294.326.202.457.624.572.965.182.544.334 1.03.757 1.436.343.329 1.392.867 1.22 1.45-.13.439-.979.7-1.338.764-.562.099-1.177-.038-1.744-.081-.662-.051-1.329-.057-1.986.056-.55.095-1.215.28-1.757.074-.537-.204-1.568-.413-1.465-.951l.051-.275z" fill="#B08466"/>
        <path d="M87.457 106.106c-.423-.406-.575-.893-.758-1.436-.114-.341-.245-.764-.57-.965-.394-.243-.856-.208-1.294-.294-.603-.12-1.09-.671-1.414-1.156-.392-.588-.672-1.394-1.252-1.827a1.942 1.942 0 0 0-1.2-.413c-.315-.005-.66.01-.962-.095-.67-.234-1.047-1.05-1.264-1.708-.18-.553-.349-.935-.687-1.217-.33.448-.106.823-.252 1.306-.256.85-1.288 1.29-2.182 1.524-1.032.269-2.02-.735-3.045-1.098.283.31.53.714.75.969.482.559 1.068.895 1.683 1.297.6.39 1.181.51 1.82.81.95.446 1.663 1.036 2.12 1.979.31.636.545 1.26.954 1.842.333.474.575.924.534 1.519l-.05.275c-.104.537.927.747 1.464.95.542.206 1.207.022 1.756-.073.657-.113 1.325-.107 1.987-.056.567.043 1.182.18 1.743.08.36-.063 1.208-.325 1.338-.764.172-.582-.876-1.12-1.219-1.45" fill="#9C6F54"/>
        <path d="M87.457 106.106c-.423-.406-.575-.893-.758-1.436a8.824 8.824 0 0 0-.088-.257c.034.297.052.638-.07.869-.18.342-.578.42-.747.788-.173.375-.015.825-.545.99-.455.143-.383-.087-.707-.31-.693-.473-1.433-.024-2.119-.547-.64-.488-.946-.59-1.72-.848-.86-.287-1.072-1.488-1.895-1.807.046.08.101.148.142.234.31.636.545 1.26.954 1.842.333.474.575.924.534 1.519l-.05.275c-.104.537.927.747 1.464.95.542.206 1.207.022 1.756-.073.657-.113 1.325-.107 1.987-.056.567.043 1.182.18 1.743.08.36-.063 1.208-.325 1.338-.764.172-.582-.876-1.12-1.219-1.45" fill="#7C5039"/>
        <path d="M55.579 95.215c-.094.456.416.758.767.96.93.539 1.849 1.394 2.276 2.407.29.688.489 1.402 1.295 1.635.499.144 1.02.185 1.5.394.444.193.667.635.956.99.349.427.869.475 1.36.28.46-.181.647-.672.956-1.037.429-.506.943-.767 1.569-.967.804-.257 1.513-.511 2.212-1a3.37 3.37 0 0 0 .353-.297c-1.067.092-1.66-.45-2.715-.614-.64-.1-.896.209-1.461.31-.64.117-.994-.056-1.613-.086-1.05-.052-2.152.663-3.165.086-1.067-.607-.426-1.91-1.555-2.496-.49-.254-.922-.022-1.407-.46-.417-.374-.542-.827-.53-1.328a.361.361 0 0 1-.017.023c-.3.365-.682.719-.781 1.2" fill="#9C6F54"/>
        <path d="M78.351 103.605c-.595-1.008-1.297-1.419-2.539-1.805-.992-.363-2.109-1.155-2.799-1.957-.386-.447-.767-1.22-1.428-1.256-.34-.018-.73.02-1.046-.14-.522-.265-.85-.206-1.23.225-.403.456-1.305.96-1.868 1.174-.605.231-1.25.426-1.809.762-.654.392-1.035 1.118-1.41 1.758a42.425 42.425 0 0 1-1.118 1.778c-.358.548-.77.874-1.383 1.11-.36.138-.82.26-1.105.536-.272.265-.383.581-.527.92-.19.447-1.428 1.276-1.06 1.777.243.332 1.525.236 1.885.268.778.07 1.551.14 2.333.11 1.062-.039 2.084-.327 3.137-.437.883-.093 1.713-.038 2.588.105 1.014.165 2.083.366 3.11.194.923-.155 1.843-.304 2.776-.39a46.88 46.88 0 0 1 2.875-.199c.48-.014 1.297.292 1.697-.056.307-.267.431-.302.518-.7l.045-.282c.056-.802-.608-1.26-.914-1.927-.24-.524-.434-1.07-.728-1.568" fill="#B08466"/>
        <path d="M78.351 103.605c-.086-.145-.18-.254-.272-.376-.027.166-.169.265-.297.467-.28.445-.25.741-.736.985-.762.382-1.286.758-2.176.657-.74-.084-1.472-.567-2.229-.43-.622.11-.794.683-1.34.883-.804.295-1.688.135-2.359-.22-.985-.526-1.409.243-2.427.144-.364-.036-.632-.27-1.01-.222-.484.063-.822.537-1.274.673-.43.13-1.442-.148-1.488-.74-.023-.306.38-.48.502-.714.153-.29.077-.39.13-.674.031-.179.08-.362.14-.547-.139.216-.27.437-.41.653-.359.548-.772.874-1.384 1.11-.36.138-.82.26-1.105.536-.272.265-.383.581-.527.92-.19.447-1.428 1.276-1.06 1.777.243.332 1.525.236 1.885.268.778.07 1.551.14 2.333.11 1.062-.039 2.084-.327 3.137-.437.883-.093 1.713-.038 2.588.105 1.014.165 2.083.366 3.11.194.923-.155 1.843-.304 2.776-.39a46.88 46.88 0 0 1 2.875-.199c.48-.014 1.297.292 1.697-.056.307-.267.431-.302.518-.7l.045-.282c.056-.802-.608-1.26-.914-1.927-.24-.524-.434-1.07-.728-1.568" fill="#9C6F54"/>
        <path d="M74.858 108.337a46.102 46.102 0 0 1 2.875-.199c.48-.014 1.297.292 1.697-.056.307-.267.431-.302.518-.7l.045-.282c.056-.802-.608-1.26-.914-1.927-.056-.123-.108-.247-.16-.37-.008.087-.009.175-.032.265-.109.442-.286 1.14-.764 1.314-.2.073-.458-.057-.679.014-.343.111-.458.488-.778.605-.489.18-1.295-.255-1.81-.258-.76-.004-1.357.597-2.094.66-1.035.09-2.097.031-3.136.074-.882.038-2.108-.254-2.932.025-.554.188-.817.55-1.46.344-.436-.14-.549-.358-1.075-.206-.542.156-1.076.204-1.623.05-.455-.129-.566-.404-.922-.613-.465-.27-1.349-.14-1.07-.937.085-.24.238-.423.418-.582a1.445 1.445 0 0 0-.346.232c-.272.265-.383.581-.527.92-.19.446-1.429 1.276-1.06 1.777.243.332 1.525.236 1.885.268.778.07 1.551.14 2.333.11 1.062-.039 2.084-.327 3.137-.437.883-.093 1.713-.038 2.588.105 1.014.165 2.083.366 3.11.194.923-.155 1.843-.304 2.776-.39" fill="#7C5039"/>
        <path d="M60.662 100.84c-.83-.167-1.73-.612-2.12-1.46-.475-1.034-.958-1.963-1.995-2.575-.415-.244-.812-.464-1.13-.832-.504-.583-1.43-.882-2.13-.43-.455.293-.875.636-1.058 1.16-.299.861-.736 1.174-1.684 1.331-1.007.166-1.383 1.086-2.069 1.728-.56.523-1.325.844-1.9 1.35-.356.312-.756.62-1.08.964-.267.283-.467.62-.735.901-.475.5-1.093.84-1.63 1.267-.397.316-1.597 1.322-.813 1.861.46.315 1.096.33 1.634.367.555.04 1.16.033 1.694.21.636.21 1.193.625 1.806.892 1.457.636 2.974.005 4.485.344.916.206 1.791.534 2.736.601.753.053 1.678.173 2.398-.12.56-.23.893-.683 1.522-.857.904-.25.944-.967 1.374-1.652.411-.653 1.068-.814 1.736-1.11 1.541-.687 1.102-1.853.33-2.89-.392-.525-.688-.915-1.37-1.05" fill="#B08466"/>
        <path d="M58.593 107.542c.904-.25.944-.967 1.375-1.652.41-.653 1.068-.813 1.735-1.11 1.541-.687 1.102-1.853.33-2.89-.39-.524-.687-.914-1.37-1.05a4.03 4.03 0 0 1-.566-.162c.185.097.345.224.43.474.227.675-.216.821-.772.983-.674.196-.898.351-1.307.88-.399.515-.887.184-1.386.465-.407.23-.616.777-.92 1.121-.37.415-.705.478-1.266.43-.613-.055-.61-.162-.985-.533-.358-.354-.45-.157-.883-.11-.478.05-.834-.47-1.244-.28-.522.242-.889.772-1.515.662-.388-.067-.96-.403-1.096-.792-.085-.245.002-.496-.109-.76-.277-.656-.875-.555-1.476-.446-.648.118-.796-.005-1.096-.47-.122-.188-.247-.187-.263-.419-.014-.196.08-.414.197-.627-.31.264-.636.528-.91.82-.267.283-.467.62-.735.902-.474.498-1.092.84-1.629 1.266-.398.317-1.597 1.322-.813 1.861.46.315 1.096.33 1.633.367.556.04 1.16.033 1.694.21.636.21 1.194.625 1.806.892 1.458.636 2.974.005 4.485.344.916.206 1.792.534 2.737.601.752.053 1.678.173 2.397-.12.56-.23.893-.683 1.522-.857" fill="#9C6F54"/>
        <path d="M58.593 107.542c.904-.25.944-.967 1.375-1.652.41-.653 1.068-.813 1.735-1.11.228-.102.4-.216.547-.337.027-.047.06-.09.082-.142-.699.196-1.723.332-2.375.686-.962.523-1.634 1.601-2.592 2.127-.422.231-.565-.08-1.004-.143-.417-.059-.718.213-1.124.193-.436-.022-.467-.3-.778-.537-.699-.53-.938.08-1.583.24-.693.17-1.696-.158-2.397-.243-.52-.063-.825-.547-1.337-.639-.385-.07-.72.15-1.112.143-1.29-.026-1.19-1.55-2.595-1.106-.69.217-.939.2-1.492-.139-.492-.3-.656-.33-.697-.724-.038.03-.077.056-.114.085-.398.317-1.597 1.322-.813 1.861.46.315 1.096.33 1.633.367.556.04 1.16.033 1.694.21.636.21 1.194.625 1.806.892 1.458.636 2.974.005 4.485.344.916.206 1.792.534 2.737.601.752.053 1.678.173 2.397-.12.56-.23.893-.683 1.522-.857" fill="#7C5039"/>
        <path d="M49.654 110.82c-.36 0-.75-.042-1.16-.126a6.104 6.104 0 0 1-1.6-.54 1.803 1.803 0 0 1-.389-.289c-.072-.065-.145-.13-.233-.185-.12-.073-.233-.075-.39-.078a1.98 1.98 0 0 1-.346-.028c-.44-.086-.785-.363-.904-.724-.103-.319-.017-.65.247-.934a4.192 4.192 0 0 1 2.47-1.314 6.165 6.165 0 0 0 1.664-.477c.456-.2.963-.378 1.574-.31l.11.025-.002.005c.94.24 1.456.853 1.956 1.448.134.16.271.323.417.481.056.06.122.126.19.195.42.418 1.053 1.051.736 1.747-.29.641-1.125.635-1.74.623-.155-.002-.296-.004-.412.006-.273.024-.536.116-.814.213-.267.093-.543.19-.842.23a4.14 4.14 0 0 1-.532.032" fill="#5F3626"/>
        <path d="M53.264 109.506c-.513.261-1.227.08-1.785.176-.405.07-.797.258-1.191.371-.488.142-1.024.054-1.517-.019a5.516 5.516 0 0 1-1.288-.37c-.404-.167-.661-.475-1.02-.697-.21-.13-.5-.11-.733-.118-.345-.01-.488-.462-.237-.696.112-.105.242-.193.367-.283.333-.243.629-.47 1.03-.586.352-.1.727-.127 1.087-.186.88-.143 1.637-.825 2.547-.729.861.224 1.428.914 1.934 1.624.193.27 1.358 1.23.806 1.513" fill="#9E7459"/>
        <path d="M52.844 108.41c.042.23.037.497-.11.631-.184.165-.627.07-.86.082-.226.011-.432.076-.65.097-.337.034-.598-.159-.923-.179-.607-.04-1.068.5-1.669.264-.379-.149-1.032-.246-1.314-.549-.164-.177-.166-.467-.388-.61-.394-.252-.76-.108-.569-.623-.17.104-.33.222-.5.346-.125.091-.256.18-.369.284-.25.234-.107.685.238.696.234.007.524-.012.733.118.358.222.615.53 1.02.696.415.172.842.304 1.287.371.493.073 1.03.16 1.518.02.393-.114.786-.302 1.19-.372.558-.096 1.274.085 1.785-.176.38-.195-.05-.706-.419-1.096" fill="#7C5039"/>
        <path d="M57.45 111.206c-.452 0-.83-.042-1.029-.07-.584-.08-1.183-.22-1.6-.691-.416-.47-.268-1.153.115-1.542.47-.475 1.102-.754 1.66-.978.64-.26 1.184.084 1.623.359.098.06.195.122.293.176.104.045.256.086.414.13.412.116.878.246 1.131.61a1.01 1.01 0 0 1-.22 1.383c-.662.504-1.628.623-2.388.623" fill="#5F3626"/>
        <path d="M59.174 110.227c-.661.37-1.577.357-2.298.33-.654-.026-2.271-.425-1.277-1.372.285-.27.658-.44.997-.615.658-.337 1.028.101 1.578.427l.015.007a.182.182 0 0 0 .036.022c.255.126.525.205.79.303.177.066.36.145.496.293.226.246-.212.536-.337.605" fill="#9B7359"/>
        <path d="M59.168 109.396c-.011.196-.3.305-.477.392-.276.138-.508.351-.839.326-.14-.01-.265-.078-.405-.097-.189-.025-.383.037-.57 0-.193-.037-.33-.174-.5-.26-.144-.07-.269-.068-.42-.099-.36-.074-.379-.248-.334-.49-.006.006-.016.01-.024.017-.994.947.623 1.346 1.278 1.371.72.028 1.636.04 2.297-.329.125-.069.563-.359.337-.605a.972.972 0 0 0-.343-.226" fill="#7C5039"/>
        <path d="M72.395 110.818c-.35 0-.687-.077-1.013-.151-.187-.042-.374-.085-.562-.112a6.34 6.34 0 0 0-.776-.043c-.329-.004-.67-.01-1.015-.077-.118-.023-1.166-.246-1.53-.862a.827.827 0 0 1-.078-.684c.13-.404.591-.713.928-.94l.456-.315c.421-.292.82-.568 1.19-.891 1.098-.95 2.182-1.173 3.224-.665.601.293 1.184.677 1.78 1.076.55.37 1.236.832 1.531 1.53.12.283.115.585-.014.85-.148.306-.443.538-.81.638a3.981 3.981 0 0 1-.719.107 3.796 3.796 0 0 0-.606.086 11.6 11.6 0 0 0-.53.156c-.398.122-.808.248-1.249.288a2.406 2.406 0 0 1-.207.009" fill="#5F3626"/>
        <path d="M74.998 109.583c-.674.084-1.253.253-1.908.439-.959.272-1.873-.21-2.832-.215-.434-.002-.834.01-1.258-.108-.372-.104-1.165-.411-.717-.851.65-.637 1.486-1.063 2.165-1.669.81-.719 1.72-1.094 2.701-.438.36.24.743.447 1.11.678.471.299.938.623 1.325 1.03.16.169.294.362.336.593.08.444-.637.505-.922.541" fill="#A0775C"/>
        <path d="M74.743 107.75c.073.461.236.801-.331 1.055-.438.196-.96.023-1.425.055-.484.033-.978.366-1.456.294-.555-.083-.678-.562-1.278-.524-.213.014-.665.073-.837-.104-.156-.162-.11-.342-.055-.529-.379.263-.752.53-1.078.85-.448.441.346.748.718.851.423.12.823.106 1.257.11.96.004 1.874.486 2.832.214.654-.186 1.234-.355 1.908-.439.285-.036 1.001-.098.921-.54-.04-.232-.175-.426-.335-.594a5.526 5.526 0 0 0-.84-.699" fill="#7C5039"/>
        <path d="M80.424 110.222c-.233 0-.454-.042-.67-.083-.16-.03-.32-.062-.487-.073a2.55 2.55 0 0 0-.314 0c-.291.009-.624.022-.916-.147-.41-.24-.5-.562-.504-.79-.008-.613.603-1.22.99-1.46.389-.24.92-.573 1.56-.472.543.083 1.124.467 1.508.72l.014.01c.543.416.602.83.556 1.105-.079.47-.53.885-1.209 1.107a1.653 1.653 0 0 1-.528.083" fill="#5F3626"/>
        <path d="M79.979 109.502c-.487-.068-.902-.136-1.393-.152-.611-.021-.372-.643-.096-.932.196-.205.446-.35.685-.49.753-.442 1.418-.005 2.068.455.936.763-.72 1.195-1.264 1.119" fill="#A57D62"/>
        <path d="M81.302 108.439c-.078.211-.496.314-.658.368-.27.089-.547.234-.827.129-.197-.073-.31-.127-.526-.139-.23-.013-.448-.057-.59-.261-.085-.126-.05-.203.007-.299-.075.057-.153.112-.218.181-.276.288-.515.911.096.931.49.017.906.085 1.393.152.53.074 2.11-.335 1.323-1.062" fill="#7C5039"/>
        <path d="M90.384 110.277a1.41 1.41 0 0 1-.239-.02c-.514-.088-.947-.245-1.286-.467-.191-.126-.641-.42-.443-.97.118-.33.406-.53.638-.69.107-.074.2-.161.292-.247.178-.164.378-.35.661-.447.752-.263 1.408.122 1.835.433.074.053.166.1.26.152l.079.042c.219.12.624.342.649.8.03.568-.51.892-.982.997-.171.039-.338.106-.515.177-.282.114-.596.24-.949.24" fill="#5F3626"/>
        <path d="M92.04 109.104c-.1.045-.23.055-.324.072a3.75 3.75 0 0 0-.682.238c-.62.268-1.218.116-1.781-.2-.454-.254.307-.683.499-.857.323-.294.634-.54 1.095-.416.395.106.769.44 1.135.629.127.066.24.238.199.385a.235.235 0 0 1-.141.149" fill="#B08466"/>
        <path d="m91.981 108.57-.01-.006c-.045.089-.197.127-.279.154-.2.067-.409.085-.609.149-.257.081-.404.184-.664.096-.186-.064-.623-.134-.723-.329-.036-.07-.018-.157.011-.241-.238.19-.882.582-.454.822.563.315 1.16.467 1.78.199a3.76 3.76 0 0 1 .683-.238c.094-.017.224-.027.323-.072.067-.03.121-.076.141-.149.041-.147-.072-.319-.199-.385" fill="#7C5039"/>
        <path d="M40.633 109.675c-.424 0-.84-.082-1.164-.316-.308-.223-.355-.462-.34-.623.04-.422.532-.715.822-.853.718-.34 1.535-.3 2.18.104.438.273.465.631.41.883-.095.445-.56.583-.837.666a4.759 4.759 0 0 1-1.07.14" fill="#5F3626"/>
        <path d="M41.606 108.851c-.341.08-.682.143-1.032.117-.253-.018-1.168-.138-.622-.456.416-.243.825-.392 1.31-.249l.337.098c.069.022.136.046.203.074.346.137-.021.364-.196.416" fill="#B08466"/>
        <path d="M50.568 98.632c-.06.162-.228.417-.016.516.26.121.544.045.802-.028.237-.067.414-.17.581-.353.137-.15.317-.323.397-.511a.701.701 0 0 0 .051-.396c.22.219.342.428.2.735-.156.336-.48.58-.79.768-.286.175-.612.317-.952.331-.19.008-.477.001-.62-.146-.22-.223.028-.564.168-.753l.18-.163zM54.221 99.564c.213-.08 1.057-.636.445-.773-.249-.056-.479.026-.662.227-.058.063-.298.449-.272.542.035.129.401.037.489.004" fill="#98745E"/>
        <path d="M82.279 103.996c-.062-.111-.124-.21-.166-.28-.236-.392-.748-.753-1.202-.7-.32.037-.958.218-1.102.597-.13.34.175.263.414.47.262.228.33.45.706.594.343.132.933.226 1.293.166.423-.071.243-.513.057-.847M83.926 104.273c.077.08.15.143.192.175.196.141.668.366.87.132.254-.296-.038-.532-.222-.683-.127-.104-.198-.272-.323-.37-.164-.13-.817-.157-.878.163-.025.136.183.4.361.583" fill="#B88A6B"/>
        <path d="M70.29 100.42c.295.23.617.236.939.02.125-.083.302-.203.308-.37.482.538-.231 1.008-.77 1.057-.21.02-.357-.07-.528-.183-.223-.147-.626-.38-.656-.678-.034-.339.26-.627.563-.718-.121.037-.288.323-.272.442.025.19.284.326.417.43" fill="#98745E"/>
        <path d="M73.639 102.722c.519-1.15-1.146-1.315-.922-.273.046.212.828.482.922.273" fill="#B0856D"/>
        <path d="M58.223 104.053c-.06.137-.154.255.002.34.145.079.318.095.48.098.193.003.475-.147.52-.35.43.657-.85.65-1.193.439-.226-.14-.03-.33.107-.456l.084-.071zM67.495 91.13c-.289.34.141.62.401.787.191.123.392.163.616.19.167.02.428.078.596.044.14-.028.208-.227.187-.356.088.202.354.565.104.738-.267.184-.662.133-.958.067-.286-.064-.497-.162-.705-.369-.153-.152-.402-.304-.46-.522a.521.521 0 0 1 .22-.58" fill="#98745E"/>
        <path d="M49.711 107.644c.042-.214-.295-.33-.421-.382-.222-.093-.46-.146-.687-.042a.82.82 0 0 0-.251.18c-.097.096-.256.17-.328.29-.147.249.094.297.275.325.193.03.385.026.579.034.123.004.249.037.368-.01.127-.047.434-.238.465-.395M44.39 104.3c.227.171.91.013 1.102-.187.212-.222.03-.464-.208-.517a.704.704 0 0 0-.6.172c-.144.136-.532.355-.295.532M72.793 108.042c.171.144.352.269.569.295.158.019.453.033.542-.15.081-.17-.03-.465-.127-.597-.145-.195-.328-.198-.537-.203-.171-.004-.707-.034-.806.169-.092.188.257.4.359.486" fill="#B88A6B"/>
        <path d="M56.257 106.317c.292-.083.7-.507.557-.823-.139-.31-.561-.363-.789-.122-.129.137-.612.459-.531.669.079.207.578.328.763.276M57.676 106.216c.19-.046.426-.36.233-.513-.116-.092-.3-.06-.4.032-.197.177-.16.56.167.48" fill="#98745E"/>
        <path d="M63.426 107.086c.091-.09.245-.177.212-.318-.024-.105-.17-.197-.25-.257-.314-.234-.885-.04-.938.377-.027.207.193.257.342.32.071.032.186.14.26.147.13.013.294-.19.374-.27M64.595 107.211c.198-.25-.318-.397-.482-.302-.087.05-.211.148-.21.26.003.132.14.113.248.118.144.006.343.052.444-.076M75.683 106.34c-.01.187.424.265.56.322.325.135.543-.035.76-.297.087-.105.134-.17.033-.276a.988.988 0 0 0-.297-.19c-.212-.09-.422-.054-.614.061-.143.085-.432.187-.442.38" fill="#7C5039"/>
        <path d="M74.132 105.89c.23-.096.248-.286.06-.426a.977.977 0 0 0-.57-.178c-.118-.001-.356-.02-.454.066-.19.164.076.31.184.394.098.076.175.209.3.244.144.04.349-.045.48-.1M74.658 105.834c-.099.111-.084.225.061.282.14.056.255-.01.361-.113.104-.099-.002-.193-.095-.239-.128-.063-.232-.037-.327.07M81.8 101.467c.479-.3-.27-.846-.558-.981-.51-.237-1.005.028-1.404.355-.277.229-.727.525-.221.722.292.115.684.385.998.37.248-.012.484-.157.702-.26.153-.072.34-.116.483-.206M78.732 100.883c-.07-.18-.505-.265-.669-.28-.272-.026-.435.194-.583.411-.168.246.062.316.267.391.247.09 1.15-.108.985-.522M48.011 104.074c.281-.217.231-.517-.085-.677-.31-.158-.625-.007-.872.196-.182.148-.49.268-.304.46.107.11.41.237.561.278.29.08.474-.083.7-.257M48.053 105.108c.196.074.742.087.706-.243-.027-.24-.402-.306-.58-.237-.202.079-.427.366-.126.48M63.977 99.916c.379-.368.41-.663-.088-.976a1.05 1.05 0 0 0-1.156-.01c-.192.116-.733.57-.637.822.083.22.749.381.935.451.459.174.582.066.946-.287M76.354 98.384c.174-.383-.263-.42-.486-.554-.275-.163-.531-.409-.878-.33-.3.066-1.214.615-.843 1.03.115.126.365.182.516.252.18.082.352.203.537.271.453.165.973-.272 1.154-.669M76.861 97.613c.43.18.868-.407.375-.645-.234-.113-.929-.197-.916.23.006.173.402.357.541.415M61.122 93.05c.234-.271.385-.733.04-.983-.355-.257-.997.008-1.389.023-.494.018-.929.057-1.319.405-.145.13-.817.9-.713 1.113.068.136 1.185.22 1.386.273.75.195 1.507-.265 1.995-.831M63.018 91.604c.47.205 1.254-.148 1.577-.487.345-.361.491-1.015-.166-1.018-.546-.002-.854.37-1.183.78-.224.277-.622.553-.228.725M66.293 89.954c.034.281 1.302.361 1.576.361.328 0 1.18-.024 1.07-.555-.05-.24-.614-.561-.818-.645-.355-.148-1.892.31-1.828.839M54.832 96.794c.485-.612-.117-.736-.6-.843-.539-.12-.985-.07-1.314.429-.117.178-.362.634-.306.852.104.4.751.3 1.048.348.2.032.283.095.467 0 .266-.137.523-.556.705-.786M67.32 101.708c.64-.515.216-1.092-.473-.982-.44.07-1.164.288-1.442.67-.128.177-.537.817-.416 1.029.18.319.947.05 1.209.004.496-.09.727-.404 1.122-.721M67.719 100.534c.234.104.739-.068.85-.303.209-.442-.578-.247-.746-.121-.136.102-.358.31-.104.424" fill="#E8BB9C"/>
        <path d="M52.72 103.515c.22-.15.602-.324.27-.544-.313-.206-.745-.465-1.105-.194-.256.193-.464.414-.134.61.268.16.7.311.97.128M51.292 103.406c-.082-.3-.912-.031-.753.274.062.119.438.136.556.088.111-.045.23-.242.197-.362M66.002 97.179c.36.062.716.175 1.073.026.273-.114.62-.466.36-.757-.435-.49-1.64-.166-1.966.305-.284.41.188.367.533.426M84.33 106.106c.351-.096.496-.304.169-.525-.325-.219-.827-.328-1.168-.09-.29.202-.215.34.024.431.274.106.678.266.975.184M70.434 104.496c.12-.333-.21-.418-.475-.457-.325-.048-.77-.215-1.034.018-.455.399-.003.572.354.772.382.213.983.147 1.155-.333M71.463 104.882c.514-.209-.038-.749-.36-.406-.27.29.06.529.36.406" fill="#7C5039"/>
        <path d="M52.026 108.623c.15-.059.41-.15.316-.35-.088-.19-.399-.393-.61-.38-.193.012-.563.212-.694.355-.305.331.797.45.988.375M51.636 107.423c.038-.125-.128-.209-.221-.229-.152-.033-.252.029-.343.149-.201.268.482.351.564.08" fill="#E8BB9C"/>
        <path d="M57.418 109.162c.426-.172-.213-.563-.443-.538-.168.018-.315.185-.396.325-.106.185.097.206.26.23.168.023.415.05.579-.017" fill="#B08466"/>
        <path d="M59.457 101.564c.147-.202-.301-.263-.423-.204-.171.083-.241.256-.004.297.128.022.34.025.427-.093" fill="#7C5039"/>
        <path d="M59.876 101.293c.079.092.27-.027.18-.133-.071-.085-.274.024-.18.133" fill="#7C4737"/>
        <path d="M46.347 106.093c.172-.101-.01-.294-.11-.377a.782.782 0 0 0-.474-.184c-.108-.002-.181.074-.254.144-.04.038-.18.144-.187.202-.014.12.343.174.437.202.173.052.418.113.588.013M47.15 106.364c.045-.136-.252-.296-.357-.187-.09.092.014.208.1.255.09.049.218.057.258-.068" fill="#5F3626"/>
        <path d="M65.9 104.29c.71-.416-.33-.796-.707-.344-.15.18-.217.271.044.343.172.048.511.09.663.001" fill="#7C5039"/>
        <path d="M60.995 96.705c.132-.018.423-.044.423-.044l.15.52.722.282.626-.432.484-.661.59-.405h.397l.123 2.017-1.5.149-1.363.195-.599-.273-.053-1.348z" fill="#B08466"/>
        <path d="M63.865 97.546c.261.082 1.098.093 1.06-.375-.034-.425-.745-.22-.952-.105-.212.118-.48.363-.108.48" fill="#7C5039"/>
        <path d="M61.195 96.734c.02.08.127.163.11.299-.018.135.072.253.169.362.26.294.734.274 1.074.129.33-.143.54-.38.77-.644.288-.332.707-.861 1.158-.778.307.056.459-.23.15-.287a1.735 1.735 0 0 0-1.386.35c-.287.23-.464.583-.768.793a.654.654 0 0 1-.47.105c-.147-.02-.305-.096-.342-.141l-.012-.277s-.025-.066-.071-.121a.527.527 0 0 0-.411-.182c-.314-.005-.284.18-.11.272.047.024.119.039.139.12" fill="#5F3626"/>
        <path d="M68.017 96.077c.132-.018.567-.213.567-.213l1.111.698.657.032.44-.045.308.086-.385 1.183-1.533.109-.784-.503-.562-.7.181-.647z" fill="#B08466"/>
        <path d="M71.52 96.715c-.12-.197-.544-.37-.947-.397-.252-.018-.529.043-.76-.01a1.91 1.91 0 0 1-1.064-.655c-.04-.02-.098-.054-.213-.05-.197.02-.456.305-.66.349-.206.044-.226.27.087.283.205.008.367-.088.56-.136.134-.033.197.07.296.16.256.23.513.529.857.606.264.059.614-.01.88-.008.355.003.54-.152.822.057.105.079.237.277.36.25.14-.03-.06-.217-.103-.263-.043-.045-.07-.11-.116-.186" fill="#5F3626"/>
        <path d="M64.969 91.408s2.707-4.8 13.733.075 25.668-9.171 13.295-15.236" stroke="#585700" stroke-width="2"/>
        <path d="M64.969 91.408s2.707-4.8 13.733.075 25.668-9.171 13.295-15.236" stroke="#F3E500" stroke-width=".5"/>
        <path d="M63.469 90.423s9.894-11.435 28.145 13.912" stroke="#585700" stroke-width="2"/>
        <path d="M63.469 90.423s9.894-11.435 28.145 13.912" stroke="#F3E500" stroke-width=".5"/>
        <path d="M47.016 61.417s7.905-2.457 8.658 7.14" stroke="#585700" stroke-width="2"/>
        <path d="M66.369 64.934s-27.696.136-2.241 27.969" stroke="#585700" stroke-width="2"/>
        <path d="M66.369 64.934s-27.696.136-2.241 27.969" stroke="#F3E500" stroke-width=".5"/>
        <path d="M47.016 61.417s7.905-2.457 8.658 7.14" stroke="#F3E500" stroke-width=".5"/>
        <path d="m76.314 80.965-2.144-1.641c-.029-.022-2.976-2.274-6.749-4.69-4.225-2.703-6.468-7.696-5.578-10.188.392-1.098 1.06-1.486 1.548-1.618.471-.128.921-.063 1.302.07.412-.611 1.078-1.336 2.07-1.712 1.145-.434 2.407-.29 3.751.43 4.175 2.238 5.79 7.154 5.218 10.846-.507 3.274.02 5.835.024 5.86l.558 2.643z" fill="#585700"/>
        <path d="M74.778 78.53s-2.96-2.269-6.818-4.738c-3.86-2.469-5.87-7.063-5.175-9.01.658-1.844 2.137-.658 2.294-.526l.012.011s1.366-3.689 4.951-1.769c3.582 1.921 5.247 6.291 4.702 9.81-.545 3.518.034 6.222.034 6.222" fill="#ECDF00"/>
        <path d="M74.778 78.53s-4.362-9.294-9.687-14.263c0 0 1.366-3.689 4.951-1.769 3.582 1.921 5.247 6.291 4.702 9.81-.545 3.518.034 6.222.034 6.222" fill="#C0BD00"/>
        <path d="m35.349 79.985-.47-2.604c-.272-1.836-1.13-9.251 1.662-15.382 1.714-3.766 4.394-5.811 7.168-5.47a4.246 4.246 0 0 1 3.237 2.167c.81-.395 1.945-.621 3.219.104.449.258 1.004.819 1.107 2.038.238 2.803-2.058 8.043-5.734 11.079-2.216 1.83-4.292 3.107-5.96 4.133-1.2.737-2.56 1.574-2.73 1.963l-1.5 1.972z" fill="#585700"/>
        <path d="m35.93 77.617.002-.009c.588-1.33 4.591-2.846 8.97-6.463 4.384-3.622 6.537-10.46 4.767-11.477-1.477-.843-2.723.133-3.1.481a2.483 2.483 0 0 0-.114.115c-.653-3.522-5.954-4.55-9.004 2.15-3.05 6.697-1.52 15.203-1.52 15.203" fill="#AACC17"/>
        <path d="m35.93 77.617.002-.009c.588-1.33 4.591-2.846 8.97-6.463 4.384-3.622 6.537-10.46 4.767-11.477-1.477-.843-2.723.133-3.1.481a2.483 2.483 0 0 0-.114.115c-.653-3.522-5.954-4.55-9.004 2.15-3.05 6.697-1.52 15.203-1.52 15.203" fill="#F3E500"/>
        <path d="m35.93 77.617.002-.009c.093-.295 3.18-9.858 10.523-17.344-.653-3.522-5.954-4.55-9.004 2.15-3.05 6.697-1.52 15.203-1.52 15.203" fill="#C0BD00"/>
        <path d="M41.074 88.77s5.05-4.22 8.06.743" stroke="#585700" stroke-width="2"/>
        <path d="M41.074 88.77s5.05-4.22 8.06.743" stroke="#F3E500" stroke-width=".5"/>
        <path d="m27.09 108.57.99-2.396c.415-.865 2.045-4.39 2.114-8.293.081-4.587 2.102-10.116 7.412-11.886 1.596-.531 2.92-.414 3.934.35 1.06.799 1.47 2.096 1.624 3.085.944-.122 2.043.067 2.771 1.1.725 1.03.551 3.08.147 4.657-.435 1.698-1.93 5.885-6.402 8.075-2.874 1.405-5.03 2.025-6.605 2.477-1.407.404-2.26.64-3.185 1.205l-2.8 1.627z" fill="#585700"/>
        <path d="M28.808 106.661c1.994-1.984 4.582-1.437 10.432-4.298 5.854-2.867 6.823-9.914 5.878-11.257-.946-1.344-2.865-.376-2.865-.376s.225-5.304-4.33-3.787c-4.56 1.519-6.625 6.277-6.73 10.959-.095 4.539-2.25 8.509-2.382 8.753.002.005.002.005-.003.006" fill="#D9E000"/>
        <path d="M28.81 106.655c.24-.36 6.697-10.011 13.443-15.925 0 0 .225-5.304-4.33-3.787-4.56 1.519-6.625 6.277-6.73 10.959-.095 4.539-2.25 8.509-2.382 8.753" fill="#C0BD00"/>
        <path d="M28.808 106.661c1.994-1.984 4.582-1.437 10.432-4.298 5.854-2.867 6.823-9.914 5.878-11.257-.946-1.344-2.865-.376-2.865-.376s.225-5.304-4.33-3.787c-4.56 1.519-6.625 6.277-6.73 10.959-.095 4.539-2.25 8.509-2.382 8.753.002.005.002.005-.003.006" fill="#6C8409" opacity=".55"/>
        <path d="M77.844 80.44s-1.47 2.362.572 5.408c2.043 3.047 5.422 3.419 5.422 3.419" stroke="#585800" stroke-width="2"/>
        <path d="M77.844 80.44s-1.47 2.362.572 5.408c2.043 3.047 5.422 3.419 5.422 3.419" stroke="#F4E600" stroke-width=".5"/>
        <path d="M79.763 94.536c-1.623-.353-2.68-1.45-3.239-2.432-1.565.022-3.51-.591-4.755-2.14-1.046-1.301-1.939-3.728-.25-7.898 3.156-7.798 14.104-8.554 14.57-8.582l.806-.05.217.78c2.195 7.913.737 18.667-4.367 20.153-1.15.335-2.142.352-2.982.169" fill="#585700"/>
        <path d="M77.135 91.049c-2.334.395-7.646-1.308-4.69-8.607 2.957-7.304 13.704-7.96 13.704-7.96 2.252 8.12.398 17.736-3.683 18.925-4.086 1.189-5.331-2.358-5.331-2.358" fill="#B9B900"/>
        <path d="M77.135 91.049s2.916-9.355 9.013-16.567c2.254 8.12.4 17.736-3.682 18.925-4.086 1.189-5.331-2.358-5.331-2.358" fill="#D9E000"/>
        <path d="M77.135 91.049c-2.334.395-7.646-1.308-4.69-8.607 2.957-7.304 13.704-7.96 13.704-7.96 2.252 8.12.398 17.736-3.683 18.925-4.086 1.189-5.331-2.358-5.331-2.358" fill="#6C8409" opacity=".5"/>
        <path d="M94.356 83.347c-.926 1.107-2.658 2.183-5.892 2.29-8.213.267-14.136-7.662-14.384-8l-.3-.41.153-.484c.068-.211 1.7-5.207 6.394-7.927 4.67-2.7 12.025-1.387 14.312 2.552.726 1.245.901 2.433.52 3.527-.258.74-.726 1.296-1.195 1.699 1.17 1.242 1.751 3.098 1.378 4.774a4.694 4.694 0 0 1-.986 1.979" fill="#585700"/>
        <path d="M74.886 77.046s1.528-4.808 5.941-7.365c4.418-2.554 11.033-1.108 12.947 2.189 1.92 3.29-1.552 4.639-1.552 4.639 3.04 1.55 3.992 7.87-3.79 8.128-7.782.254-13.546-7.591-13.546-7.591" fill="#C0BD00"/>
        <path d="M74.886 77.046s1.528-4.808 5.941-7.365c4.418-2.554 11.033-1.108 12.947 2.189 1.92 3.29-1.552 4.639-1.552 4.639-7.528-2.8-17.336.537-17.336.537" fill="#ECDF00"/>
        <path d="M80.799 100.74c-3.681-2.184-6.45-6.506-6.635-9.032-.083-1.136.35-1.738.728-2.044.834-.668 1.837-.868 2.83-.599a3.896 3.896 0 0 1 2.585-2.33c2.446-.703 5.142.741 7.209 3.861 3.315 5.002 3.667 11.46 3.643 13.356l-.136 2.513-1.298-1.224c-.616-.594-1.964-1.218-3.044-1.667-1.62-.672-3.633-1.508-5.851-2.816l-.031-.018" fill="#585700"/>
        <path d="M90.16 104.346s0-.004-.004-.007c-.705-1.092-4.449-1.867-8.819-4.442-4.376-2.579-7.236-8.309-5.817-9.454 1.185-.95 2.42-.265 2.802-.01.04.025.077.054.116.084.082-3.198 4.614-4.849 8.244.631 3.631 5.48 3.477 13.198 3.477 13.198" fill="#D9E000"/>
        <path d="M90.16 104.346s0-.004-.004-.007c-.123-.248-4.189-8.249-11.718-13.822.082-3.198 4.614-4.849 8.244.631 3.631 5.48 3.477 13.198 3.477 13.198" fill="#C0BD00"/>
        <path d="M90.16 104.346s0-.004-.004-.007c-.705-1.092-4.449-1.867-8.819-4.442-4.376-2.579-7.236-8.309-5.817-9.454 1.185-.95 2.42-.265 2.802-.01.04.025.077.054.116.084.082-3.198 4.614-4.849 8.244.631 3.631 5.48 3.477 13.198 3.477 13.198" fill="#6C8409" opacity=".25"/>
        <path d="M92.966 112.05a13.35 13.35 0 0 1-4.236-1.01c-1.497-.636-3.232-1.744-3.61-2.945-.379-1.205.139-2.194.808-2.87-.692-.724-1.474-1.837-1.465-3.164.009-1.27.719-2.393 2.11-3.338 4.631-3.144 10.24-1.376 13.944 1.328 3.175 2.321 7.585 3.328 8.353 3.461l2.734.657-2.669.774c-1.423.43-2.575 1.168-3.923 2.17-1.316.975-3.117 2.312-5.978 3.742-2.167 1.081-4.282 1.316-6.068 1.194" fill="#585700"/>
        <path d="M108.336 104.282c-2.787.379-3.924 2.768-9.75 5.679-5.832 2.91-12.019-.599-12.513-2.166-.493-1.568 1.442-2.504 1.442-2.504s-4.352-3.043-.38-5.74c3.976-2.7 9.01-1.453 12.793 1.308 3.665 2.68 8.127 3.38 8.401 3.422.003.004.003.004.007.001" fill="#ECDF00"/>
        <path d="M108.33 104.28c-.43-.027-12.02-.758-20.815 1.01 0 0-4.351-3.042-.38-5.74 3.976-2.7 9.01-1.451 12.793 1.309 3.665 2.68 8.128 3.38 8.402 3.422" fill="#C0BD00"/>
        <path d="M63.995 76.613s-2.012 5.146 3.614 8.883" stroke="#585700" stroke-width="2"/>
        <path d="M63.995 76.613s-2.012 5.146 3.614 8.883" stroke="#F3E500" stroke-width=".5"/>
        <path d="M62.77 85.875c-1.099-.877-1.859-1.844-2.13-2.777-.374-1.281-.026-2.077.331-2.52.39-.481.923-.723 1.414-.841-.052-.89.05-2.14.775-3.244.79-1.201 2.098-1.933 3.887-2.176 5.677-.767 10.73 2.9 12.785 6.918 1.877 3.67 4.277 5.865 4.301 5.887l1.855 1.749-2.552-.007c-.046-.002-4.614-.12-10.125.196-4.092.235-8.132-1.26-10.542-3.185" fill="#585700"/>
        <path d="M83.463 87.864s-4.587-.125-10.21.197c-5.626.324-10.942-2.803-11.654-5.243-.673-2.312 1.655-2.198 1.906-2.18.008.002.012 0 .02.003 0 0-1.299-4.66 3.657-5.333 4.954-.67 9.765 2.484 11.759 6.382 1.995 3.899 4.522 6.174 4.522 6.174" fill="#D9E000"/>
        <path d="M83.463 87.864s-11.049-6.112-19.938-7.223c0 0-1.299-4.66 3.657-5.333 4.954-.67 9.765 2.484 11.759 6.382 1.995 3.899 4.522 6.174 4.522 6.174" fill="#C0BD00"/>
        <path d="M97.42 90.595s-3.599 2.235-5.675-.984" stroke="#585700" stroke-width="2"/>
        <path d="M97.42 90.595s-3.663 2.157-5.74-1.063" stroke="#F3E500" stroke-width=".5"/>
        <path d="M94.202 100.188c-.967-.377-1.788-.931-2.392-1.654-.988-1.182-1.206-2.628-.636-4.06-.517-.582-1.194-1.572-1.289-2.83-.087-1.155.33-2.248 1.242-3.25 2.672-2.934 6.724-3.684 11.409-2.113.523.176 1.038.353 1.544.528 3.153 1.087 6.352 2.216 8.336 1.182l2.128-1.324-1.546 2.864c-.176.326-4.379 8.004-10.906 10.41-2.833 1.044-5.727 1.09-7.89.247" fill="#585700"/>
        <path d="M91.866 89.068c-2.504 2.75.52 5.2.52 5.2-2.239 3.813 3.111 7.037 9.36 4.734 6.248-2.303 10.372-9.946 10.372-9.946-2.09 1.088-5.779-.444-9.9-1.827-4.12-1.382-7.845-.914-10.352 1.839" fill="#C0BD00"/>
        <path d="M92.386 94.269c-2.24 3.813 3.111 7.036 9.36 4.734 6.247-2.303 10.372-9.946 10.372-9.946s-7.726 6.409-19.732 5.212" fill="#F3E500"/>
        <path d="M91.866 89.068c-2.504 2.75.52 5.2.52 5.2-2.239 3.813 3.111 7.037 9.36 4.734 6.248-2.303 10.372-9.946 10.372-9.946-2.09 1.088-5.779-.444-9.9-1.827-4.12-1.382-7.845-.914-10.352 1.839" fill="#6C8409" opacity=".3"/>
        <path d="M52.763 95.929s-4.068-2.056-2.567-6.403c1.501-4.347 14.935-6.38 22.968 5.198" stroke="#585700" stroke-width="2"/>
        <path d="M52.763 95.929s-4.068-2.056-2.567-6.403c1.501-4.347 14.935-6.38 22.968 5.198" stroke="#F3E500" stroke-width=".5"/>
        <path d="M52.13 79.939s7.381-1.395 5.57 5.63" stroke="#585700" stroke-width="2"/>
        <path d="M51.725 80.164s7.831-2.205 5.964 5.884" stroke="#F3E500" stroke-width=".5"/>
        <path d="M51.815 86.685c-1.606 1.418-4.2 3.034-7.733 3.109-3.199.066-5.415-.278-7.034-.531-1.667-.26-2.505-.358-3.934-.171l-3.156.37 2.278-1.831c.686-.523 3.774-3.177 5.504-6.708 2.022-4.12 6.161-8.294 11.724-7.665 1.671.188 2.822.852 3.421 1.972.626 1.17.452 2.519.177 3.48.906.289 1.825.923 2.05 2.166.225 1.24-.796 3.027-1.826 4.288a13.18 13.18 0 0 1-1.47 1.52" fill="#585700"/>
        <path d="M32.79 88.305c2.642-.962 4.76.624 11.271.49 6.517-.139 10.36-6.125 10.068-7.742-.293-1.616-2.44-1.545-2.44-1.545s2.434-4.718-2.337-5.257c-4.775-.54-8.65 2.907-10.714 7.111-1.997 4.078-5.62 6.774-5.844 6.94 0 .004 0 .004-.005.003" fill="#ECDF00"/>
        <path d="M32.794 88.3c.368-.224 10.286-6.265 18.893-8.792 0 0 2.436-4.718-2.335-5.257-4.775-.54-8.65 2.907-10.714 7.11-1.997 4.079-5.62 6.775-5.844 6.94" fill="#C0BD00"/>
        <path d="M60.658 94.3s-4.558-5.436-13.114 1.29c-3.462 2.722-3.164 14.11-10.789 8.864" stroke="#585700" stroke-width="2"/>
        <path d="M60.73 93.868s-4.477-5.387-13.033 1.339c-3.462 2.722-3.299 14.51-10.925 9.265" stroke="#F3E500" stroke-width=".5"/>
        <path d="m45.697 106.94.221-2.23c.105-1.113-.04-2.312-.199-3.373-.197-1.31-.466-3.104-.399-5.693.11-4.085 2.721-6.627 3.84-7.53 1.05-.85 2.547-1.686 3.614-1.49 1.007.189 1.552.89 1.821 1.617.795-.197 1.844-.281 2.767.219.66.357 1.484 1.152 1.673 2.912.492 4.577-2.945 7.957-6.325 9.593-2.765 1.335-4.655 3.606-5.277 4.22l-1.736 1.755z" fill="#585700"/>
        <path d="M46.664 104.738c.785-2.122-.48-3.832-.344-9.068.14-5.24 4.971-8.306 6.27-8.063 1.3.242 1.233 1.97 1.233 1.97s3.805-1.938 4.218 1.901c.413 3.843-2.377 6.945-5.767 8.586-3.289 1.588-5.473 4.491-5.607 4.67-.003 0-.003 0-.003.004" fill="#C0BD00"/>
        <path d="M46.668 104.734c.182-.295 5.085-8.245 7.155-15.157 0 0 3.806-1.938 4.218 1.9.413 3.844-2.376 6.946-5.766 8.587-3.29 1.588-5.473 4.49-5.607 4.67" fill="#D9E000"/>
        <path d="M46.664 104.738c.785-2.122-.48-3.832-.344-9.068.14-5.24 4.971-8.306 6.27-8.063 1.3.242 1.233 1.97 1.233 1.97s3.805-1.938 4.218 1.901c.413 3.843-2.377 6.945-5.767 8.586-3.289 1.588-5.473 4.491-5.607 4.67-.003 0-.003 0-.003.004" fill="#6C8409" opacity=".25"/>
        <path d="M39.108 110.013c-1.817 2.344-5.73 3.48-9.873 2.786-7.21-1.206-13.054-8.314-13.3-8.616l-2.051-2.526 2.53.963c2.147.575 5.142-1.175 8.202-2.924.49-.28.989-.565 1.496-.849 4.522-2.536 8.843-2.555 12.166-.055 1.128.848 1.768 1.885 1.902 3.083.147 1.308-.374 2.476-.791 3.174.879 1.36.944 2.893.157 4.304a5.28 5.28 0 0 1-.438.66" fill="#585700"/>
        <path d="M37.677 99.591c3.132 2.355.482 5.485.482 5.485 3.066 3.508-1.84 7.894-8.76 6.737-6.92-1.158-12.688-8.26-12.688-8.26 2.378.715 5.895-1.594 9.89-3.834 3.994-2.24 7.94-2.486 11.076-.128" fill="#C0BD00"/>
        <path d="M38.159 105.077c3.066 3.507-1.84 7.894-8.76 6.736-6.92-1.157-12.688-8.26-12.688-8.26s9.255 5.119 21.448 1.524" fill="#F3E500"/>
        <path d="M78.473 109.951c-.623-.574-2.562-1.485-4.203-2.13-2.136-.843-4.795-1.89-7.727-3.546-4.832-2.729-8.532-8.253-8.83-11.503-.125-1.356.364-2.073.796-2.435 1.34-1.114 2.73-1.016 3.71-.702.466-1.534 1.637-2.734 3.235-3.226 3.063-.942 6.513.848 9.227 4.786 4.492 6.517 4.961 15.293 5.018 17.4l-.047 2.628-1.179-1.272z" fill="#585700"/>
        <path d="M78.752 109.046s0-.005-.005-.009c-.953-1.42-5.899-2.349-11.711-5.633-5.822-3.288-9.724-10.759-7.884-12.3 1.536-1.28 3.179-.408 3.687-.083.052.034.103.072.155.11.03-4.21 5.954-6.492 10.864.631 4.911 7.124 4.894 17.284 4.894 17.284" fill="#F3E500"/>
        <path d="M78.752 109.046s0-.005-.005-.009c-.168-.323-5.711-10.755-15.753-17.906.03-4.21 5.954-6.492 10.864.631 4.911 7.124 4.894 17.284 4.894 17.284" fill="#C0BD00"/>
    </g>
</svg>
