<svg xmlns="http://www.w3.org/2000/svg" viewBox="0 0 30 27" preserveAspectRatio="xMidYMid meet"><path fill="#b3ca9d" d="M30,4V24a3,3,0,0,1-3,3H3a3,3,0,0,1-3-3V4A3,3,0,0,1,3,1h8.51L7.23,6H2V24a1,1,0,0,0,1,1H27a1,1,0,0,0,1-1V6H22.77L18.49,1H27A3,3,0,0,1,30,4ZM24.19,9H25v3.17a2.52,2.52,0,0,1,1,.62l0,.05V8H24.12A2.41,2.41,0,0,1,24.19,9ZM14.33,22H5V9h.81a2.41,2.41,0,0,1,.07-1H4V23H15.38ZM25,19.85V22H22.69l-1.07,1H26V18.91ZM22.11,8.3,15,0,7.89,8.3a.56.56,0,0,0,.44.9H10.5v3.89a.5.5,0,0,0,.5.5h8a.5.5,0,0,0,.5-.5V9.2h2.17A.56.56,0,0,0,22.11,8.3Zm2,5.7a.5.5,0,0,0-.34.13l-5.28,4.94-2.29-2.16a.45.45,0,0,0-.34-.14.46.46,0,0,0-.36.16l-1.38,1.44a.5.5,0,0,0,0,.71l4,3.78a.49.49,0,0,0,.34.14.47.47,0,0,0,.34-.13l7-6.55a.5.5,0,0,0,0-.7L24.5,14.16a.49.49,0,0,0-.37-.16"/></svg>
