<svg xmlns="http://www.w3.org/2000/svg" viewBox="0 0 30 29" preserveAspectRatio="xMidYMid meet"><path fill="#6a8e4a" d="M30,6V26a3,3,0,0,1-3,3H3a3,3,0,0,1-3-3V6A3,3,0,0,1,3,3H9.8L6.37,7l0,0,0,0A2.5,2.5,0,0,0,5.88,8H2V26a1,1,0,0,0,1,1H27a1,1,0,0,0,1-1V8H24.12a2.5,2.5,0,0,0-.43-.92l0,0,0,0L20.2,3H27A3,3,0,0,1,30,6Zm-5,8.17a2.52,2.52,0,0,1,1,.62l0,.05V10H23.81a2.52,2.52,0,0,1-1.19,1H25Zm0,7.68V24H22.69l-1.07,1H26V20.91ZM14.33,24H5V11H7.38a2.52,2.52,0,0,1-1.19-1H4V25H15.38Zm9.8-8a.5.5,0,0,0-.34.13l-5.28,4.94-2.29-2.16a.45.45,0,0,0-.34-.14.46.46,0,0,0-.36.16l-1.38,1.44a.5.5,0,0,0,0,.71l4,3.78a.49.49,0,0,0,.34.14.47.47,0,0,0,.34-.13l7-6.55a.5.5,0,0,0,0-.7L24.5,16.16a.49.49,0,0,0-.37-.16m-2-7.7L15,0,7.89,8.3a.56.56,0,0,0,.44.9H10.5v3.89a.5.5,0,0,0,.5.5h8a.5.5,0,0,0,.5-.5V9.2h2.17A.56.56,0,0,0,22.11,8.3Z"/></svg>
