<?xml version="1.0" encoding="utf-8"?>
<!-- Generator: Adobe Illustrator 22.1.0, SVG Export Plug-In . SVG Version: 6.00 Build 0)  -->
<svg version="1.1" id="Comment" xmlns="http://www.w3.org/2000/svg" xmlns:xlink="http://www.w3.org/1999/xlink" x="0px" y="0px"
	 viewBox="0 0 36 34" style="enable-background:new 0 0 36 34;" xml:space="preserve">
	<path d="M27,8c0.5,0,1,0.5,1,1.1v12.5c0,0.6-0.4,1.1-1,1.1h-6.5c-0.6,0-1.2,0.2-1.6,0.6L16,25.7v-0.4c0-1.4-1.1-2.5-2.5-2.5H9
		c-0.5,0-1-0.5-1-1.1V9.1C8,8.5,8.5,8,9,8H27 M27,6H9C7.3,6,6,7.4,6,9.1v12.5c0,1.7,1.3,3.1,3,3.1h4.5c0.3,0,0.5,0.2,0.5,0.5v3.7
		c0,0.3,0.2,0.5,0.5,0.5c0.1,0,0.2,0,0.3-0.1l5.4-4.4c0.1-0.1,0.2-0.1,0.3-0.1H27c1.7,0,3-1.4,3-3.1V9.1C30,7.4,28.7,6,27,6L27,6z"/>
	<rect x="11" y="11" width="14" height="2"/>
	<rect x="11" y="15" width="11" height="2"/>
</svg>
