<?xml version="1.0" encoding="utf-8"?>
<!-- Generator: Adobe Illustrator 26.3.1, SVG Export Plug-In . SVG Version: 6.00 Build 0)  -->
<svg version="1.1" id="control-current-value" xmlns="http://www.w3.org/2000/svg" xmlns:xlink="http://www.w3.org/1999/xlink"
	 x="0px" y="0px" viewBox="0 0 14 14" style="enable-background:new 0 0 14 14;" xml:space="preserve">
<style type="text/css">
	.st0{fill:none;}
</style>
<path id="Rectangle" class="st0" d="M0,14h14V0H0V14z"/>
<path id="n" d="M9.7,12H8.1V8.3c0-0.7,0-1.2-0.1-1.5C8,6.6,7.9,6.4,7.7,6.2C7.5,6.1,7.4,6,7.2,6C6.9,6,6.7,6.1,6.4,6.3
	C6.2,6.5,6.1,6.7,6,7C5.9,7.3,5.9,7.9,5.9,8.7V12H4.3V4.7h1.5v1.1C6,5.4,6.3,5.1,6.6,4.9c0.3-0.2,0.7-0.3,1.1-0.3
	c0.5,0,0.8,0.1,1.2,0.4c0.3,0.2,0.5,0.5,0.7,0.9c0.1,0.4,0.2,0.9,0.2,1.6V12z"/>
</svg>
