<?xml version="1.0" encoding="UTF-8"?>
<svg width="36px" height="34px" viewBox="0 0 36 34" version="1.1" xmlns="http://www.w3.org/2000/svg" xmlns:xlink="http://www.w3.org/1999/xlink">
    <title>0C7634B5-1121-4B11-9CB3-715B48467E64</title>
    <g id="Import-Data-ICON" stroke="none" fill="none" fill-rule="nonzero">
        <rect id="Rectangle" x="0" y="0" width="36" height="34"></rect>
        <path d="M27,6 C28.65,6 30,7.35 30,9 L30,25 C30,26.65 28.65,28 27,28 L9,28 C7.35,28 6,26.65 6,25 L6,23.7088149 C6.24632089,23.736029 6.49652889,23.75 6.75,23.75 C7.17725688,23.75 7.5952422,23.7103037 8.00046896,23.634398 L8,25 C8,25.542 8.458,26 9,26 L27,26 C27.542,26 28,25.542 28,25 L28,9 C28,8.458 27.542,8 27,8 L9,8 C8.458,8 8,8.458 8,9 L8.00046896,10.365602 C7.5952422,10.2896963 7.17725688,10.25 6.75,10.25 C6.49652889,10.25 6.24632089,10.263971 6,10.2911851 L6,9 C6,7.35 7.35,6 9,6 L27,6 Z M26,10 L26,24 L10,24 L10.0005356,22.9172186 C10.3545317,22.7223419 10.6891591,22.4966226 11.0007972,22.2436816 L11,23 L16,23 L16,21.125 L12.0928451,21.125639 C12.3346563,20.8129444 12.5496266,20.4784401 12.734303,20.1255792 L16,20.125 L16,18.25 L13.384398,18.250469 C13.4453728,17.9249516 13.4829822,17.5912013 13.4954187,17.2510256 L16,17.25 L16,15.375 L13.3033161,15.3758272 C13.2181271,15.0309547 13.1064259,14.696529 12.9704991,14.3748367 L16,14.375 L16,12.5 L11.781348,12.5001211 C11.2739266,11.9331578 10.672083,11.4524718 10.0005356,11.0827814 L10,10 L26,10 Z M25,21.125 L21.5,21.125 L21.5,23 L25,23 L25,21.125 Z M20.5,21.125 L17,21.125 L17,23 L20.5,23 L20.5,21.125 Z M6.99571429,12 L11.9957143,17 L6.99571429,22 L6.99571429,19.1428571 L2.71,19.1428571 L2.71,14.8571429 L6.99571429,14.8571429 L6.99571429,12 Z M25,18.25 L21.5,18.25 L21.5,20.125 L25,20.125 L25,18.25 Z M20.5,18.25 L17,18.25 L17,20.125 L20.5,20.125 L20.5,18.25 Z M25,15.375 L21.5,15.375 L21.5,17.25 L25,17.25 L25,15.375 Z M20.5,15.375 L17,15.375 L17,17.25 L20.5,17.25 L20.5,15.375 Z M25,12.5 L21.5,12.5 L21.5,14.375 L25,14.375 L25,12.5 Z M20.5,12.5 L17,12.5 L17,14.375 L20.5,14.375 L20.5,12.5 Z" id="Import-Data-Icon" fill="#545454"></path>
    </g>
</svg>