<svg xmlns="http://www.w3.org/2000/svg" width="24" height="24" viewBox="0 0 24 24">
    <g fill="none" fill-rule="evenodd">
        <!-- <path d="M0 0H24V24H0z" transform="translate(-1420 -145) translate(976 130) translate(10 10) translate(33) translate(400 4) translate(1 1)"/> -->
        <g>
            <path fill="#707070" d="M15 17L15 16 14 16 14 17 12 17 12 16 11 16 11 17 9 17 9 16 8 16 8 17 6 17 6 16 5 16 5 17 3 17 3 15 4 15 4 14 3 14 3 12 4 12 4 11 3 11 3 9 4 9 4 8 3 8 3 6 4 6 4 5 3 5 3 3 4 3 4 2 2 2 2 8 2 11 2 14 2 17 0 17 0 18 2 18 2 20 3 20 3 18 5 18 6 18 9 18 12 18 15 18 18 18 18 17 18 16 17 16 17 17z" transform="translate(-1420 -145) translate(976 130) translate(10 10) translate(33) translate(400 4) translate(1 1) translate(3 1)"/>
            <path fill="#545454" d="M18.107 8.926L16.086 6.906 19.117 3.875 16.086 0.845 13.056 3.875 11.036 1.855 11.036 8.926z" transform="translate(-1420 -145) translate(976 130) translate(10 10) translate(33) translate(400 4) translate(1 1) translate(3 1)"/>
        </g>
    </g>
</svg>
