<svg xmlns="http://www.w3.org/2000/svg" width="24" height="24" viewBox="0 0 24 24">
    <g fill="none" fill-rule="evenodd">
        <g fill="#0481A0">
            <path d="M17.333 12c0-2.945-2.388-5.333-5.333-5.333-2.945 0-5.333 2.388-5.333 5.333 0 2.945 2.388 5.333 5.333 5.333 2.945 0 5.333-2.388 5.333-5.333M22 12c0 .74-4 6.667-10 6.667S2 12.74 2 12c0-.74 4-6.667 10-6.667S22 11.26 22 12m-6 0c0 2.206-1.794 4-4 4s-4-1.794-4-4c0-.974.35-1.867.93-2.56-.165.258-.263.563-.263.893 0 .921.746 1.667 1.666 1.667.921 0 1.667-.746 1.667-1.667 0-.92-.746-1.666-1.667-1.666-.33 0-.635.098-.894.264C10.133 8.35 11.026 8 12 8c2.206 0 4 1.794 4 4" transform="translate(-1108 -773) translate(976 725) translate(127 10) translate(0 33) translate(5 5)"/>
        </g>
    </g>
</svg>
