<svg xmlns="http://www.w3.org/2000/svg" width="24" height="24" viewBox="0 0 24 24">
    <g fill="none" fill-rule="evenodd">
        <g fill="#0481A0">
            <path d="M8.594 16.087l.588-1.256C8.453 14.107 8 13.106 8 12c0-.974.35-1.867.931-2.56-.165.258-.265.563-.265.893 0 .921.747 1.667 1.667 1.667.063 0 .123-.011.183-.018l1.204-2.571c-.298-.448-.807-.744-1.387-.744-.33 0-.635.099-.894.264.695-.58 1.587-.931 2.56-.931.126 0 .245.022.367.034l.598-1.276c-.313-.059-.634-.091-.964-.091-2.946 0-5.334 2.388-5.334 5.333 0 1.647.755 3.11 1.928 4.087zm7.739-11.715L8.981 20.069l-1.847-.865.709-1.515C4.227 15.978 2 12.552 2 12c0-.74 4-6.667 10-6.667.539 0 1.057.057 1.561.148l.925-1.974 1.847.865zm-4.341 11.627L12 16c2.206 0 4-1.794 4-4 0-.975-.352-1.87-.934-2.565L11.992 16zM22 12c0 .74-4 6.667-10 6.667-.416 0-.82-.035-1.217-.088l.602-1.284c.201.024.407.038.615.038 2.945 0 5.333-2.388 5.333-5.333 0-1.52-.64-2.89-1.66-3.86l.786-1.679c3.436 1.755 5.54 5.002 5.54 5.539z" transform="translate(-157 -377) translate(142 329) translate(10 10) translate(0 33) translate(5 5)"/>
        </g>
    </g>
</svg>
