<svg xmlns="http://www.w3.org/2000/svg" width="36" height="34" viewBox="0 0 36 34">
    <g fill="none" fill-rule="evenodd">
        <path d="M0 0H36V34H0z" transform="translate(-144 -911) translate(142 725) translate(0 184) translate(2 2)"/>
        <g transform="translate(-144 -911) translate(142 725) translate(0 184) translate(2 2)">
            <path fill="#545454" fill-rule="nonzero" d="M21.592 7.488L21.592 5.652 12.52 5.652 12.52 7.488zM21.592 3.852L21.592 2.016 12.52 2.016 12.52 3.852zM1.242 12.996c.576 0 1.062-.093 1.458-.279.396-.186.741-.438 1.035-.756.294-.318.555-.681.783-1.089.228-.408.462-.834.702-1.278L10.548 0H8.352l-3.51 6.804h-.036L3.834 0h-2.16l1.638 9-.81 1.494c-.132.3-.309.507-.531.621-.222.114-.489.171-.801.171-.132 0-.264-.015-.396-.045s-.264-.063-.396-.099L0 12.852c.48.096.894.144 1.242.144z" transform="translate(6.5 11.694)"/>
        </g>
    </g>
</svg>
