<svg id="icon-and" xmlns="http://www.w3.org/2000/svg" viewBox="0 0 14 14">
  <title>and</title>
  <path id="and" d="M13.92,11.85a7.81,7.81,0,0,0-.46-1,8.65,8.65,0,0,0-.54-.93,6.86,6.86,0,0,0,.47-1.3A8.47,8.47,0,0,0,13.66,7V6.83l-1.3-.18v.16c0,.42-.1.81-.17,1.17s-.11.47-.17.69l-1.41-2,.48-.42a3.87,3.87,0,0,0,.53-.62A3,3,0,0,0,12,4.9,2.63,2.63,0,0,0,12.12,4,2.69,2.69,0,0,0,12,3.18a1.94,1.94,0,0,0-.36-.7A1.75,1.75,0,0,0,11,2a2.24,2.24,0,0,0-.93-.18,2,2,0,0,0-1.58.65A2.38,2.38,0,0,0,7.9,4.14,3.22,3.22,0,0,0,8.19,5.5a8.06,8.06,0,0,0,.57,1A4.51,4.51,0,0,0,8.25,7a3.81,3.81,0,0,0-.53.67,3.39,3.39,0,0,0-.36.82,3.72,3.72,0,0,0-.14,1,3,3,0,0,0,.15.93,2.53,2.53,0,0,0,.49.86,2.69,2.69,0,0,0,.87.62,3,3,0,0,0,1.26.24,2.53,2.53,0,0,0,1.17-.31,3.61,3.61,0,0,0,.9-.69,8.57,8.57,0,0,1,.36.78l0,.09H14ZM9.49,3.33A.62.62,0,0,1,10,3.08a.64.64,0,0,1,.5.21,1,1,0,0,1,.19.7,1.69,1.69,0,0,1-.27,1,4.43,4.43,0,0,1-.58.66A5.46,5.46,0,0,1,9.48,5a1.89,1.89,0,0,1-.18-.82A1.37,1.37,0,0,1,9.49,3.33Zm1.25,7.31a1.36,1.36,0,0,1-.71.21,1.13,1.13,0,0,1-1-.39,1.56,1.56,0,0,1-.33-1A2.45,2.45,0,0,1,9,8.29a3.1,3.1,0,0,1,.54-.71l1.82,2.5A2,2,0,0,1,10.74,10.64Zm-4,1.21a9.34,9.34,0,0,0-.45-1c-.17-.32-.35-.63-.55-.93a6.86,6.86,0,0,0,.47-1.3A9.27,9.27,0,0,0,6.45,7V6.83L5.15,6.65v.16A9.66,9.66,0,0,1,5,8a7,7,0,0,1-.17.69l-1.41-2,.48-.42a3.87,3.87,0,0,0,.53-.62,3,3,0,0,0,.36-.74A2.63,2.63,0,0,0,4.91,4a2.69,2.69,0,0,0-.12-.81,1.8,1.8,0,0,0-.36-.7A1.75,1.75,0,0,0,3.78,2a2.2,2.2,0,0,0-.93-.18,2,2,0,0,0-1.58.65A2.38,2.38,0,0,0,.69,4.14,3.21,3.21,0,0,0,1,5.5a9.48,9.48,0,0,0,.57,1A4.51,4.51,0,0,0,1,7a3.76,3.76,0,0,0-.52.67,3.06,3.06,0,0,0-.37.82,3.72,3.72,0,0,0-.14,1,3,3,0,0,0,.15.93,2.4,2.4,0,0,0,.5.86,2.54,2.54,0,0,0,.86.62,3,3,0,0,0,1.26.24,2.53,2.53,0,0,0,1.17-.31,3.61,3.61,0,0,0,.9-.69A8.57,8.57,0,0,1,5.2,12l0,.09H6.78ZM2.27,3.33a.62.62,0,0,1,.55-.25.64.64,0,0,1,.5.21,1,1,0,0,1,.19.7,1.69,1.69,0,0,1-.27,1,4.43,4.43,0,0,1-.58.66A5.34,5.34,0,0,1,2.27,5a1.77,1.77,0,0,1-.19-.82A1.37,1.37,0,0,1,2.27,3.33Zm1.25,7.31a1.36,1.36,0,0,1-.71.21,1.13,1.13,0,0,1-1-.39,1.56,1.56,0,0,1-.33-1,2.33,2.33,0,0,1,.25-1.15,3.06,3.06,0,0,1,.53-.71l1.82,2.5A1.85,1.85,0,0,1,3.52,10.64Z"/>
</svg>
