<?xml version="1.0" encoding="UTF-8"?>
<svg width="18px" height="18px" viewBox="0 0 24 24" version="1.1" xmlns="http://www.w3.org/2000/svg" xmlns:xlink="http://www.w3.org/1999/xlink">
    <title>04F98406-56FF-4AD7-BAE6-DB4DF4AF6936</title>
    <g id="Student-Group-ICON" stroke="none" fill="none">
        <polygon id="Rectangle" points="0 0 24 0 24 24 0 24"></polygon>
        <path d="M7.56644568,6.76870976 L7.29327962,6.76870976 C6.74740585,7.01941752 6.13965722,7.1624172 5.5002927,7.1624172 C4.86045177,7.1624172 4.25545313,7.01941752 3.70682937,6.76870976 L3.43366332,6.76870976 C1.62600072,6.76870976 0.143295726,8.16203995 0.00121271311,9.9334943 C-0.0120789236,10.0966606 0.120837444,10.1942854 0.258337134,10.2841185 C0.751961022,10.6072428 3.25766371,10.9995752 5.5002927,10.9995752 C7.74244528,10.9995752 10.0153152,10.6072428 10.7422302,10.2841185 C10.8916465,10.2176603 11.0121879,10.0966606 10.9993546,9.9334943 C10.8568133,8.16203995 9.3745666,6.76870976 7.56644568,6.76870976 Z M2.35154075,3.14880124 C2.35154075,1.40943016 3.76091258,-0.0004 5.50028366,-0.0004 C7.23919641,-0.0004 8.64856824,1.40943016 8.64856824,3.14880124 C8.64856824,4.88771399 7.23919641,6.29708582 5.50028366,6.29708582 C3.76091258,6.29708582 2.35154075,4.88771399 2.35154075,3.14880124 Z M20.566153,6.76870976 L20.2929869,6.76870976 C19.7471131,7.01941752 19.1393645,7.1624172 18.5,7.1624172 C17.8601591,7.1624172 17.2551604,7.01941752 16.7065367,6.76870976 L16.4333706,6.76870976 C14.625708,6.76870976 13.143003,8.16203995 13.00092,9.9334943 C12.9876284,10.0966606 13.1205447,10.1942854 13.2580444,10.2841185 C13.7516683,10.6072428 16.257371,10.9995752 18.5,10.9995752 C20.7421526,10.9995752 23.0150225,10.6072428 23.7419375,10.2841185 C23.8913538,10.2176603 24.0118952,10.0966606 23.9990619,9.9334943 C23.8565206,8.16203995 22.3742739,6.76870976 20.566153,6.76870976 Z M15.351248,3.14880124 C15.351248,1.40943016 16.7606199,-0.0004 18.499991,-0.0004 C20.2389037,-0.0004 21.6482755,1.40943016 21.6482755,3.14880124 C21.6482755,4.88771399 20.2389037,6.29708582 18.499991,6.29708582 C16.7606199,6.29708582 15.351248,4.88771399 15.351248,3.14880124 Z M20.566153,19.7691098 L20.2929869,19.7691098 C19.7471131,20.0198175 19.1393645,20.1628172 18.5,20.1628172 C17.8601591,20.1628172 17.2551604,20.0198175 16.7065367,19.7691098 L16.4333706,19.7691098 C14.625708,19.7691098 13.143003,21.16244 13.00092,22.9338943 C12.9876284,23.0970606 13.1205447,23.1946854 13.2580444,23.2845185 C13.7516683,23.6076428 16.257371,23.9999752 18.5,23.9999752 C20.7421526,23.9999752 23.0150225,23.6076428 23.7419375,23.2845185 C23.8913538,23.2180603 24.0118952,23.0970606 23.9990619,22.9338943 C23.8565206,21.16244 22.3742739,19.7691098 20.566153,19.7691098 Z M15.351248,16.1492012 C15.351248,14.4098302 16.7606199,13 18.499991,13 C20.2389037,13 21.6482755,14.4098302 21.6482755,16.1492012 C21.6482755,17.888114 20.2389037,19.2974858 18.499991,19.2974858 C16.7606199,19.2974858 15.351248,17.888114 15.351248,16.1492012 Z M7.56644568,19.7691098 L7.29327962,19.7691098 C6.74740585,20.0198175 6.13965722,20.1628172 5.5002927,20.1628172 C4.86045177,20.1628172 4.25545313,20.0198175 3.70682937,19.7691098 L3.43366332,19.7691098 C1.62600072,19.7691098 0.143295726,21.16244 0.00121271311,22.9338943 C-0.0120789236,23.0970606 0.120837444,23.1946854 0.258337134,23.2845185 C0.751961022,23.6076428 3.25766371,23.9999752 5.5002927,23.9999752 C7.74244528,23.9999752 10.0153152,23.6076428 10.7422302,23.2845185 C10.8916465,23.2180603 11.0121879,23.0970606 10.9993546,22.9338943 C10.8568133,21.16244 9.3745666,19.7691098 7.56644568,19.7691098 Z M2.35154075,16.1492012 C2.35154075,14.4098302 3.76091258,13 5.50028366,13 C7.23919641,13 8.64856824,14.4098302 8.64856824,16.1492012 C8.64856824,17.888114 7.23919641,19.2974858 5.50028366,19.2974858 C3.76091258,19.2974858 2.35154075,17.888114 2.35154075,16.1492012 Z" id="Student-Group-Icon" fill="currentColor" fill-rule="evenodd"></path>
    </g>
</svg>
