<?xml version="1.0" encoding="UTF-8"?>
<svg width="36px" height="34px" viewBox="0 0 36 34" version="1.1" xmlns="http://www.w3.org/2000/svg" xmlns:xlink="http://www.w3.org/1999/xlink">
    <title>BDC2A6A2-D0F4-4C07-B3FD-BF48FE7B8B30</title>
    <g id="M2Studio" stroke="none" stroke-width="1" fill="none" fill-rule="evenodd">
        <g id="M2Studio-Design" transform="translate(-1112.000000, -175.000000)">
            <g id="Exportable-Assets" transform="translate(1020.000000, 121.000000)">
                <g id="Variable-Editor-ICON" transform="translate(92.000000, 54.000000)">
                    <rect id="Variable-Editor-back" x="0" y="0" width="36" height="34"></rect>
                    <g id="Variable-Editor-Icon" transform="translate(4.000000, 6.000000)">
                        <path d="M25,0 C26.6568542,0 28.0002375,1.34314575 28.0002375,3 L28.0002375,10.8976038 C27.3804282,10.9859366 26.7829087,11.2686641 26.3057864,11.7457864 L19,19.0515729 L18.999,22 L3,22 C1.34314575,22 2.84217094e-14,20.6568542 2.84217094e-14,19 L2.84217094e-14,3 C2.84217094e-14,1.34314575 1.34314575,0 3,0 L25,0 Z" id="Path" fill="#FFFFFF"></path>
                        <path d="M25,0 C26.6568542,0 28.0002375,1.34314575 28.0002375,3 L28.0002375,10.8976038 C27.3804282,10.9859366 26.7829087,11.2686641 26.3057864,11.7457864 L26,12.05 L26,5 L2,5 L2,19 C2,19.5522847 2.44771525,20 3,20 L19,20 L19,22 L3,22 C1.34314575,22 0,20.6568542 0,19 L0,3 C0,1.34314575 1.34314575,0 3,0 L25,0 Z" id="Path" fill="#545454" fill-rule="nonzero"></path>
                        <path d="M22,7 C23.1045695,7 24,7.8954305 24,9 L24,14.05 L23,15.05 L23,9 C23,8.44771525 22.5522847,8 22,8 L6,8 C5.44771525,8 5,8.44771525 5,9 L5,16 C5,16.5522847 5.44771525,17 6,17 L21.051,17 L20.051,18 L6,18 C4.8954305,18 4,17.1045695 4,16 L4,9 C4,7.8954305 4.8954305,7 6,7 L22,7 Z" id="Path" fill="#545454" fill-rule="nonzero"></path>
                        <path d="M14.264,11.25 L19.352,11.25 L19.352,12.114 L14.264,12.114 L14.264,11.25 Z M14.264,13.242 L19.352,13.242 L19.352,14.106 L14.264,14.106 L14.264,13.242 Z" id="Shape" fill="#3F3F3F" fill-rule="nonzero"></path>
                        <polygon id="Path" fill="#3F3F3F" fill-rule="nonzero" points="10.652 13.016 10.988 14.156 11 14.156 11.3 12.992 12.644 9.5 13.676 9.5 11.12 15.632 10.712 15.632 8.108 9.5 9.212 9.5"></polygon>
                        <path d="M27.01,13.87 L27.72,13.16 C28.11,12.77 28.74,12.77 29.13,13.16 L29.84,13.87 C30.23,14.26 30.23,14.89 29.84,15.28 L29.13,15.99 L27.01,13.87 Z M26.3,14.58 L21,19.88 L21,22 L23.12,22 L28.42,16.7 L26.3,14.58 Z" id="Shape" fill="#545454" fill-rule="nonzero"></path>
                    </g>
                </g>
            </g>
        </g>
    </g>
</svg>