<?xml version="1.0" encoding="UTF-8"?>
<svg width="36px" height="34px" viewBox="0 0 36 34" version="1.1" xmlns="http://www.w3.org/2000/svg" xmlns:xlink="http://www.w3.org/1999/xlink">
    <title>348FD962-D895-48E7-A1BC-A46D8DEC0740</title>
    <g id="Bar-Graph-It!-ICON" stroke="none" fill="none">
        <rect id="Rectangle" fill-rule="nonzero" x="0" y="0" width="36" height="34"></rect>
        <path d="M14.7474977,5.99849552 C14.3956765,6.55184769 14.0933836,7.14304559 13.8476042,7.7667286 L13.755,7.99949552 L9,8 C8.49671429,8 8.06585714,8.39490816 8.00687391,8.88527915 L8,9 L8,25 C8,25.542 8.458,26 9,26 L27,26 C27.542,26 28,25.542 28,25 L28.0012521,14.7845723 C28.7150431,14.4399874 29.3857766,14.0151419 30.0007006,13.5198221 L30,25 C30,26.65 28.65,28 27,28 L9,28 C7.35,28 6,26.65 6,25 L6,9 C6,7.35 7.35,6 9,6 L14.7474977,5.99849552 Z M13,10 L13,21 L15,21 L15,17 L17,17 L17,21 L18.5,21 L18.5003502,14.5271061 C19.1319842,14.8753668 19.8019185,15.1588236 20.5004866,15.3700583 L20.5,21 L22,21 L22,16 L24,16 L24,21 L26,21 L26,22 L23.5,22 L23.5,23 L22.5,23 L22.5,22 L20,22 L20,23 L19,23 L19,22 L16.5,22 L16.5,23 L15.5,23 L15.5,22 L13,22 L13,24 L12,24 L12,22 L10,22 L10,21 L12,21 L12,19 L11,19 L11,18 L12,18 L12,16 L11,16 L11,15 L12,15 L12,13 L11,13 L11,12 L12,12 L12,10 L13,10 Z M23.5,3.1875 C27.0416667,3.1875 30.06625,5.39041667 31.2916667,8.5 C30.06625,11.6095833 27.0416667,13.8125 23.5,13.8125 C19.9583333,13.8125 16.93375,11.6095833 15.7083333,8.5 C16.93375,5.39041667 19.9583333,3.1875 23.5,3.1875 Z M23.5,4.95833333 C21.545,4.95833333 19.9583333,6.545 19.9583333,8.5 C19.9583333,10.455 21.545,12.0416667 23.5,12.0416667 C25.455,12.0416667 27.0416667,10.455 27.0416667,8.5 C27.0416667,6.545 25.455,4.95833333 23.5,4.95833333 Z M23.5,6.375 C24.6758333,6.375 25.625,7.32416667 25.625,8.5 C25.625,9.67583333 24.6758333,10.625 23.5,10.625 C22.3241667,10.625 21.375,9.67583333 21.375,8.5 C21.375,7.32416667 22.3241667,6.375 23.5,6.375 Z" fill="#545454" fill-rule="evenodd"></path>
    </g>
</svg>