<?xml version="1.0" encoding="UTF-8"?>
<svg width="36px" height="34px" viewBox="0 0 36 34" version="1.1" xmlns="http://www.w3.org/2000/svg" xmlns:xlink="http://www.w3.org/1999/xlink">
    <title>7293982E-D86D-4592-84B8-2EFBE8E4D747</title>
    <g id="Data-Card-It!-ICON" stroke="none" fill="none">
        <rect id="Rectangle" fill-rule="nonzero" x="0" y="0" width="36" height="34"></rect>
        <path d="M14.7474977,5.99849552 C14.3956765,6.55184769 14.0933836,7.14304559 13.8476042,7.7667286 L13.755,7.99949552 L9,8 C8.458,8 8,8.458 8,9 L8,25 C8,25.542 8.458,26 9,26 L27,26 C27.542,26 28,25.542 28,25 L28.0012521,14.7845723 C28.7150431,14.4399874 29.3857766,14.0151419 30.0007006,13.5198221 L30,25 C30,26.65 28.65,28 27,28 L9,28 C7.35,28 6,26.65 6,25 L6,9 C6,7.35 7.35,6 9,6 L14.7474977,5.99849552 Z M14.18602,10.0001864 C15.4674038,12.6139798 17.7811187,14.5586395 20.5364839,15.3808717 L18.5,15.38 L18.5,17.26 L24,17.26 L24.000858,15.8005051 C24.3379235,15.7843348 24.6714559,15.7519251 25.0005829,15.7039455 L25,24 L11,24 L11,10 L14.18602,10.0001864 Z M24,21.13 L18.5,21.13 L18.5,23.01 L24,23.01 L24,21.13 Z M17.5,20.13 L12,20.13 L12,21.13 L17.5,21.13 L17.5,20.13 Z M24,18.25 L18.5,18.25 L18.5,20.13 L24,20.13 L24,18.25 Z M17.5,17.26 L12,17.26 L12,18.26 L17.5,18.26 L17.5,17.26 Z M17.6,14.38 L12,14.38 L12,15.38 L17.6,15.38 L17.6,14.38 Z M23.5,3.1875 C27.0416667,3.1875 30.06625,5.39041667 31.2916667,8.5 C30.06625,11.6095833 27.0416667,13.8125 23.5,13.8125 C19.9583333,13.8125 16.93375,11.6095833 15.7083333,8.5 C16.93375,5.39041667 19.9583333,3.1875 23.5,3.1875 Z M23.5,4.95833333 C21.545,4.95833333 19.9583333,6.545 19.9583333,8.5 C19.9583333,10.455 21.545,12.0416667 23.5,12.0416667 C25.455,12.0416667 27.0416667,10.455 27.0416667,8.5 C27.0416667,6.545 25.455,4.95833333 23.5,4.95833333 Z M23.5,6.375 C24.6758333,6.375 25.625,7.32416667 25.625,8.5 C25.625,9.67583333 24.6758333,10.625 23.5,10.625 C22.3241667,10.625 21.375,9.67583333 21.375,8.5 C21.375,7.32416667 22.3241667,6.375 23.5,6.375 Z" fill="#545454" fill-rule="evenodd"></path>
    </g>
</svg>