<?xml version="1.0" encoding="UTF-8"?>
<svg width="36px" height="34px" viewBox="0 0 36 34" version="1.1" xmlns="http://www.w3.org/2000/svg" xmlns:xlink="http://www.w3.org/1999/xlink">
    <title>E1F5DEC8-0995-4C9C-B5BA-06BFB8E2FD1F</title>
    <g id="Table-It!-ICON" stroke="none" fill="none">
        <rect id="Rectangle" fill-rule="nonzero" x="0" y="0" width="36" height="34"></rect>
        <path d="M14.7474977,5.99849552 C14.3956765,6.55184769 14.0933836,7.14304559 13.8476042,7.7667286 L13.755,7.99949552 L9,8 C8.49671429,8 8.06585714,8.39490816 8.00687391,8.88527915 L8,9 L8,25 C8,25.542 8.458,26 9,26 L27,26 C27.542,26 28,25.542 28,25 L28.0012521,14.7845723 C28.7150431,14.4399874 29.3857766,14.0151419 30.0007006,13.5198221 L30,25 C30,26.65 28.65,28 27,28 L9,28 C7.35,28 6,26.65 6,25 L6,9 C6,7.35 7.35,6 9,6 L14.7474977,5.99849552 Z M14.18602,10.0001864 C14.6387726,10.9237207 15.2204044,11.7637184 15.9048598,12.5001845 L11,12.5 L11,14.375 L16,14.375 L15.9999082,12.6010983 C16.3134226,12.9295461 16.6476853,13.2366689 17.0002927,13.5206221 L17,14.375 L18.2351985,14.375781 C19.2342392,14.9655951 20.3360595,15.390202 21.5003393,15.6186595 L21.5,17.25 L25,17.25 L25.0005829,15.7039455 C25.3388751,15.6546299 25.6725131,15.588865 26.0005498,15.507378 L26,24 L10,24 L10,10 L14.18602,10.0001864 Z M25,21.125 L21.5,21.125 L21.5,23 L25,23 L25,21.125 Z M20.5,21.125 L17,21.125 L17,23 L20.5,23 L20.5,21.125 Z M16,21.125 L11,21.125 L11,23 L16,23 L16,21.125 Z M25,18.25 L21.5,18.25 L21.5,20.125 L25,20.125 L25,18.25 Z M20.5,18.25 L17,18.25 L17,20.125 L20.5,20.125 L20.5,18.25 Z M16,18.25 L11,18.25 L11,20.125 L16,20.125 L16,18.25 Z M20.5,15.375 L17,15.375 L17,17.25 L20.5,17.25 L20.5,15.375 Z M16,15.375 L11,15.375 L11,17.25 L16,17.25 L16,15.375 Z M23.5,3.1875 C27.0416667,3.1875 30.06625,5.39041667 31.2916667,8.5 C30.06625,11.6095833 27.0416667,13.8125 23.5,13.8125 C19.9583333,13.8125 16.93375,11.6095833 15.7083333,8.5 C16.93375,5.39041667 19.9583333,3.1875 23.5,3.1875 Z M23.5,4.95833333 C21.545,4.95833333 19.9583333,6.545 19.9583333,8.5 C19.9583333,10.455 21.545,12.0416667 23.5,12.0416667 C25.455,12.0416667 27.0416667,10.455 27.0416667,8.5 C27.0416667,6.545 25.455,4.95833333 23.5,4.95833333 Z M23.5,6.375 C24.6758333,6.375 25.625,7.32416667 25.625,8.5 C25.625,9.67583333 24.6758333,10.625 23.5,10.625 C22.3241667,10.625 21.375,9.67583333 21.375,8.5 C21.375,7.32416667 22.3241667,6.375 23.5,6.375 Z" fill="#545454" fill-rule="evenodd"></path>
    </g>
</svg>