<?xml version="1.0" encoding="UTF-8"?>
<svg width="36px" height="34px" viewBox="0 0 36 34" version="1.1" xmlns="http://www.w3.org/2000/svg" xmlns:xlink="http://www.w3.org/1999/xlink">
    <title>29B94D6A-8E6D-4D80-90E4-09A7C6D44DA2</title>
    <g id="Zoom-In-ICON" stroke="none" fill="none">
        <rect id="Rectangle" x="0" y="0" width="36" height="34"></rect>
        <path d="M27,6 C28.6568542,6 30,7.34314575 30,9 L30,25 C30,26.6568542 28.6568542,28 27,28 L9,28 C7.34314575,28 6,26.6568542 6,25 L6,9 C6,7.34314575 7.34314575,6 9,6 L27,6 Z M27,8 L9,8 C8.44771525,8 8,8.44771525 8,9 L8,25 C8,25.5522847 8.44771525,26 9,26 L27,26 C27.5522847,26 28,25.5522847 28,25 L28,9 C28,8.44771525 27.5522847,8 27,8 Z M19,11 L19,16 L24,16 L24,18 L19,18 L19,23 L17,23 L17,18 L12,18 L12,16 L17,16 L17,11 L19,11 Z" id="Zoom-In-Icon" fill="#545454" fill-rule="evenodd"></path>
    </g>
</svg>