<?xml version="1.0" encoding="UTF-8"?>
<svg width="36px" height="34px" viewBox="0 0 36 34" version="1.1" xmlns="http://www.w3.org/2000/svg" xmlns:xlink="http://www.w3.org/1999/xlink">
    <title>5361138B-BE6A-4E53-854D-BECF0EF86AA2</title>
    <g id="Zoom-To-Fit-ICON" stroke="none" fill="none">
        <rect id="Rectangle" x="0" y="0" width="36" height="34"></rect>
        <path d="M8,21 L8,25 C8,25.5522847 8.44771525,26 9,26 L14,26 L14,28 L9,28 C7.34314575,28 6,26.6568542 6,25 L6,21 L8,21 Z M30,21 L30,25 C30,26.6568542 28.6568542,28 27,28 L22,28 L22,26 L27,26 C27.5522847,26 28,25.5522847 28,25 L28,21 L30,21 Z M26,10 L26,24 L10,24 L10,10 L26,10 Z M24.5,11.5 L11.5,11.5 L11.5,22.5 L24.5,22.5 L24.5,11.5 Z M14,6 L14,8 L9,8 C8.44771525,8 8,8.44771525 8,9 L8,13 L6,13 L6,9 C6,7.34314575 7.34314575,6 9,6 L14,6 Z M27,6 C28.6568542,6 30,7.34314575 30,9 L30,13 L28,13 L28,9 C28,8.44771525 27.5522847,8 27,8 L22,8 L22,6 L27,6 Z" id="Zoom-To-Fit-icon" fill="#545454" fill-rule="evenodd"></path>
    </g>
</svg>