<svg xmlns="http://www.w3.org/2000/svg" width="36" height="34" viewBox="0 0 36 34">
    <g fill-rule="evenodd">
        <g fill="#545454" fill-rule="nonzero">
            <path d="M24 24.5H0v-22h16.648l-1.715 2H3c-.542 0-1 .458-1 1v16c0 .542.458 1 1 1h18c.542 0 1-.458 1-1V15h2v9.5z" transform="translate(5.5 4)"/>
            <path d="M8.583 8.833c0 1.266-1.026 2.292-2.291 2.292C5.026 11.125 4 10.099 4 8.833c0-1.266 1.026-2.291 2.292-2.291 1.265 0 2.291 1.025 2.291 2.291zM16.347 10.701c.14-.14.324-.206.506-.2V15L20 14.999v5.3H4v-2.75l2.264-2.264c.241-.241.618-.265.887-.072l.085.072L9.5 17.549l6.847-6.848zM15.425 7L18.854 7 18.854 13 23.996 13 23.996 7 27.425 7 21.425 0z" transform="translate(5.5 4)"/>
        </g>
    </g>
</svg>
