<?xml version="1.0" encoding="utf-8"?>
<!-- Generator: Adobe Illustrator 26.3.1, SVG Export Plug-In . SVG Version: 6.00 Build 0)  -->
<svg version="1.1" id="control-block-icon"
	 	transform="translate(10px, -350px) scale(0.5)"
		xmlns="http://www.w3.org/2000/svg" xmlns:xlink="http://www.w3.org/1999/xlink" x="0px" y="0px" viewBox="0 0 35 15"
		style="enable-background:new 0 0 35 15;" xml:space="preserve">
	<style type="text/css">
	.st0{fill-rule:evenodd;clip-rule:evenodd;fill:#AACB29;}
	.st1{fill-rule:evenodd;clip-rule:evenodd;fill:#BCBCBC;}
	.st2{fill:#BCBCBC;}
	</style>
		<path id="block" class="st0" d="M30,0c1.1,0,1.9,0.8,2,1.9L32,2v2c-2.2,0-4,1.8-4,4c0,2.1,1.7,3.9,3.8,4l0.2,0v1
		c0,1.1-0.8,1.9-1.9,2L30,15L6.8,15C6.9,14.7,7,14.4,7,14.1V9.9C7,8.9,6.1,8,5.1,8H3V7c2.2,0,4-1.8,4-4c0-1.1-0.5-2.1-1.2-2.8L5.6,0
		H30z"/>
		<path id="node_3" class="st1" d="M32,11c-1.7,0-3-1.3-3-3s1.3-3,3-3c1.7,0,3,1.3,3,3S33.7,11,32,11z"/>
		<path id="node_2" class="st2" d="M3,9h2.1C5.6,9,6,9.4,6,9.9v4.2C6,14.6,5.6,15,5.1,15H3c-1.7,0-3-1.3-3-3S1.3,9,3,9z"/>
		<path id="node_1" class="st1" d="M6,3c0,1.7-1.3,3-3,3S0,4.7,0,3s1.3-3,3-3S6,1.3,6,3"/>
</svg>
