<svg width="36" height="34" viewBox="0 0 36 34" xmlns="http://www.w3.org/2000/svg">
    <g fill="none" fill-rule="evenodd">
        <path d="M0 0h36v34H0z"/>
        <path d="M22.773 23.682a.896.896 0 0 1 0 1.273l-3.465 3.465c-.566.565-1.485.212-1.485-.637v-1.838c-2.192-.07-4.455-.92-6.152-2.616-2.865-2.865-3.409-7.277-1.553-10.678l2.358 1.668c-1.009 2.265-.548 5.024 1.317 6.888 1.06 1.06 2.545 1.697 4.03 1.768v-2.121c0-.849.92-1.202 1.485-.637l3.465 3.465zm1.556-13.01c2.865 2.865 3.409 7.277 1.552 10.678l-2.357-1.668c1.01-2.266.548-5.024-1.317-6.89-1.06-1.06-2.545-1.696-4.03-1.767v2.121c0 .849-.92 1.202-1.485.637l-3.465-3.465a.896.896 0 0 1 0-1.273l3.465-3.465c.566-.565 1.485-.212 1.485.637v1.838c2.192.07 4.455.92 6.152 2.616z" fill="#545454"/>
    </g>
</svg>
