<svg width="36" height="34" viewBox="0 0 36 34" xmlns="http://www.w3.org/2000/svg">
    <g fill="none" fill-rule="evenodd">
        <path d="M0 0h36v34H0z"/>
        <path d="m20.77 17 5.538-5.54a.652.652 0 0 0 0-.924l-1.846-1.845a.654.654 0 0 0-.923 0L18 14.229 12.46 8.691a.654.654 0 0 0-.923 0l-1.846 1.845a.653.653 0 0 0 0 .924L15.23 17l-5.54 5.54a.653.653 0 0 0 0 .922l1.846 1.846a.654.654 0 0 0 .923 0L18 19.77l5.54 5.538a.654.654 0 0 0 .922 0l1.846-1.846a.652.652 0 0 0 0-.922L20.77 17z" fill="#545454" fill-rule="nonzero"/>
    </g>
</svg>
