<svg width="36" height="34" viewBox="0 0 36 34" xmlns="http://www.w3.org/2000/svg">
    <g fill-rule="nonzero" fill="none">
        <path d="M0 0h36v34H0z"/>
        <path d="M23.5 6v2H9c-.503 0-.934.395-.993.885L8 9v16c0 .542.458 1 1 1h18c.542 0 1-.458 1-1v-8.2a2.48 2.48 0 0 0 2 1.44V25c0 1.65-1.35 3-3 3H9c-1.65 0-3-1.35-3-3V9c0-1.65 1.35-3 3-3h14.5zM13 10v2h1v1h-1v2h1v1h-1v2h1v1h-1v2h2v-1h1v1h2v-1h1v1h2v-1h1v1h2v-1h1v1h1v1H13v2h-1v-2h-2v-1h2V10h1zm4.625 5a1.625 1.625 0 1 1 0 3.25 1.625 1.625 0 0 1 0-3.25zm3.5-4a1.625 1.625 0 1 1 0 3.25 1.625 1.625 0 0 1 0-3.25zm5.143-7.612 7.222 7.428c.292.284.077.791-.317.791H30.48l1.417 3.452a.471.471 0 0 1-.24.61l-1.248.545a.449.449 0 0 1-.592-.247l-1.348-3.28-2.2 2.264c-.294.302-.769.07-.769-.326V3.715c0-.416.506-.62.768-.327z" fill="#545454"/>
    </g>
</svg>
