<svg width="36" height="34" viewBox="0 0 36 34" xmlns="http://www.w3.org/2000/svg">
    <g fill="none" fill-rule="evenodd">
        <path d="M0 0h36v34H0z"/>
        <path d="M20.972 4.5a2 2 0 0 1 1.86 1.267L23.712 8H30v2h-2.1l-.805 16.1a2 2 0 0 1-1.997 1.9H10.902a2 2 0 0 1-1.997-1.9L8.1 10H6V8h6.287l.88-2.233A2 2 0 0 1 15.029 4.5h5.944zm4.925 5.5H10.102l.8 16h14.196l.799-16zm-11.433 2.343 3.606 3.606 3.536-3.535 2.122 2.121-3.536 3.536 3.465 3.465-2.121 2.12-3.465-3.464-3.536 3.536-2.121-2.122 3.535-3.536-3.606-3.606 2.121-2.12zM20.972 6.5h-5.944L14.437 8h7.125l-.59-1.5z" fill="#545454" fill-rule="nonzero"/>
    </g>
</svg>
