<svg width="18" height="18" viewBox="0 0 18 18" xmlns="http://www.w3.org/2000/svg">
    <g fill-rule="evenodd">
        <path d="M14.25 12v-.75h-.75V12H12v-.75h-.75V12h-1.5v-.75H9V12H7.5v-.75h-.75V12h-1.5v-1.5H6v-.75h-.75v-1.5H6V7.5h-.75V6H6v-.75h-.75v-1.5H4.5V12H3v.75h1.5v1.5h.75v-1.5H15V12h-.75zM15.75.75H2.25A2.257 2.257 0 0 0 0 3v12a2.257 2.257 0 0 0 2.25 2.25h13.5A2.257 2.257 0 0 0 18 15V3A2.257 2.257 0 0 0 15.75.75zm0 1.5a.76.76 0 0 1 .75.75v12a.76.76 0 0 1-.75.75H2.25A.76.76 0 0 1 1.5 15V3a.76.76 0 0 1 .75-.75h13.5z"/>
    </g>
</svg>
