<svg width="36" height="34" viewBox="0 0 36 34" xmlns="http://www.w3.org/2000/svg">
    <g fill="#4782B4" fill-rule="evenodd" stroke="none">
        <path fill="#000" d="m28.968 25 1.362-2.046.283.435L31.678 25h1.079l-1.929-2.744 1.792-2.442h-1.05l-.874 1.226c-.12.166-.252.356-.395.571-.091-.156-.212-.35-.362-.58l-.795-1.217h-1.1l1.754 2.49L27.903 25h1.065zM21.038 25v-2.69c0-.472.047-.834.142-1.084.094-.251.246-.441.456-.572.21-.13.439-.195.686-.195.326 0 .56.098.703.293.144.195.215.488.215.879V25h.88v-3.013c0-.534.12-.922.36-1.164.241-.243.544-.364.909-.364.201 0 .377.047.527.142.15.094.253.218.31.373.057.155.086.408.086.76V25h.874v-3.56c0-.592-.139-1.03-.415-1.315-.277-.285-.673-.428-1.187-.428-.658 0-1.191.303-1.602.908a1.28 1.28 0 0 0-.52-.668c-.245-.16-.56-.24-.944-.24a1.825 1.825 0 0 0-1.573.845v-.728h-.786V25h.88z" fill-rule="nonzero"/>
        <path d="m5.286 29.436-1.373-1.454L28.716 4.557l1.373 1.452z"/>
        <path d="M11.172 25.125A2.629 2.629 0 0 1 8.547 22.5a2.629 2.629 0 0 1 2.625-2.625 2.629 2.629 0 0 1 2.625 2.625 2.629 2.629 0 0 1-2.625 2.625" fill="#CCC"/>
        <path d="M11.172 18.875a3.625 3.625 0 1 0 0 7.25 3.625 3.625 0 0 0 0-7.25m0 2c.896 0 1.625.729 1.625 1.625s-.73 1.625-1.625 1.625A1.627 1.627 0 0 1 9.547 22.5c0-.896.729-1.625 1.625-1.625"/>
        <path d="M22.82 14.125a2.629 2.629 0 0 1-2.625-2.625 2.629 2.629 0 0 1 2.625-2.625 2.629 2.629 0 0 1 2.625 2.625 2.629 2.629 0 0 1-2.625 2.625" fill="#CCC"/>
        <path d="M22.82 7.875a3.625 3.625 0 1 0 0 7.25 3.625 3.625 0 0 0 0-7.25m0 2c.896 0 1.625.729 1.625 1.625s-.73 1.625-1.625 1.625a1.627 1.627 0 0 1-1.625-1.625c0-.896.729-1.625 1.625-1.625"/>
    </g>
</svg>
