<svg width="24" height="24" viewBox="0 0 24 24" xmlns="http://www.w3.org/2000/svg">
    <g fill="none" fill-rule="evenodd">
        <path d="M0 0h24v24H0z"/>
        <path d="M14.235 3c.657 0 1.247.402 1.487 1.013l.636 1.615h3.858v1.6l-1.619-.001-.614 12.313A1.537 1.537 0 0 1 16.448 21h-8.91c-.82 0-1.494-.642-1.535-1.46L5.386 7.227H3.77V5.63l3.856-.001.637-1.615C8.504 3.402 9.094 3 9.751 3h4.484zm-4.67 6.47 2.454 2.454 2.407-2.406 1.444 1.444-2.406 2.406 2.358 2.36-1.444 1.444-2.36-2.36-2.406 2.408-1.444-1.444 2.407-2.407-2.455-2.455L9.564 9.47zm4.669-4.871H9.751l-.406 1.029h5.295l-.406-1.03z" fill="#0481A0"/>
    </g>
</svg>
