<svg width="36" height="34" viewBox="0 0 36 34" xmlns="http://www.w3.org/2000/svg">
    <g fill="none" fill-rule="evenodd">
        <path d="M0 0h36v34H0z"/>
        <path d="M21.753 5.997c-.3.15-.577.351-.824.598-.4.4-.678.878-.82 1.404L9 8c-.542 0-1 .458-1 1v16c0 .542.458 1 1 1h18c.542 0 1-.458 1-1v-7.167h2.001L30 25c0 1.65-1.35 3-3 3H9c-1.65 0-3-1.35-3-3V9c0-1.65 1.35-3 3-3l12.753-.003zM13 10v2h1v1h-1v2h1v1h-1v2h1v1h-1v2h2v-1h1v1h2v-1h1v1h2v-1h1v1h2v-1h1v1h1v1H13v2h-1v-2h-2v-1h2V10h1zm13.667-6.417c.806 0 1.495.284 2.063.853.57.569.853 1.257.853 2.064v1.167h.584c.32 0 .595.114.824.342.228.229.342.503.342.824v5.834c0 .32-.114.595-.342.824a1.126 1.126 0 0 1-.824.342h-7c-.321 0-.596-.114-.824-.342a1.124 1.124 0 0 1-.343-.824V8.833c0-.32.114-.595.343-.824.228-.228.503-.342.824-.342h.583V6.5c0-.807.285-1.495.853-2.064a2.81 2.81 0 0 1 2.064-.853zm0 7c-.321 0-.596.115-.824.343a1.124 1.124 0 0 0-.343.824c0 .32.114.596.343.824.228.228.503.343.824.343.32 0 .595-.115.824-.343.228-.228.342-.503.342-.824 0-.32-.114-.596-.342-.824a1.126 1.126 0 0 0-.824-.343zm0-5.833c-.486 0-.9.17-1.24.51-.34.34-.51.754-.51 1.24v1.167h3.5V6.5c0-.486-.17-.9-.51-1.24-.34-.34-.754-.51-1.24-.51z" fill="#545454" fill-rule="nonzero"/>
    </g>
</svg>
