<?xml version="1.0" encoding="UTF-8"?>
<svg width="14px" height="14px" viewBox="0 0 14 14" version="1.1" xmlns="http://www.w3.org/2000/svg" xmlns:xlink="http://www.w3.org/1999/xlink">
    <title>5EBD26A3-ADE9-400B-8EDC-99AE778A9E24</title>
    <g id="Dataflow---Arduino-Interface-Assets" stroke="none" stroke-width="1" fill="none" fill-rule="evenodd">
        <g id="Arduino-Interface-Assets" transform="translate(-94, -284)" fill="#5584e5" fill-rule="nonzero" stroke="#5584e5" stroke-width="0.475">
            <g id="Icons-14" transform="translate(67, 55)">
                <g transform="translate(26.9997, 50)" id="Group-7">
                    <g id="Sensor-Potentiometer-ICON" transform="translate(0.0003, 179)">
                        <g id="Group" transform="translate(1, 1)">
                            <path d="M7.05887012,12 C4.32982466,12 2.11774024,9.78792442 2.11774024,7.05888988 C2.11774024,4.32985534 4.32982466,2.11777976 7.05887012,2.11777976 C9.78791558,2.11777976 12,4.32985534 12,7.05888988 C12,9.78792442 9.78791558,12 7.05887012,12 Z M6.70590141,2.83777832 C4.53185706,3.01730997 2.82365365,4.83841432 2.82365365,7.05888988 C2.82365365,9.3979252 4.71977744,11.2940414 7.05882212,11.2940414 C9.3978668,11.2940414 11.2939906,9.3979252 11.2939906,7.05888988 C11.2939906,4.83841432 9.58590717,3.01729797 7.41174282,2.83777832 L7.41174282,4.94101412 C7.41174282,5.13601373 7.25377451,5.29398141 7.05877412,5.29398141 C6.86377373,5.29398141 6.70580541,5.13601373 6.70580541,4.94101412 L6.70590141,2.83777832 Z" id="Shape"></path>
                            <path d="M7.41183882,0.352991294 C7.41183882,0.547990904 7.25387051,0.705958588 7.05887012,0.705958588 C3.5503031,0.705958588 0.705937412,3.5503129 0.705937412,7.05886588 C0.705937412,7.25386549 0.547969096,7.41183318 0.352968706,7.41183318 C0.157968316,7.41183318 0,7.25386549 0,7.05886588 C0,3.16031368 3.16032632,0 7.05889412,0 C7.25387051,0 7.41183882,0.157991684 7.41183882,0.352991294 Z" id="Path"></path>
                        </g>
                    </g>
                </g>
            </g>
        </g>
    </g>
</svg>
