<svg xmlns="http://www.w3.org/2000/svg" viewBox="0 0 30 26" preserveAspectRatio="xMidYMid meet"><path fill="#ffffff" d="M28,4V2H2V4H7.21l-1,1H2V24H28V5H23.79l-1-1ZM17.17,5H12.83l-1-1h6.34Z"/>
<path d="M0 0h1v1h-1v-1z" fill="rgb(176,176,176)"/>
<path d="M1 0h28v1h1v24h-1v1h-28v-1h-1v-24h1v-1z" fill="rgb(150,150,150)"/>
<path d="M29 0h1v1h-1v-1z" fill="rgb(177,177,177)"/>
<path d="M2 2h26v2h-6v1h6v19h-26v-19h6v-1h-6v-2z" fill="rgb(255,255,255)"/>
<path d="M6 4h1v1h-1v-1z" fill="rgb(180,180,180)"/>
<path d="M7 4h1v1h-1v-1z" fill="rgb(252,252,252)"/>
<path d="M11 4h1v1h-1v-1z" fill="rgb(253,253,253)"/>
<path d="M12 4h1v1h-1v-1z" fill="rgb(183,183,183)"/>
<path d="M13 4h4v1h-4v-1z" fill="rgb(150,150,150)"/>
<path d="M17 4h1v1h-1v-1z" fill="rgb(183,183,183)"/>
<path d="M18 4h1v1h-1v-1z" fill="rgb(253,253,253)"/>
<path d="M22 4h1v1h-1v-1z" fill="rgb(252,252,252)"/>
<path d="M23 4h1v1h-1v-1z" fill="rgb(180,180,180)"/>
<path d="M11 6h8v1h1v1h3v2h-1v12h-14v-12h-1v-2h3v-1h1v-1z" fill="rgb(150,150,150)"/>
<path d="M13 7h4v1h-4v-1z" fill="rgb(255,255,255)"/>
<path d="M10 10h2v10h-2v-10z" fill="rgb(255,255,255)"/>
<path d="M14 10h2v10h-2v-10z" fill="rgb(255,255,255)"/>
<path d="M18 10h2v10h-2v-10z" fill="rgb(255,255,255)"/>
<path d="M0 25h1v1h-1v-1z" fill="rgb(175,175,175)"/>
<path d="M29 25h1v1h-1v-1z" fill="rgb(176,176,176)"/>
</svg>
