<svg width="36" height="34" viewBox="0 0 36 34" xmlns="http://www.w3.org/2000/svg">
    <g fill="none" fill-rule="evenodd">
        <path d="M0 0h36v34H0z"/>
        <path d="M20.5 6v2L9 8.001c-.542 0-1 .458-1 1v16c0 .542.458 1 1 1h18c.542 0 1-.458 1-1V15.5h2v12.501H6v-22L20.5 6zm1.847 8.202a.688.688 0 0 1 .972 0L26 17.001V23.8H10v-2.75l2.264-2.264a.688.688 0 0 1 .972 0L15.5 21.05zm-10.055-4.159a2.29 2.29 0 1 1 0 4.581 2.29 2.29 0 0 1 0-4.581zM27.25 6v2.75l2.75.001v2l-2.75-.001v2.75h-2v-2.75l-2.75.001v-2l2.75-.001V6h2z" fill="#545454"/>
    </g>
</svg>
