<svg width="36" height="34" viewBox="0 0 36 34" xmlns="http://www.w3.org/2000/svg">
    <g fill="none" fill-rule="evenodd">
        <path d="M0 34h36V0H0z"/>
        <path d="M16.79 25.057a9.016 9.016 0 0 0-6.166-6.668L8 27l8.79-1.943z" fill-opacity=".2" fill="#000" fill-rule="nonzero"/>
        <path d="m17.654 25.63-1.47.326a8.257 8.257 0 0 0-6.509-7.036l.44-1.44a9.76 9.76 0 0 1 7.54 8.15z" fill="#000" fill-rule="nonzero"/>
        <path fill="#0069FF" fill-rule="nonzero" d="m15.1 3.681.883 6.541-1.915-.585L9.09 25.99l16.635-3.687-.431-1.952 6.452 1.387-5.262 3.983-.433-1.953L6.909 28.01 12.633 9.2l-1.912-.58z"/>
        <circle fill="#0069FF" fill-rule="nonzero" cx="21.66" cy="23.97" r="2"/>
        <path d="M21.66 21.595a2.375 2.375 0 1 1 0 4.75 2.375 2.375 0 0 1 0-4.75zm0 .75a1.625 1.625 0 1 0 0 3.25 1.625 1.625 0 0 0 0-3.25z" fill="#000" fill-rule="nonzero"/>
        <circle fill="#0069FF" fill-rule="nonzero" cx="8" cy="27" r="2"/>
        <path d="M8 24.625a2.375 2.375 0 1 1 0 4.75 2.375 2.375 0 0 1 0-4.75zm0 .75a1.625 1.625 0 1 0 0 3.25 1.625 1.625 0 0 0 0-3.25z" fill="#000" fill-rule="nonzero"/>
        <circle fill="#0069FF" fill-rule="nonzero" cx="12.09" cy="13.57" r="2"/>
        <path d="M12.09 11.195a2.375 2.375 0 1 1 0 4.75 2.375 2.375 0 0 1 0-4.75zm0 .75a1.625 1.625 0 1 0 0 3.25 1.625 1.625 0 0 0 0-3.25z" fill="#000" fill-rule="nonzero"/>
    </g>
</svg>
