<svg id="Show_Angle" data-name="Show Angle" xmlns="http://www.w3.org/2000/svg" viewBox="0 0 36 34">
  <title>Artboard 1</title>
  <polyline points="29 27 8.5 21.5 29 7" style="fill:#fff"/>
  <polyline points="29 27 8.5 21.5 29 7" style="fill:lime;opacity:0.30000001192092896;isolation:isolate"/>
  <path d="M8.5,21.5l6.9-4.9A8.68,8.68,0,0,1,17,21.5a8.33,8.33,0,0,1-.3,2.2Z" style="fill:#ff7f00;opacity:0.30000001192092896;isolation:isolate"/>
  <path d="M17.18,23.84l-1-.28a7.7,7.7,0,0,0,.28-2.06A8.11,8.11,0,0,0,15,16.89l.82-.58A9.2,9.2,0,0,1,17.5,21.5,9.05,9.05,0,0,1,17.18,23.84Z" style="fill:#ff7f00"/>
  <polygon points="28.87 27.48 7.34 21.71 28.71 6.59 29.29 7.41 9.66 21.29 29.13 26.52 28.87 27.48" style="fill:blue"/><path d="M8.5,18a3.5,3.5,0,0,0,0,7,3.5,3.5,0,0,0,0-7Z" style="fill:#888"/>
  <path d="M8.5,19.5a2,2,0,1,1-2,2,2,2,0,0,1,2-2" style="fill:#ccc"/>
  <path d="M19.26,22.05l1.09-5.18h.8l-.19.9a4.72,4.72,0,0,1,1-.78,2,2,0,0,1,.93-.24,1.37,1.37,0,0,1,1,.34,1.2,1.2,0,0,1,.36.91,4.6,4.6,0,0,1-.13.91l-.66,3.14h-.88l.69-3.28a3.64,3.64,0,0,0,.1-.71.53.53,0,0,0-.18-.42.73.73,0,0,0-.51-.16,1.75,1.75,0,0,0-1.21.48,3.21,3.21,0,0,0-.78,1.68l-.5,2.41Z" style="fill:blue"/>
  <path d="M24.89,16.12a1.27,1.27,0,0,1,.4-1,1.29,1.29,0,0,1,.95-.4,1.31,1.31,0,0,1,1,.4,1.3,1.3,0,0,1,.39,1,1.37,1.37,0,0,1-1.36,1.36,1.35,1.35,0,0,1-1.35-1.36Zm.53,0a.84.84,0,0,0,.83.83.83.83,0,0,0,0-1.65.78.78,0,0,0-.58.24A.77.77,0,0,0,25.42,16.12Z" style="fill:blue"/>
</svg>
