<?xml version="1.0" encoding="utf-8"?>
<!-- Generator: Adobe Illustrator 23.0.1, SVG Export Plug-In . SVG Version: 6.00 Build 0)  -->
<svg version="1.1" id="Copy" xmlns="http://www.w3.org/2000/svg" xmlns:xlink="http://www.w3.org/1999/xlink" x="0px" y="0px"
	 viewBox="0 0 36 34" style="enable-background:new 0 0 36 34;" xml:space="preserve">
	<style type="text/css">
		.st0{fill:#FFFFFF;}
		.st1{opacity:0.3;fill:#00FF00;enable-background:new    ;}
		.st2{fill:#0000FF;}
		.st3{opacity:0.75;fill:#FFFFFF;enable-background:new    ;}
	</style>
	<polygon class="st0" points="6.1,22.2 17.1,6.2 24.1,20.2 "/>
	<polygon class="st1" points="6.1,22.2 17.1,6.2 24.1,20.2 "/>
	<path class="st2" d="M5.1,22.8L17.2,5.2l7.7,15.4L5.1,22.8z M17,7.2L7.1,21.6l16.2-1.8L17,7.2z"/>
	<polygon class="st3" points="16,21.6 24.9,20.6 21.4,13.7 "/>
	<polygon class="st0" points="23.1,11.2 21.4,13.7 24.9,20.6 16,21.6 12.1,27.2 30.1,25.2 "/>
	<polygon class="st1" points="12.1,27.2 23.1,11.2 30.1,25.2 "/>
	<path class="st2" d="M11.1,27.8l12.1-17.6l7.7,15.4L11.1,27.8z M23,12.2l-9.9,14.4l16.2-1.8L23,12.2z"/>
</svg>
