<svg id="Line_Label" data-name="Add Line Label" xmlns="http://www.w3.org/2000/svg" width="36" height="34" viewBox="0 0 36 34">
  <path fill="#00F" d="M11.038 14v-2.832c0-.664.136-1.115.408-1.353.272-.237.595-.356.969-.356.234 0 .439.053.613.159.174.105.295.247.364.424.068.178.102.446.102.804V14h.879v-3.188c0-.407-.016-.692-.049-.855-.052-.25-.143-.467-.273-.65-.13-.182-.327-.329-.589-.441-.262-.113-.549-.169-.861-.169-.72 0-1.27.285-1.65.855v-.738h-.792V14h.88zM3.952 2.441L8.176 23.202 7.196 23.402 2.972 2.641z" transform="translate(-218 -490) translate(96 64) translate(46 66) translate(0 358) translate(76 2) translate(10 4)"/>
  <path fill="#CCC" d="M3.8 6.65c-1.517 0-2.75-1.233-2.75-2.75S2.283 1.15 3.8 1.15 6.55 2.383 6.55 3.9 5.317 6.65 3.8 6.65" transform="translate(-218 -490) translate(96 64) translate(46 66) translate(0 358) translate(76 2) translate(10 4)"/>
  <path fill="#888" d="M3.8.4C1.867.4.3 1.967.3 3.9s1.567 3.5 3.5 3.5 3.5-1.567 3.5-3.5S5.733.4 3.8.4m0 1.5c1.103 0 2 .897 2 2s-.897 2-2 2-2-.897-2-2 .897-2 2-2" transform="translate(-218 -490) translate(96 64) translate(46 66) translate(0 358) translate(76 2) translate(10 4)"/>
  <path fill="#CCC" d="M7.4 24.55c-1.517 0-2.75-1.233-2.75-2.75s1.233-2.75 2.75-2.75 2.75 1.233 2.75 2.75-1.233 2.75-2.75 2.75" transform="translate(-218 -490) translate(96 64) translate(46 66) translate(0 358) translate(76 2) translate(10 4)"/>
  <path fill="#888" d="M7.4 18.3c-1.933 0-3.5 1.567-3.5 3.5s1.567 3.5 3.5 3.5 3.5-1.567 3.5-3.5-1.567-3.5-3.5-3.5m0 1.5c1.103 0 2 .897 2 2s-.897 2-2 2-2-.897-2-2 .897-2 2-2" transform="translate(-218 -490) translate(96 64) translate(46 66) translate(0 358) translate(76 2) translate(10 4)"/>
</svg>
