<svg width="36" height="34" viewBox="0 0 36 34" xmlns="http://www.w3.org/2000/svg">
    <g fill="#4782B4" fill-rule="evenodd" stroke="none">
        <path d="m5.286 29.436-1.373-1.454L28.716 4.557l1.373 1.452z"/>
        <path d="M11.172 25.125A2.629 2.629 0 0 1 8.547 22.5a2.629 2.629 0 0 1 2.625-2.625 2.629 2.629 0 0 1 2.625 2.625 2.629 2.629 0 0 1-2.625 2.625" fill="#CCC"/>
        <path d="M11.172 18.875a3.625 3.625 0 1 0 0 7.25 3.625 3.625 0 0 0 0-7.25m0 2c.896 0 1.625.729 1.625 1.625s-.73 1.625-1.625 1.625A1.627 1.627 0 0 1 9.547 22.5c0-.896.729-1.625 1.625-1.625"/>
        <path d="M22.82 14.125a2.629 2.629 0 0 1-2.625-2.625 2.629 2.629 0 0 1 2.625-2.625 2.629 2.629 0 0 1 2.625 2.625 2.629 2.629 0 0 1-2.625 2.625" fill="#CCC"/>
        <path d="M22.82 7.875a3.625 3.625 0 1 0 0 7.25 3.625 3.625 0 0 0 0-7.25m0 2c.896 0 1.625.729 1.625 1.625s-.73 1.625-1.625 1.625a1.627 1.627 0 0 1-1.625-1.625c0-.896.729-1.625 1.625-1.625"/>
    </g>
</svg>
