<?xml version="1.0" encoding="utf-8"?>
<!-- Generator: Adobe Illustrator 23.0.1, SVG Export Plug-In . SVG Version: 6.00 Build 0)  -->
<svg version="1.1" id="Movable_Line_1_" xmlns="http://www.w3.org/2000/svg" xmlns:xlink="http://www.w3.org/1999/xlink" x="0px"
	 y="0px" viewBox="0 0 36 34" style="enable-background:new 0 0 36 34;" xml:space="preserve">
	<style type="text/css">
		.st0{fill:#009CDC;}
		.st1{fill:#CCCCCC;}
	</style>
	<rect x="0.9" y="16" transform="matrix(0.7269 -0.6868 0.6868 0.7269 -6.7558 17.0056)" class="st0" width="34.1" height="2"/>
	<path class="st0" d="M12.2,18.9c-2,0-3.6,1.6-3.6,3.6c0,2,1.6,3.6,3.6,3.6c2,0,3.6-1.6,3.6-3.6C15.8,20.5,14.2,18.9,12.2,18.9
		L12.2,18.9z"/>
	<path class="st1" d="M12.2,20.9c0.9,0,1.6,0.7,1.6,1.6s-0.7,1.6-1.6,1.6s-1.6-0.7-1.6-1.6S11.3,20.9,12.2,20.9"/>
	<path class="st0" d="M23.8,7.9c-2,0-3.6,1.6-3.6,3.6s1.6,3.6,3.6,3.6s3.6-1.6,3.6-3.6S25.8,7.9,23.8,7.9L23.8,7.9z"/>
	<path class="st1" d="M23.8,9.9c0.9,0,1.6,0.7,1.6,1.6s-0.7,1.6-1.6,1.6s-1.6-0.7-1.6-1.6S22.9,9.9,23.8,9.9"/>
</svg>
