<svg width="36" height="34" viewBox="0 0 36 34" xmlns="http://www.w3.org/2000/svg">
    <g fill="none" fill-rule="evenodd">
        <path d="M0 0h36v34H0z"/>
        <path fill="#0069FF" fill-rule="nonzero" opacity=".2" d="m7 9 15-2 7 14-17 6z"/>
        <path d="m22.431 6.186.24.479 7 14 .38.76-.801.282-17 6-.758.268-.215-.774-5-18-.23-.83.854-.114 15-2 .53-.071zm-.863 1.628L7.953 9.629l4.554 16.396 15.442-5.45-6.381-12.761z" fill="#0069FF" fill-rule="nonzero"/>
        <circle fill="#0069FF" fill-rule="nonzero" cx="12" cy="27" r="2"/>
        <path d="M12 24.625a2.375 2.375 0 1 1 0 4.75 2.375 2.375 0 0 1 0-4.75zm0 .75a1.625 1.625 0 1 0 0 3.25 1.625 1.625 0 0 0 0-3.25z" fill="#000" fill-rule="nonzero"/>
        <circle fill="#0069FF" fill-rule="nonzero" cx="29" cy="21" r="2"/>
        <path d="M29 18.625a2.375 2.375 0 1 1 0 4.75 2.375 2.375 0 0 1 0-4.75zm0 .75a1.625 1.625 0 1 0 0 3.25 1.625 1.625 0 0 0 0-3.25z" fill="#000" fill-rule="nonzero"/>
        <circle fill="#0069FF" fill-rule="nonzero" cx="22" cy="7" r="2"/>
        <path d="M22 4.625a2.375 2.375 0 1 1 0 4.75 2.375 2.375 0 0 1 0-4.75zm0 .75a1.625 1.625 0 1 0 0 3.25 1.625 1.625 0 0 0 0-3.25z" fill="#000" fill-rule="nonzero"/>
        <circle fill="#0069FF" fill-rule="nonzero" cx="7" cy="9" r="2"/>
        <path d="M7 6.625a2.375 2.375 0 1 1 0 4.75 2.375 2.375 0 0 1 0-4.75zm0 .75a1.625 1.625 0 1 0 0 3.25 1.625 1.625 0 0 0 0-3.25z" fill="#000" fill-rule="nonzero"/>
    </g>
</svg>
