<svg width="36" height="34" viewBox="0 0 36 34" xmlns="http://www.w3.org/2000/svg">
    <g fill="none" fill-rule="evenodd">
        <path d="M0 34h36V0H0z"/>
        <rect class="color-icon-fill" fill="#0069FF" fill-rule="nonzero" opacity=".2" x="6" y="6" width="24" height="22" rx="3"/>
        <path class="color-icon-outline" d="M27 6a3 3 0 0 1 3 3v16a3 3 0 0 1-3 3H9a3 3 0 0 1-3-3V9a3 3 0 0 1 3-3h18zm0 1.5H9A1.5 1.5 0 0 0 7.5 9v16A1.5 1.5 0 0 0 9 26.5h18a1.5 1.5 0 0 0 1.5-1.5V9A1.5 1.5 0 0 0 27 7.5z" fill="#0069FF" fill-rule="nonzero"/>
    </g>
</svg>
