<svg width="24" height="24" viewBox="0 0 24 24" xmlns="http://www.w3.org/2000/svg">
    <g fill-rule="nonzero" fill="none">
        <path d="M0 0h24v24H0z"/>
        <path d="M12 2.5c6.075 0 11 3.582 11 8s-4.925 8-11 8c-.789 0-1.558-.06-2.3-.175-1.851 1.413-3.56 2.4-5.126 2.96l-.338.115a.5.5 0 0 1-.64-.587c.4-1.696.681-3.197.842-4.504C2.32 14.851 1 12.788 1 10.5c0-4.418 4.925-8 11-8zm0 1.38c-5.39 0-9.62 3.076-9.62 6.62 0 1.74 1.012 3.414 2.84 4.672l.69.475-.102.83c-.094.757-.224 1.571-.392 2.443l-.112.56.063-.03c.974-.477 2.016-1.124 3.124-1.943l.372-.279.467-.357.581.09c.68.105 1.38.159 2.089.159 5.39 0 9.62-3.076 9.62-6.62S17.39 3.88 12 3.88zm2.39 3.62 6 3-6 3-.001-2.35H4.36v-1.3h10.029l.001-2.35z" fill="#1500FF"/>
    </g>
</svg>
