<svg width="24" height="24" viewBox="0 0 24 24" xmlns="http://www.w3.org/2000/svg">
    <g fill-rule="nonzero" fill="none">
        <path d="M0 0h24v24H0z"/>
        <path d="m12.635 13 8.865 8.865-.635.635-1.675-1.67a5.913 5.913 0 0 1-7.69-3.33c.39-.99 1.04-1.85 1.87-2.495L12 13.635l.635-.635zM12 2.5c6.075 0 11 3.582 11 8 0 1.197-.361 2.333-1.01 3.352a7.613 7.613 0 0 0-1.127-.806c.489-.79.757-1.653.757-2.546 0-3.544-4.23-6.62-9.62-6.62-5.39 0-9.62 3.076-9.62 6.62 0 1.74 1.012 3.414 2.84 4.672l.69.475-.102.83c-.094.757-.224 1.571-.392 2.443l-.112.56.063-.03c.974-.477 2.016-1.124 3.124-1.943l.372-.279.467-.357.505.078-.216.551.253.642c.029.074.06.147.09.22a8.559 8.559 0 0 1-.262-.037c-1.851 1.413-3.56 2.4-5.126 2.96l-.338.115a.5.5 0 0 1-.64-.587c.4-1.696.681-3.197.842-4.504C2.32 14.851 1 12.788 1 10.5c0-4.418 4.925-8 11-8zm2.765 13.9a2.478 2.478 0 0 0-.265 1.1A2.5 2.5 0 0 0 17 20c.395 0 .765-.1 1.1-.265l-.775-.775A1.41 1.41 0 0 1 17 19c-.83 0-1.5-.67-1.5-1.5 0-.11.015-.22.04-.325l-.775-.775zm2.23-2.65c2.5 0 4.635 1.555 5.5 3.75a5.909 5.909 0 0 1-1.715 2.375l-1.46-1.46c.115-.285.18-.59.18-.915A2.5 2.5 0 0 0 17 15c-.325 0-.63.065-.915.18l-1.08-1.08c.62-.225 1.29-.35 1.99-.35zm.01 2.255c.83 0 1.5.67 1.5 1.5l-.01.08-1.575-1.575.085-.005zm.106-9.96 3.026 5.987-6.605-1.172 1.351-1.817c-3.661-1.427-7.048.119-8.958 4.111l-1.172-.56c2.266-4.739 6.52-6.521 10.929-4.627l1.43-1.922z" fill="#1500FF"/>
    </g>
</svg>
