<!-- Note that this file has been modified from the zeplin export -->
<!-- Ids have been removed, classes have been added, some styling has been removed (like built-in fill and fill-opacity) -->
<?xml version="1.0" encoding="UTF-8"?>
<svg width="24px" height="24px" viewBox="0 0 24 24" version="1.1" xmlns="http://www.w3.org/2000/svg" xmlns:xlink="http://www.w3.org/1999/xlink">
    <g stroke="none" stroke-width="1" fill="none" fill-rule="evenodd">
        <g class="sparrow-delete-button">
            <rect class="sparrow-delete-button-back" fill-opacity="0" fill="#BFE0F7" x="0" y="0" width="24" height="24"></rect>
            <circle class="sparrow-delete-button-highlight" fill-rule="nonzero" cx="12" cy="12" r="12"></circle>
            <circle class="sparrow-delete-button-front" fill-rule="nonzero" cx="12" cy="12" r="8"></circle>
            <path class="sparrow-delete-icon" fill="#FFFFFF" d="M13.2552,12 L15.4907556,9.76444444 C15.5769778,9.67822222 15.5769778,9.53688889 15.4907556,9.45066667 L14.5494222,8.50933333 C14.4623111,8.42311111 14.3218667,8.42311111 14.2356444,8.50933333 L12.0000889,10.7448889 L9.76453333,8.50933333 C9.67831111,8.42311111 9.53697778,8.42311111 9.45075556,8.50933333 L8.50942222,9.45066667 C8.42231111,9.53688889 8.42231111,9.67822222 8.50942222,9.76444444 L10.7449778,12 L8.50942222,14.2355556 C8.42231111,14.3217778 8.42231111,14.4631111 8.50942222,14.5493333 L9.45075556,15.4906667 C9.53697778,15.5768889 9.67831111,15.5768889 9.76453333,15.4906667 L12.0000889,13.2551111 L14.2356444,15.4906667 C14.3218667,15.5768889 14.4623111,15.5768889 14.5494222,15.4906667 L15.4907556,14.5493333 C15.5769778,14.4631111 15.5769778,14.3217778 15.4907556,14.2355556 L13.2552,12 Z"></path>
        </g>
    </g>
</svg>