<svg width="36" height="34" viewBox="0 0 36 34" xmlns="http://www.w3.org/2000/svg">
    <g fill-rule="nonzero" fill="none">
        <path d="M0 0h36v34H0z"/>
        <path d="M20.637 5.999a6.717 6.717 0 0 0-.908 2L9 8c-.542 0-1 .458-1 1v16c0 .542.458 1 1 1h18c.542 0 1-.458 1-1v-8.73a6.717 6.717 0 0 0 2.001-.907L30 25c0 1.65-1.35 3-3 3H9c-1.65 0-3-1.35-3-3V9c0-1.65 1.35-3 3-3l11.637-.001zM13 10v2h1v1h-1v2h1v1h-1v2h1v1h-1v2h2v-1h1v1h2v-1h1v1h2v-1h1v1h2v-1h1v1h1v1H13v2h-1v-2h-2v-1h2V10h1zm14.25-4v2.75l2.75.001v2l-2.75-.001v2.75h-2v-2.75l-2.75.001v-2l2.75-.001V6h2z" fill="#545454"/>
    </g>
</svg>
