<svg xmlns="http://www.w3.org/2000/svg" width="32" height="32" viewBox="2 4 28 24">
    <g fill="none" fill-rule="evenodd">
        <path fill="#707070" d="M24.923 0c1.53 0 2.77 1.24 2.77 2.77v18.46c0 1.53-1.24 2.77-2.77 2.77H2.77C1.24 24 0 22.76 0 21.23V2.77C0 1.24 1.24 0 2.77 0zm.923 4.615h-24v16.616c0 .51.415.923.923.923h22.154c.51 0 .923-.414.923-.923V4.615z" transform="translate(2.153 4)"/>
        <path fill="#707070" d="M24 6.462v13.846H3.692V6.462H24zm-.923.923H4.615v12h18.462v-12z" transform="translate(2.153 4)"/>
    </g>
</svg>
