<svg width="36" height="34" viewBox="0 0 36 34" xmlns="http://www.w3.org/2000/svg">
    <g fill="none" fill-rule="evenodd">
        <path d="M0 0h36v34H0z"/>
        <g fill="#545454" fill-rule="nonzero">
            <path d="M27 6a3 3 0 0 1 3 3v16a3 3 0 0 1-2.824 2.995L27 28H9a3 3 0 0 1-3-3V9a3 3 0 0 1 3-3h18zm0 2H9a1 1 0 0 0-1 1v14h20V9a1 1 0 0 0-1-1z"/>
            <path d="M18 11.25a6.92 6.92 0 0 1 6.247 3.896A6.92 6.92 0 0 1 18 19.042a6.92 6.92 0 0 1-6.247-3.896A6.92 6.92 0 0 1 18 11.25m0-1.417c-3.542 0-6.566 2.203-7.792 5.313 1.226 3.11 4.25 5.312 7.792 5.312s6.566-2.203 7.792-5.312c-1.226-3.11-4.25-5.313-7.792-5.313zm0 3.542a1.771 1.771 0 1 1-.001 3.543A1.771 1.771 0 0 1 18 13.375m0-1.417a3.192 3.192 0 0 0-3.188 3.188A3.192 3.192 0 0 0 18 18.333a3.192 3.192 0 0 0 3.188-3.187A3.192 3.192 0 0 0 18 11.958z"/>
        </g>
    </g>
</svg>
