<svg width="36" height="34" viewBox="0 0 36 34" xmlns="http://www.w3.org/2000/svg">
    <g fill="none" fill-rule="evenodd">
        <path d="M0 0h36v34H0z"/>
        <g fill="#545454" fill-rule="nonzero">
            <path d="M27 6a3 3 0 0 1 3 3v16a3 3 0 0 1-2.824 2.995L27 28H9a3 3 0 0 1-3-3V9a3 3 0 0 1 3-3h18zm0 2H9a1 1 0 0 0-1 1v14h20V9a1 1 0 0 0-1-1z"/>
            <path d="M18 11.25a6.92 6.92 0 0 1 6.247 3.896 6.833 6.833 0 0 1-1.707 2.21l1 .999a8.36 8.36 0 0 0 2.252-3.21c-1.226-3.109-4.25-5.312-7.792-5.312-.9 0-1.764.142-2.578.404l1.168 1.169A7.16 7.16 0 0 1 18 11.25zm-.758.808 1.466 1.466c.404.177.73.503.907.906l1.466 1.467c.057-.241.1-.496.1-.758A3.176 3.176 0 0 0 18 11.959c-.262 0-.51.035-.758.099zM10.924 9.74l1.898 1.899a8.314 8.314 0 0 0-2.614 3.506c1.226 3.11 4.25 5.312 7.792 5.312 1.077 0 2.11-.205 3.06-.58l2.423 2.422.998-.999L11.922 8.735l-.998 1.006zm5.312 5.313 1.849 1.848c-.028.008-.057.015-.085.015-.977 0-1.77-.794-1.77-1.771 0-.036.006-.057.006-.092zm-2.408-2.409 1.24 1.24a3.192 3.192 0 0 0 4.186 4.193l.694.695a7.39 7.39 0 0 1-1.948.269 6.92 6.92 0 0 1-6.247-3.896 7.014 7.014 0 0 1 2.075-2.5z"/>
        </g>
    </g>
</svg>
