<!-- https://www.iconfinder.com/icons/4295558/text_field_formfield_input_textarea_textbox_textfield_icon -->
<svg enable-background="new 0 0 48 48" id="Layer_3" version="1.1" viewBox="0 0 48 48"
      xml:space="preserve" xmlns="http://www.w3.org/2000/svg" xmlns:xlink="http://www.w3.org/1999/xlink">
  <g>
    <polygon points="8,9 10,9 10,12 10,16 10,39 8,39 8,42 16,42 16,39 14,39 14,16 14,12 14,9 16,9 16,6 8,6"/>
    <polygon points="4,16 7.021,16 7.021,12 0,12 0,36 7.042,36 7.042,32 4,32"/>
    <polygon points="16.979,12 16.979,16 44,16 44,32 16.958,32 16.958,36 48,36 48,12"/>
  </g>
</svg>
