<svg width="36" height="34" viewBox="0 0 36 34" xmlns="http://www.w3.org/2000/svg">
    <g fill-rule="nonzero" fill="none">
        <path d="M0 0h36v34H0z"/>
        <path d="M14.747 5.998a10.404 10.404 0 0 0-.9 1.769l-.092.232L9 8c-.503 0-.934.395-.993.885L8 9v16c0 .542.458 1 1 1h18c.542 0 1-.458 1-1l.001-10.215c.714-.345 1.385-.77 2-1.265L30 25c0 1.65-1.35 3-3 3H9c-1.65 0-3-1.35-3-3V9c0-1.65 1.35-3 3-3l5.747-.002zM13 10v2h1v1h-1v2h1v1h-1v2h1v1h-1v2h2v-1h1v1h2v-1h1v1h2v-1h1v1h2v-1h1v1h1v1H13v2h-1v-2h-2v-1h2V10h1zm10.5-6.813c3.542 0 6.566 2.203 7.792 5.313-1.226 3.11-4.25 5.313-7.792 5.313S16.934 11.61 15.708 8.5c1.226-3.11 4.25-5.313 7.792-5.313zm0 1.771A3.543 3.543 0 0 0 19.958 8.5a3.543 3.543 0 0 0 3.542 3.542A3.543 3.543 0 0 0 27.042 8.5 3.543 3.543 0 0 0 23.5 4.958zm0 1.417c1.176 0 2.125.95 2.125 2.125 0 1.176-.95 2.125-2.125 2.125A2.122 2.122 0 0 1 21.375 8.5c0-1.176.95-2.125 2.125-2.125z" fill="#545454"/>
    </g>
</svg>
