<?xml version="1.0" encoding="UTF-8"?>
<svg width="20px" height="21px" viewBox="0 0 20 21" version="1.1" xmlns="http://www.w3.org/2000/svg">
    <title>Warning Icon</title>
    <path d="M9.16666667,12.5 L10.8333333,12.5 L10.8333333,8.33333333 L9.16666667,8.33333333 L9.16666667,12.5 Z M10,15 C10.2358333,15 10.4341667,14.92 10.5933333,14.76 C10.7533333,14.6008333 10.8333333,14.4025 10.8333333,14.1666667 C10.8333333,13.9308333 10.7533333,13.7325 10.5933333,13.5733333 C10.4341667,13.4133333 10.2358333,13.3333333 10,13.3333333 C9.76416667,13.3333333 9.56583333,13.4133333 9.40666667,13.5733333 C9.24666667,13.7325 9.16666667,13.9308333 9.16666667,14.1666667 C9.16666667,14.4025 9.24666667,14.6008333 9.40666667,14.76 C9.56583333,14.92 9.76416667,15 10,15 L10,15 Z M3.70833333,15.8333333 L16.2916667,15.8333333 L10,5 L3.70833333,15.8333333 Z M0.833333333,17.5 L10,1.66666667 L19.1666667,17.5 L0.833333333,17.5 Z" id="Icon"></path>
</svg>
