<?xml version="1.0" encoding="UTF-8"?>
<svg width="20px" height="20px" viewBox="0 0 20 20" version="1.1" xmlns="http://www.w3.org/2000/svg" xmlns:xlink="http://www.w3.org/1999/xlink">
    <title>42972FB4-1ED7-4AA6-B440-F6DC384ECED5</title>
    <g id="Dataflow---Arduino-Interface-Assets" stroke="none" stroke-width="1" fill="none" fill-rule="evenodd">
        <g id="Arduino-Interface-Assets" transform="translate(-774, -477)" fill="#707070" fill-rule="nonzero">
            <g id="EXPORTABLE" transform="translate(207, 61)">
                <g id="Minimize_Arduino" transform="translate(567, 416)">
                    <path d="M11.5,8.5 L11.5,5 L12.5,6 L14.5,4 L16,5.5 L14,7.5 L15,8.5 L11.5,8.5 Z M5,8.5 L8.5,8.5 L8.5,5 L7.5,6 L5.5,4 L4,5.5 L6,7.5 L5,8.5 Z M14.5,16 L16,14.5 L14,12.5 L15,11.5 L11.5,11.5 L11.5,15 L12.5,14 L14.5,16 Z M5.5,16 L7.5,14 L8.5,15 L8.5,11.5 L5,11.5 L6,12.5 L4,14.5 L5.5,16 Z" id="Shape"></path>
                </g>
            </g>
        </g>
    </g>
</svg>