<?xml version="1.0" encoding="UTF-8"?>
<svg width="38px" height="38px" viewBox="0 0 38 38" version="1.1" xmlns="http://www.w3.org/2000/svg" xmlns:xlink="http://www.w3.org/1999/xlink">
    <title>C00EA951-A30D-482A-96EA-12332B7AA183</title>
    <g id="Dataflow---Arduino-Interface-Assets" stroke="none" stroke-width="1" fill="none" fill-rule="evenodd">
        <g id="Arduino-Interface-Assets" transform="translate(-1069, -136)">
            <g id="EXPORTABLE" transform="translate(707, 61)">
                <g id="Pot-Top" transform="translate(381, 94) rotate(360) translate(-381, -94)translate(362, 75)">
                    <circle id="Oval-Copy" stroke="#394BD6" stroke-width="3" fill="#6F7FFF" cx="19" cy="19" r="17.5"></circle>
                    <g id="np_arrow_6577602_000000" transform="translate(19, 18) scale(1, -1) translate(-19, -18)translate(13, 6)" fill="#FFFFFF" fill-rule="nonzero">
                        <path d="M3.80092599,0 C3.69675441,0 3.62775692,0.059766 3.62775692,0.15 L3.62775692,15.9597 L0.164375544,15.9597 C0.0953780598,15.9597 0.026380576,15.990168 0.026380576,16.049934 C-0.00879352532,16.1097 -0.00879352532,16.169466 0.026380576,16.199934 L5.87880243,23.940234 C5.91397653,23.970702 5.98297402,24 6.0167974,24 C6.08579488,24 6.12096898,23.969532 6.15479237,23.940234 L11.9736194,16.199934 C12.0087935,16.140168 12.0087935,16.1097 11.9736194,16.049934 C11.9384453,15.990168 11.8694478,15.9597 11.8356245,15.9597 L8.37224308,15.9597 L8.37224308,0.15 C8.33706897,0.059766 8.26807149,0 8.16389991,0 L3.80092599,0 Z" id="Path"></path>
                    </g>
                </g>
            </g>
        </g>
    </g>
</svg>