<?xml version="1.0" encoding="UTF-8"?>
<svg width="44px" height="91px" viewBox="0 0 44 91" version="1.1" xmlns="http://www.w3.org/2000/svg" xmlns:xlink="http://www.w3.org/1999/xlink">
    <title>4CA096AB-C486-49EC-9F71-513569ADE877</title>
    <g id="Dataflow---Arduino-Interface-Assets" stroke="none" stroke-width="1" fill="none" fill-rule="evenodd">
        <g id="Arduino-Interface-Assets" transform="translate(-778, -279)" stroke="#C66C02" stroke-width="3">
            <g id="EXPORTABLE" transform="translate(707, 61)">
                <g id="Servo-Back" transform="translate(73, 220)">
                    <g id="Back" transform="translate(0, 5)">
                        <rect id="Rectangle" fill="#E0AF64" x="0" y="56" width="40" height="18"></rect>
                        <rect id="Rectangle-Copy-2" fill="#C66C02" x="0" y="74" width="40" height="8"></rect>
                        <rect id="Rectangle-Copy" fill="#F7E58F" x="0" y="0" width="40" height="56"></rect>
                    </g>
                    <g id="Top" transform="translate(4, 0)">
                        <path d="M16,34 C24.836556,34 32,27.9558441 32,20.5 C32,19.3419273 32,18 32,14.5 C32,2.5 9.09494702e-13,1.21173881 9.09494702e-13,14.5 C9.09494702e-13,16.7835414 9.09494702e-13,18.0235678 9.09494702e-13,20.5 C9.09494702e-13,27.9558441 7.163444,34 16,34 Z" id="Oval-Copy-2" fill="#E0AF64"></path>
                        <ellipse id="Oval" fill="#F7E58F" cx="16" cy="13.5" rx="16" ry="13.5"></ellipse>
                    </g>
                </g>
            </g>
        </g>
    </g>
</svg>