<?xml version="1.0" encoding="UTF-8"?>
<svg width="150px" height="151px" viewBox="0 0 150 151" version="1.1" xmlns="http://www.w3.org/2000/svg" xmlns:xlink="http://www.w3.org/1999/xlink">
    <title>ADCC086E-2168-4043-8421-6B53179C8971</title>
    <g id="Dataflow---Arduino-Interface-Assets" stroke="none" stroke-width="1" fill="none" fill-rule="evenodd">
        <g id="Arduino-Interface-Assets" transform="translate(-1045, -269)">
            <g id="EXPORTABLE" transform="translate(707, 61)">
                <g id="Servo-Arm" transform="translate(338, 209)">
                    <path d="M0,0 L150,0 L150,150 L0,150 Z" id="Bounding-Box"></path>
                    <g id="Arm" transform="translate(66, 0)">
                        <rect id="back" stroke="#C66C02" stroke-width="2" fill="#C66C02" x="0" y="0" width="18" height="84" rx="9"></rect>
                        <path d="M12.7919539,72.216627 C12.9306513,72.0770748 13,71.9092593 13,71.7123366 C13,71.5154139 12.9306502,71.3476093 12.7919539,71.2080461 C12.6524017,71.0693487 12.4845861,71 12.2876634,71 C12.0907407,71 11.9229361,71.0693498 11.783373,71.2080461 L9,73.9918574 L6.21662703,71.2080461 C6.07707482,71.0693487 5.90925928,71 5.71233657,71 C5.51541387,71 5.34760929,71.0693498 5.20804612,71.2080461 C5.06934871,71.3475983 5,71.5154139 5,71.7123366 C5,71.9092593 5.0693498,72.0770639 5.20804612,72.216627 L7.99185745,75 L5.20804612,77.783373 C5.06934871,77.9229252 5,78.0907407 5,78.2876634 C5,78.4845861 5.0693498,78.6523907 5.20804612,78.7919539 C5.34759833,78.9306513 5.51541387,79 5.71233657,79 C5.90925928,79 6.07706386,78.9306502 6.21662703,78.7919539 L9,76.0081426 L11.783373,78.7919539 C11.9229252,78.9306513 12.0907407,79 12.2876634,79 C12.4845861,79 12.6523907,78.9306502 12.7919539,78.7919539 C12.9306513,78.6524017 13,78.4845861 13,78.2876634 C13,78.0907407 12.9306502,77.9229361 12.7919539,77.783373 L10.0081426,75 L12.7919539,72.216627 Z" id="Path" fill="#F7E58F" fill-rule="nonzero" transform="translate(9, 75) rotate(45) translate(-9, -75)"></path>
                        <circle id="Marker" fill="#FFFFFF" cx="9" cy="9" r="3"></circle>
                    </g>
                    <g id="Arm-Copy" transform="translate(75, 75) rotate(90) translate(-75, -75)translate(69.3431, 69.3431)" fill="#F7E58F" fill-rule="nonzero">
                        <path d="M9.44880813,2.87348128 C9.58750554,2.73392907 9.65685425,2.56611353 9.65685425,2.36919082 C9.65685425,2.17226812 9.58750445,2.00446354 9.44880813,1.86490037 C9.30925592,1.72620295 9.14144038,1.65685425 8.94451768,1.65685425 C8.74759497,1.65685425 8.57979039,1.72620405 8.44022722,1.86490037 L5.65685425,4.64871169 L2.87348128,1.86490037 C2.73392907,1.72620295 2.56611353,1.65685425 2.36919082,1.65685425 C2.17226812,1.65685425 2.00446354,1.72620405 1.86490037,1.86490037 C1.72620295,2.00445258 1.65685425,2.17226812 1.65685425,2.36919082 C1.65685425,2.56611353 1.72620405,2.73391811 1.86490037,2.87348128 L4.64871169,5.65685425 L1.86490037,8.44022722 C1.72620295,8.57977943 1.65685425,8.74759497 1.65685425,8.94451768 C1.65685425,9.14144038 1.72620405,9.30924496 1.86490037,9.44880813 C2.00445258,9.58750554 2.17226812,9.65685425 2.36919082,9.65685425 C2.56611353,9.65685425 2.73391811,9.58750445 2.87348128,9.44880813 L5.65685425,6.6649968 L8.44022722,9.44880813 C8.57977943,9.58750554 8.74759497,9.65685425 8.94451768,9.65685425 C9.14144038,9.65685425 9.30924496,9.58750445 9.44880813,9.44880813 C9.58750554,9.30925592 9.65685425,9.14144038 9.65685425,8.94451768 C9.65685425,8.74759497 9.58750445,8.57979039 9.44880813,8.44022722 L6.6649968,5.65685425 L9.44880813,2.87348128 Z" id="Path" transform="translate(5.6569, 5.6569) rotate(45) translate(-5.6569, -5.6569)"></path>
                    </g>
                </g>
            </g>
        </g>
    </g>
</svg>