<?xml version="1.0" encoding="UTF-8"?>
<svg width="14px" height="14px" viewBox="0 0 14 14" version="1.1" xmlns="http://www.w3.org/2000/svg" xmlns:xlink="http://www.w3.org/1999/xlink">
    <title>664824A2-A1C9-4292-BC0C-4D95C07F150A</title>
    <g id="Dataflow---Arduino-Interface-Assets" stroke="none" stroke-width="1" fill="none" fill-rule="evenodd">
        <g id="Arduino-Interface-Assets" transform="translate(-897, -480)" fill="#707070" fill-rule="nonzero">
            <g id="EXPORTABLE" transform="translate(207, 61)">
                <g id="Symbols" transform="translate(567, 416)">
                    <g id="Stopwatch" transform="translate(123, 3)">
                        <g id="np_stopwatch_3803936_000000" transform="translate(1, 0)">
                            <path d="M7.49918949,1.34739356 L6.675663,1.34739356 L6.675663,1.96366687 C7.89838174,2.09326583 9.0127771,2.58759758 9.90632602,3.33621644 L10.1966909,3.04585138 L10.0238887,2.87304903 C9.96373686,2.81289718 9.96373686,2.71501551 10.0238887,2.65486227 L10.5619779,2.11677277 C10.6215823,2.05662093 10.7200113,2.05662093 10.7801645,2.11677277 L11.8464877,3.18309654 C11.9060922,3.24324838 11.9060922,3.34113005 11.8464877,3.4012833 L11.3083985,3.93937279 C11.2482467,3.99897728 11.1503651,3.99897728 11.0902119,3.93937279 L10.9174096,3.76657044 L10.6297745,4.05420572 C11.5271311,5.10739852 12.069,6.47279465 12.069,7.96521675 C12.069,9.63192508 11.3936657,11.1401659 10.3016406,12.2320797 C9.20961544,13.3241054 7.70092745,14 6.03477998,14 C4.36807255,14 2.85983252,13.3246654 1.76791938,12.2320797 C0.675894238,11.1400539 0,9.63136512 0,7.96521675 C0,6.47349459 0.541910895,5.10748251 1.43922552,4.05420572 L1.1515904,3.76657044 L0.978788145,3.93937279 C0.919183686,3.99897728 0.820754715,3.99897728 0.7606015,3.93937279 L0.222512301,3.4012833 C0.162360485,3.34113145 0.162360485,3.24324978 0.222512301,3.18309654 L1.28883548,2.11677277 C1.34843994,2.05662093 1.44686891,2.05662093 1.50647617,2.11677277 L2.04456537,2.65486227 C2.10471719,2.71446676 2.10471719,2.81289578 2.04456537,2.87304903 L1.87176312,3.04585138 L2.16212802,3.33621644 C3.0561949,2.58759758 4.1701283,2.09326863 5.39279104,1.96366687 L5.39279104,1.34739356 L4.56926455,1.34739356 C4.46208627,1.34739356 4.37514199,1.26044782 4.37514199,1.15327089 L4.37514199,0.194668621 C4.37514199,0.0874902883 4.46208767,0 4.56926455,0 L7.49979145,0 C7.60696972,0 7.69391401,0.087493088 7.69391401,0.194668621 L7.69391401,1.15327089 C7.69391401,1.26044922 7.60696832,1.34739356 7.49979145,1.34739356 L7.49918949,1.34739356 Z M9.61484121,4.38389367 C8.69834811,3.46740008 7.43241481,2.90085083 6.03420602,2.90085083 C4.63540929,2.90085083 3.37007794,3.46737208 2.45301088,4.38389367 C1.53651778,5.30038727 0.969968846,6.56632126 0.969968846,7.9645308 C0.969968846,9.3633283 1.53648978,10.6286603 2.45301088,11.5457279 C3.36950398,12.4622215 4.63543729,13.0287707 6.03420602,13.0287707 C7.4324568,13.0287707 8.69833411,12.4622495 9.61484121,11.5457279 C10.5313343,10.6292343 11.0978832,9.3633003 11.0978832,7.9645308 C11.0978832,6.56627926 10.5313623,5.30040127 9.61484121,4.38389367 Z" id="Shape"></path>
                            <path d="M6.03420602,7.96411084 L6.03420602,3.76556252 C3.71515049,3.76556252 1.83510003,5.645614 1.83510003,7.96411084 C1.83510003,10.2831676 3.71515049,12.1632191 6.03420602,12.1632191 C7.28481055,12.1632191 8.4697323,11.6054472 9.26766883,10.6430792 L6.03420602,7.96467079 L6.03420602,7.96411084 Z" id="Path"></path>
                        </g>
                    </g>
                </g>
            </g>
        </g>
    </g>
</svg>
