<?xml version="1.0" encoding="utf-8"?>
<!-- Generator: Adobe Illustrator 22.1.0, SVG Export Plug-In . SVG Version: 6.00 Build 0)  -->
<svg version="1.1" id="Close" xmlns="http://www.w3.org/2000/svg" xmlns:xlink="http://www.w3.org/1999/xlink" x="0px" y="0px"
	 viewBox="0 0 30 30" style="enable-background:new 0 0 30 30;" xml:space="preserve">
<path d="M17.8,15l5-5c0.2-0.2,0.2-0.5,0-0.7l-2.1-2.1C20.5,7,20.2,7,20,7.1l-5,5l-5-5C9.8,7,9.5,7,9.3,7.1L7.1,9.3
	C7,9.5,7,9.8,7.1,10l5,5l-5,5c-0.2,0.2-0.2,0.5,0,0.7l2.1,2.1c0.2,0.2,0.5,0.2,0.7,0l5-5l5,5c0.2,0.2,0.5,0.2,0.7,0l2.1-2.1
	c0.2-0.2,0.2-0.5,0-0.7L17.8,15z"/>
</svg>
