<?xml version="1.0" encoding="utf-8"?>
<svg version="1.1" xmlns:xlink="http://www.w3.org/1999/xlink" width="39px" height="30px" xmlns="http://www.w3.org/2000/svg">
  <g transform="matrix(1 0 0 1 -531 -563 )">
    <path d="M 36 0  C 37.7 0  39 1.3  39 3  L 39 4  L 39 5  L 39 27  C 39 28.7  37.7 30  36 30  L 12 30  C 10.3 30  9 28.7  9 27  L 9 24.9  L 11 23.2  L 11 27  C 11 27.6  11.4 28  12 28  L 36 28  C 36.6 28  37 27.6  37 27  L 37 5  L 11 5  L 11 6.9  L 9 5.1  L 9 5  L 9 4  L 9 3  C 9 1.3  10.3 0  12 0  L 36 0  Z M 35 7  L 13 7  L 13 8.6  L 14 9.5  L 14 8  L 34 8  L 34 25  L 14 25  L 14 20.5  L 13 21.4  L 13 26  L 35 26  L 35 7  Z M 17.2 15  L 6.3 5.5  C 5.8 5.1  5.1 5.4  5.1 6  L 5.1 9  L 0.5 9  C 0.2 9  0 9.2  0 9.5  L 0 20.6  C 0 20.8  0.2 21  0.5 21  L 5.1 21  L 5.1 24  C 5.1 24.6  5.8 25  6.3 24.6  L 17.2 15  Z " fill-rule="nonzero" fill="#547935" stroke="none" transform="matrix(1 0 0 1 531 563 )" />
  </g>
</svg>