<svg id="icon-backyard-claw" xmlns="http://www.w3.org/2000/svg" viewBox="0 0 14 14">
  <title>backyard claw</title>
  <path id="backyard_claw" d="M4.4851,6.83657c-.164,.039-.333,.062-.505,.062-.112,0-.226-.009-.341-.026-.593-.092-1.116-.41-1.471-.895-.356-.485-.501-1.079-.409-1.672,.038-.248,.121-.479,.234-.692-.739,.003-1.435,.01-1.663,.028-.099,.007-.209,.068-.33,.161v6.398c.121,.093,.231,.153,.33,.161,.228,.017,.925,.025,1.664,.028-.113-.214-.197-.446-.235-.695-.092-.593,.053-1.187,.409-1.672,.355-.485,.878-.803,1.471-.895,.115-.018,.229-.026,.341-.026h0c.172,0,.34,.023,.505,.062-.01-.075-.017-.135-.017-.162,0-.028,.007-.089,.017-.165"/><path id="Fill-4" class="cls-2" d="M4.7236,9.23697c.063,.409-.218,.793-.627,.856-.408,.063-.792-.218-.855-.627-.064-.409,.218-.793,.626-.856,.409-.063,.793,.218,.856,.627h0Zm9.276-.219l-.641-.881-5.682,3.701-2.188-3.376c-.005-.009-.08-.112-.08-.112-.371-.526-1.015-.833-1.693-.728-.954,.147-1.61,1.043-1.463,1.997,.148,.953,1.043,1.609,1.997,1.462,.18-.028,.344-.089,.499-.166l1.983,2.692c.268,.42,.848,.525,1.239,.21l6.029-4.799Z"/><path id="Fill-7" class="cls-2" d="M3.8678,5.38987c-.409-.063-.69-.447-.627-.856,.063-.408,.447-.69,.856-.626,.409,.063,.69,.447,.627,.855-.063,.409-.447,.69-.856,.627h0ZM7.9708,.18287c-.391-.315-.971-.209-1.239,.21l-1.983,2.692c-.155-.076-.32-.138-.499-.166-.954-.147-1.85,.509-1.997,1.463-.147,.953,.509,1.849,1.462,1.996,.679,.105,1.323-.202,1.694-.728,0,0,.074-.102,.08-.112l2.188-3.375,5.681,3.701,.642-.882L7.9708,.18287Z"/>
</svg>
