<svg id="icon-grabber" xmlns="http://www.w3.org/2000/svg" viewBox="0 0 14 14">
  <title>grabber</title>
  <path id="grabber" d="M1.2515,9.3965c-.01-.223,.051-.433,.143-.63-.106-.192-.206-.385-.272-.551l-.054-.135c-.313,.161-.678,.285-1.068,.341v1.823c.619,.086,1.17,.368,1.563,.636l.005,.003c.211,.146,.461,.23,.722,.279-.066-.168-.122-.364-.174-.562-.485-.191-.84-.651-.865-1.204"/><path id="Fill-4" class="cls-2" d="M6.3536,7.8519c-.013-.032-.035-.123-.064-.24-.199,.143-.417,.262-.666,.319-.138,.031-.278,.047-.418,.047-.868,0-1.639-.615-1.832-1.462-.025-.111-.036-.222-.041-.332-.449,.181-.842,.344-.981,.411-.25,.122-.405,.732-.765,1.436,.036,.091,.086,.193,.14,.299,.231-.204,.511-.34,.824-.354,.36-.023,.71,.11,.979,.355,.269,.245,.425,.581,.442,.944,.033,.75-.55,1.387-1.299,1.421h-.013c.031,.103,.064,.203,.099,.291,.666,.238,1.162,.535,1.449,.535,.033,0,.063-.004,.091-.013,.149-.046,.553-.2,1.01-.378-.073-.085-.15-.168-.208-.266-.524-.894-.223-2.047,.67-2.571,.215-.127,.455-.192,.701-.224-.06-.105-.105-.186-.118-.218"/><path id="Fill-8" class="cls-2" d="M7.0207,10.4238c-.094,.055-.197,.081-.298,.081-.203,0-.401-.104-.511-.292-.165-.281-.07-.644,.211-.808,.094-.055,.196-.082,.298-.082,.203,0,.401,.105,.511,.292,.165,.281,.07,.644-.211,.809h0Zm6.216-4.121l-3.087,4.36-2.583-1.838c-.007-.005-.091-.058-.091-.058-.227-.149-.494-.229-.764-.229-.234,0-.471,.06-.688,.187-.655,.385-.876,1.231-.491,1.887,.256,.437,.718,.681,1.191,.681,.237,0,.477-.061,.696-.189,.123-.073,.226-.166,.317-.267l2.234,1.396c.118,.086,.256,.127,.392,.127,.23,0,.454-.116,.577-.332l3.023-5.266-.726-.459Z"/><path id="Fill-10" class="cls-2" d="M5.3372,6.6748c-.044,.01-.088,.015-.131,.015-.27,0-.514-.186-.576-.46-.073-.318,.127-.635,.444-.707,.044-.01,.088-.015,.132-.015,.269,0,.514,.186,.576,.46,.072,.317-.127,.635-.445,.707h0ZM6.8312,1.6698c-.065-.02-.129-.029-.193-.029-.31,0-.592,.223-.654,.543l-.671,2.547c-.045-.004-.091-.006-.137-.006-.092,0-.184,.008-.277,.029-.741,.169-1.207,.91-1.038,1.651,.146,.639,.716,1.073,1.345,1.073,.101,0,.203-.011,.306-.035,.528-.12,.91-.531,1.029-1.025,0,0,.025-.096,.026-.105l.623-3.108,5.236,1.062,.214-.832L6.8312,1.6698Z"/>
</svg>
