<svg xmlns="http://www.w3.org/2000/svg" xmlns:xlink="http://www.w3.org/1999/xlink" width="36" height="34" viewBox="0 0 36 34">
    <g fill-rule="evenodd" fill="#545454" stroke="none">
        <g transform="translate(-568 -1048) translate(566 1046) translate(2 2) translate(5 6)">
            <g>
                <path d="M7.01 4.071l4.427 4.426H2.584L7.01 4.071zm6.718 4.242L5.67.257c-.341-.342-.894-.342-1.236 0-.343.34-.343.895-.001 1.237l1.34 1.34-5.48 5.48c-.39.39-.39 1.023 0 1.413l6.01 6.01c.195.195.45.293.708.293.256 0 .512-.098.707-.293l6.01-6.01c.39-.39.39-1.023 0-1.414z" transform="translate(4)"/>
                <g transform="translate(4) translate(14 10.105)">
                    <path d="M3.98 4.126C3.98 5.16 3.143 6 2.107 6 1.07 6 .232 5.16.232 4.126c0-1.52 1.891-3.21 1.891-3.21S3.98 2.582 3.98 4.126"/>
                </g>
            </g>
        </g>
    </g>
    <rect x="5.25" y="24.25" width="25.5" height="4.5" stroke-width="0.5"/>
</svg>
