<svg width="18" height="18" viewBox="0 0 18 18" xmlns="http://www.w3.org/2000/svg">
    <g fill-rule="evenodd">
        <path d="M15.75.75A2.257 2.257 0 0 1 18 3v12a2.257 2.257 0 0 1-2.25 2.25H2.25A2.257 2.257 0 0 1 0 15V3A2.257 2.257 0 0 1 2.25.75h13.5zm0 1.5H2.25A.76.76 0 0 0 1.5 3v12c0 .406.343.75.75.75h13.5a.76.76 0 0 0 .75-.75V3a.76.76 0 0 0-.75-.75zm-1.5 1.5v10.5H3.75V3.75h10.5zm-.75 8.348H9.375v1.41H13.5v-1.41zm-4.875-.75H4.5v.75h4.125v-.75zm4.875-1.41H9.375v1.41H13.5v-1.41zm-4.875-.743H4.5v.75h4.125v-.75zm4.875-1.41H9.375v1.41H13.5v-1.41zm-4.8-.75H4.5v.75h4.2v-.75zm4.8-1.41H9.375v1.41H13.5v-1.41z"/>
    </g>
</svg>
