<?xml version="1.0" encoding="UTF-8"?>
<svg width="24px" height="24px" viewBox="0 0 24 24" version="1.1" xmlns="http://www.w3.org/2000/svg" xmlns:xlink="http://www.w3.org/1999/xlink">
    <title>B8FF61EB-9794-4F86-8C72-FF18EC028C4B</title>
    <g id="CLUE-UI-+-MothEd" stroke="none" stroke-width="1" fill="none" fill-rule="evenodd">
        <g id="Data-Card-Tile" transform="translate(-1622, -90)">
            <g id="Exportable-Assets" transform="translate(1020, 69)">
                <g id="ID-Type-Image" transform="translate(602, 21)">
                    <rect id="back" x="0" y="0" width="24" height="24"></rect>
                    <rect id="Rectangle" fill="#E2F4F8" fill-rule="nonzero" x="4" y="5" width="16" height="14" rx="2"></rect>
                    <path d="M18,5 C19.1045695,5 20,5.8954305 20,7 L20,17 C20,18.1045695 19.1045695,19 18,19 L6,19 C4.8954305,19 4,18.1045695 4,17 L4,7 C4,5.8954305 4.8954305,5 6,5 L18,5 Z M18,6.25 L6,6.25 C5.58578644,6.25 5.25,6.58578644 5.25,7 L5.25,17 C5.25,17.4142136 5.58578644,17.75 6,17.75 L18,17.75 C18.4142136,17.75 18.75,17.4142136 18.75,17 L18.75,7 C18.75,6.58578644 18.4142136,6.25 18,6.25 Z" id="Rectangle" fill="#0481A0" fill-rule="nonzero"></path>
                    <path d="M6.90545455,16.3266364 L17.0872727,16.3266364 L17.0872727,12 L15.3811818,10.2188182 C15.2106364,10.0482727 14.9338182,10.0482727 14.7626364,10.2188182 L10.4054545,14.5766364 L8.96472727,13.1359091 C8.79418182,12.9653636 8.51672727,12.9653636 8.34618182,13.1359091 L6.90545455,14.5766364 L6.90545455,16.3266364 Z M9.82190909,9.03009091 C9.82190909,9.83572727 9.169,10.4886364 8.364,10.4886364 C7.55836364,10.4886364 6.90545455,9.83572727 6.90545455,9.03009091 C6.90545455,8.22445455 7.55836364,7.57218182 8.364,7.57218182 C9.169,7.57218182 9.82190909,8.22445455 9.82190909,9.03009091 L9.82190909,9.03009091 Z" id="Combined-Shape" fill="#707070"></path>
                </g>
            </g>
        </g>
    </g>
</svg>