<?xml version="1.0" encoding="UTF-8"?>
<svg width="24px" height="24px" viewBox="0 0 24 24" version="1.1" xmlns="http://www.w3.org/2000/svg" xmlns:xlink="http://www.w3.org/1999/xlink">
    <title>1353BBFE-484C-438F-B817-62B7B34EAA3D</title>
    <g id="CLUE-UI-+-MothEd" stroke="none" stroke-width="1" fill="none" fill-rule="evenodd">
        <g id="Data-Card-Tile" transform="translate(-1690, -90)">
            <g id="Exportable-Assets" transform="translate(1020, 69)">
                <g id="ID-Type-Text" transform="translate(670, 21)">
                    <rect id="back" x="0" y="0" width="24" height="24"></rect>
                    <rect id="Rectangle" fill="#E2F4F8" fill-rule="nonzero" x="4" y="5" width="16" height="14" rx="2"></rect>
                    <path d="M18,5 C19.1045695,5 20,5.8954305 20,7 L20,17 C20,18.1045695 19.1045695,19 18,19 L6,19 C4.8954305,19 4,18.1045695 4,17 L4,7 C4,5.8954305 4.8954305,5 6,5 L18,5 Z M18,6.25 L6,6.25 C5.58578644,6.25 5.25,6.58578644 5.25,7 L5.25,17 C5.25,17.4142136 5.58578644,17.75 6,17.75 L18,17.75 C18.4142136,17.75 18.75,17.4142136 18.75,17 L18.75,7 C18.75,6.58578644 18.4142136,6.25 18,6.25 Z" id="Rectangle" fill="#0481A0" fill-rule="nonzero"></path>
                    <path d="M10.64225,13.0406429 L13.3519286,13.0406429 L12.3173571,10.2131786 C12.27,10.0875 12.2183929,9.93996429 12.1613214,9.76875 C12.1048571,9.59875 12.0483929,9.41296429 11.9943571,9.21321429 C11.9391071,9.41296429 11.8850714,9.59935714 11.83225,9.77239286 C11.7794286,9.94421429 11.7278214,10.0947857 11.6768214,10.2247143 L10.64225,13.0406429 Z M16.1441786,16.25 L14.9213929,16.25 C14.7841786,16.25 14.6718571,16.2153929 14.5838214,16.1473929 C14.4951786,16.0787857 14.4314286,15.9937857 14.3925714,15.8911786 L13.7575,14.1571786 L10.2366786,14.1571786 L9.60160714,15.8911786 C9.57003571,15.9816429 9.50871429,16.0636071 9.41582143,16.1388929 C9.32414286,16.2129643 9.21121429,16.25 9.07825,16.25 L7.85,16.25 L11.1886786,7.75 L12.8055,7.75 L16.1441786,16.25 Z" id="Combined-Shape" fill="#707070"></path>
                </g>
            </g>
        </g>
    </g>
</svg>