<?xml version="1.0" encoding="UTF-8"?>
<svg width="24px" height="24px" viewBox="0 0 24 24" version="1.1" xmlns="http://www.w3.org/2000/svg" xmlns:xlink="http://www.w3.org/1999/xlink">
    <title>D785420E-E1BB-4D96-815F-6DFF66DFF890</title>
    <g id="CLUE-UI-+-MothEd" stroke="none" stroke-width="1" fill="none" fill-rule="evenodd">
        <g id="Data-Card-Tile" transform="translate(-1656, -90)">
            <g id="Exportable-Assets" transform="translate(1020, 69)">
                <g id="ID-Type-Number" transform="translate(636, 21)">
                    <rect id="back" fill-rule="nonzero" x="0" y="0" width="24" height="24"></rect>
                    <rect id="Rectangle" fill="#E2F4F8" fill-rule="nonzero" x="4" y="5" width="16" height="14" rx="2"></rect>
                    <path d="M18,5 C19.1045695,5 20,5.8954305 20,7 L20,17 C20,18.1045695 19.1045695,19 18,19 L6,19 C4.8954305,19 4,18.1045695 4,17 L4,7 C4,5.8954305 4.8954305,5 6,5 L18,5 Z M18,6.25 L6,6.25 C5.58578644,6.25 5.25,6.58578644 5.25,7 L5.25,17 C5.25,17.4142136 5.58578644,17.75 6,17.75 L18,17.75 C18.4142136,17.75 18.75,17.4142136 18.75,17 L18.75,7 C18.75,6.58578644 18.4142136,6.25 18,6.25 Z" id="Rectangle" fill="#0481A0" fill-rule="nonzero"></path>
                    <path d="M13.404,13.8185 L12.96125,16.1645 L12.3115,16.1645 C12.1965,16.1645 12.0968333,16.1185 12.0125,16.0265 C11.9281667,15.9345 11.886,15.8214167 11.886,15.68725 C11.886,15.6680833 11.8869583,15.649875 11.888875,15.632625 C11.8907917,15.615375 11.8936667,15.5971667 11.8975,15.578 L12.23675,13.8185 L11.058,13.8185 L10.7245,15.647 C10.69,15.831 10.6114167,15.96325 10.48875,16.04375 C10.3660833,16.12425 10.23,16.1645 10.0805,16.1645 L9.45375,16.1645 L9.89075,13.8185 L9.2295,13.8185 C9.10683333,13.8185 9.01291667,13.7887917 8.94775,13.729375 C8.88258333,13.6699583 8.85,13.57125 8.85,13.43325 C8.85,13.3795833 8.85575,13.31825 8.86725,13.24925 L8.942,12.795 L10.0345,12.795 L10.3335,11.208 L9.103,11.208 L9.21225,10.61575 C9.23908333,10.4700833 9.2985,10.3617917 9.3905,10.290875 C9.4825,10.2199583 9.632,10.1845 9.839,10.1845 L10.47725,10.1845 L10.83375,8.333 C10.8644167,8.17966667 10.9353333,8.06083333 11.0465,7.9765 C11.1576667,7.89216667 11.288,7.85 11.4375,7.85 L12.0815,7.85 L11.6445,10.1845 L12.8175,10.1845 L13.26025,7.85 L13.89275,7.85 C14.0269167,7.85 14.1361667,7.88833333 14.2205,7.965 C14.3048333,8.04166667 14.347,8.13941667 14.347,8.25825 C14.347,8.29658333 14.3450833,8.32533333 14.34125,8.3445 L13.98475,10.1845 L15.152,10.1845 L15.04275,10.77675 C15.0159167,10.9224167 14.9555417,11.0307083 14.861625,11.101625 C14.7677083,11.1725417 14.6191667,11.208 14.416,11.208 L13.841,11.208 L13.54775,12.795 L14.36425,12.795 C14.4869167,12.795 14.579875,12.8247083 14.643125,12.884125 C14.706375,12.9435417 14.738,13.0441667 14.738,13.186 C14.738,13.2396667 14.73225,13.301 14.72075,13.37 L14.65175,13.8185 L13.404,13.8185 Z M11.20175,12.795 L12.3805,12.795 L12.67375,11.208 L11.50075,11.208 L11.20175,12.795 Z" id="Shape" fill="#707070"></path>
                </g>
            </g>
        </g>
    </g>
</svg>