<?xml version="1.0" encoding="UTF-8"?>
<svg width="24px" height="24px" viewBox="0 0 24 24" version="1.1" xmlns="http://www.w3.org/2000/svg" xmlns:xlink="http://www.w3.org/1999/xlink">
    <title>1B192692-C342-4D04-AB95-A994904DBCE7</title>
    <g id="CLUE-UI-+-MothEd" stroke="none" stroke-width="1" fill="none" fill-rule="evenodd">
        <g id="Data-Card-Tile" transform="translate(-1588, -90)">
            <g id="Exportable-Assets" transform="translate(1020, 69)">
                <g id="ID-Type-Date" transform="translate(568, 21)">
                    <rect id="back" x="0" y="0" width="24" height="24"></rect>
                    <rect id="Rectangle" fill="#E2F4F8" fill-rule="nonzero" x="4" y="5.5" width="16" height="13.5" rx="2"></rect>
                    <path d="M16.25,3.5 C16.8022847,3.5 17.25,3.94771525 17.25,4.5 L17.25,5.5 L18,5.5 C19.1045695,5.5 20,6.3954305 20,7.5 L20,17 C20,18.1045695 19.1045695,19 18,19 L6,19 C4.8954305,19 4,18.1045695 4,17 L4,7.5 C4,6.4456382 4.81587779,5.58183488 5.85073766,5.50548574 L6,5.5 L6.75,5.5 L6.75,4.5 C6.75,3.94771525 7.19771525,3.5 7.75,3.5 C8.30228475,3.5 8.75,3.94771525 8.75,4.5 L8.75,5.5 L15.25,5.5 L15.25,4.5 C15.25,3.94771525 15.6977153,3.5 16.25,3.5 Z M18.75,8 L5.25,8 L5.25,17 C5.25,17.4142136 5.58578644,17.75 6,17.75 L18,17.75 C18.4142136,17.75 18.75,17.4142136 18.75,17 L18.75,8 Z" id="Combined-Shape" fill="#0481A0" fill-rule="nonzero"></path>
                    <path d="M6.87,9.75 L9.12,9.75 L9.12,12 L6.87,12 Z M6.87,13.75 L9.12,13.75 L9.12,16 L6.87,16 Z M10.87,9.75 L13.12,9.75 L13.12,12 L10.87,12 Z M10.87,13.75 L13.12,13.75 L13.12,16 L10.87,16 Z M14.87,9.75 L17.12,9.75 L17.12,12 L14.87,12 Z M14.87,13.75 L17.12,13.75 L17.12,16 L14.87,16 Z" id="Combined-Shape" fill="#707070"></path>
                </g>
            </g>
        </g>
    </g>
</svg>