<?xml version="1.0" encoding="UTF-8"?>
<svg width="26px" height="26px" viewBox="0 0 26 26" version="1.1" xmlns="http://www.w3.org/2000/svg" xmlns:xlink="http://www.w3.org/1999/xlink">
    <title>52CFB01C-770A-4806-ABED-AFE266A7059A</title>
    <g id="CLUE-UI-+-MothEd" stroke="none" stroke-width="1" fill="none" fill-rule="evenodd">
        <g id="Data-Card-Tile" transform="translate(-1724, -88)" fill-rule="nonzero">
            <g id="Exportable-Assets" transform="translate(1020, 69)">
                <g id="Total-Cards-2-digits" transform="translate(704, 19)">
                    <rect id="back" x="0" y="0" width="26" height="26"></rect>
                    <rect id="Rectangle" fill="#FFFFFF" x="3.5" y="6" width="22" height="20" rx="2"></rect>
                    <path d="M23.5,6 C24.6045695,6 25.5,6.8954305 25.5,8 L25.5,24 C25.5,25.1045695 24.6045695,26 23.5,26 L5.5,26 C4.3954305,26 3.5,25.1045695 3.5,24 L3.5,8 C3.5,6.8954305 4.3954305,6 5.5,6 L23.5,6 Z M23.5,7.2 L5.5,7.2 C5.0581722,7.2 4.7,7.5581722 4.7,8 L4.7,24 C4.7,24.4418278 5.0581722,24.8 5.5,24.8 L23.5,24.8 C23.9418278,24.8 24.3,24.4418278 24.3,24 L24.3,8 C24.3,7.5581722 23.9418278,7.2 23.5,7.2 Z" id="Rectangle" fill="#979797"></path>
                    <rect id="Rectangle" fill="#FFFFFF" x="0.5" y="3" width="22" height="20" rx="2"></rect>
                    <path d="M20.5,3 C21.6045695,3 22.5,3.8954305 22.5,5 L22.5,21 C22.5,22.1045695 21.6045695,23 20.5,23 L2.5,23 C1.3954305,23 0.5,22.1045695 0.5,21 L0.5,5 C0.5,3.8954305 1.3954305,3 2.5,3 L20.5,3 Z M20.5,4.2 L2.5,4.2 C2.0581722,4.2 1.7,4.5581722 1.7,5 L1.7,21 C1.7,21.4418278 2.0581722,21.8 2.5,21.8 L20.5,21.8 C20.9418278,21.8 21.3,21.4418278 21.3,21 L21.3,5 C21.3,4.5581722 20.9418278,4.2 20.5,4.2 Z" id="Rectangle" fill="#979797"></path>
                </g>
            </g>
        </g>
    </g>
</svg>