<?xml version="1.0" encoding="UTF-8"?>
<svg width="34px" height="26px" viewBox="0 0 34 26" version="1.1" xmlns="http://www.w3.org/2000/svg" xmlns:xlink="http://www.w3.org/1999/xlink">
    <title>DA89AFD7-CD95-4012-A722-87DCAFFDE48E</title>
    <g id="CLUE-UI-+-MothEd" stroke="none" stroke-width="1" fill="none" fill-rule="evenodd">
        <g id="Data-Card-Tile" transform="translate(-1760, -88)" fill-rule="nonzero">
            <g id="Exportable-Assets" transform="translate(1020, 69)">
                <g id="Total-Cards-3-digits" transform="translate(740, 19)">
                    <rect id="back" x="0" y="0" width="26" height="26"></rect>
                    <rect id="Rectangle" fill="#FFFFFF" x="3.5" y="6" width="30" height="20" rx="2"></rect>
                    <path d="M31.5,6 C32.6045695,6 33.5,6.8954305 33.5,8 L33.5,24 C33.5,25.1045695 32.6045695,26 31.5,26 L5.5,26 C4.3954305,26 3.5,25.1045695 3.5,24 L3.5,8 C3.5,6.8954305 4.3954305,6 5.5,6 L31.5,6 Z M31.5,7.2 L5.5,7.2 C5.0581722,7.2 4.7,7.5581722 4.7,8 L4.7,24 C4.7,24.4418278 5.0581722,24.8 5.5,24.8 L31.5,24.8 C31.9418278,24.8 32.3,24.4418278 32.3,24 L32.3,8 C32.3,7.5581722 31.9418278,7.2 31.5,7.2 Z" id="Rectangle" fill="#979797"></path>
                    <rect id="Rectangle" fill="#FFFFFF" x="0.5" y="3" width="30" height="20" rx="2"></rect>
                    <path d="M28.5,3 C29.6045695,3 30.5,3.8954305 30.5,5 L30.5,21 C30.5,22.1045695 29.6045695,23 28.5,23 L2.5,23 C1.3954305,23 0.5,22.1045695 0.5,21 L0.5,5 C0.5,3.8954305 1.3954305,3 2.5,3 L28.5,3 Z M28.5,4.2 L2.5,4.2 C2.0581722,4.2 1.7,4.5581722 1.7,5 L1.7,21 C1.7,21.4418278 2.0581722,21.8 2.5,21.8 L28.5,21.8 C28.9418278,21.8 29.3,21.4418278 29.3,21 L29.3,5 C29.3,4.5581722 28.9418278,4.2 28.5,4.2 Z" id="Rectangle" fill="#979797"></path>
                </g>
            </g>
        </g>
    </g>
</svg>