<svg xmlns="http://www.w3.org/2000/svg" viewBox="0 0 30 26" preserveAspectRatio="xMidYMid meet"><path fill="#6a8e4a" d="M9,8V21H5V8H9m1-1H4V22h6V7Zm1-7H3A3,3,0,0,0,0,3V23a3,3,0,0,0,3,3h8a3,3,0,0,0,3-3V3A3,3,0,0,0,11,0Zm1,23a1,1,0,0,1-1,1H3a1,1,0,0,1-1-1V5H12Zm11.42-1h.84V21h-.84Zm-1.68,0h.84V21h-.84ZM20,11.42h1v-.88H20Zm0,5.28h1v-.88H20Zm0-3.52h1V12.3H20Zm0,1.76h1v-.88H20Zm0,5.27h1v-.87H20Zm0-1.75h1v-.88H20Zm0-8.79h1V8.79H20ZM24.26,7h-.84V8h.84ZM22.58,7h-.84V8h.84ZM26,10.54H25v.88h1Zm0,5.28H25v.88h1Zm0,1.76H25v.88h1Zm0-5.28H25v.88h1Zm0,7H25v.88h1Zm0-5.27H25v.88h1Zm0-5.27H25v.87h1ZM25,7V8h1V7ZM21,7H20V8h1ZM20,22h1V21H20ZM25,22h1V21H25ZM27,0H19a3,3,0,0,0-3,3V23a3,3,0,0,0,3,3h8a3,3,0,0,0,3-3V3A3,3,0,0,0,27,0Zm1,23a1,1,0,0,1-1,1H19a1,1,0,0,1-1-1V5H28Z"/></svg>
