<svg id="Support_Icon" data-name="Support Icon" xmlns="http://www.w3.org/2000/svg" viewBox="0 0 30 30"><g id="support"><path fill="#4d8dc8" d="M27,0H3A3,3,0,0,0,0,3V27a3,3,0,0,0,3,3H27a3,3,0,0,0,3-3V3A3,3,0,0,0,27,0ZM15,25.5A12.83,12.83,0,0,1,11.52,25,24.71,24.71,0,0,1,4,27c.33-.44,3.34-2.22,2.13-5.18A10.84,10.84,0,0,1,3,14.25C3,8,8.37,3,15,3S27,8,27,14.25,21.63,25.5,15,25.5ZM15,5.25a6,6,0,0,0-6,6c0,2.92,2.17,4.13,2.86,6.64h6.34c.69-2.51,2.86-3.72,2.86-6.64A6,6,0,0,0,15,5.25Zm-2.57,5L11.09,9.6a3.66,3.66,0,0,1,2.6-2.13l.37,1.43A2.18,2.18,0,0,0,12.43,10.22Zm4.72,11.26-.38,1.75v0H13.24l-.39-1.77h4.3m1.16-.9H11.69V18.82h6.62Z"/></g></svg>