<svg width="36" height="34" viewBox="0 0 36 34" xmlns="http://www.w3.org/2000/svg">
<g fill-rule="nonzero" fill="none">
<path d="M0 0h36v34H0z"/>
<path d="M20.637 5.999a6.717 6.717 0 0 0-.908 2L9 8c-.542 0-1 .458-1 1v16c0 .542.458 1 1 1h18c.542 0 1-.458 1-1v-8.73a6.717 6.717 0 0 0 2.001-.907L30 25c0 1.65-1.35 3-3 3H9c-1.65 0-3-1.35-3-3V9c0-1.65 1.35-3 3-3l11.637-.001zM19.505 10c.032.888.236 1.732.579 2.5H17v1.875h3.5v-1.088a6.786 6.786 0 0 0 2.018 2.088H21.5v1.875H25v-.865c.326.06.66.098 1 .11V24H10V10h9.505zM25 21.125h-3.5V23H25v-1.875zm-4.5 0H17V23h3.5v-1.875zm-4.5 0h-5V23h5v-1.875zm9-2.875h-3.5v1.875H25V18.25zm-4.5 0H17v1.875h3.5V18.25zm-4.5 0h-5v1.875h5V18.25zm4.5-2.875H17v1.875h3.5v-1.875zm-4.5 0h-5v1.875h5v-1.875zm0-2.875h-5v1.875h5V12.5zM27.25 6v2.75l2.75.001v2l-2.75-.001v2.75h-2v-2.75l-2.75.001v-2l2.75-.001V6h2z" fill="#545454"/>
</g>
</svg>
