<?xml version="1.0" encoding="UTF-8"?><svg id="sensor_emg" xmlns="http://www.w3.org/2000/svg" viewBox="0 0 14 14">
<title>emg</title>
<path id="muscle" d="M13.50323,.91714c-.82062,.82062-1.43815,1.58681-1.69477,2.10279-.0283,.05701-.04923,.11767-.07605,.17531-.18634-.0239-.4118-.09955-.61993-.30768-.20819-.20819-.28383-.43358-.30768-.61998,.05758-.02676,.1183-.04774,.17525-.07605,.52421-.26073,1.27119-.86271,2.10279-1.69477l-.49677-.49677c-.76802,.76848-1.46742,1.33797-1.9189,1.56211-.47847,.23786-1.00176,.42175-1.55571,.61661-1.32974,.46795-2.83696,.99765-4.31491,2.47605-1.40338,1.40338-1.85761,2.72398-2.29628,4.00065-.23969,.69712-.46612,1.35536-.84121,1.99895-.26073,.44736-.78815,1.06077-1.65909,1.93171l.49677,.49677c.91485-.9144,1.47703-1.57355,1.76887-2.07443,.03265-.05592,.05832-.11247,.08897-.16862,.18086,.02745,.38933,.09423,.55034,.25524,.16107,.16107,.22786,.36949,.25524,.55034-.05615,.03065-.1127,.05632-.16862,.08897-.5082,.29641-1.40796,1.10194-2.07443,1.76887l.49677,.49677c.75064-.75109,1.54519-1.43312,1.93171-1.65909,.6436-.37509,1.30184-.60152,1.99895-.84121,1.27668-.43867,2.59727-.8929,4.00065-2.29628,1.4784-1.47795,2.0081-2.98517,2.47605-4.31491,.19486-.55394,.37875-1.07724,.61661-1.55571,.21728-.4373,.81605-1.17238,1.56211-1.9189l-.49677-.49677Zm-4.42743,3.24636c-1.10697,.43044-3.10318,1.48206-4.03588,3.68732-.05672,.13403-.18663,.21453-.3234,.21453-.04574,0-.0924-.00869-.13677-.0279-.17885-.07548-.26256-.28177-.18663-.46017,1.03333-2.44312,3.21754-3.59766,4.42743-4.06881,.18114-.06861,.38515,.01921,.45514,.20035,.07044,.18068-.01921,.38424-.1999,.45468Z"/></svg>