<svg id="icon-humidity" xmlns="http://www.w3.org/2000/svg" viewBox="0 0 14 14">
  <title>humidity</title>
  <g id="humidity"><path d="M7.06,3.07A3,3,0,0,0,9.5,4.41a3.06,3.06,0,0,0,2.28-1.32A2.84,2.84,0,0,0,14,4.41v-1C12.93,3.41,12.26,2,12.26,2L11.83,1l-.47.91c-.22.41-1,1.48-1.86,1.48A2.34,2.34,0,0,1,7.56,2L7.17,1l-.51.9A3.24,3.24,0,0,1,5,3.34V2A2,2,0,0,0,1,2V8.8A3,3,0,0,0,0,11a3,3,0,0,0,6,0A3,3,0,0,0,5,8.77V8.36A3.66,3.66,0,0,0,7.06,7.07,3,3,0,0,0,9.5,8.41a3.06,3.06,0,0,0,2.28-1.32A2.84,2.84,0,0,0,14,8.41v-1C12.93,7.41,12.26,6,12.26,6L11.83,5l-.47.91c-.22.41-1,1.48-1.86,1.48A2.34,2.34,0,0,1,7.56,6L7.17,5l-.51.9A3.24,3.24,0,0,1,5,7.34v-3A3.66,3.66,0,0,0,7.06,3.07ZM5,11A2,2,0,1,1,2,9.29V2A1,1,0,0,1,4,2v.5H3v.75H4V4.5H3v.75H4V6.5H3v.75H4V8.5H3v.75H4v0A2,2,0,0,1,5,11Z"/></g>
</svg>
