<?xml version="1.0" encoding="UTF-8"?>
<svg width="14px" height="14px" viewBox="0 0 14 14" version="1.1" xmlns="http://www.w3.org/2000/svg" xmlns:xlink="http://www.w3.org/1999/xlink">
    <title>A17E58EC-91E4-4BFB-BB26-3D7DCBA745EB</title>
    <g id="Brainwaves-UI" stroke="none" stroke-width="1" fill="none" fill-rule="evenodd">
        <g id="Brainwaves-Program-Tile" transform="translate(-2217, -211)" fill-rule="nonzero">
            <g id="Sensor-EMG-ICON" transform="translate(2217, 211)">
                <rect id="Rectangle" x="0" y="0" width="14" height="14"></rect>
                <path d="M6.25,3.75 C7.63071187,3.75 8.75,4.86928813 8.75,6.25 C8.75,6.46093714 8.72387587,6.66577267 8.67468652,6.86144765 C11.1506257,8.52104292 12.9540325,10.9532425 13.9666409,13.9996374 L12.64349,14.0001236 C11.711862,11.4383922 10.1617055,9.39286952 8.07107672,7.96194358 C7.61433774,8.44777152 6.96746349,8.75 6.25,8.75 C4.86928813,8.75 3.75,7.63071187 3.75,6.25 C3.75,4.86928813 4.86928813,3.75 6.25,3.75 Z M6.25,0 C9.70177969,0 12.5,2.79822031 12.5,6.25 C12.5,6.91026068 12.3976173,7.54660859 12.2078617,8.14403391 C11.915139,7.81144124 11.6087539,7.49434682 11.2881363,7.19199145 C11.3452372,6.887776 11.375,6.57236374 11.375,6.25 C11.375,3.41954066 9.08045934,1.125 6.25,1.125 C3.41954066,1.125 1.125,3.41954066 1.125,6.25 C1.125,9.08045934 3.41954066,11.375 6.25,11.375 C7.26564281,11.375 8.21228277,11.0795637 9.00866962,10.5699412 C9.26511536,10.8449393 9.50680364,11.1341223 9.73405064,11.4378321 C8.73846722,12.1092637 7.53986429,12.5 6.25,12.5 C2.79822031,12.5 0,9.70177969 0,6.25 C0,2.79822031 2.79822031,0 6.25,0 Z M7.19518425,7.06803201 L7.26117211,6.98559961 L7.36832134,6.80937507 L7.439,6.636 L7.474,6.501 L7.48820313,6.42243767 L7.49722805,6.3339123 L7.5,6.25 C7.5,5.55964406 6.94035594,5 6.25,5 C5.55964406,5 5,5.55964406 5,6.25 C5,6.94035594 5.55964406,7.5 6.25,7.5 C6.6275384,7.5 6.96598451,7.33262598 7.19518425,7.06803201 Z" id="Sensor-EMG-Icon" fill="#000000"></path>
            </g>
        </g>
    </g>
</svg>