<svg xmlns="http://www.w3.org/2000/svg" viewBox="0 0 14 9" preserveAspectRatio="xMidYMid meet"><path fill="#242424" d="M14,7a2,2,0,1,1-2-2A2,2,0,0,1,14,7ZM7,5A2,2,0,1,0,9,7,2,2,0,0,0,7,5ZM2,5A2,2,0,1,0,4,7,2,2,0,0,0,2,5ZM12,0a2,2,0,1,0,2,2A2,2,0,0,0,12,0ZM7,0A2,2,0,1,0,9,2,2,2,0,0,0,7,0ZM2,0A2,2,0,1,0,4,2,2,2,0,0,0,2,0Z"/><path fill="#FFFFFF" d="M12.5,6.5a.75.75,0,1,1-.75-.75A.76.76,0,0,1,12.5,6.5ZM6.75,5.75a.75.75,0,1,0,.75.75A.76.76,0,0,0,6.75,5.75Zm-5,0a.75.75,0,1,0,.75.75A.76.76,0,0,0,1.75,5.75Zm10-5a.75.75,0,1,0,.75.75A.76.76,0,0,0,11.75.75Zm-5,0a.75.75,0,1,0,.75.75A.76.76,0,0,0,6.75.75Zm-5,0a.75.75,0,1,0,.75.75A.76.76,0,0,0,1.75.75Z"/></svg>
