<svg width="36" height="34" viewBox="0 0 36 34" xmlns="http://www.w3.org/2000/svg">
    <g fill="none" fill-rule="evenodd">
        <!-- <path d="M0 0h36v34H0z"/> -->
        <path d="M27 6c1.65 0 3 1.35 3 3v16c0 1.65-1.35 3-3 3H9c-1.65 0-3-1.35-3-3V9c0-1.65 1.35-3 3-3zm0 2H9c-.542 0-1 .458-1 1v16c0 .542.458 1 1 1h18c.542 0 1-.458 1-1V9c0-.542-.458-1-1-1zm-2 2v14H11V10h14zm-1 11.13h-5.5v1.88H24v-1.88zm-6.5-1H12v1h5.5v-1zm6.5-1.88h-5.5v1.88H24v-1.88zm-6.5-.99H12v1h5.5v-1zm6.5-1.88h-5.5v1.88H24v-1.88zm-6.4-1H12v1h5.6v-1zM24 12.5h-5.5v1.88H24V12.5z" fill="#707070"/>
    </g>
</svg>
