<?xml version="1.0" encoding="UTF-8"?>
<svg id="Layer_2" data-name="Layer 2" xmlns="http://www.w3.org/2000/svg" viewBox="0 0 18 18">
  <g id="clear">
    <path id="clear-2" data-name="clear" d="m9,0C4.02942,0,0,4.02942,0,9s4.02942,9,9,9,9-4.02948,9-9S13.97058,0,9,0Zm4.66315,11.98639c.11578.11578.11578.30347,0,.41925l-1.25757,1.25751c-.11578.11578-.30347.11578-.41931,0l-2.98627-2.98633-2.98627,2.98633c-.11584.11578-.30353.11578-.41931,0l-1.25757-1.25751c-.11578-.11578-.11578-.30347,0-.41925l2.98633-2.98639-2.98633-2.98645c-.11578-.11578-.11578-.30347,0-.41919l1.25757-1.25751c.11578-.11584.30347-.11584.41931,0l2.98627,2.98633,2.98627-2.98633c.11584-.11584.30353-.11584.41931,0l1.25757,1.25751c.11578.11572.11578.30341,0,.41919l-2.98633,2.98645,2.98633,2.98639Z"/>
  </g>
</svg>