<?xml version="1.0" encoding="UTF-8"?>
<svg id="Layer_2" data-name="Layer 2" xmlns="http://www.w3.org/2000/svg" viewBox="0 0 18 18">
  <g id="pause">
    <path id="pause-2" data-name="pause" d="m9,0C4.02942,0,0,4.02942,0,9s4.02942,9,9,9,9-4.02946,9-9S13.97058,0,9,0Zm-1.35,13.5c0,.16567-.13433.3-.3.3h-2.7c-.16567,0-.3-.13433-.3-.3V4.5c0-.16571.13433-.3.3-.3h2.7c.16567,0,.3.13429.3.3v9Zm6,0c0,.16567-.13433.3-.3.3h-2.7c-.16567,0-.3-.13433-.3-.3V4.5c0-.16571.13433-.3.3-.3h2.7c.16567,0,.3.13429.3.3v9Z"/>
  </g>
</svg>