<?xml version="1.0" encoding="UTF-8"?>
<svg width="36px" height="34px" viewBox="0 0 36 34" version="1.1" xmlns="http://www.w3.org/2000/svg" xmlns:xlink="http://www.w3.org/1999/xlink">
    <title>9609BEEF-1C2D-466B-99DE-DAE0C635DDD9</title>
    <g id="Clear-and-Reset-ICON" stroke="none" fill="none">
        <rect id="Rectangle" fill-rule="nonzero" x="0" y="0" width="36" height="34"></rect>
        <path d="M9.375,22.0625 C8.91666667,21.2708333 8.57291667,20.4583333 8.34375,19.625 C8.11458333,18.7916667 8,17.9375 8,17.0625 C8,14.2708333 8.96875,11.8958333 10.90625,9.9375 C12.84375,7.97916667 15.2083333,7 18,7 L18.21875,7 L16.21875,5 L17.96875,3.25 L22.96875,8.25 L17.96875,13.25 L16.21875,11.5 L18.21875,9.5 L18,9.5 C15.9166667,9.5 14.1458333,10.234375 12.6875,11.703125 C11.2291667,13.171875 10.5,14.9583333 10.5,17.0625 C10.5,17.6041667 10.5625,18.1354167 10.6875,18.65625 C10.8125,19.1770833 11,19.6875 11.25,20.1875 L9.375,22.0625 Z M18.03125,30.75 L13.03125,25.75 L18.03125,20.75 L19.78125,22.5 L17.78125,24.5 L18,24.5 C20.0833333,24.5 21.8541667,23.765625 23.3125,22.296875 C24.7708333,20.828125 25.5,19.0416667 25.5,16.9375 C25.5,16.3958333 25.4375,15.8645833 25.3125,15.34375 C25.1875,14.8229167 25,14.3125 24.75,13.8125 L26.625,11.9375 C27.0833333,12.7291667 27.4270833,13.5416667 27.65625,14.375 C27.8854167,15.2083333 28,16.0625 28,16.9375 C28,19.7291667 27.03125,22.1041667 25.09375,24.0625 C23.15625,26.0208333 20.7916667,27 18,27 L17.78125,27 L19.78125,29 L18.03125,30.75 Z" id="Clear-and-Reset" fill="#545454" fill-rule="evenodd" transform="translate(18, 17) scale(-1, 1) translate(-18, -17)"></path>
    </g>
</svg>