<svg id="icon-light" xmlns="http://www.w3.org/2000/svg" viewBox="0 0 14 14">
  <title>light</title>
  <path id="light" d="M3.33,7.63H0V6.37H3.32a4.07,4.07,0,0,0-.06.6A3.6,3.6,0,0,0,3.33,7.63ZM4.82,3.94,2.49,1.61l-.88.88L3.94,4.83A3.55,3.55,0,0,1,4.82,3.94Zm5.25.87,2.32-2.32-.88-.88L9.19,3.93A3.68,3.68,0,0,1,10.07,4.81ZM7,3.22a4.2,4.2,0,0,1,.62.06V0H6.37V3.29A3.39,3.39,0,0,1,7,3.22ZM10.7,6.37a4.07,4.07,0,0,1,.06.6,4.76,4.76,0,0,1-.06.66H14V6.37ZM9.16,10l2.35,2.35.88-.88L10.05,9.16A3.91,3.91,0,0,1,9.16,10ZM7,10.72a4.48,4.48,0,0,1-.64-.06V14H7.63V10.66A4.2,4.2,0,0,1,7,10.72ZM4,9.15,1.61,11.51l.88.88L4.85,10A3.68,3.68,0,0,1,4,9.15ZM7,4.47A2.5,2.5,0,1,0,9.51,7,2.5,2.5,0,0,0,7,4.47Z"/>
</svg>
