<svg id="icon-particulates" xmlns="http://www.w3.org/2000/svg" viewBox="0 0 14 14">
  <title>particulates</title>
  <path id="particulates" d="M10.33,7A3.25,3.25,0,1,1,7.08,3.7,3.25,3.25,0,0,1,10.33,7ZM2.5,0a2,2,0,1,0,2,2A2,2,0,0,0,2.5,0ZM1.25,6.88A1.25,1.25,0,1,0,2.5,8.13,1.25,1.25,0,0,0,1.25,6.88Zm2.1,3.45a1.5,1.5,0,1,0,1.5,1.5A1.5,1.5,0,0,0,3.35,10.33Zm4.4,1.17A1.25,1.25,0,1,0,9,12.75,1.25,1.25,0,0,0,7.75,11.5Zm4.5-3A1.75,1.75,0,1,0,14,10.25,1.75,1.75,0,0,0,12.25,8.5Zm-.08-6.25A1.25,1.25,0,1,0,13.42,3.5,1.25,1.25,0,0,0,12.17,2.25Z"/>
</svg>
