<svg width="18" height="18" viewBox="0 0 18 18" xmlns="http://www.w3.org/2000/svg">
    <g fill-rule="evenodd">
        <path d="M15.75.75A2.257 2.257 0 0 1 18 3v12a2.257 2.257 0 0 1-2.25 2.25H2.25A2.257 2.257 0 0 1 0 15V3A2.257 2.257 0 0 1 2.25.75h13.5zm0 1.5H2.25A.76.76 0 0 0 1.5 3v12c0 .406.343.75.75.75h13.5a.76.76 0 0 0 .75-.75V3a.76.76 0 0 0-.75-.75zm-1.125 2.813c.207 0 .375.167.375.375v6.75a.375.375 0 0 1-.375.374H12a.375.375 0 0 1-.375-.374v-6.75c0-.208.168-.375.375-.375h2.625zm-9.765.85c.27 0 .513.04.73.119.216.079.4.188.553.328.152.14.269.307.35.5.081.194.122.407.122.64 0 .2-.028.385-.084.555-.057.17-.133.332-.231.486-.098.153-.21.302-.34.446a12.48 12.48 0 0 1-.268.29l-1.21 1.242c.137-.04.272-.072.406-.096.134-.024.26-.036.377-.036h1.02c.125 0 .224.035.296.104.073.068.109.159.109.271v.675H2.85v-.374c0-.073.015-.15.045-.233A.53.53 0 0 1 3 10.657l1.628-1.638c.135-.135.252-.264.352-.386.1-.123.182-.244.247-.362.066-.12.114-.238.147-.357.032-.118.049-.244.049-.377 0-.217-.052-.384-.156-.5-.104-.116-.262-.175-.474-.175a.732.732 0 0 0-.436.14.674.674 0 0 0-.22.27l-.027.067a.542.542 0 0 1-.152.243.383.383 0 0 1-.25.075l-.08-.003-.088-.011-.615-.11c.04-.272.117-.51.23-.712.114-.202.256-.371.424-.506a1.72 1.72 0 0 1 .58-.302c.217-.066.451-.1.701-.1zm4.605 1.103v1.485h1.387v.833H9.465v1.492H8.52V9.334H7.14V8.5h1.38V7.016h.945z"/>
    </g>
</svg>
