<svg width="18" height="18" viewBox="0 0 18 18" xmlns="http://www.w3.org/2000/svg">
    <g fill-rule="evenodd">
        <g>
            <path opacity=".3" d="M14.25 6.315 9 8.503v6.124l5.25-2.187z"/>
            <path d="M3.75 6.315 9 8.503v6.124L6.556 13.61c.245-.225.487-.487.73-.788a1.312 1.312 0 1 0-2.046-1.645c-.54.672-.928.934-1.489.953V6.315z" opacity=".15"/>
            <path d="M15.75.75A2.257 2.257 0 0 1 18 3v12a2.257 2.257 0 0 1-2.25 2.25H2.25A2.257 2.257 0 0 1 0 15v-.555c.386-.183.745-.19 1.5-.036v.59c0 .407.344.75.75.75h13.5a.76.76 0 0 0 .75-.75V3a.76.76 0 0 0-.75-.75H2.25A.76.76 0 0 0 1.5 3v8.742c-.565-.087-1.042-.106-1.5-.035V3A2.257 2.257 0 0 1 2.25.75h13.5zM9 4.77l5.25 1.545v6.125L9 14.627 6.556 13.61c.184-.169.366-.358.548-.57l.135-.163 1.292.54V8.815L4.688 7.213v4.549c-.298.248-.583.356-.937.368V6.315L9 4.77zm-2.443 6.865a.469.469 0 0 1 .071.659c-1.197 1.488-2.307 1.817-3.926 1.513l-.345-.072-.271-.062c-.992-.227-1.553-.29-2.085-.132v-.971c.576-.116 1.188-.053 2.069.14l.537.12.112.025c1.397.294 2.183.089 3.179-1.149a.469.469 0 0 1 .659-.071zm6.756-4.422L9.469 8.815v4.602l3.844-1.602V7.213zM9 5.747l-3.161.93 3.16 1.317 3.162-1.317L9 5.747zm6.213-2.413c.15.142.158.38.016.53l-1.298 1.38-.807-.237 1.559-1.657a.375.375 0 0 1 .53-.016zM3.736 3.24l1.127 1.77-.748.22-1.012-1.586a.375.375 0 1 1 .633-.404zm2.68.05.492 1.118-.725.214-.454-1.029a.375.375 0 1 1 .687-.302zm5.693-.43c.19.085.274.307.19.496L11.744 4.6l-.726-.214.596-1.336a.375.375 0 0 1 .495-.19zM9.122 2.83l.068.001a.375.375 0 0 1 .332.413l-.074.681L9 3.793l-.302.088.078-.718a.375.375 0 0 1 .28-.324l.066-.01z"/>
        </g>
    </g>
</svg>
