<svg width="36" height="34" viewBox="0 0 36 34" xmlns="http://www.w3.org/2000/svg">
    <g fill="none" fill-rule="evenodd">
        <path d="M0 0h36v34H0z"/>
        <g fill="#545454" fill-rule="nonzero">
            <path opacity=".2" d="M20.5 17 29 28V6z"/>
            <path d="m7 6 8.5 11L7 28V6zm1.5 4.393v13.213L13.604 17 8.5 10.393zM29 6v22l-8.5-11L29 6zm-1.5 4.393L22.395 17l5.105 6.606V10.393z"/>
            <path d="M19 27v2h-2v-2h2zm0-4.4v2h-2v-2h2zm0-4.4v2h-2v-2h2zm0-4.4v2h-2v-2h2zm0-4.4v2h-2v-2h2zM19 5v2h-2V5h2z" opacity=".65"/>
        </g>
    </g>
</svg>
