<svg width="36" height="34" viewBox="0 0 36 34" xmlns="http://www.w3.org/2000/svg">
<g stroke="none" fill-rule="nonzero" >
  <path fill="var(--stroke-color)" d="m23.8 16.958.643.03.341.013c5.362.184 9.425 3.618 8.43 7.262-1.41 5.175-11 7.447-21.2 4.959l.473-1.944c9.285 2.265 17.762.257 18.798-3.541.57-2.087-2.205-4.487-6.3-4.725l-.27-.013a37.155 37.155 0 0 1-2.75-.18l1.834-1.861zm-11.043-3.29-1.894 1.92c-3.554.168-6.667 2.273-6.37 4.795.171 1.456 1.09 2.589 2.131 3.188l-.1.588a2.62 2.62 0 0 0 .243 1.644c-2.038-.644-3.95-2.557-4.26-5.186-.527-4.48 4.945-7.617 10.25-6.95zm5.876-3.467a.44.44 0 0 1 .625 0l4.062 4.12a.45.45 0 0 1 0 .631l-9.608 9.745-4.446.79a.885.885 0 0 1-1.017-1.032l.775-4.51 9.609-9.744zm-7.178 10.25h-1.329l-.413 2.393L10.851 24l2.36-.42v-1.347h-1.756V20.45zm7.68-7.79a.506.506 0 0 0-.725 0l-5.635 5.715a.52.52 0 0 0 0 .735c.201.203.524.203.725 0l5.635-5.715c.2-.204.2-.531 0-.735zm5.118-5.64 2.2 2.23a1.797 1.797 0 0 1 0 2.52l-1.687 1.712a.438.438 0 0 1-.622 0l-4.062-4.12a.448.448 0 0 1 0-.63l1.687-1.712a1.74 1.74 0 0 1 2.484 0z"/>
  <path fill="var(--fill-color)" d="m23.905 18.966.81.033c4.243.147 7.152 2.606 6.57 4.738-1.036 3.798-9.513 5.806-18.798 3.541l-.237.972-1.371-1.273 3.687-.655 7.4-7.504c.58.064 1.22.112 1.939.148zm-13.042-3.378-3.47 3.52-.769 4.463c-1.041-.6-1.96-1.732-2.13-3.188-.298-2.522 2.815-4.627 6.369-4.795z"/>
</g>
</svg>
