<svg width="24" height="24" viewBox="0 0 24 24" xmlns="http://www.w3.org/2000/svg">
    <g fill="none" fill-rule="evenodd">
        <path d="M0 0h24v24H0z"/>
        <path d="M12.208 8.288a7.105 7.105 0 0 1 6.414 4 7.105 7.105 0 0 1-6.414 4 7.105 7.105 0 0 1-6.414-4 7.105 7.105 0 0 1 6.414-4m0-1.455c-3.637 0-6.741 2.262-8 5.455 1.259 3.193 4.363 5.454 8 5.454 3.637 0 6.741-2.262 8-5.454-1.259-3.193-4.363-5.455-8-5.455zm0 3.637a1.819 1.819 0 1 1-.001 3.637 1.819 1.819 0 0 1 .001-3.637m0-1.455a3.277 3.277 0 0 0-3.273 3.273 3.277 3.277 0 0 0 3.273 3.272 3.277 3.277 0 0 0 3.273-3.272 3.277 3.277 0 0 0-3.273-3.273z" fill="#545454" fill-rule="nonzero"/>
    </g>
</svg>
