<svg width="36" height="34" viewBox="0 0 36 34" xmlns="http://www.w3.org/2000/svg">
    <g fill="none" fill-rule="evenodd">
        <path d="M0 34h36V0H0z"/>
        <path d="m19.321 26.41.276 1.98c-.688.096-1.384.13-2.078.1l.085-1.998a9.528 9.528 0 0 0 1.717-.083zm-5.067-.677a9.52 9.52 0 0 0 1.636.53l-.443 1.95a11.52 11.52 0 0 1-1.98-.642l.787-1.838zm8.294-.39.96 1.754c-.613.335-1.252.612-1.91.829l-.626-1.9a9.426 9.426 0 0 0 1.576-.684zm-11.176-1.535c.413.402.859.764 1.333 1.083l-1.115 1.66a11.436 11.436 0 0 1-1.615-1.312l1.397-1.431zm13.87-.656 1.522 1.297a11.53 11.53 0 0 1-1.487 1.455l-1.265-1.549a9.53 9.53 0 0 0 1.23-1.203zM9.372 20.985c.24.518.528 1.015.861 1.488l-1.633 1.153a11.499 11.499 0 0 1-1.042-1.8l1.814-.841zM18 5.5c5.113 0 9.447 3.337 10.942 7.952l2.29-.021-3.184 7.03-3.315-6.97 2.09-.02A9.503 9.503 0 0 0 18 7.5v-2zm.003 9.502a2 2 0 1 1 0 4 2 2 0 0 1 0-4zM15.81 5.708l.38 1.964a9.431 9.431 0 0 0-1.65.478l-.73-1.862a11.431 11.431 0 0 1 2-.58zm-7.284 12c.043.573.136 1.14.281 1.696l-1.935.505c-.175-.673-.29-1.36-.34-2.053l1.994-.147zm-1.53-4.048 1.914.58a9.555 9.555 0 0 0-.348 1.684l-1.987-.227c.079-.69.22-1.372.42-2.037zm1.907-3.698 1.581 1.225c-.352.454-.66.939-.924 1.448l-1.777-.917c.319-.617.693-1.205 1.12-1.756zm3.106-2.779 1.044 1.706a9.602 9.602 0 0 0-1.395 1.038l-1.333-1.49a11.824 11.824 0 0 1 1.684-1.254z" fill="#545454"/>
    </g>
</svg>
