<svg width="24" height="24" viewBox="0 0 24 24" xmlns="http://www.w3.org/2000/svg">
    <g fill="none" fill-rule="evenodd">
        <path d="M0 0h24v24H0z"/>
        <path d="M12.208 7.317a7.105 7.105 0 0 1 6.414 4 7.015 7.015 0 0 1-1.753 2.27l1.027 1.025a8.583 8.583 0 0 0 2.312-3.296c-1.259-3.192-4.363-5.454-8-5.454-.924 0-1.811.146-2.647.415l1.2 1.2a7.351 7.351 0 0 1 1.447-.16zm-.778.83 1.505 1.505c.415.182.75.516.931.93l1.505 1.506c.059-.247.103-.51.103-.778a3.26 3.26 0 0 0-3.266-3.265c-.269 0-.524.036-.778.102zm-6.487-2.38 1.949 1.95a8.536 8.536 0 0 0-2.684 3.6c1.259 3.192 4.363 5.453 8 5.453a8.54 8.54 0 0 0 3.142-.596l2.487 2.487 1.025-1.026-12.894-12.9-1.025 1.033v-.001zm5.454 5.455 1.898 1.897a.325.325 0 0 1-.087.015 1.819 1.819 0 0 1-1.817-1.818c0-.037.006-.058.006-.094zM7.925 8.748l1.273 1.273a3.277 3.277 0 0 0 4.297 4.305l.713.714a7.589 7.589 0 0 1-2 .276 7.105 7.105 0 0 1-6.414-4c.5-1.01 1.23-1.89 2.13-2.567z" fill="#545454"/>
    </g>
</svg>
