<svg width="18" height="18" viewBox="0 0 18 18" xmlns="http://www.w3.org/2000/svg">
    <g fill-rule="evenodd">
        <path d="M16.5 15a.76.76 0 0 1-.75.75H2.25A.76.76 0 0 1 1.5 15V9.136c1.605.197 2.126.604 2.264.934.242.577-.498 1.435-.941 1.947l-.184.216c-.558.67-.402 1.15-.26 1.376.267.423.9.647 1.717.647.04 0 .087-.008.128-.009a1.047 1.047 0 0 1-.111-.557c-.65.002-1.113-.152-1.258-.382-.135-.214.043-.508.216-.716l.178-.207c.562-.65 1.41-1.634 1.033-2.532C4 9.178 3.087 8.758 1.5 8.57V3a.76.76 0 0 1 .75-.75h13.5a.76.76 0 0 1 .75.75v12zM15.75.75H2.25A2.257 2.257 0 0 0 0 3v12a2.257 2.257 0 0 0 2.25 2.25h13.5A2.257 2.257 0 0 0 18 15V3A2.257 2.257 0 0 0 15.75.75zM6.446 12.444h.97v.745l-1.304.232-.628-.639.228-1.323h.734v.985zm.73-1.725a.287.287 0 0 1 0-.406l3.114-3.158a.28.28 0 0 1 .4 0 .289.289 0 0 1 0 .406l-3.113 3.158a.28.28 0 0 1-.401 0zm3.237-4.924-5.31 5.385-.428 2.492a.49.49 0 0 0 .562.57l2.457-.436 5.31-5.385a.249.249 0 0 0 0-.349l-2.245-2.277a.244.244 0 0 0-.346 0zm4.322.868-.933.946a.242.242 0 0 1-.343 0l-2.245-2.277a.248.248 0 0 1 0-.348l.932-.946a.962.962 0 0 1 1.373 0l1.216 1.232a.993.993 0 0 1 0 1.393z"/>
    </g>
</svg>
