<?xml version="1.0" encoding="utf-8"?>
<!-- Generator: Adobe Illustrator 26.3.1, SVG Export Plug-In . SVG Version: 6.00 Build 0)  -->
<svg version="1.1" id="control-zero-value" xmlns="http://www.w3.org/2000/svg" xmlns:xlink="http://www.w3.org/1999/xlink" x="0px"
	 y="0px" viewBox="0 0 14 14" style="enable-background:new 0 0 14 14;" xml:space="preserve">
<style type="text/css">
	.st0{fill:none;}
</style>
<path id="Rectangle" class="st0" d="M0,14h14V0H0V14z"/>
<path id="zero" d="M7,1.8c0.8,0,1.4,0.4,1.9,1.1s0.7,2.1,0.7,4c0,1.9-0.2,3.2-0.7,4C8.4,11.6,7.8,12,7,12c-0.8,0-1.4-0.4-1.9-1.1
	c-0.5-0.8-0.7-2.1-0.7-4c0-1.9,0.2-3.2,0.7-4S6.2,1.8,7,1.8z M7,3.4C6.7,3.4,6.4,3.6,6.3,4S6,5.4,6,6.9s0.1,2.5,0.3,2.9
	c0.2,0.4,0.4,0.6,0.7,0.6c0.3,0,0.6-0.2,0.7-0.6S8,8.4,8,6.9C8,5.4,7.9,4.4,7.7,4S7.3,3.4,7,3.4z"/>
</svg>
