<?xml version="1.0" encoding="utf-8"?>
<!-- Generator: Adobe Illustrator 26.3.1, SVG Export Plug-In . SVG Version: 6.00 Build 0)  -->
<svg version="1.1" id="control-previous-value" xmlns="http://www.w3.org/2000/svg" xmlns:xlink="http://www.w3.org/1999/xlink"
	 x="0px" y="0px" viewBox="0 0 14 14" style="enable-background:new 0 0 14 14;" xml:space="preserve">
<style type="text/css">
	.st0{fill:none;}
</style>
<path id="Rectangle" class="st0" d="M0,14h14V0H0V14z"/>
<path id="one" d="M14,12h-1.6V4.8c-0.6,0.7-1.3,1.1-2,1.5V4.5c0.4-0.2,0.9-0.5,1.4-1c0.5-0.5,0.8-1,1-1.6H14V12z"/>
<polygon id="minus" points="6.6,9.3 6.6,7.4 10.3,7.4 10.3,9.3 "/>
<path id="n" d="M5.4,12H3.8V8.3c0-0.7,0-1.2-0.1-1.5S3.6,6.4,3.4,6.2S3.1,6,2.9,6C2.6,6,2.4,6.1,2.2,6.3S1.8,6.7,1.7,7
	S1.6,7.9,1.6,8.7V12H0V4.7h1.5v1.1C1.7,5.4,2,5.1,2.3,4.9S3,4.6,3.4,4.6c0.5,0,0.8,0.1,1.2,0.4s0.5,0.5,0.7,0.9s0.2,0.9,0.2,1.6V12z
	"/>
</svg>
