<?xml version="1.0" encoding="utf-8"?>
<!-- Generator: Adobe Illustrator 26.3.1, SVG Export Plug-In . SVG Version: 6.00 Build 0)  -->
<svg version="1.1" id="gate" xmlns="http://www.w3.org/2000/svg" xmlns:xlink="http://www.w3.org/1999/xlink" x="0px" y="0px"
	 viewBox="0 0 20 20" style="enable-background:new 0 0 20 20;" xml:space="preserve">
<style type="text/css">
	.st0{fill:none;}
</style>
<rect id="Rectangle" class="st0" width="20" height="20"/>
<path id="Path" d="M5.6,5.6c2.4-2.4,6.4-2.4,8.8,0s2.4,6.4,0,8.8c-0.3,0.3-0.8,0.3-1.1,0c-0.3-0.3-0.3-0.8,0-1.1
	c1.9-1.9,1.9-4.9,0-6.7s-4.9-1.9-6.7,0s-1.9,4.9,0,6.7c0.3,0.3,0.3,0.8,0,1.1s-0.8,0.3-1.1,0C3.1,12,3.1,8,5.6,5.6z"/>
<path id="Path_00000178190966062961015330000003665480419301317808_" d="M10,17c-0.4,0-0.7-0.3-0.7-0.6l0-0.1v-5.8
	c0-0.4,0.3-0.8,0.8-0.8c0.4,0,0.7,0.3,0.7,0.6l0,0.1v5.8C10.8,16.7,10.4,17,10,17z"/>
</svg>
