<?xml version="1.0" encoding="UTF-8"?><svg id="Layer_2" xmlns="http://www.w3.org/2000/svg" viewBox="0 0 11.3 14"><g id="Layer_219_copy"><path d="m10.01,4.76c-.92-1.12-3.77-4.14-3.89-4.26l-.47-.5-.47.5c-.12.13-2.97,3.15-3.89,4.26-.83,1.01-1.29,2.28-1.29,3.59,0,3.11,2.53,5.65,5.65,5.65s5.65-2.53,5.65-5.65c0-1.31-.46-2.58-1.29-3.59Zm-4.36,7.94c-2.4,0-4.35-1.95-4.35-4.35,0-1.01.35-1.99.99-2.76.67-.82,2.49-2.77,3.36-3.7.87.92,2.69,2.88,3.36,3.7.64.78.99,1.76.99,2.76,0,2.4-1.95,4.35-4.35,4.35Z"/><path d="m3.49,8.3h-1.3c0,1.9,1.55,3.45,3.45,3.45v-1.3c-1.19,0-2.15-.97-2.15-2.15Z"/></g></svg>