<svg xmlns="http://www.w3.org/2000/svg" width="32" height="32" viewBox="0 0 32 32">
    <path fill="#0481A0" fill-rule="evenodd" d="M22.562 8.893L16 1.227 9.437 8.893c-.263.338-.022.83.407.83h2.002v3.585c0 .256.206.462.462.462h7.384c.255 0 .462-.206.462-.462V9.724h2.002c.428 0 .67-.493.406-.83zm1.572 1.565c-.267.424-.648.741-1.1.923h2.197v12H6.77v-12h2.198c-.453-.182-.834-.499-1.101-.923h-2.02v13.846h20.308V10.458h-2.02zm5.713-3.693v18.463c0 1.53-1.24 2.769-2.77 2.769H4.923c-1.53 0-2.77-1.239-2.77-2.77V6.766c0-1.53 1.24-2.769 2.77-2.769h6.275L8.034 7.692l-.028.032-.026.035c-.201.258-.32.55-.4.853H4v16.616c0 .51.413.923.923.923h22.154c.509 0 .923-.414.923-.923V8.612h-3.58c-.08-.301-.2-.594-.4-.853l-.027-.035-.027-.032L20.8 3.996h6.276c1.53 0 2.77 1.24 2.77 2.77z"/>
</svg>
