<svg xmlns="http://www.w3.org/2000/svg" width="32" height="32" viewBox="0 0 32 32">
    <path fill="#0481A0" fill-rule="evenodd" d="M22.562 10.746L16 3.08l-6.563 7.666c-.263.338-.022.831.407.831h2.002v3.585c0 .255.206.461.462.461h7.384c.255 0 .462-.206.462-.461v-3.585h2.002c.428 0 .67-.493.406-.83zm1.858-.281c.08.302.11.612.066.923h.745v12H6.77v-12h.744c-.044-.311-.014-.621.066-.923H5.846v13.847h20.308V10.465H24.42zm5.427-3.693v18.463c0 1.53-1.24 2.769-2.77 2.769H4.923c-1.53 0-2.77-1.239-2.77-2.77V6.773c0-1.53 1.24-2.769 2.77-2.769h7.856L8.827 8.62H4v16.616c0 .51.413.923.923.923h22.154c.509 0 .923-.414.923-.923V8.619h-4.828L19.22 4.003h7.857c1.53 0 2.77 1.24 2.77 2.77z"/>
</svg>
