<svg width="18" height="18" viewBox="0 0 18 18" xmlns="http://www.w3.org/2000/svg">
    <g fill-rule="evenodd">
        <path d="M15.75.75A2.257 2.257 0 0 1 18 3v12a2.257 2.257 0 0 1-2.25 2.25H2.25A2.257 2.257 0 0 1 0 15V3A2.257 2.257 0 0 1 2.25.75h13.5zm0 1.5H2.25A.76.76 0 0 0 1.5 3v12c0 .406.343.75.75.75h13.5a.76.76 0 0 0 .75-.75V3a.76.76 0 0 0-.75-.75zm-10.5 1.5V12h1.5V9h1.5v3h1.125V6h1.5v6H12V8.25h1.5V12H15v.75h-1.875v.75h-.75v-.75H10.5v.75h-.75v-.75H7.875v.75h-.75v-.75H5.25v1.5H4.5v-1.5H3V12h1.5v-1.5h-.75v-.75h.75v-1.5h-.75V7.5h.75V6h-.75v-.75h.75v-1.5h.75z" />
    </g>
</svg>
