<svg width="18" height="18" viewBox="0 0 18 18" xmlns="http://www.w3.org/2000/svg">
    <g fill-rule="evenodd">
        <path d="M15.75.75A2.257 2.257 0 0 1 18 3v12a2.257 2.257 0 0 1-2.25 2.25H2.25A2.257 2.257 0 0 1 0 15V3A2.257 2.257 0 0 1 2.25.75h13.5zm0 1.5H2.25A.76.76 0 0 0 1.5 3v12c0 .406.343.75.75.75h13.5a.76.76 0 0 0 .75-.75V3a.76.76 0 0 0-.75-.75zM3 14.1h12V9l-2.01-2.1a.516.516 0 0 0-.73 0l-5.135 5.137-1.698-1.698a.516.516 0 0 0-.729 0L3 12.037v2.062zm3.437-8.6A1.719 1.719 0 1 1 3 5.5a1.719 1.719 0 0 1 3.437 0z"/>
    </g>
</svg>
