<svg width="18" height="18" viewBox="0 0 18 18" xmlns="http://www.w3.org/2000/svg">
    <g fill-rule="evenodd">
        <path opacity=".4" d="M10.688 4.875 13.5 9.938H7.875z"/>
        <path d="M15.75.75A2.257 2.257 0 0 1 18 3v12a2.257 2.257 0 0 1-2.25 2.25H2.25A2.257 2.257 0 0 1 0 15V3A2.257 2.257 0 0 1 2.25.75h13.5zm0 1.5H2.25A.76.76 0 0 0 1.5 3v12c0 .406.343.75.75.75h13.5a.76.76 0 0 0 .75-.75V3a.76.76 0 0 0-.75-.75zm-11.512.938v2.137h2.774V3.187h.6v2.138h1.323l-.332.6h-.991L7.61 7.71 6.728 9.3h-2.49v2.775h2.774v-.825h.599v.825h2.776v-.825h.6v.825h2.775v-.825h.6v.825h1.2v.6h-1.2v2.137h-.6v-2.137h-2.774v2.137h-.6v-2.137H7.611v2.137h-.6v-2.137H4.239v2.137h-.6v-2.137h-1.2v-.6h1.2V9.3h-1.2v-.6h1.2V5.925h-1.2v-.6h1.2V3.187h.6zM6.919 10.5l3.769-6.783 3.768 6.783H6.919zm3.769-4.467L8.83 9.374h3.713l-1.857-3.341zm3.675-2.846v2.138h1.2v.6h-1.2V8.7h1.2v.6h-.916l-.885-1.592V5.925h-.991l-.332-.6h1.323V3.187h.6zm-7.35 2.738H4.237V8.7h2.776V5.925z"/>
    </g>
</svg>
