<svg width="18" height="18" viewBox="0 0 18 18" xmlns="http://www.w3.org/2000/svg">
    <g fill="none" fill-rule="evenodd">
        <path d="M0 0h18v18H0z"/>
        <g fill="#707070">
            <path d="M12.375 5.063 14.25 9.15H10.5l1.875-4.088zm-6.263 7.162a1.8 1.8 0 1 0 0-3.6 1.8 1.8 0 0 0 0 3.6z" opacity=".4"/>
            <path d="M15.75.75A2.257 2.257 0 0 1 18 3v12a2.257 2.257 0 0 1-2.25 2.25H2.25A2.257 2.257 0 0 1 0 15V3A2.257 2.257 0 0 1 2.25.75h13.5zm0 1.5H2.25A.76.76 0 0 0 1.5 3v12c0 .406.343.75.75.75h13.5a.76.76 0 0 0 .75-.75V3a.76.76 0 0 0-.75-.75zm-5.381 8.4v.356h1.762v-.357h.488v.357h1.762v-.357h.488v.357h.694v.488h-.694v1.762h.694v.488h-.694v1.069h-.488v-1.07H12.62v1.07h-.488v-1.07H10.37v1.07H9.88v-1.07H8.118v1.07h-.487v-1.07H5.868v1.07h-.487v-1.07H3.618v1.07h-.487v-1.07h-.693v-.487h.692V11.84c.129.271.293.522.487.746l.001.671h.798a3.285 3.285 0 0 0 1.696.469c.755 0 1.45-.253 2.006-.68v.211h1.763v-1.762h-.645c.053-.157.096-.32.125-.487h.52v-.358h.488zm1.762.844H10.37v1.762h1.762v-1.762zm2.25 0H12.62v1.762h1.762v-1.762zm-11.517-.487c.03.167.072.33.125.487h-.551v-.488h.426zm12.005-7.82v1.07h.694v.487h-.694v1.762h.694v.488l-.653-.002-.53-1.155.001-1.093h-.502l-.224-.488h.726V3.187h.488zm-11.25 0-.001 1.07h1.763v-1.07h.488l-.001 1.07h1.763v-1.07h.488l-.001 1.07h1.763v-1.07h.488v1.07h.725l-.223.487h-.502v1.094l-.53 1.155H8.118l.001.812a3.303 3.303 0 0 0-.486-.31l-.002-.502H5.868v.14a3.296 3.296 0 0 0-.487.073v-.213H3.618v1.272a3.299 3.299 0 0 0-.588.978h-.592v-.487h.692V6.993h-.692v-.487h.692V4.744h-.692v-.488h.692l.001-1.069h.488zM5.38 4.745H3.618v1.762h1.763V4.744zm2.25 0H5.868v1.762h1.763V4.744zm2.25 0H8.118v1.762h1.763V4.744zm2.494-1.03 2.752 5.998H9.623l2.752-5.999zm0 2.697-.998 2.176h1.995l-.997-2.176zM6.112 8.063a2.363 2.363 0 1 1 0 4.725 2.363 2.363 0 0 1 0-4.726zm0 1.124a1.237 1.237 0 1 0 0 2.475 1.237 1.237 0 0 0 0-2.475z"/>
        </g>
    </g>
</svg>
