<svg width="18" height="18" viewBox="0 0 18 18" xmlns="http://www.w3.org/2000/svg">
    <g fill-rule="evenodd">
        <path d="M15.75.75A2.257 2.257 0 0 1 18 3v12a2.257 2.257 0 0 1-2.25 2.25H2.25A2.257 2.257 0 0 1 0 15V3A2.257 2.257 0 0 1 2.25.75zm0 1.5H2.25A.76.76 0 0 0 1.5 3v12c0 .406.343.75.75.75h13.5a.76.76 0 0 0 .75-.75V3a.76.76 0 0 0-.75-.75zM15 3.75v10.5H3V3.75h12zm-.75 8.344h-2.625V13.5h2.625v-1.406zm-3.375 0H8.25V13.5h2.625v-1.406zm-3.375 0H3.75V13.5H7.5v-1.406zm6.75-2.156h-2.625v1.406h2.625V9.938zm-3.375 0H8.25v1.406h2.625V9.938zm-3.375 0H3.75v1.406H7.5V9.938zm6.75-2.157h-2.625v1.407h2.625V7.78zm-3.375 0H8.25v1.407h2.625V7.78zm-3.375 0H3.75v1.407H7.5V7.78zm6.75-2.156h-2.625v1.406h2.625V5.625zm-3.375 0H8.25v1.406h2.625V5.625zm-3.375 0H3.75v1.406H7.5V5.625z"/>
    </g>
</svg>
