<svg width="18" height="18" viewBox="0 0 18 18" xmlns="http://www.w3.org/2000/svg">
    <g fill-rule="evenodd">
        <path d="M7.327 10.286h3.347L9.396 6.793a15.353 15.353 0 0 1-.399-1.236c-.068.247-.135.478-.2.691a7.892 7.892 0 0 1-.192.559l-1.278 3.479zm6.796 3.964h-1.51a.662.662 0 0 1-.653-.443l-.785-2.142h-4.35l-.784 2.142a.69.69 0 0 1-.646.443H3.878l4.124-10.5h1.997l4.124 10.5zM15.75.75H2.25A2.257 2.257 0 0 0 0 3v12a2.257 2.257 0 0 0 2.25 2.25h13.5A2.256 2.256 0 0 0 18 15V3A2.257 2.257 0 0 0 15.75.75zm0 1.5a.76.76 0 0 1 .75.75v12a.76.76 0 0 1-.75.75H2.25A.76.76 0 0 1 1.5 15V3a.76.76 0 0 1 .75-.75h13.5z"/>
    </g>
</svg>
