<svg xmlns="http://www.w3.org/2000/svg" width="32" height="32" viewBox="0 0 32 32">
    <g fill="#0481A0" fill-rule="evenodd">
        <path d="M24.923 0c1.53 0 2.77 1.24 2.77 2.77v18.46c0 1.53-1.24 2.77-2.77 2.77H2.77C1.24 24 0 22.76 0 21.23V2.77C0 1.24 1.24 0 2.77 0zm.923 4.615h-24v16.616c0 .51.415.923.923.923h22.154c.51 0 .923-.414.923-.923V4.615z" transform="translate(2.153 4)"/>
        <path d="M24 6.462v13.846H3.692V6.462H24zm-.923 7.384h-7.385v.462c0 .51-.412.923-.923.923h-.461v4.154h8.769v-5.539zm-11.077 0H4.615v5.539h8.77V15.23h-.462c-.51 0-.923-.413-.923-.923v-.462zm11.077-6.461h-8.77v4.153h.462c.51 0 .923.413.923.924v.461h7.385V7.385zm-9.692 0h-8.77v5.538H12v-1.385h1.385V7.385z" transform="translate(2.153 4)"/>
    </g>
</svg>
