<svg width="20" height="20" viewBox="0 0 20 20" xmlns="http://www.w3.org/2000/svg">
    <g fill="none">
        <path d="M0 0h20v20H0z"/>
        <path d="M5.078 14.92h1.407v1.063l-1.89.332-.912-.911.332-1.89h1.063v1.406zm1.057-2.464a.408.408 0 0 1 0-.58l4.512-4.512c.161-.16.42-.16.58 0a.406.406 0 0 1 0 .58l-4.511 4.512a.407.407 0 0 1-.58 0zm-3.002.66-.622 3.56a.704.704 0 0 0 .815.814l3.56-.625 7.693-7.693a.352.352 0 0 0 0-.499l-3.252-3.252a.355.355 0 0 0-.5 0l-7.694 7.694zM17.088 6.66l-1.351 1.35a.352.352 0 0 1-.499 0L11.987 4.76a.352.352 0 0 1 0-.499l1.35-1.35a1.41 1.41 0 0 1 1.99 0l1.761 1.76c.55.548.55 1.439 0 1.99z" fill="#0481A0" fill-rule="evenodd"/>
    </g>
</svg>
