<svg xmlns="http://www.w3.org/2000/svg" width="36" height="34" viewBox="0 0 36 34">
    <g fill-rule="evenodd">
        <path d="M3.455 15.732H5.21v1.348l-2.36.42-1.138-1.156.413-2.394h1.329v1.782zm1.32-3.121c-.202-.204-.202-.531 0-.735l5.635-5.715c.2-.203.522-.203.725 0 .2.204.2.531 0 .735L5.5 12.61c-.201.203-.524.203-.725 0zm5.858-8.91l-9.61 9.744-.774 4.51c-.106.61.417 1.135 1.017 1.032l4.446-.79 9.608-9.745c.173-.175.173-.457 0-.63L11.258 3.7c-.175-.174-.453-.174-.625 0zm7.82 1.57l-1.687 1.712c-.173.172-.451.172-.622 0l-4.062-4.12c-.172-.176-.172-.458 0-.63L13.769.52c.684-.695 1.797-.695 2.484 0l2.2 2.23c.688.693.688 1.821 0 2.52z" transform="translate(-181 -310) translate(96 64) translate(46 66) translate(0 178) translate(39 2) translate(8 7.5)"/>
    </g>
</svg>
