<svg xmlns="http://www.w3.org/2000/svg" width="18" height="18" viewBox="0 0 18 18">
    <g fill="none" fill-rule="evenodd">
        <g>
            <g>
                <path d="M0 0H18V18H0z" transform="translate(-2074.000000, -105.000000) translate(2074.000000, 105.000000)"/>
                <g fill="#707070">
                    <path d="M16.1 0c1.052 0 1.9.852 1.9 1.904v12.692c0 1.052-.848 1.904-1.9 1.904H1.904C.852 16.5 0 15.648 0 14.596V1.904C0 .852.852 0 1.904 0zm.67 3.173H1.27v11.423c0 .35.284.635.634.635h14.23c.35 0 .635-.285.635-.635V3.173z" transform="translate(-2074.000000, -105.000000) translate(2074.000000, 105.000000) translate(0.000000, 0.750000)"/>
                    <path d="M15.5 4.442v9.52H2.538v-9.52H15.5zm-.635.635H3.173v8.25h11.692v-8.25z" transform="translate(-2074.000000, -105.000000) translate(2074.000000, 105.000000) translate(0.000000, 0.750000)"/>
                </g>
            </g>
        </g>
    </g>
</svg>
