<svg width="14" height="14" viewBox="0 0 14 14" xmlns="http://www.w3.org/2000/svg">
    <path d="M2.931 11.067h1.163v.879l-1.563.274-.753-.753.274-1.563h.88v1.163zm.874-2.037a.337.337 0 0 1 0-.479l3.73-3.73a.337.337 0 0 1 .48 0 .336.336 0 0 1 0 .479l-3.73 3.73a.337.337 0 0 1-.48 0zm-2.482.545L.81 12.518a.582.582 0 0 0 .674.673l2.942-.516 6.36-6.36a.29.29 0 0 0 0-.412L8.097 3.215a.293.293 0 0 0-.414 0l-6.36 6.36zM12.86 4.24l-1.117 1.116a.29.29 0 0 1-.412 0L8.642 2.668a.29.29 0 0 1 0-.412L9.76 1.139a1.166 1.166 0 0 1 1.644 0l1.456 1.456a1.162 1.162 0 0 1 0 1.645z" fill="#545454" fill-rule="evenodd"/>
</svg>
