<svg id="svg" version="1.1" xmlns="http://www.w3.org/2000/svg" xmlns:xlink="http://www.w3.org/1999/xlink" width="400" height="400" viewBox="0, 0, 400,400"><g id="svgg"><path id="path0" d="M66.614 40.843 C 54.900 42.562,44.592 51.995,41.311 64.000 C 40.204 68.050,40.206 312.366,41.313 316.400 C 44.722 328.820,55.402 338.161,67.823 339.584 C 72.850 340.160,307.759 340.156,312.410 339.580 C 326.889 337.787,338.089 326.493,339.612 312.151 C 340.421 304.533,339.927 67.131,339.096 64.103 C 336.075 53.097,327.715 44.629,316.600 41.315 C 313.944 40.524,71.907 40.066,66.614 40.843 M199.062 72.997 C 249.010 81.098,268.304 141.742,232.128 176.932 C 196.925 211.176,137.474 190.728,130.221 141.881 C 124.284 101.893,159.563 66.591,199.062 72.997 M154.480 208.036 C 155.646 208.276,159.035 209.247,162.010 210.195 C 180.922 216.217,198.393 216.336,217.000 210.570 C 225.045 208.078,225.671 207.936,229.632 207.714 C 256.862 206.188,285.009 225.495,294.196 252.000 C 300.791 271.028,298.105 274.722,274.000 279.768 C 261.141 282.460,259.304 282.783,250.200 283.963 C 234.555 285.990,223.076 287.019,209.800 287.585 C 204.520 287.809,197.950 288.098,195.200 288.227 C 186.146 288.650,156.592 287.099,140.800 285.371 C 121.813 283.293,120.133 283.042,107.200 280.342 C 83.275 275.348,80.190 272.025,84.797 256.211 C 92.382 230.171,113.660 211.931,140.800 208.204 C 145.597 207.546,151.730 207.470,154.480 208.036 " stroke="none" fill="#bcbcbc" fill-rule="evenodd"></path><path id="path1" d="M0.000 200.000 L 0.000 400.000 200.000 400.000 L 400.000 400.000 400.000 200.000 L 400.000 0.000 200.000 0.000 L 0.000 0.000 0.000 200.000 M316.600 41.315 C 327.715 44.629,336.075 53.097,339.096 64.103 C 339.927 67.131,340.421 304.533,339.612 312.151 C 338.089 326.493,326.889 337.787,312.410 339.580 C 307.759 340.156,72.850 340.160,67.823 339.584 C 55.402 338.161,44.722 328.820,41.313 316.400 C 40.206 312.366,40.204 68.050,41.311 64.000 C 44.592 51.995,54.900 42.562,66.614 40.843 C 71.907 40.066,313.944 40.524,316.600 41.315 M181.707 72.856 C 141.272 78.659,117.652 122.951,135.555 159.400 C 163.370 216.026,247.197 198.840,250.667 135.800 C 252.723 98.455,218.840 67.528,181.707 72.856 M140.800 208.204 C 113.660 211.931,92.382 230.171,84.797 256.211 C 80.190 272.025,83.275 275.348,107.200 280.342 C 120.133 283.042,121.813 283.293,140.800 285.371 C 156.592 287.099,186.146 288.650,195.200 288.227 C 197.950 288.098,204.520 287.809,209.800 287.585 C 223.076 287.019,234.555 285.990,250.200 283.963 C 259.304 282.783,261.141 282.460,274.000 279.768 C 298.105 274.722,300.791 271.028,294.196 252.000 C 285.009 225.495,256.862 206.188,229.632 207.714 C 225.671 207.936,225.045 208.078,217.000 210.570 C 198.393 216.336,180.922 216.217,162.010 210.195 C 153.207 207.392,149.351 207.030,140.800 208.204 " stroke="none" fill="#fcfcfc" fill-rule="evenodd"></path></g></svg>