<?xml version="1.0" encoding="UTF-8"?>
<svg width="24px" height="24px" viewBox="0 0 24 24" version="1.1" xmlns="http://www.w3.org/2000/svg" xmlns:xlink="http://www.w3.org/1999/xlink">
    <title>586A6DF3-1F0E-4EE3-AED3-1CEE4743F1E4</title>
    <g id="Large-Thumbnails-View-ICON" stroke="none" fill="none">
        <rect id="Rectangle" x="0" y="0" width="24" height="24"></rect>
        <path d="M13.2,12.6 L19.8,12.6 C20.1313708,12.6 20.4,12.8686292 20.4,13.2 L20.4,20.7 C20.4,21.0313708 20.1313708,21.3 19.8,21.3 L13.2,21.3 C12.8686292,21.3 12.6,21.0313708 12.6,20.7 L12.6,13.2 C12.6,12.8686292 12.8686292,12.6 13.2,12.6 Z M4.2,12.6 L10.8,12.6 C11.1313708,12.6 11.4,12.8686292 11.4,13.2 L11.4,20.7 C11.4,21.0313708 11.1313708,21.3 10.8,21.3 L4.2,21.3 C3.86862915,21.3 3.6,21.0313708 3.6,20.7 L3.6,13.2 C3.6,12.9017662 3.81758961,12.6543532 4.10267688,12.607853 L4.2,12.6 Z M13.2,2.7 L19.8,2.7 C20.1313708,2.7 20.4,2.96862915 20.4,3.3 L20.4,10.8 C20.4,11.1313708 20.1313708,11.4 19.8,11.4 L13.2,11.4 C12.8686292,11.4 12.6,11.1313708 12.6,10.8 L12.6,3.3 C12.6,2.96862915 12.8686292,2.7 13.2,2.7 Z M4.2,2.7 L10.8,2.7 C11.1313708,2.7 11.4,2.96862915 11.4,3.3 L11.4,10.8 C11.4,11.1313708 11.1313708,11.4 10.8,11.4 L4.2,11.4 C3.86862915,11.4 3.6,11.1313708 3.6,10.8 L3.6,3.3 C3.6,3.00176624 3.81758961,2.75435325 4.10267688,2.70785299 L4.2,2.7 Z" id="Large-Thumbnails-View-Icon" fill="currentColor" fill-rule="nonzero"></path>
    </g>
</svg>
