<svg width="18" height="18" viewBox="0 0 18 18" xmlns="http://www.w3.org/2000/svg">
    <g fill="none">
        <path d="M0 0h18v18H0z"/>
        <g fill-rule="nonzero">
            <path d="M13.328 1.25c.372 0 .686.163.934.48.242.311.363.69.363 1.132 0 .116-.009.226-.028.33l-.015.062.047.008c.21.045.4.128.567.25l.12.1c.35.318.525.77.525 1.345 0 .485-.13.878-.394 1.173l-.056.055.02.013.112.095c.325.304.487.743.487 1.308 0 .57-.162 1.01-.487 1.31-.11.102-.232.182-.369.242l-.035.013.04.08c.086.2.138.425.156.675l.006.192c0 .566-.169.999-.51 1.286-.338.285-.79.392-1.345.325l-1.619-.206a3.964 3.964 0 0 1-.435-.08l-.161-.046.088.345c.098.341.192.696.28 1.064.09.376.135.784.135 1.223 0 .8-.165 1.448-.497 1.945-.34.507-.801.765-1.371.765-.757 0-1.143-.516-1.143-1.487v-.286c0-.555-.056-1.02-.167-1.392a2.326 2.326 0 0 0-.567-.967 4.827 4.827 0 0 0-.92-.714l-.24-.144c-.581-.338-1.005-.654-1.271-.95a2.107 2.107 0 0 1-.48-.92l-.021-.098-.223-.05a7.68 7.68 0 0 0-.923-.134l-.317-.02a33.315 33.315 0 0 0-1.499-.037L1.99 9.41V3.162l.125-.125h2.373c.253 0 .504-.047.754-.142.255-.097.59-.275 1.004-.535l.233-.146c.881-.555 1.959-.832 3.231-.832l.317.005c.115.003.238.007.37.014l.206.01c.177.01.382.025.613.044l.423.039 1.334-.199.239-.037a1.1 1.1 0 0 1 .116-.008z" fill="#FFD728"/>
            <path d="M13.328 1.25c.372 0 .686.163.934.48.242.311.363.69.363 1.132 0 .116-.009.226-.028.33l-.015.062.047.008c.21.045.4.128.567.25l.12.1c.35.318.525.77.525 1.345 0 .485-.13.878-.394 1.173l-.056.055.02.013.112.095c.325.304.487.743.487 1.308 0 .57-.162 1.01-.487 1.31-.11.102-.232.182-.369.242l-.035.013.04.08c.086.2.138.425.156.675l.006.192c0 .566-.169.999-.51 1.286-.338.285-.79.392-1.345.325l-1.619-.206a3.964 3.964 0 0 1-.435-.08l-.161-.046.088.345c.098.341.192.696.28 1.064.09.376.135.784.135 1.223 0 .8-.165 1.448-.497 1.945-.34.507-.801.765-1.371.765-.757 0-1.143-.516-1.143-1.487v-.286c0-.555-.056-1.02-.167-1.392a2.326 2.326 0 0 0-.567-.967 4.827 4.827 0 0 0-.92-.714l-.24-.144c-.581-.338-1.005-.654-1.271-.95a2.107 2.107 0 0 1-.48-.92l-.021-.098-.223-.05a7.68 7.68 0 0 0-.923-.134l-.317-.02a33.315 33.315 0 0 0-1.499-.037L1.99 9.41V3.162l.125-.125h2.373c.253 0 .504-.047.754-.142.255-.097.59-.275 1.004-.535l.233-.146c.881-.555 1.959-.832 3.231-.832l.317.005c.115.003.238.007.37.014l.206.01c.177.01.382.025.613.044l.423.039 1.334-.199.239-.037a1.1 1.1 0 0 1 .116-.008zm-3.618.968c-1.115 0-2.044.236-2.79.706l-.235.147c-.465.287-.862.492-1.19.615-.334.124-.67.187-1.007.187H2.825v4.828l.24.006c.247.009.5.023.76.044l.397.036c.54.055 1.054.156 1.54.305l.089.114c.014.275.059.505.134.692.072.18.205.353.4.519.17.144.403.307.698.488l.185.11c.576.333 1.032.677 1.369 1.033.34.361.583.777.728 1.247.143.465.214 1.02.214 1.666v.286c0 .276.03.46.084.546.044.07.113.105.223.105.3 0 .54-.154.731-.477.2-.337.301-.803.301-1.397 0-.443-.05-.854-.153-1.23-.105-.389-.21-.77-.315-1.142a4.312 4.312 0 0 1-.136-.713l-.008-.094-.017-.018a1.459 1.459 0 0 1-.395-.873l-.008-.17c0-.355.084-.658.253-.907l.069-.092-.004-.019a2.883 2.883 0 0 0-.156-.402l-.102-.196a3.649 3.649 0 0 0-.861-1.024 3.105 3.105 0 0 0-1.166-.61l-.083-.166.22-.55.152-.073c.528.156 1.008.41 1.438.759.215.174.408.36.58.557l.139.17.02-.132c.05-.265.163-.498.34-.698l.112-.115.077-.065-.025-.022c-.243-.23-.38-.538-.411-.915l-.007-.166c0-.425.129-.79.385-1.092l-.072-.054-.105-.09c-.237-.225-.354-.539-.354-.932 0-.224.037-.426.112-.607l.049-.105-.516-.018-.26-.002zm1.316 6.979c-.205.13-.305.32-.305.586 0 .234.097.424.296.579.21.163.521.271.935.323l1.619.205c.63.078.914-.165.914-.777 0-.258-.046-.462-.136-.614-.083-.14-.19-.214-.33-.229l-2.022-.212c-.434-.046-.757.002-.97.139zm3.16-2.504H12.12c-.301 0-.531.066-.695.196-.157.124-.235.301-.235.543 0 .221.055.393.161.52.103.122.316.206.643.242l2.264.242c.628.07.916-.192.916-.835 0-.343-.08-.575-.231-.704-.157-.134-.409-.204-.758-.204zm-.147-2.616-1.978.242c-.268.03-.457.118-.574.26a.815.815 0 0 0-.18.539c0 .268.083.447.248.554.12.078.27.131.452.158l.123.012h1.992l.115-.01c.187-.025.336-.073.448-.144l.077-.057c.16-.14.243-.361.243-.674 0-.33-.083-.565-.245-.714-.16-.148-.398-.206-.72-.166zm-.78-1.985-1.552.241c-.374.06-.546.254-.546.617 0 .184.047.305.135.374.096.074.273.116.53.116l.501-.001 1.32-.161.047-.05a.52.52 0 0 0 .09-.255l.005-.111c0-.248-.057-.447-.17-.6-.102-.14-.217-.192-.36-.17z" fill="#3F3F3F"/>
        </g>
    </g>
</svg>
