<svg width="18" height="18" viewBox="0 0 18 18" xmlns="http://www.w3.org/2000/svg">
    <g fill="none">
        <path d="M0 0h18v18H0z"/>
        <g fill-rule="nonzero">
            <path d="M9.02 1.13c1.067 0 2.069.2 3.005.6a7.823 7.823 0 0 1 4.134 4.13c.403.937.604 1.942.604 3.013a7.549 7.549 0 0 1-.604 3.012 7.823 7.823 0 0 1-4.134 4.13c-.936.4-1.938.6-3.004.6a7.64 7.64 0 0 1-2.086-.284l-.028-.01-.032.027c-.088.062-.184.12-.29.175l-.166.078a4.377 4.377 0 0 1-.935.283c-.34.065-.687.097-1.041.097-.964 0-1.703-.259-2.21-.78-.505-.521-.757-1.228-.757-2.113 0-.159.01-.313.03-.462l.039-.22c.042-.199.063-.377.063-.534 0-.2-.032-.381-.094-.545l-.105-.256-.11-.243a4.985 4.985 0 0 1-.207-.488A1.523 1.523 0 0 1 1 10.82c0-.295.095-.542.286-.733l.078-.07-.041-.322a7.516 7.516 0 0 1-.045-.823c0-1.071.2-2.076.6-3.012a7.772 7.772 0 0 1 3.45-3.802l.359-.183v-.459l.125-.125c.372 0 .72.033 1.044.1l.072.016.04-.01a7.694 7.694 0 0 1 1.698-.26l.355-.007z" fill="#FFD728"/>
            <path d="M9.02 1.13c1.067 0 2.069.2 3.005.6a7.823 7.823 0 0 1 4.134 4.13c.403.937.604 1.942.604 3.013a7.549 7.549 0 0 1-.604 3.012 7.823 7.823 0 0 1-4.134 4.13c-.936.4-1.938.6-3.004.6a7.64 7.64 0 0 1-2.086-.284l-.028-.01-.032.027c-.088.062-.184.12-.29.175l-.166.078a4.377 4.377 0 0 1-.935.283c-.34.065-.687.097-1.041.097-.964 0-1.703-.259-2.21-.78-.505-.521-.757-1.228-.757-2.113 0-.159.01-.313.03-.462l.039-.22c.042-.199.063-.377.063-.534 0-.2-.032-.381-.094-.545l-.105-.256-.11-.243a4.985 4.985 0 0 1-.207-.488A1.523 1.523 0 0 1 1 10.82c0-.295.095-.542.286-.733l.078-.07-.041-.322a7.516 7.516 0 0 1-.045-.823c0-1.071.2-2.076.6-3.012a7.772 7.772 0 0 1 3.45-3.802l.359-.183v-.459l.125-.125c.372 0 .72.033 1.044.1l.072.016.04-.01a7.694 7.694 0 0 1 1.698-.26l.355-.007zm-6.899 9.428a.392.392 0 0 0-.264.088c-.062.053-.094.132-.094.249 0 .086.02.185.061.297l.074.181.086.185c.09.184.176.382.257.596.087.224.13.464.13.718 0 .156-.01.303-.031.442l-.039.202a2.547 2.547 0 0 0-.062.587c0 .647.188 1.159.565 1.542.374.381.918.574 1.639.574.333 0 .673-.038 1.02-.114.347-.076.635-.175.866-.297.205-.107.296-.21.296-.3l-.001-.022-.053.022a2.531 2.531 0 0 1-.309.09l-.172.034-.145-.105-.066-.44.1-.14c.47-.093.683-.251.683-.464l-.003-.033-.101.05a2.23 2.23 0 0 1-.457.142l-.175.031-.142-.103-.073-.44.104-.144c.264-.04.456-.11.576-.205.11-.088.16-.176.16-.272a.316.316 0 0 0-.097-.24.478.478 0 0 0-.135-.09l-.082-.031-.034.023c-.108.075-.22.158-.336.251l-.18.146-.175-.015-.3-.359.011-.173c.408-.368.786-.64 1.134-.817.344-.175.672-.303.984-.383l.487-.132c.264-.076.462-.143.592-.202.15-.067.212-.13.212-.182 0-.064-.033-.108-.119-.146-.11-.048-.29-.074-.533-.074-.621 0-1.18.083-1.678.247a9.246 9.246 0 0 0-1.067.42l-.222.11c-.239.125-.438.215-.598.271a1.41 1.41 0 0 1-.463.088.773.773 0 0 1-.547-.214c-.118-.11-.24-.296-.372-.557l-.14-.292a1.135 1.135 0 0 0-.34-.443.696.696 0 0 0-.432-.157zm6.9-8.591c-.16 0-.317.005-.473.015l-.267.022.107.075c.137.102.272.215.406.339l.199.193-.001.176-.41.41h-.177c-.394-.394-.79-.67-1.185-.829a2.856 2.856 0 0 0-.205-.073l-.065-.02-.297.102-.315.125A6.954 6.954 0 0 0 2.65 6.19a6.742 6.742 0 0 0-.536 2.683c0 .24.012.479.036.716l.028.219.046.003c.213.021.414.085.6.19l.138.088c.267.189.474.44.62.752l.059.125c.094.203.17.342.224.413.037.05.082.072.146.072a.707.707 0 0 0 .247-.058c.053-.02.112-.047.178-.08l.217-.117c.214-.12.482-.248.803-.384a6.528 6.528 0 0 1 2.524-.49c.426 0 .764.072 1.013.22.265.157.402.399.402.711a.862.862 0 0 1-.147.496c-.097.143-.27.27-.519.387a6.845 6.845 0 0 1-.807.3l-.389.116c-.1.03-.2.064-.298.1l-.278.109.026.025c.163.17.26.367.287.588l.008.135c0 .088-.01.171-.03.251l-.036.109.061.115c.057.122.093.246.108.373l.007.126a.989.989 0 0 1-.113.473l-.013.02.049.103c.034.088.057.18.068.279l.009.15-.006.077.28.063c.331.066.669.107 1.013.123l.346.008c.954 0 1.848-.178 2.682-.535a6.954 6.954 0 0 0 3.688-3.688 6.742 6.742 0 0 0 .536-2.683c0-.955-.179-1.849-.536-2.683a6.954 6.954 0 0 0-3.688-3.688 6.742 6.742 0 0 0-2.682-.535zm-.857 6.027c1.156 0 2.205.457 3.141 1.368l.003.177-.41.424-.178.003c-.773-.76-1.626-1.136-2.564-1.136-.62 0-1.274.159-1.961.479l-.166-.06-.249-.528.06-.166c.807-.374 1.582-.561 2.324-.561zm3.142-3.282c.292 0 .544.126.748.371.2.24.3.529.3.86 0 .327-.1.612-.296.852a.942.942 0 0 1-.752.372c-.292 0-.544-.124-.748-.367-.2-.238-.3-.525-.3-.857 0-.331.1-.62.3-.86.203-.245.455-.37.748-.37zM6.69 3.467c.293 0 .545.126.748.371.2.24.3.529.3.86 0 .327-.099.612-.295.852a.942.942 0 0 1-.753.372c-.292 0-.543-.125-.747-.367-.2-.238-.3-.525-.3-.857 0-.331.1-.62.3-.86.203-.245.455-.37.747-.37zm4.278-.293c.803 0 1.567.211 2.29.633l.044.17-.293.506-.17.045a3.703 3.703 0 0 0-1.871-.518 4.29 4.29 0 0 0-.474.025 3.44 3.44 0 0 0-.427.074l-.151-.093-.132-.571.095-.15a5.074 5.074 0 0 1 1.089-.12z" fill="#3F3F3F"/>
        </g>
    </g>
</svg>
