<svg width="30" height="30" viewBox="0 0 30 30" xmlns="http://www.w3.org/2000/svg">
    <g fill="none" fill-rule="evenodd">
        <path d="M0 30h30V0H0z"/>
        <path d="M22.955 7.045c4.393 4.393 4.393 11.517 0 15.91a11.24 11.24 0 0 1-9.976 3.113l-.298-.059-1.228 1.668-.98 1.332-.724-1.487-3.955-8.124-.833-1.713 1.883.286 8.933 1.359 1.635.249-.98 1.332-.577.784.084-.01a6.725 6.725 0 0 0 3.632-1.718l.202-.194a6.75 6.75 0 1 0-11.416-5.977l-.177.984-.984-.177-2.46-.443-.985-.177L3.93 13a11.207 11.207 0 0 1 3.116-5.954c4.393-4.393 11.517-4.393 15.91 0z" fill="#FFF" fill-rule="nonzero"/>
        <path d="M22.248 7.752c4.003 4.003 4.003 10.493 0 14.496a10.247 10.247 0 0 1-9.978 2.634l-1.622 2.202-3.954-8.124 8.932 1.359-1.73 2.352a7.75 7.75 0 1 0-6.523-9.052l-2.46-.443a10.207 10.207 0 0 1 2.84-5.424c4.002-4.003 10.492-4.003 14.495 0z" fill="#0481A0" fill-rule="nonzero"/>
    </g>
</svg>
