<svg viewBox="0 0 26 26" xmlns="http://www.w3.org/2000/svg">
    <g fill="none" fill-rule="evenodd">
        <path d="M0 0h26v26H0z"/>
        <path class="highlighted-path" d="M16.6 15.8V20c0 .336.264.6.6.6h3.6c.336 0 .6-.264.6-.6v-4.2c0-.336-.264-.6-.6-.6h-3.6c-.336 0-.6.264-.6.6zm-6 4.2v-4.2c0-.336.264-.6.6-.6h3.6c.336 0 .6.264.6.6V20c0 .336-.264.6-.6.6h-3.6a.594.594 0 0 1-.6-.6zm-1.8-4.8H5.2c-.336 0-.6.264-.6.6V20c0 .336.264.6.6.6h3.6c.336 0 .6-.264.6-.6v-4.2c0-.336-.264-.6-.6-.6z" fill-opacity=".5" fill="#AA2FF0"/>
        <path class="highlighted-path" fill="#AA2FF0" d="m12.997 5.343 4.628 7.714H8.368z"/>
    </g>
</svg>
