<?xml version="1.0" encoding="UTF-8"?>
<svg width="24px" height="24px" viewBox="0 0 24 24" version="1.1" xmlns="http://www.w3.org/2000/svg" xmlns:xlink="http://www.w3.org/1999/xlink">
    <title>79A62739-A592-4D81-B8A8-C9719F431FC3</title>
    <g id="Small-Thumbnails-View-ICON" stroke="none" fill="none">
        <rect id="Rectangle" x="0" y="0" width="24" height="24"></rect>
        <path d="M15.6,9.9 L15.6,14.1 C15.6,14.436 15.864,14.7 16.2,14.7 L19.8,14.7 C20.136,14.7 20.4,14.436 20.4,14.1 L20.4,9.9 C20.4,9.564 20.136,9.3 19.8,9.3 L16.2,9.3 C15.864,9.3 15.6,9.564 15.6,9.9 Z M9.6,14.1 L9.6,9.9 C9.6,9.564 9.864,9.3 10.2,9.3 L13.8,9.3 C14.136,9.3 14.4,9.564 14.4,9.9 L14.4,14.1 C14.4,14.436 14.136,14.7 13.8,14.7 L10.2,14.7 C9.864,14.7 9.6,14.436 9.6,14.1 Z M7.8,9.3 L4.2,9.3 C3.864,9.3 3.6,9.564 3.6,9.9 L3.6,14.1 C3.6,14.436 3.864,14.7 4.2,14.7 L7.8,14.7 C8.136,14.7 8.4,14.436 8.4,14.1 L8.4,9.9 C8.4,9.564 8.136,9.3 7.8,9.3 Z" id="Small-Thumbnails-View-Icon" fill="currentColor" fill-rule="evenodd"></path>
    </g>
</svg>
