<svg width="18" height="18" viewBox="0 0 18 18" xmlns="http://www.w3.org/2000/svg">
    <g fill="none">
        <path d="M0 0h18v18H0z"/>
        <g fill-rule="nonzero">
            <path d="M9.886 1.25c.57 0 1.03.258 1.37.766.333.496.498 1.145.498 1.944 0 .44-.045.847-.135 1.223-.059.246-.12.485-.183.717l-.097.344a5.625 5.625 0 0 0-.066.248l-.022.1.161-.045a3.69 3.69 0 0 1 .212-.046l.224-.035 1.618-.205c.555-.073 1.006.032 1.346.317.34.288.51.722.51 1.294 0 .324-.055.612-.163.862l-.043.083.038.014c.091.04.176.09.255.148l.114.094c.325.301.487.741.487 1.31 0 .565-.162 1.004-.487 1.308a1.464 1.464 0 0 1-.112.095l-.02.012.056.057c.23.258.36.59.388.995l.006.178c0 .575-.174 1.026-.525 1.341a1.474 1.474 0 0 1-.687.35l-.048.007.016.067c.01.052.017.105.021.16l.007.17c0 .442-.12.82-.363 1.131-.248.318-.562.48-.934.48l-.05-.002-.228-.03-.08-.013-1.328-.199-.185.018c-.25.023-.472.04-.668.054l-.186.011c-.353.02-.651.03-.893.03-1.272 0-2.35-.277-3.23-.832l-.235-.147c-.413-.26-.748-.438-1.003-.535a2.11 2.11 0 0 0-.754-.142H2.115l-.125-.125V8.575l.125-.125c.462 0 .961-.014 1.499-.04.399-.02.787-.066 1.166-.14l.296-.064.022-.096c.072-.293.195-.556.369-.787l.11-.135c.234-.262.588-.536 1.062-.824l.21-.124c.5-.288.886-.574 1.16-.858.27-.278.458-.6.567-.966.111-.374.167-.838.167-1.393v-.286c0-.97.386-1.487 1.143-1.487z" fill="#FFD728"/>
            <path d="M9.886 1.25c.57 0 1.03.258 1.37.766.333.496.498 1.145.498 1.944 0 .44-.045.847-.135 1.223-.059.246-.12.485-.183.717l-.097.344a5.625 5.625 0 0 0-.066.248l-.022.1.161-.045a3.69 3.69 0 0 1 .212-.046l.224-.035 1.618-.205c.555-.073 1.006.032 1.346.317.34.288.51.722.51 1.294 0 .324-.055.612-.163.862l-.043.083.038.014c.091.04.176.09.255.148l.114.094c.325.301.487.741.487 1.31 0 .565-.162 1.004-.487 1.308a1.464 1.464 0 0 1-.112.095l-.02.012.056.057c.23.258.36.59.388.995l.006.178c0 .575-.174 1.026-.525 1.341a1.474 1.474 0 0 1-.687.35l-.048.007.016.067c.01.052.017.105.021.16l.007.17c0 .442-.12.82-.363 1.131-.248.318-.562.48-.934.48l-.05-.002-.228-.03-.08-.013-1.328-.199-.185.018c-.25.023-.472.04-.668.054l-.186.011c-.353.02-.651.03-.893.03-1.272 0-2.35-.277-3.23-.832l-.235-.147c-.413-.26-.748-.438-1.003-.535a2.11 2.11 0 0 0-.754-.142H2.115l-.125-.125V8.575l.125-.125c.462 0 .961-.014 1.499-.04.399-.02.787-.066 1.166-.14l.296-.064.022-.096c.072-.293.195-.556.369-.787l.11-.135c.234-.262.588-.536 1.062-.824l.21-.124c.5-.288.886-.574 1.16-.858.27-.278.458-.6.567-.966.111-.374.167-.838.167-1.393v-.286c0-.97.386-1.487 1.143-1.487zm2.44 13.294h-.5c-.257 0-.434.042-.53.117-.088.069-.135.19-.135.374 0 .362.172.557.546.616l1.552.242c.143.021.257-.032.36-.174.113-.155.17-.353.17-.596a.604.604 0 0 0-.095-.366l-.047-.051-1.321-.162zm-1.489-2.845a1.456 1.456 0 0 1-.452-.814l-.02-.134-.14.171a4.52 4.52 0 0 1-.372.378l-.207.177c-.43.347-.91.601-1.437.762l-.153-.073-.22-.55.082-.166a3.222 3.222 0 0 0 1.167-.614 3.6 3.6 0 0 0 .86-1.02c.11-.194.197-.393.259-.598l.004-.019-.07-.092a1.509 1.509 0 0 1-.245-.733L9.886 8.2c0-.349.099-.656.296-.917l.124-.146.008-.093c.018-.163.044-.322.078-.48l.058-.232c.105-.373.21-.755.315-1.145.102-.38.153-.789.153-1.228 0-.594-.101-1.06-.301-1.397-.191-.323-.431-.477-.731-.477-.11 0-.18.034-.224.103-.052.082-.083.268-.083.548v.286c0 .646-.071 1.202-.214 1.666-.145.47-.388.886-.728 1.247-.337.356-.793.7-1.37 1.033-.384.221-.678.42-.881.595a1.393 1.393 0 0 0-.401.523 2.16 2.16 0 0 0-.134.692l-.089.113c-.486.149-1 .25-1.54.302-.402.038-.787.065-1.155.08l-.242.007v4.83h1.663c.27 0 .538.04.806.118l.2.066c.274.1.596.26.965.48l.461.286c.746.47 1.675.706 2.79.706.171 0 .347-.004.528-.01l.248-.012-.05-.104a1.499 1.499 0 0 1-.104-.443l-.007-.163c0-.394.117-.708.353-.936l.092-.08.087-.06a1.598 1.598 0 0 1-.378-.914l-.008-.178c0-.402.107-.731.32-.983l.121-.124-.075-.061zm3.284.443h-2l-.114.013c-.136.02-.255.054-.357.103l-.095.054c-.165.107-.248.287-.248.555 0 .21.06.386.18.532.118.141.307.231.575.266l1.977.242c.323.04.56-.017.72-.165.163-.15.246-.385.246-.714 0-.313-.082-.535-.243-.675-.117-.102-.292-.17-.525-.2l-.116-.011zm.136-2.593-2.264.241c-.327.032-.54.114-.641.238-.107.13-.162.303-.162.524 0 .242.078.419.235.543.164.13.394.197.695.197h2.065c.349 0 .6-.072.757-.208.152-.132.232-.362.232-.7 0-.644-.288-.905-.917-.835zm-.686-2.454-1.619.205c-.414.051-.725.16-.935.322a.699.699 0 0 0-.296.58c0 .265.1.456.305.586.214.136.537.185.97.138l2.022-.212c.14-.015.248-.088.33-.229.09-.152.137-.356.137-.613 0-.613-.285-.856-.914-.777z" fill="#3F3F3F"/>
        </g>
    </g>
</svg>
