<?xml version="1.0" encoding="UTF-8"?>
<svg width="36px" height="34px" viewBox="0 0 36 34" version="1.1" xmlns="http://www.w3.org/2000/svg" xmlns:xlink="http://www.w3.org/1999/xlink">
    <title>7054D049-860F-4B5B-8BF9-D4863C913D97</title>
    <g id="M2Studio" stroke="none" stroke-width="1" fill="none" fill-rule="evenodd">
        <g id="M2Studio-Design" transform="translate(-1020.000000, -175.000000)">
            <g id="Exportable-Assets" transform="translate(1020.000000, 121.000000)">
                <g id="Add-Variable-Card-ICON" transform="translate(0.000000, 54.000000)">
                    <rect id="Add-Variable-Card-back" x="0" y="0" width="36" height="34"></rect>
                    <g id="Add-Variable-Card-Icon" transform="translate(4.000000, 6.000000)">
                        <rect id="Card-Back" fill="#E6E6E6" x="0" y="0" width="27" height="22" rx="2.5"></rect>
                        <path d="M24.5,0 C25.8807119,0 27,1.11928813 27,2.5 L27,19.5 C27,20.8807119 25.8807119,22 24.5,22 L2.5,22 C1.11928813,22 0,20.8807119 0,19.5 L0,2.5 C0,1.11928813 1.11928813,0 2.5,0 L24.5,0 Z M24.5,1.5 L2.5,1.5 C1.94771525,1.5 1.5,1.94771525 1.5,2.5 L1.5,19.5 C1.5,20.0522847 1.94771525,20.5 2.5,20.5 L24.5,20.5 C25.0522847,20.5 25.5,20.0522847 25.5,19.5 L25.5,2.5 C25.5,1.94771525 25.0522847,1.5 24.5,1.5 Z" id="Card-Back-Outline" fill="#545454" fill-rule="nonzero"></path>
                        <circle id="Node" fill="#545454" cx="26.75" cy="11" r="2.5"></circle>
                        <rect id="Rectangle" fill="#FFFFFF" x="4" y="4" width="19" height="11" rx="2"></rect>
                        <path d="M21,4 C22.1045695,4 23,4.8954305 23,6 L23,13 C23,14.1045695 22.1045695,15 21,15 L6,15 C4.8954305,15 4,14.1045695 4,13 L4,6 C4,4.8954305 4.8954305,4 6,4 L21,4 Z M21,5 L6,5 C5.44771525,5 5,5.44771525 5,6 L5,13 C5,13.5522847 5.44771525,14 6,14 L21,14 C21.5522847,14 22,13.5522847 22,13 L22,6 C22,5.44771525 21.5522847,5 21,5 Z" id="Rectangle" fill="#545454" fill-rule="nonzero"></path>
                        <polygon id="Path" fill="#3F3F3F" fill-rule="nonzero" points="10.152 10.016 10.488 11.156 10.5 11.156 10.8 9.992 12.144 6.5 13.176 6.5 10.62 12.632 10.212 12.632 7.608 6.5 8.712 6.5"></polygon>
                        <path d="M13.764,8.25 L18.852,8.25 L18.852,9.114 L13.764,9.114 L13.764,8.25 Z M13.764,10.242 L18.852,10.242 L18.852,11.106 L13.764,11.106 L13.764,10.242 Z" id="Shape" fill="#3F3F3F" fill-rule="nonzero"></path>
                    </g>
                </g>
            </g>
        </g>
    </g>
</svg>