<svg width="36" height="34" viewBox="0 0 36 34" xmlns="http://www.w3.org/2000/svg">
    <g fill="none">
        <path d="M27 6a3.009 3.009 0 0 1 3 3v16a3.009 3.009 0 0 1-3 3H9a3.009 3.009 0 0 1-3-3V9a3.009 3.009 0 0 1 3-3h18zm0 2H9c-.55.007-.993.45-1 1v16c.007.55.45.993 1 1h18c.55-.007.993-.45 1-1V9a1.013 1.013 0 0 0-1-1zm-1 5.5a.5.5 0 0 1 .5.5v4a.5.5 0 0 1-.5.5h-4.5a.5.5 0 0 1-.5-.5v-1.477c-.774.265-1.143.733-1.67 1.916l-.116.266c-.723 1.68-1.263 2.384-2.571 2.774l-.143.043V23a.5.5 0 0 1-.5.5h-4.5a.5.5 0 0 1-.5-.5v-4a.5.5 0 0 1 .5-.5H16a.5.5 0 0 1 .5.5v1.475c.789-.276 1.17-.756 1.695-1.936l.116-.265c.693-1.609 1.202-2.31 2.37-2.698l.319-.098V14a.5.5 0 0 1 .5-.5H26zm-11.5-3a.5.5 0 0 1 .5.5v1.5l.038.001c1.259.097 2.052.508 3.106 1.43l.477.43c.415.376.754.643 1.08.823-.321.176-.594.39-.839.656a7.692 7.692 0 0 1-.718-.566l-.457-.411c-1.003-.91-1.636-1.273-2.685-1.361L15 15a.5.5 0 0 1-.5.5H10a.5.5 0 0 1-.5-.5v-4a.5.5 0 0 1 .5-.5h4.5z" fill="#707070" fill-rule="evenodd"/>
    </g>
</svg>
