<svg width="18" height="18" viewBox="0 0 18 18" xmlns="http://www.w3.org/2000/svg">
    <g fill-rule="evenodd">
        <path d="M15.75.75A2.257 2.257 0 0 1 18 3v12a2.257 2.257 0 0 1-2.25 2.25H2.25A2.257 2.257 0 0 1 0 15V3A2.257 2.257 0 0 1 2.25.75h13.5zm0 1.5H2.25A.76.76 0 0 0 1.5 3v12a.76.76 0 0 0 .75.75h13.5a.76.76 0 0 0 .75-.75V3a.76.76 0 0 0-.75-.75zM15 6.375c.207 0 .375.168.375.375v3a.375.375 0 0 1-.375.375h-3.375a.375.375 0 0 1-.375-.375V8.642c-.58.199-.857.55-1.252 1.437l-.087.2c-.543 1.26-.948 1.787-1.929 2.08l-.107.033V13.5a.375.375 0 0 1-.375.375H4.125a.375.375 0 0 1-.375-.375v-3c0-.207.168-.375.375-.375H7.5c.207 0 .375.168.375.375v1.106c.592-.206.877-.567 1.271-1.452l.087-.198c.52-1.207.902-1.733 1.777-2.024l.24-.074V6.75c0-.207.168-.375.375-.375H15zm-8.625-2.25c.207 0 .375.168.375.375v1.125l.029.001c.944.073 1.538.381 2.329 1.072l.358.323c.311.281.565.482.81.617a2.418 2.418 0 0 0-.63.492 5.77 5.77 0 0 1-.538-.424l-.343-.309c-.752-.682-1.227-.954-2.014-1.02L6.75 7.5a.375.375 0 0 1-.375.375H3a.375.375 0 0 1-.375-.375v-3c0-.207.168-.375.375-.375h3.375z"/>
    </g>
</svg>
