<?xml version="1.0" encoding="UTF-8"?>
<svg width="36px" height="34px" viewBox="0 0 36 34" version="1.1" xmlns="http://www.w3.org/2000/svg" xmlns:xlink="http://www.w3.org/1999/xlink">
    <title>E081B05C-BFA0-4A96-945E-9B8C4DB8275F</title>
    <g id="M2Studio" stroke="none" stroke-width="1" fill="none" fill-rule="evenodd">
        <g id="M2Studio-Design" transform="translate(-1112.000000, -339.000000)">
            <g id="Exportable-Assets" transform="translate(1010.000000, 111.000000)">
                <g id="Fit-View-ICON" transform="translate(102.000000, 228.000000)">
                    <rect id="Fit-View-back" x="0" y="0" width="36" height="34"></rect>
                    <g id="Fit-View-Icon" transform="translate(6.000000, 6.000000)" fill="#545454" fill-rule="nonzero">
                        <path d="M2,15 L2,19 C2,19.5522847 2.44771525,20 3,20 L8,20 L8,22 L3,22 C1.34314575,22 0,20.6568542 0,19 L0,15 L2,15 Z M24,15 L24,19 C24,20.6568542 22.6568542,22 21,22 L16,22 L16,20 L21,20 C21.5522847,20 22,19.5522847 22,19 L22,15 L24,15 Z M8,0 L8,2 L3,2 C2.44771525,2 2,2.44771525 2,3 L2,7 L0,7 L0,3 C0,1.34314575 1.34314575,0 3,0 L8,0 Z M21,0 C22.6568542,0 24,1.34314575 24,3 L24,7 L22,7 L22,3 C22,2.44771525 21.5522847,2 21,2 L16,2 L16,0 L21,0 Z" id="Shape"></path>
                        <path d="M20,4 L20,18 L4,18 L4,4 L20,4 Z M18.5,5.5 L5.5,5.5 L5.5,16.5 L18.5,16.5 L18.5,5.5 Z" id="Rectangle"></path>
                    </g>
                </g>
            </g>
        </g>
    </g>
</svg>