<?xml version="1.0" encoding="UTF-8"?>
<svg width="36px" height="34px" viewBox="0 0 36 34" version="1.1" xmlns="http://www.w3.org/2000/svg" xmlns:xlink="http://www.w3.org/1999/xlink">
    <title>6D93E26F-0C0A-4190-9D29-A7696FE99564</title>
    <g id="M2Studio" stroke="none" stroke-width="1" fill="none" fill-rule="evenodd">
        <g id="M2Studio-Design" transform="translate(-1250.000000, -339.000000)">
            <g id="Exportable-Assets" transform="translate(1010.000000, 111.000000)">
                <g id="Hide-Navigator-ICON" transform="translate(240.000000, 228.000000)">
                    <rect id="Hide-Navigator-back" x="0" y="0" width="36" height="34"></rect>
                    <g id="Hide-Navigator-Icon" transform="translate(6.000000, 6.000000)" fill="#545454" fill-rule="nonzero">
                        <path d="M21,0 C22.6568542,0 24,1.34314575 24,3 L24,19 C24,20.5976809 22.75108,21.9036609 21.1762728,21.9949073 L21,22 L3,22 C1.34314575,22 0,20.6568542 0,19 L0,3 C0,1.34314575 1.34314575,0 3,0 L21,0 Z M21,2 L3,2 C2.44771525,2 2,2.44771525 2,3 L2,17 L22,17 L22,3 C22,2.44771525 21.5522847,2 21,2 Z" id="Combined-Shape"></path>
                        <path d="M12,5.25 C14.6845833,5.25 17.07875,6.75875 18.2475,9.14583333 C17.07875,11.5329167 14.6845833,13.0416667 12,13.0416667 C9.31541667,13.0416667 6.92125,11.5329167 5.7525,9.14583333 C6.92125,6.75875 9.31541667,5.25 12,5.25 M12,3.83333333 C8.45833333,3.83333333 5.43375,6.03625 4.20833333,9.14583333 C5.43375,12.2554167 8.45833333,14.4583333 12,14.4583333 C15.5416667,14.4583333 18.56625,12.2554167 19.7916667,9.14583333 C18.56625,6.03625 15.5416667,3.83333333 12,3.83333333 Z M12,7.375 C12.9775,7.375 13.7708333,8.16833333 13.7708333,9.14583333 C13.7708333,10.1233333 12.9775,10.9166667 12,10.9166667 C11.0225,10.9166667 10.2291667,10.1233333 10.2291667,9.14583333 C10.2291667,8.16833333 11.0225,7.375 12,7.375 M12,5.95833333 C10.2433333,5.95833333 8.8125,7.38916667 8.8125,9.14583333 C8.8125,10.9025 10.2433333,12.3333333 12,12.3333333 C13.7566667,12.3333333 15.1875,10.9025 15.1875,9.14583333 C15.1875,7.38916667 13.7566667,5.95833333 12,5.95833333 Z" id="Shape"></path>
                    </g>
                </g>
            </g>
        </g>
    </g>
</svg>