<?xml version="1.0" encoding="UTF-8"?>
<svg width="36px" height="34px" viewBox="0 0 36 34" version="1.1" xmlns="http://www.w3.org/2000/svg" xmlns:xlink="http://www.w3.org/1999/xlink">
    <title>BDE203A3-2CD4-4A41-B8D3-BBCCB5C943EA</title>
    <g id="M2Studio" stroke="none" stroke-width="1" fill="none" fill-rule="evenodd">
        <g id="M2Studio-Design" transform="translate(-1066.000000, -175.000000)">
            <g id="Exportable-Assets" transform="translate(1020.000000, 121.000000)">
                <g id="Insert-Variable-Card-ICON" transform="translate(46.000000, 54.000000)">
                    <rect id="Insert-Variable-Card-back" x="0" y="0" width="36" height="34"></rect>
                    <g id="Insert-Variable-Card-Icon" transform="translate(4.000000, 3.914214)">
                        <path d="M20.807,2.08557288 L19.7680673,9.42432088 L27,8.39957288 L27,21.5857864 C27,22.9664983 25.8807119,24.0857864 24.5,24.0857864 L2.5,24.0857864 C1.11928813,24.0857864 0,22.9664983 0,21.5857864 L0,4.58578644 C0,3.20507456 1.11928813,2.08557288 2.5,2.08557288 L20.807,2.08557288 Z" id="Path" fill="#E6E6E6"></path>
                        <path d="M20.807,2.08557288 L20.594,3.58557288 L2.5,3.58578644 C1.94771525,3.58578644 1.5,4.03350169 1.5,4.58578644 L1.5,21.5857864 C1.5,22.1380712 1.94771525,22.5857864 2.5,22.5857864 L24.5,22.5857864 C25.0522847,22.5857864 25.5,22.1380712 25.5,21.5857864 L25.5,8.61157288 L27,8.39957288 L27,21.5857864 C27,22.9664983 25.8807119,24.0857864 24.5,24.0857864 L2.5,24.0857864 C1.11928813,24.0857864 0,22.9664983 0,21.5857864 L0,4.58578644 C0,3.20507456 1.11928813,2.08557288 2.5,2.08557288 L20.807,2.08557288 Z" id="Path" fill="#545454" fill-rule="nonzero"></path>
                        <circle id="Node" fill="#545454" cx="26.75" cy="13.0857864" r="2.5"></circle>
                        <path d="M20.241,6.08557288 L19.7680673,9.42432088 L23,8.96557288 L23,15.0857864 C23,16.1903559 22.1045695,17.0857864 21,17.0857864 L6,17.0857864 C4.8954305,17.0857864 4,16.1903559 4,15.0857864 L4,8.08578644 C4,6.98121694 4.8954305,6.08578644 6,6.08578644 L20.241,6.08557288 Z" id="Path" fill="#FFFFFF"></path>
                        <path d="M20.241,6.08557288 L20.099,7.08557288 L6,7.08578644 C5.44771525,7.08578644 5,7.53350169 5,8.08578644 L5,15.0857864 C5,15.6380712 5.44771525,16.0857864 6,16.0857864 L21,16.0857864 C21.5522847,16.0857864 22,15.6380712 22,15.0857864 L22,9.10757288 L23,8.96557288 L23,15.0857864 C23,16.1903559 22.1045695,17.0857864 21,17.0857864 L6,17.0857864 C4.8954305,17.0857864 4,16.1903559 4,15.0857864 L4,8.08578644 C4,6.98121694 4.8954305,6.08578644 6,6.08578644 L20.241,6.08557288 Z" id="Path" fill="#545454" fill-rule="nonzero"></path>
                        <polygon id="Path" fill="#3F3F3F" fill-rule="nonzero" points="10.152 12.1017864 10.488 13.2417864 10.5 13.2417864 10.8 12.0777864 12.144 8.58578644 13.176 8.58578644 10.62 14.7177864 10.212 14.7177864 7.608 8.58578644 8.712 8.58578644"></polygon>
                        <path d="M13.764,10.3357864 L18.852,10.3357864 L18.852,11.1997864 L13.764,11.1997864 L13.764,10.3357864 Z M13.764,12.3277864 L18.852,12.3277864 L18.852,13.1917864 L13.764,13.1917864 L13.764,12.3277864 Z" id="Shape" fill="#3F3F3F" fill-rule="nonzero"></path>
                        <polygon id="Path" fill="#545454" fill-rule="nonzero" points="22.8213561 2.12839141 22.1213203 7.07106781 27.0639967 6.3710321 25.6497832 4.95681854 29.1923882 1.41421356 27.7781746 0 24.2355696 3.54260497"></polygon>
                    </g>
                </g>
            </g>
        </g>
    </g>
</svg>