<?xml version="1.0" encoding="UTF-8"?>
<svg width="36px" height="34px" viewBox="0 0 36 34" version="1.1" xmlns="http://www.w3.org/2000/svg" xmlns:xlink="http://www.w3.org/1999/xlink">
    <title>5B2E16F5-628F-4F5D-9C01-943CE4E02C41</title>
    <g id="M2Studio" stroke="none" stroke-width="1" fill="none" fill-rule="evenodd">
        <g id="M2Studio-Design" transform="translate(-1158.000000, -339.000000)">
            <g id="Exportable-Assets" transform="translate(1010.000000, 111.000000)">
                <g id="Lock-Layout-ICON" transform="translate(148.000000, 228.000000)">
                    <rect id="Lock-Layout-back" x="0" y="0" width="36" height="34"></rect>
                    <g transform="translate(6.000000, 6.000000)" fill="#545454" fill-rule="nonzero">
                        <path d="M21,0 C22.6568542,0 24,1.34314575 24,3 L24,19 C24,20.6568542 22.6568542,22 21,22 L3,22 C1.34314575,22 0,20.6568542 0,19 L0,3 C0,1.34314575 1.34314575,0 3,0 L21,0 Z M21,2 L3,2 C2.44771525,2 2,2.44771525 2,3 L2,19 C2,19.5522847 2.44771525,20 3,20 L21,20 C21.5522847,20 22,19.5522847 22,19 L22,3 C22,2.44771525 21.5522847,2 21,2 Z" id="Rectangle"></path>
                        <path d="M12,4 C12.80675,4 13.4950833,4.28408333 14.0638333,4.85283333 C14.6325833,5.42158333 14.9166667,6.10991667 14.9166667,6.91666667 L14.9166667,8.66666667 L15.5,8.66666667 C15.8208333,8.66666667 16.0955833,8.781 16.32425,9.00908333 C16.5523333,9.23775 16.6666667,9.5125 16.6666667,9.83333333 L16.6666667,15.6666667 C16.6666667,15.9875 16.5523333,16.26225 16.32425,16.4909167 C16.0955833,16.719 15.8208333,16.8333333 15.5,16.8333333 L8.5,16.8333333 C8.17916667,16.8333333 7.90441667,16.719 7.67633333,16.4909167 C7.44766667,16.26225 7.33333333,15.9875 7.33333333,15.6666667 L7.33333333,9.83333333 C7.33333333,9.5125 7.44766667,9.23775 7.67633333,9.00908333 C7.90441667,8.781 8.17916667,8.66666667 8.5,8.66666667 L13.75,8.66666667 L13.75,6.91666667 C13.75,6.43075 13.5796667,6.01716667 13.2395833,5.67708333 C12.8995,5.337 12.4859167,5.16666667 12,5.16666667 C11.5140833,5.16666667 11.1005,5.337 10.7604167,5.67708333 C10.4203333,6.01716667 10.25,6.43075 10.25,6.91666667 L9.08333333,6.91666667 C9.08333333,6.10991667 9.368,5.42158333 9.93675,4.85283333 C10.5055,4.28408333 11.19325,4 12,4 Z M12,13.9166667 C12.3208333,13.9166667 12.5955833,13.8023333 12.82425,13.57425 C13.0523333,13.3455833 13.1666667,13.0708333 13.1666667,12.75 C13.1666667,12.4291667 13.0523333,12.1544167 12.82425,11.92575 C12.5955833,11.6976667 12.3208333,11.5833333 12,11.5833333 C11.6791667,11.5833333 11.4044167,11.6976667 11.1763333,11.92575 C10.9476667,12.1544167 10.8333333,12.4291667 10.8333333,12.75 C10.8333333,13.0708333 10.9476667,13.3455833 11.1763333,13.57425 C11.4044167,13.8023333 11.6791667,13.9166667 12,13.9166667" id="Shape"></path>
                    </g>
                </g>
            </g>
        </g>
    </g>
</svg>