<svg id="Program" xmlns="http://www.w3.org/2000/svg" viewBox="0 0 36 34"><defs><style>.cls-1{fill-rule:evenodd;}</style></defs><path d="M27,8a1.0134,1.0134,0,0,1,1,1V25a1.0134,1.0134,0,0,1-1,1H9a1.0134,1.0134,0,0,1-1-1V9A1.0134,1.0134,0,0,1,9,8H27m0-2H9A3.00883,3.00883,0,0,0,6,9V25a3.00883,3.00883,0,0,0,3,3H27a3.00883,3.00883,0,0,0,3-3V9a3.00883,3.00883,0,0,0-3-3Z"/><path class="cls-1" d="M26,14.625v6.75A1.62657,1.62657,0,0,1,24.375,23h-3.25A1.62657,1.62657,0,0,1,19.5,21.375v-.483a4.866,4.866,0,0,0,1,.108,1.97445,1.97445,0,0,0,.25-.02521V21.375a.37541.37541,0,0,0,.375.375h3.25a.37541.37541,0,0,0,.375-.375V15.25h-4v1.77521A1.97445,1.97445,0,0,0,20.5,17a1.978,1.978,0,0,1-1-.40906V14.625A1.62657,1.62657,0,0,1,21.125,13h3.25A1.62657,1.62657,0,0,1,26,14.625ZM21.125,19a.62527.62527,0,0,0-.625-.625,3.876,3.876,0,0,1-2.15332-.89551A5.02664,5.02664,0,0,0,15.5,16.375a.625.625,0,0,0,0,1.25,3.876,3.876,0,0,1,2.15332.89551A5.02664,5.02664,0,0,0,20.5,19.625.62527.62527,0,0,0,21.125,19ZM15.5,19a1.97445,1.97445,0,0,1-.25-.02521V19.375a.37541.37541,0,0,1-.375.375h-3.25a.37541.37541,0,0,1-.375-.375V13.25h4v1.77521A1.97445,1.97445,0,0,1,15.5,15a4.86644,4.86644,0,0,1,1,.108V12.625A1.62657,1.62657,0,0,0,14.875,11h-3.25A1.62657,1.62657,0,0,0,10,12.625v6.75A1.62657,1.62657,0,0,0,11.625,21h3.25a1.62477,1.62477,0,0,0,1.62177-1.59308A1.97026,1.97026,0,0,0,15.5,19Z"/></svg>