<?xml version="1.0" encoding="UTF-8"?>
<svg width="36px" height="34px" viewBox="0 0 36 34" version="1.1" xmlns="http://www.w3.org/2000/svg" xmlns:xlink="http://www.w3.org/1999/xlink">
    <title>A81F3C54-C713-4607-94DB-D26C6BF1589E</title>
    <g id="M2Studio" stroke="none" stroke-width="1" fill="none" fill-rule="evenodd">
        <g id="M2Studio-Design" transform="translate(-1296.000000, -339.000000)">
            <g id="Exportable-Assets" transform="translate(1010.000000, 111.000000)">
                <g id="Show-Navigator-ICON" transform="translate(286.000000, 228.000000)">
                    <rect id="Show-Navigator-back" x="0" y="0" width="36" height="34"></rect>
                    <g id="Show-Navigator-Icon" transform="translate(6.000000, 6.000000)" fill="#545454" fill-rule="nonzero">
                        <path d="M21,0 C22.6568542,0 24,1.34314575 24,3 L24,19 C24,20.5976809 22.75108,21.9036609 21.1762728,21.9949073 L21,22 L3,22 C1.34314575,22 0,20.6568542 0,19 L0,3 C0,1.34314575 1.34314575,0 3,0 L21,0 Z M21,2 L3,2 C2.44771525,2 2,2.44771525 2,3 L2,17 L22,17 L22,3 C22,2.44771525 21.5522847,2 21,2 Z" id="Combined-Shape"></path>
                        <path d="M12,5.25 C14.6845833,5.25 17.07875,6.75875 18.2475,9.14583333 C17.8295833,10.01 17.2416667,10.75375 16.5404167,11.3558333 L17.5391667,12.3545833 C18.52375,11.4833333 19.3029167,10.3925 19.7916667,9.14583333 C18.56625,6.03625 15.5416667,3.83333333 12,3.83333333 C11.1004167,3.83333333 10.23625,3.975 9.42166667,4.23708333 L10.5904167,5.40583333 C11.0508333,5.31375 11.5183333,5.25 12,5.25 Z M11.2420833,6.0575 L12.7083333,7.52375 C13.1120833,7.70083333 13.4379167,8.02666667 13.615,8.43041667 L15.08125,9.89666667 C15.1379167,9.65583333 15.1804429,9.40083333 15.1804429,9.13875 C15.1875,7.38208333 13.7566667,5.95833333 12,5.95833333 C11.7379167,5.95833333 11.49,5.99375 11.2420833,6.0575 Z M4.92375,3.74125 L6.82208333,5.63958333 C5.6675,6.54625 4.75375,7.75041667 4.20833333,9.14583333 C5.43375,12.2554167 8.45833333,14.4583333 12,14.4583333 C13.0766667,14.4583333 14.1108333,14.2529167 15.06,13.8775 L17.4825,16.3 L18.48125,15.30125 L5.9225,2.73541667 L4.92375,3.74125 Z M10.23625,9.05375 L12.085,10.9025 C12.0566667,10.9095833 12.0283333,10.9166667 12,10.9166667 C11.0225,10.9166667 10.2291667,10.1233333 10.2291667,9.14583333 C10.2291667,9.11041667 10.23625,9.08916667 10.23625,9.05375 L10.23625,9.05375 Z M7.82791667,6.64541667 L9.0675,7.885 C8.90458333,8.27458333 8.8125,8.69958333 8.8125,9.14583333 C8.8125,10.9025 10.2433333,12.3333333 12,12.3333333 C12.44625,12.3333333 12.87125,12.24125 13.25375,12.0783333 L13.9479167,12.7725 C13.3245833,12.9425 12.6729167,13.0416667 12,13.0416667 C9.31541667,13.0416667 6.92125,11.5329167 5.7525,9.14583333 C6.24833333,8.13291667 6.97083333,7.29708333 7.82791667,6.64541667 Z" id="Shape"></path>
                    </g>
                </g>
            </g>
        </g>
    </g>
</svg>