<?xml version="1.0" encoding="UTF-8"?>
<svg width="36px" height="34px" viewBox="0 0 36 34" version="1.1" xmlns="http://www.w3.org/2000/svg" xmlns:xlink="http://www.w3.org/1999/xlink">
    <title>2B7AE0A7-2C75-4C01-8747-EED928735B3D</title>
    <g id="Wave-Runner-Tool" stroke="none" fill="none">
        <rect id="Rectangle" fill-rule="nonzero" x="0" y="0" width="36" height="34"></rect>
        <path d="M27,6 C28.65,6 30,7.35 30,9 L30,25 C30,26.65 28.65,28 27,28 L9,28 C7.35,28 6,26.65 6,25 L6,9 C6,7.35 7.35,6 9,6 L27,6 Z M27,8 L9,8 C8.458,8 8,8.458 8,9 L8,25 C8,25.542 8.458,26 9,26 L27,26 C27.542,26 28,25.542 28,25 L28,9 C28,8.458 27.542,8 27,8 Z M16.2467045,10.4426879 L17.2913427,19.4962194 L18.2545849,12.4324434 C18.3323787,11.861956 19.1540834,11.8532973 19.2438815,12.4220187 L20.3160939,19.2126973 L21.2603698,14.6486972 C21.36475,14.1441929 22.0716517,14.1081589 22.2267913,14.5994343 L23.3924647,18.2907335 L24.3212535,16.7427521 C24.4116152,16.5921494 24.5743686,16.499991 24.75,16.499991 L27,16.499991 L27,17.499991 L25.0330952,17.499991 L23.6787465,19.7572479 C23.4570412,20.1267566 22.9029714,20.0614812 22.7732087,19.6505657 L21.8509305,16.7300181 L20.7396302,22.1013028 C20.6269559,22.6458952 19.8428534,22.6273021 19.7561185,22.0779813 L18.7861978,15.9351501 L17.7454151,23.5675566 C17.6659659,24.1501838 16.8206967,24.1414556 16.7532955,23.5573121 L15.6729209,14.1940651 L14.7438815,20.0779813 C14.658937,20.6159629 13.8970249,20.6496525 13.7649287,20.1212678 L12.5927469,15.4325403 L11.6972136,17.2236068 C11.6125176,17.3929988 11.439386,17.499991 11.25,17.499991 L9,17.499991 L9,16.499991 L10.940983,16.499991 L12.3027864,13.7763932 C12.5103844,13.3611973 13.1224855,13.428389 13.2350713,13.8787322 L14.139257,17.4954751 L15.2561185,10.4220187 C15.346858,9.84733511 16.1800158,9.8647195 16.2467045,10.4426879 Z" id="Wave-Runner-Tool-Icon" fill="#545454" fill-rule="evenodd"></path>
    </g>
</svg>