<?xml version="1.0" encoding="UTF-8"?>
<svg width="18px" height="18px" viewBox="0 0 18 18" version="1.1" xmlns="http://www.w3.org/2000/svg" xmlns:xlink="http://www.w3.org/1999/xlink">
    <title>766EBF09-58B7-442B-90C7-2A3155ABCD3B</title>
    <g id="Wave-Runner-Tile-ID" stroke="none" fill="none">
        <rect id="Rectangle" x="0" y="0" width="18" height="18"></rect>
        <path d="M15.75,0.75 C16.9875,0.75 18,1.7625 18,3 L18,15 C18,16.2375 16.9875,17.25 15.75,17.25 L2.25,17.25 C1.0125,17.25 0,16.2375 0,15 L0,3 C0,1.7625 1.0125,0.75 2.25,0.75 L15.75,0.75 Z M15.75,2.25 L2.25,2.25 C1.8435,2.25 1.5,2.5935 1.5,3 L1.5,15 C1.5,15.4065 1.8435,15.75 2.25,15.75 L15.75,15.75 C16.1565,15.75 16.5,15.4065 16.5,15 L16.5,3 C16.5,2.5935 16.1565,2.25 15.75,2.25 Z M7.68502835,4.08201596 L8.46850705,10.8721646 L9.19093869,5.57433255 C9.24928399,5.146467 9.86556253,5.13997298 9.93291111,5.56651403 L10.7370704,10.659523 L11.4452773,7.2365229 C11.5235625,6.85814464 12.0537388,6.83111916 12.1700935,7.19957574 L13.0443486,9.96805009 L13.7409402,8.80706409 C13.8087114,8.69411206 13.9307764,8.62499329 14.0625,8.62499329 L15.75,8.62499329 L15.75,9.37499329 L14.2748214,9.37499329 L13.2590598,11.0679359 C13.0927809,11.3450675 12.6772286,11.2961109 12.5799065,10.9879243 L11.8881979,8.79751359 L11.0547227,12.8259771 C10.9702169,13.2344214 10.38214,13.2204766 10.3170889,12.808486 L9.58964834,8.20136256 L8.80906131,13.9256675 C8.74947444,14.3626378 8.11552253,14.3560917 8.06497165,13.917984 L7.25469067,6.89554884 L6.55791111,11.308486 C6.49420276,11.7119722 5.92276869,11.7372394 5.82369656,11.3409509 L4.94456015,7.8244052 L4.2729102,9.1677051 C4.20938819,9.29474911 4.07953952,9.37499329 3.9375,9.37499329 L2.25,9.37499329 L2.25,8.62499329 L3.70573726,8.62499329 L4.7270898,6.5822949 C4.88278827,6.27089797 5.34186409,6.32129175 5.42630344,6.65904914 L6.10444273,9.37160633 L6.94208889,4.06651403 C7.01014353,3.63550133 7.63501185,3.64853962 7.68502835,4.08201596 Z" id="Wave-Runner-Tool-Icon" fill="#707070" fill-rule="evenodd"></path>
    </g>
</svg>