<?xml version="1.0" encoding="UTF-8" standalone="no"?>
<svg
   width="36"
   height="34"
   viewBox="0 0 36 34"
   version="1.1"
   xmlns:svg="http://www.w3.org/2000/svg">
  <path
     fill="#707070"
     d="m 13.09871,18.753855 h 4.463 l -1.704,-4.657 c -0.078,-0.207 -0.163,-0.45 -0.257,-0.732 -0.093,-0.28 -0.186,-0.586 -0.275,-0.915 -0.091,0.329 -0.18,0.636 -0.267,0.92 -0.087,0.284 -0.172,0.532 -0.256,0.746 z m 9.061,5.286 h -2.014 c -0.226,0 -0.411,-0.057 -0.556,-0.17 -0.146,-0.112 -0.251,-0.252 -0.315,-0.421 l -1.045,-2.856 h -5.8 l -1.045,2.856 c -0.052,0.149 -0.153,0.284 -0.306,0.408 -0.151,0.122 -0.337,0.183 -0.556,0.183 H 8.4997101 l 5.4989999,-14 h 2.663 l 5.499,14 z M 27,6 H 9 C 7.35,6 6,7.35 6,9 v 16 c 0,1.65 1.35,3 3,3 h 18 c 1.65,0 3,-1.35 3,-3 V 9 C 30,7.35 28.65,6 27,6 Z m 0,2 c 0.542,0 1,0.458 1,1 v 16 c 0,0.542 -0.458,1 -1,1 H 9 C 8.458,26 8,25.542 8,25 V 9 C 8,8.458 8.458,8 9,8 Z"
     id="path132"
     style="fill-rule:evenodd" />
  <path
     fill="#707070"
     d="m 22.724302,10.012681 h 2.8458047 v 14.023811 h -2.8458047 z" />
</svg>
