<?xml version="1.0" encoding="UTF-8"?>
<svg width="36px" height="34px" viewBox="0 0 36 34" version="1.1" xmlns="http://www.w3.org/2000/svg" xmlns:xlink="http://www.w3.org/1999/xlink">
    <title>AE939FE4-E1D6-490E-9469-CEE71D1653CA</title>
    <g id="CLUE-UI" stroke="none" stroke-width="1" fill="none" fill-rule="evenodd">
        <g id="Student:-Workspace---Geometry-Tile-Toolset" transform="translate(-551.000000, -780.000000)">
            <g id="Geometry-Toolset" transform="translate(549.000000, 778.000000)">
                <g id="Delete-Selection-ICON" transform="translate(2.000000, 2.000000)">
                    <rect id="Rectangle" x="0" y="0" width="36" height="34"></rect>
                    <path d="M20.7693752,16.9995 L26.3083752,11.4595 C26.5633752,11.2045 26.5633752,10.7915 26.3083752,10.5365 L24.4623752,8.6905 C24.2073752,8.4365 23.7943752,8.4365 23.5393752,8.6905 L17.9993752,14.2295 L12.4603752,8.6905 C12.2053752,8.4365 11.7923752,8.4365 11.5373752,8.6905 L9.69137518,10.5365 C9.43637518,10.7915 9.43637518,11.2045 9.69037518,11.4595 L15.2303752,16.9995 L9.69037518,22.5395 C9.43637518,22.7945 9.43637518,23.2075 9.69137518,23.4625 L11.5373752,25.3085 C11.7923752,25.5625 12.2053752,25.5625 12.4603752,25.3085 L17.9993752,19.7695 L23.5393752,25.3085 C23.7943752,25.5625 24.2073752,25.5625 24.4623752,25.3085 L26.3083752,23.4625 C26.5633752,23.2075 26.5633752,22.7945 26.3083752,22.5395 L20.7693752,16.9995 Z" id="Delete" fill="#545454" fill-rule="nonzero"></path>
                </g>
            </g>
        </g>
    </g>
</svg>