<svg xmlns="http://www.w3.org/2000/svg" width="24" height="24" viewBox="0 0 24 24">
    <path fill="#0481A0" fill-rule="evenodd" d="M13.468 13.038l3.183 3.182-1.47 1.47L12 14.506l-3.182 3.182-1.47-1.469 3.183-3.182L7.35 9.857l1.469-1.47L12 11.57l3.181-3.182 1.47 1.469-3.183 3.181zm6.147-5.192v10.385h-2.527l.692-.693h1.143v-9H17.78l-.692-.692h2.527zM6.911 18.231H4.384V7.846h2.527l-.692.692H5.077v9h1.142l.692.693zm6.365-10.385l-.693.692h-1.167l-.692-.692h2.552zm-2.552 10.385l.692-.693h1.167l.693.693h-2.552zM21 18.923c0 .382-.31.692-.693.692H3.692c-.382 0-.692-.31-.692-.692V6.462h18v12.461zM20.307 3H3.692c-1.147 0-2.077.93-2.077 2.077v13.846c0 1.147.93 2.077 2.077 2.077h16.615c1.147 0 2.077-.93 2.077-2.077V5.077c0-1.147-.93-2.077-2.077-2.077z"/>
</svg>
