<?xml version="1.0" encoding="UTF-8"?>
<svg width="22px" height="22px" viewBox="0 0 22 22" version="1.1" xmlns="http://www.w3.org/2000/svg" xmlns:xlink="http://www.w3.org/1999/xlink">
    <title>F3E3BCAB-9815-4EAC-BB27-83A16366C877</title>
    <g id="CLUE-UI-+-MothEd" stroke="none" stroke-width="1" fill="none" fill-rule="evenodd">
        <g id="Sorting-UI" transform="translate(-1668, -47)">
            <g id="Delete-Thumb-ICON" transform="translate(1668, 47)">
                <polygon id="Rectangle" points="0 0 22 0 22 22 0 22"></polygon>
                <g id="Delete-Small-Icon" transform="translate(3.4558, 2.75)">
                    <path d="M9.59285397,0 C10.1948676,0 10.7356348,0.368185381 10.9562876,0.928303917 L11.5393538,2.40891546 L15.0752918,2.40947908 L15.0752918,3.87489325 L13.5918417,3.87432963 L13.028648,15.1613126 C12.9911525,15.9112233 12.3722014,16.5 11.6213539,16.5 L3.45393784,16.5 C2.70309035,16.5 2.0841393,15.9112233 2.04664377,15.1613126 L1.48119556,3.87432963 L0,3.87489325 L0,2.40947908 L3.5348107,2.40891546 L4.1190042,0.928303917 C4.33965696,0.368185381 4.88042417,0 5.4824378,0 L9.59285397,0 Z M9.59204384,1.46541418 L5.4824378,1.46541418 L5.11013094,2.40891546 L9.96403359,2.40891546 L9.59204384,1.46541418 Z" id="Delete-ICON" fill="#707070"></path>
                    <polygon id="X" fill="#FFFFFF" points="5.31125776 5.93083333 7.56199896 8.18016253 9.7679089 5.97495859 11.0916667 7.29871636 8.88575673 9.50392029 11.0475414 11.667117 9.72378364 12.9908747 7.56129296 10.8283841 5.35538302 13.035 4.03162526 11.7112422 6.2375352 9.50462629 3.9875 7.2545911"></polygon>
                </g>
            </g>
        </g>
    </g>
</svg>
