<svg width="36" height="35" viewBox="0 0 36 35" xmlns="http://www.w3.org/2000/svg">
    <g fill="none">
        <path d="M0 .976h36v34H0z"/>
        <path d="M25.5 12.476a5.5 5.5 0 0 1 0 11h-6a5.5 5.5 0 0 1-5.125-7.5H16.5c.042 0 .083.002.125.004a3.5 3.5 0 0 0 2.875 5.496h6a3.5 3.5 0 0 0 0-7h-2.937a7.035 7.035 0 0 0-1.732-2H25.5zm-9 0a5.5 5.5 0 0 1 5.125 7.501H19.5a2.03 2.03 0 0 1-.124-.004 3.5 3.5 0 0 0-2.876-5.496h-6a3.5 3.5 0 0 0 0 7h2.937a7.035 7.035 0 0 0 1.733 2H10.5a5.5 5.5 0 0 1 0-11h6z" fill="#545454"/>
    </g>
</svg>
