<?xml version="1.0" encoding="UTF-8"?>
<svg width="36px" height="34px" viewBox="0 0 36 34" version="1.1" xmlns="http://www.w3.org/2000/svg" xmlns:xlink="http://www.w3.org/1999/xlink">
    <title>BAEBA1FB-1B4E-4538-8333-1C1D443E7D1E</title>
    <defs>
        <path d="M0,0 L36,0 L36,34 L0,34 L0,0 Z" id="path-1"></path>
    </defs>
    <g id="Voice-Typing-Icon" stroke="none" fill="none" xlink:href="#path-1">
        <rect id="Rectangle" x="0" y="0" width="36" height="34"></rect>
        <path d="M13.0062112,16 C13.0062112,17.3833333 13.4952252,18.5625 14.4732531,19.5375 C15.4512811,20.5125 16.6341097,21 18.0217391,21 C19.4093685,21 20.5921972,20.5125 21.5702252,19.5375 C22.5482531,18.5625 23.0372671,17.3833333 23.0372671,16 L25.0434783,16 C25.0434783,17.75 24.4750518,19.2833333 23.3381988,20.6 C22.2013458,21.9166667 20.7635611,22.6916667 19.0248447,22.925 L19.0248447,26 L17.0186335,26 L17.0186335,22.925 C15.2799172,22.6916667 13.8421325,21.9166667 12.7052795,20.6 C11.5684265,19.2833333 11,17.75 11,16 L13.0062112,16 Z M18.0217391,7 C18.8576605,7 19.5681936,7.29166667 20.1533385,7.875 C20.7384834,8.45833333 21.0310559,9.16666667 21.0310559,10 L21.0310559,16 C21.0310559,16.8333333 20.7384834,17.5416667 20.1533385,18.125 C19.5681936,18.7083333 18.8576605,19 18.0217391,19 C17.1858178,19 16.4752847,18.7083333 15.8901398,18.125 C15.3049948,17.5416667 15.0124224,16.8333333 15.0124224,16 L15.0124224,10 C15.0124224,9.16666667 15.3049948,8.45833333 15.8901398,7.875 C16.4752847,7.29166667 17.1858178,7 18.0217391,7 Z" id="Shape" fill="#000000" fill-rule="nonzero"></path>
    </g>
</svg>