<svg width="25" height="23" viewBox="0 0 25 23" xmlns="http://www.w3.org/2000/svg">
  <path d="M3.5 0H25v23H3.5A3.5 3.5 0 0 1 0 19.5v-16A3.5 3.5 0 0 1 3.5 0z" fill="#FFF"/>
  <path fill="#91E7A2" d="M13.25 12.25H25V23H13.25z"/>
  <path d="M0 12.25h11.75V23H3.5A3.5 3.5 0 0 1 0 19.5v-7.25z" fill="#FFC1EB"/>
  <path fill="#FFC89C" d="M13.25 0H25v10.75H13.25z"/>
  <path d="M3.5 0h8.25v10.75H0V3.5A3.5 3.5 0 0 1 3.5 0z" fill="#80E0FF"/>
  <path d="M10 9h3.446C14.304 9 15 9.696 15 10.554v1.892c0 .858-.696 1.554-1.554 1.554h-1.892A1.554 1.554 0 0 1 10 12.446V9z" fill="#FFF"/>
</svg>
