<?xml version="1.0" encoding="utf-8"?>
<svg width="36" height="34" viewBox="0 0 36 34" xmlns="http://www.w3.org/2000/svg">
  <g fill="none" fill-rule="evenodd">
    <path fill="#707070" d="M 27 6 L 9 6 C 7.35 6 6 7.35 6 9 L 6 25 C 6 26.65 7.35 28 9 28 L 27 28 C 28.65 28 30 26.65 30 25 L 30 9 C 30 7.35 28.65 6 27 6 Z M 27 8 C 27.542 8 28 8.458 28 9 L 28 25 C 28 25.542 27.542 26 27 26 L 9 26 C 8.458 26 8 25.542 8 25 L 8 9 C 8 8.458 8.458 8 9 8 L 27 8 Z"/>
    <text transform="matrix(2.261455, 0, 0, 2.861789, -15.81504, -17.654472)" style="fill: rgb(255, 2, 230); font-size: 6.67998px; font-weight: 700; white-space: pre;"><tspan x="10.499" y="14.416">DF</tspan><tspan x="10.499" dy="1em">​</tspan></text>
  </g>
</svg>