<svg xmlns="http://www.w3.org/2000/svg" width="36" height="34" viewBox="0 0 36 34">
    <g fill="none" fill-rule="evenodd">
        <!-- <path fill-rule="nonzero" d="M0 0H36V34H0z"/> -->
        <path fill="#707070" d="M28 9c0-.542-.458-1-1-1H9c-.542 0-1 .458-1 1v16c0 .542.458 1 1 1h18c.542 0 1-.458 1-1V9zm2 0v16c0 1.65-1.35 3-3 3H9c-1.65 0-3-1.35-3-3V9c0-1.65 1.35-3 3-3h18c1.65 0 3 1.35 3 3zm-5.636 3.757L20.121 17l4.243 4.243c.195.195.195.512 0 .707l-1.414 1.414c-.196.196-.512.196-.707 0L18 19.121l-4.243 4.243c-.195.196-.511.196-.707 0l-1.414-1.414c-.195-.195-.195-.512 0-.707L15.879 17l-4.243-4.243c-.195-.195-.195-.512 0-.707l1.414-1.414c.196-.196.512-.196.707 0L18 14.879l4.243-4.243c.195-.196.511-.196.707 0l1.414 1.414c.195.195.195.512 0 .707z"/>
    </g>
</svg>
