<svg xmlns="http://www.w3.org/2000/svg" width="36" height="34" viewBox="0 0 36 34">
    <g fill="none" fill-rule="evenodd">
        <!-- <path fill-rule="nonzero" d="M0 0H36V34H0z"/> -->
        <path fill="#707070" d="M28 25c0 .542-.458 1-1 1H9c-.542 0-1-.458-1-1v-7.818c2.14.262 2.834.804 3.018 1.245.323.769-.664 1.913-1.254 2.595l-.245.288c-.744.894-.537 1.534-.347 1.835.356.564 1.199.863 2.289.863.054 0 .116-.011.171-.012-.119-.227-.165-.484-.148-.743-.866.003-1.484-.202-1.677-.509-.181-.285.057-.677.288-.954l.237-.277c.749-.867 1.88-2.178 1.378-3.376-.377-.899-1.596-1.46-3.71-1.71V9c0-.542.458-1 1-1h18c.542 0 1 .458 1 1v16zM27 6H9C7.35 6 6 7.35 6 9v16c0 1.65 1.35 3 3 3h18c1.65 0 3-1.35 3-3V9c0-1.65-1.35-3-3-3zM14.595 21.592h1.294v.993l-1.739.309-.838-.851.304-1.764h.979v1.313zm.973-2.3c-.149-.15-.149-.391 0-.541l4.152-4.211c.148-.15.385-.15.534 0 .148.15.148.391 0 .541l-4.152 4.211c-.148.15-.386.15-.534 0zm4.316-6.565l-7.08 7.18-.571 3.323c-.078.449.307.836.749.76l3.276-.582 7.08-7.18c.127-.129.127-.337 0-.465l-2.993-3.036c-.129-.128-.334-.128-.461 0zm5.762 1.157l-1.243 1.261c-.127.127-.332.127-.458 0l-2.993-3.036c-.127-.129-.127-.337 0-.464l1.243-1.261c.504-.512 1.324-.512 1.83 0l1.621 1.643c.507.511.507 1.342 0 1.857z"/>
    </g>
</svg>
