<svg xmlns="http://www.w3.org/2000/svg" width="36" height="34" viewBox="0 0 36 34">
    <g fill="none" fill-rule="evenodd">
        <!-- <path fill-rule="nonzero" d="M0 0H36V34H0z"/> -->
        <path fill="#707070" d="M25 21v-1h-1v1h-2v-1h-1v1h-2v-1h-1v1h-2v-1h-1v1h-2v-2h1v-1h-1v-2h1v-1h-1v-2h1v-1h-1v-2h-1v11h-2v1h2v2h1v-2h13v-1h-1zm2-15H9C7.35 6 6 7.35 6 9v16c0 1.65 1.35 3 3 3h18c1.65 0 3-1.35 3-3V9c0-1.65-1.35-3-3-3zm0 2c.542 0 1 .458 1 1v16c0 .542-.458 1-1 1H9c-.542 0-1-.458-1-1V9c0-.542.458-1 1-1h18z"/>
    </g>
</svg>
