<?xml version="1.0" encoding="UTF-8"?>
<svg width="36px" height="34px" viewBox="0 0 36 34" version="1.1" xmlns="http://www.w3.org/2000/svg" xmlns:xlink="http://www.w3.org/1999/xlink">
    <title>B8DA231F-23DE-4278-A921-ABBEC13D6300</title>
    <g id="Teacher-UI-+-MothEd" stroke="none" stroke-width="1" fill="none" fill-rule="evenodd">
        <g id="Proportional-Arrows" transform="translate(-1607, -66)">
            <g id="Group-16" transform="translate(1469, 40)">
                <g id="Hide-Proportional-Arrows-Button" transform="translate(138, 26)">
                    <rect id="Show/Hide-Proportional-Arrows-back" fill-rule="nonzero" x="0" y="0" width="36" height="34"></rect>
                    <path d="M23.5,20.1875 C27.0416667,20.1875 30.06625,22.3904167 31.2916667,25.5 C30.06625,28.6095833 27.0416667,30.8125 23.5,30.8125 C19.9583333,30.8125 16.93375,28.6095833 15.7083333,25.5 C16.93375,22.3904167 19.9583333,20.1875 23.5,20.1875 Z M18,5 C25.7319865,5 32,9.4771525 32,15 C32,16.9668911 31.2050049,18.8011528 29.8320142,20.3477857 C29.2943325,19.9321178 28.7168424,19.5702278 28.1070822,19.267262 C29.3091567,18.013982 30,16.5392954 30,15 C30,10.7542288 24.7440797,7 18,7 C11.2559203,7 6,10.7542288 6,15 C6,17.0949389 7.27142671,19.1319934 9.58533687,20.6653786 C10.1466512,21.0373511 10.3800013,21.5037894 10.4903361,22.0224646 C10.5352436,22.2335712 10.5507969,22.4339155 10.5507714,22.6500839 C10.5507462,22.8632347 10.5345468,23.0976937 10.5040299,23.3719092 L10.4181689,24.0298359 L10.087,26.024 L13.8654773,23.9477719 L14.3395865,23.6990201 C14.1569183,24.0429093 13.9924476,24.3991779 13.8476042,24.7667286 L13.5586384,25.5 L13.8476042,26.2332714 L11.0303197,27.7882341 L10.2162728,28.2221073 C9.11021828,28.7998374 8.23644243,29.1973615 8,29.1178532 C7.22033739,28.8556765 8.90690851,22.6150855 8.48054051,22.3325393 C5.72463232,20.5062503 4,17.8969857 4,15 C4,9.4771525 10.2680135,5 18,5 Z M23.5,21.9583333 C21.545,21.9583333 19.9583333,23.545 19.9583333,25.5 C19.9583333,27.455 21.545,29.0416667 23.5,29.0416667 C25.455,29.0416667 27.0416667,27.455 27.0416667,25.5 C27.0416667,23.545 25.455,21.9583333 23.5,21.9583333 Z M23.5,23.375 C24.6758333,23.375 25.625,24.3241667 25.625,25.5 C25.625,26.6758333 24.6758333,27.625 23.5,27.625 C22.3241667,27.625 21.375,26.6758333 21.375,25.5 C21.375,24.3241667 22.3241667,23.375 23.5,23.375 Z M17.074473,9.87638357 L26.0291414,11.3582063 L19.5970368,17.7621047 L18.6525915,14.8073639 C18.0326568,15.1666607 17.3916639,15.5941515 16.7301509,16.0902863 C15.243875,17.2049932 13.9268397,18.3983554 12.7781121,19.6702581 L12.1078541,20.4123862 L10.6235979,19.0718701 L11.2938559,18.3297419 C12.5304941,16.9605022 13.9429034,15.6807219 15.5301509,14.4902863 C16.3847683,13.8493232 17.2177842,13.3066031 18.0300532,12.8628401 L17.074473,9.87638357 Z" id="Hide-Proportional-Arrow-ICON" fill="#707070"></path>
                </g>
            </g>
        </g>
    </g>
</svg>