<svg width="36" height="44" viewBox="0 0 36 44" xmlns="http://www.w3.org/2000/svg">
  <path d="M23.067 28.6 18 23.533v-7.2h2.667v6.134l4.266 4.266-1.866 1.867zm-3.8 6.4c-1.511 0-2.984-.283-4.418-.85-1.433-.566-2.738-1.44-3.916-2.617l1.867-1.866a9.635 9.635 0 0 0 3.067 1.984 9.238 9.238 0 0 0 3.466.682c2.578 0 4.778-.91 6.6-2.733 1.823-1.823 2.734-4.023 2.734-6.6s-.911-4.777-2.734-6.6c-1.822-1.823-4.022-2.733-6.6-2.733-2.556 0-4.75.894-6.584 2.682C10.916 18.14 10 20.444 10 23.267l2.467-2.467 1.866 1.867-5.666 5.666L3 22.667 4.933 20.8l2.4 2.467c0-1.734.311-3.351.934-4.851.622-1.5 1.477-2.8 2.566-3.9 1.09-1.1 2.362-1.96 3.818-2.583C16.105 11.311 17.667 11 19.333 11c1.644 0 3.195.316 4.651.95A12.264 12.264 0 0 1 27.8 14.532a12.264 12.264 0 0 1 2.584 3.816c.633 1.456.95 3.007.95 4.651 0 1.644-.317 3.195-.95 4.65a12.264 12.264 0 0 1-2.584 3.817 12.204 12.204 0 0 1-3.833 2.584c-1.467.633-3.034.949-4.7.949z"/>
</svg>
