<?xml version="1.0" encoding="utf-8"?>
<svg width="36" height="34" viewBox="0 0 36 34" xmlns="http://www.w3.org/2000/svg">
<g transform="translate(0.000000,34.000000) scale(0.100000,-0.100000)"
fill="#000000" stroke="none">
<path d="M60 170 l0 -110 120 0 120 0 0 110 0 110 -120 0 -120 0 0 -110z m220
0 l0 -90 -100 0 -100 0 0 90 0 90 100 0 100 0 0 -90z"/>
<path d="M140 166 c0 -37 4 -66 10 -66 6 0 10 11 10 24 0 18 6 26 21 28 56 8
48 70 -10 76 l-31 3 0 -65z m55 24 c0 -16 -6 -26 -17 -28 -14 -3 -18 3 -18 28
0 25 4 31 18 28 11 -2 17 -12 17 -28z"/>
</g>
</svg> 