<svg width="36" height="34" viewBox="0 0 36 34" xmlns="http://www.w3.org/2000/svg">
  <path d="M13.426 9.499a8.68 8.68 0 0 0-.584.471l-.997.879-.995.001v12.3h3.261a3.458 3.458 0 0 0 .552 1.35H9.5v-15l3.926-.001zM26.5 9.5v15l-6.031.001c.127-.186.237-.386.33-.596.105-.243.182-.496.229-.756l4.122.001v-12.3l-1.893-.002a5.032 5.032 0 0 0-.911-1.22l-.139-.129L26.5 9.5z"/>
  <path d="M27 6c1.65 0 3 1.35 3 3v16c0 1.65-1.35 3-3 3H9c-1.65 0-3-1.35-3-3V9c0-1.65 1.35-3 3-3h18zm0 2H9c-.542 0-1 .458-1 1v16c0 .542.458 1 1 1h18c.542 0 1-.458 1-1V9c0-.542-.458-1-1-1zm-9.425 13c.207 0 .403.04.59.12.187.08.347.187.48.32s.24.293.32.48c.08.187.12.383.12.59 0 .213-.04.412-.12.595a1.448 1.448 0 0 1-.8.79 1.538 1.538 0 0 1-.59.115 1.564 1.564 0 0 1-1.085-.43 1.422 1.422 0 0 1-.32-.475 1.527 1.527 0 0 1-.115-.595c0-.207.038-.403.115-.59a1.41 1.41 0 0 1 .32-.48c.137-.133.298-.24.485-.32.187-.08.387-.12.6-.12zm.42-11c.58 0 1.108.08 1.585.24.477.16.885.388 1.225.685.34.297.603.655.79 1.075.187.42.28.89.28 1.41 0 .507-.073.945-.22 1.315-.147.37-.332.692-.555.965a4.41 4.41 0 0 1-.725.71l-.74.565c-.233.177-.435.35-.605.52-.17.17-.272.362-.305.575l-.23 1.46h-1.69l-.17-1.63a.445.445 0 0 1-.01-.085v-.085c0-.293.073-.548.22-.765.147-.217.33-.42.55-.61.147-.127.3-.251.462-.373l.248-.182c.253-.18.49-.375.71-.585.22-.21.403-.448.55-.715.147-.267.22-.58.22-.94 0-.24-.045-.455-.135-.645a1.459 1.459 0 0 0-.375-.49 1.681 1.681 0 0 0-.575-.315 2.311 2.311 0 0 0-.725-.11c-.38 0-.702.042-.965.125a3.558 3.558 0 0 0-.67.28 8.066 8.066 0 0 0-.465.28.64.64 0 0 1-.34.125c-.206 0-.362-.073-.47-.22l-.7-1.11c.227-.2.475-.39.745-.57a5.348 5.348 0 0 1 1.895-.785 5.814 5.814 0 0 1 1.19-.115z"/>
</svg>
