<?xml version="1.0" encoding="UTF-8"?>
<svg width="36px" height="34px" viewBox="0 0 36 34" version="1.1" xmlns="http://www.w3.org/2000/svg" xmlns:xlink="http://www.w3.org/1999/xlink">
    <title>638A9395-F85F-4C36-A983-1B4BD42C2542</title>
    <defs>
        <path d="M0,0 L36,0 L36,34 L0,34 L0,0 Z" id="path-1"></path>
    </defs>
    <g id="Read-Aloud-Tool" stroke="none" fill="none" xlink:href="#path-1">
        <rect id="Rectangle" fill-rule="nonzero" x="0" y="0" width="36" height="34"></rect>
        <path d="M8,14.5792474 L8,19.4207525 C8,19.9730373 8.44771525,20.4207525 9,20.4207525 L12.1467899,20.4207525 C12.4120063,20.4207525 12.6663603,20.5261094 12.8538966,20.7136458 L16.5551509,24.4149 C16.9456752,24.8054243 17.5788402,24.8054243 17.9693645,24.4149 C18.1569008,24.2273636 18.2622577,23.9730097 18.2622577,23.7077932 L18.2622577,10.2922067 C18.2622577,9.73992198 17.8145424,9.29220672 17.2622577,9.29220672 C16.9970412,9.29220672 16.7426873,9.39756357 16.5551509,9.58509994 L12.8538966,13.2863542 C12.6663603,13.4738906 12.4120063,13.5792474 12.1467899,13.5792474 L9,13.5792474 C8.44771525,13.5792474 8,14.0269627 8,14.5792474 Z M23.3933865,17 C23.3933865,14.981756 22.2303307,13.2485747 20.5427594,12.404789 L20.5427594,21.5838084 C22.2303307,20.7514253 23.3933865,19.018244 23.3933865,17 Z M20.5427594,7 L20.5427594,9.34891676 L20.5427594,9.34891676 C23.8380844,10.3295325 26.2440137,13.3854048 26.2440137,17 C26.2440137,20.6145952 23.8380844,23.6704675 20.5427594,24.6510832 L20.5427594,27 C25.1151653,25.9623717 28.5245154,21.8802736 28.5245154,17 C28.5245154,12.1197264 25.1151653,8.03762828 20.5427594,7 L20.5427594,7 Z" id="Read-Aloud-Tool-Icon" fill-rule="evenodd"></path>
    </g>
</svg>