<svg width="36" height="34" viewBox="0 0 36 34" xmlns="http://www.w3.org/2000/svg">
    <g fill="none" fill-rule="evenodd">
        <path d="M0 34h36V0H0z"/>
        <path d="m6.32 14.75 25.115 6.73-1.812 6.76a1 1 0 0 1-1.225.708L5.216 22.736a1 1 0 0 1-.707-1.225L6.32 14.75zm1.061 1.837-1.294 4.83 22.216 5.953 1.295-4.83-2.338-.626-.712 2.656-.966-.259.712-2.656-2.347-.63-.712 2.657-.966-.259.712-2.656-2.347-.629-.712 2.656-.966-.258.712-2.657-2.347-.629-.712 2.657-.966-.26.712-2.655-2.348-.63-.711 2.657-.966-.259.712-2.656-2.348-.63-.711 2.657-.966-.259.711-2.656-2.347-.629zM23.473 5.628l3.976 10.122h-1.456a.636.636 0 0 1-.63-.427l-.756-2.065h-4.193l-.756 2.065a.663.663 0 0 1-.623.427h-1.463l3.976-10.122h1.925zm-.966 1.743-.13.454a8.47 8.47 0 0 1-.188.587l-1.292 3.516h3.227l-1.232-3.367a12.881 12.881 0 0 1-.385-1.19z" fill="#545454"/>
    </g>
</svg>
