<?xml version="1.0" encoding="UTF-8"?>
<svg width="36px" height="34px" viewBox="0 0 36 34" version="1.1" xmlns="http://www.w3.org/2000/svg" xmlns:xlink="http://www.w3.org/1999/xlink">
    <title>BBF73331-B387-446D-A744-CAFB62530512</title>
    <g id="Teacher-UI-+-MothEd" stroke="none" stroke-width="1" fill="none" fill-rule="evenodd">
        <g id="Proportional-Arrows" transform="translate(-1515, -66)">
            <g id="Group-16" transform="translate(1469, 40)">
                <g id="Proportional-Arrow-Mode-Button" transform="translate(46, 26)">
                    <rect id="Proportional-Arrow-Mode-back" fill-rule="nonzero" x="0" y="0" width="36" height="34"></rect>
                    <path d="M18,5 C25.7319865,5 32,9.4771525 32,15 C32,20.5228475 25.7319865,25 18,25 C17.508423,25 17.0227634,24.9819032 16.5442559,24.9465913 C15.8032646,24.8919092 8.74425278,29.3681226 8,29.1178532 C7.22033739,28.8556765 8.90690851,22.6150855 8.48054051,22.3325393 C5.72463232,20.5062503 4,17.8969857 4,15 C4,9.4771525 10.2680135,5 18,5 Z M18,7 C11.2559203,7 6,10.7542288 6,15 C6,17.0949389 7.27142671,19.1319934 9.58533687,20.6653786 C10.1466512,21.0373511 10.3800013,21.5037894 10.4903361,22.0224646 C10.5352436,22.2335712 10.5507969,22.4339155 10.5507714,22.6500839 C10.5507399,22.9165224 10.5254362,23.2162549 10.4784868,23.5853135 C10.4168552,24.0697857 10.4006646,24.1686174 10.1429346,25.6905419 C10.1183791,25.835799 10.113468,25.8648504 10.097016,25.9632241 L10.087,26.024 L10.2798989,25.9198121 C10.5065743,25.796253 10.7530632,25.6608246 11.0236227,25.5113389 L11.3023634,25.3570864 C11.3645819,25.3225991 11.3645819,25.3225991 11.4268439,25.288068 C13.415839,24.1848133 13.5007229,24.1380843 14.123684,23.812401 C15.5142188,23.085431 15.9460163,22.8970053 16.6914473,22.952015 C17.123792,22.9839202 17.5603645,23 18,23 C24.7440797,23 30,19.2457712 30,15 C30,10.7542288 24.7440797,7 18,7 Z M17.074473,9.87638357 L26.0291414,11.3582063 L19.5970368,17.7621047 L18.6525915,14.8073639 C18.0326568,15.1666607 17.3916639,15.5941515 16.7301509,16.0902863 C15.243875,17.2049932 13.9268397,18.3983554 12.7781121,19.6702581 L12.1078541,20.4123862 L10.6235979,19.0718701 L11.2938559,18.3297419 C12.5304941,16.9605022 13.9429034,15.6807219 15.5301509,14.4902863 C16.3847683,13.8493232 17.2177842,13.3066031 18.0300532,12.8628401 L17.074473,9.87638357 Z" id="Proportional-Arrow-Mode-ICON" fill="#707070"></path>
                </g>
            </g>
        </g>
    </g>
</svg>