<svg xmlns="http://www.w3.org/2000/svg" width="36" height="34" viewBox="0 0 36 34">
    <g fill="none" fill-rule="evenodd">
        <!-- <path fill-rule="nonzero" d="M0 0H36V34H0z"/> -->
        <path fill="#707070" d="M21.5 14.375H25V12.5h-3.5v1.875zm0 2.875H25v-1.875h-3.5v1.875zm0 2.875H25V18.25h-3.5v1.875zm0 2.875H25v-1.875h-3.5V23zM17 14.375h3.5V12.5H17v1.875zm0 2.875h3.5v-1.875H17v1.875zm0 2.875h3.5V18.25H17v1.875zM17 23h3.5v-1.875H17V23zm-6-8.625h5V12.5h-5v1.875zm0 2.875h5v-1.875h-5v1.875zm0 2.875h5V18.25h-5v1.875zM11 23h5v-1.875h-5V23zm-1-13v14h16V10H10zm17-4H9C7.35 6 6 7.35 6 9v16c0 1.65 1.35 3 3 3h18c1.65 0 3-1.35 3-3V9c0-1.65-1.35-3-3-3zm0 2c.542 0 1 .458 1 1v16c0 .542-.458 1-1 1H9c-.542 0-1-.458-1-1V9c0-.542.458-1 1-1h18z"/>
    </g>
</svg>
