<svg xmlns="http://www.w3.org/2000/svg" width="36" height="34" viewBox="0 0 36 34">
    <g fill="none" fill-rule="evenodd">
        <!-- <path fill-rule="nonzero" d="M0 0H36V34H0z"/> -->
        <path fill="#707070" d="M15.769 18.714h4.463l-1.704-4.657c-.078-.207-.163-.45-.257-.732-.093-.28-.186-.586-.275-.915-.091.329-.18.636-.267.92-.087.284-.172.532-.256.746l-1.704 4.638zM24.83 24h-2.014c-.226 0-.411-.057-.556-.17-.146-.112-.251-.252-.315-.421L20.9 20.553h-5.8l-1.045 2.856c-.052.149-.153.284-.306.408-.151.122-.337.183-.556.183H11.17l5.499-14h2.663l5.499 14zM27 6H9C7.35 6 6 7.35 6 9v16c0 1.65 1.35 3 3 3h18c1.65 0 3-1.35 3-3V9c0-1.65-1.35-3-3-3zm0 2c.542 0 1 .458 1 1v16c0 .542-.458 1-1 1H9c-.542 0-1-.458-1-1V9c0-.542.458-1 1-1h18z"/>
    </g>
</svg>
