<?xml version="1.0" encoding="UTF-8"?><svg id="Layer_2" xmlns="http://www.w3.org/2000/svg" viewBox="0 0 14 14"><g id="Layer_219_copy"><path d="m11.97,1.08l-2.94,2.94c-.03-1.08-.49-2.1-1.26-2.85C7,.42,5.96,0,4.89,0h-.06c-1.1,0-2.16.43-2.94,1.21l-.82.82,2.94,2.94c-1.08.03-2.1.49-2.85,1.26C.42,7,0,8.04,0,9.11v.06c0,1.1.43,2.16,1.21,2.94l.82.82,2.94-2.94c.03,1.08.49,2.1,1.26,2.85.77.75,1.81,1.17,2.89,1.16h.06c1.1,0,2.16-.43,2.94-1.21l.82-.82-2.94-2.94c1.08-.03,2.1-.49,2.85-1.26.75-.77,1.17-1.81,1.16-2.89v-.06c0-1.1-.43-2.16-1.21-2.94l-.82-.82Zm-7.14.28h.06c.74,0,1.45.29,1.97.82.52.52.82,1.23.82,1.97v.06c0,.67-.24,1.32-.68,1.83L2.99,2.03c.51-.44,1.16-.68,1.83-.68h0Zm-3.47,7.82v-.06c0-.74.29-1.45.82-1.97.52-.52,1.23-.82,1.97-.82h.06c.67,0,1.32.24,1.83.68l-4,4.01c-.44-.51-.68-1.16-.68-1.83h0Zm7.82,3.47h-.06c-.74,0-1.45-.29-1.97-.82-.52-.52-.82-1.23-.82-1.97v-.06c0-.67.24-1.32.68-1.83l4.01,4c-.51.44-1.16.68-1.83.68h0Zm3.47-7.76c0,1.54-1.25,2.79-2.79,2.79h-.06c-.67,0-1.32-.24-1.83-.68l4-4.01c.44.51.68,1.16.68,1.83v.06Z"/></g></svg>