<svg id="icon-light-bulb" xmlns="http://www.w3.org/2000/svg" viewBox="0 0 14 14">
  <title>light bulb</title>
  <path id="light_bulb" d="M7.01838,0l.19586,.0047c2.13627,.10274,3.83886,1.86821,3.84612,4.05181-.02651,.86423-.29356,1.70204-.76268,2.41169l-.26145,.37295-.19927,.29404-.19432,.30633-.13581,.24176c-.07159,.14048-.10586,.2404-.10614,.30472-.00121,.27411-.01927,.49901-.06289,.68336,.00708,.0177,.01193,.03623,.01564,.05463l.00877,.08521-.00238,2.56823c-.00665,1.00805-.64942,1.86378-1.54557,2.18552-.03753,.07675-.07611,.14169-.11698,.19402-.02886,.03695-.05955,.06858-.12902,.11652-.18177,.0952-.38662,.13719-.55175,.12118-.20451,.01567-.40929-.0267-.62529-.14402-.03393-.0255-.06378-.0561-.09183-.09169-.04104-.05208-.07968-.11682-.11753-.19372-.84664-.30438-1.46703-1.08321-1.5411-2.01804l-.00741-.17703,.00236-2.56487,.00583-.06154c-.06039-.20103-.08299-.45602-.08157-.77921,.00021-.04824-.01851-.11668-.05738-.20716l-.04563-.09789-.13263-.24151-.18959-.3052-.19413-.29223-.25841-.37565c-.46861-.72201-.72825-1.56359-.74721-2.44381C2.96161,1.83649,4.67974,.08669,6.81684,.00293l.20154-.00293Zm-1.36582,9.42849l-.00102,1.94173c.00302,.63524,.45285,1.16352,1.04967,1.28601l.13003,.01993,.13388,.00685,.15311-.00276c-.21266-.22079-.32111-.57187-.37226-.85325l-.02101-.13396-.0172-.17993-.00208-.065,.00029-1.9135c-.27914-.01-.55833-.03361-.83677-.07084l-.21665-.0353ZM7.01386,1.01817c-1.67323-.01668-3.04019,1.32387-3.06083,2.98007,.01442,.65993,.20852,1.30166,.56444,1.86415l.26936,.39378,.2245,.33634c.36652,.56437,.5338,.91941,.56237,1.26384l.00398,.17327-.01015,.33076c.00086,.01408,.00335,.02165,.00842,.02592l.00967,.00433,.39083,.06054c.66442,.09161,1.33737,.09474,1.99733,.01003l.39367-.05749c.00879-.00186,.01433-.0054,.01766-.01384l.00346-.01674-.00605-.38962c.00168-.38015,.16394-.7449,.57431-1.36587l.11814-.17591,.39228-.56489c.3554-.55159,.55514-1.18985,.57517-1.83418-.00579-1.67369-1.36087-3.02633-3.02855-3.02448Z"/>
</svg>
