<svg width="18" height="18" viewBox="0 0 18 18" xmlns="http://www.w3.org/2000/svg">
    <g fill-rule="evenodd">
        <path d="M15.75.75A2.257 2.257 0 0 1 18 3v12a2.257 2.257 0 0 1-2.25 2.25H2.25A2.257 2.257 0 0 1 0 15V3A2.257 2.257 0 0 1 2.25.75h13.5zm0 1.5H2.25A.76.76 0 0 0 1.5 3v12a.76.76 0 0 0 .75.75h13.5a.76.76 0 0 0 .75-.75V3a.76.76 0 0 0-.75-.75zM13.781 6A1.22 1.22 0 0 1 15 7.219v5.062a1.22 1.22 0 0 1-1.219 1.219h-2.437a1.22 1.22 0 0 1-1.219-1.219v-.362c.247.053.498.08.75.081a1.48 1.48 0 0 0 .188-.019v.3c0 .156.125.281.28.281h2.438a.282.282 0 0 0 .281-.28V7.686h-3V9.02A1.48 1.48 0 0 0 10.876 9a1.483 1.483 0 0 1-.75-.307V7.22A1.22 1.22 0 0 1 11.344 6h2.437zM6.656 4.5a1.22 1.22 0 0 1 1.219 1.219V7.58a3.65 3.65 0 0 0-.75-.081 1.48 1.48 0 0 0-.188.019V6.187h-3v4.594c0 .156.126.281.282.281h2.437a.282.282 0 0 0 .282-.28v-.3c.062.01.124.016.187.018.273.03.532.136.748.305A1.219 1.219 0 0 1 6.656 12H4.22A1.22 1.22 0 0 1 3 10.781V5.72A1.22 1.22 0 0 1 4.219 4.5h2.437zm.469 4.031a3.77 3.77 0 0 1 2.135.829c.457.384 1.02.618 1.615.671a.469.469 0 0 1 0 .938 3.77 3.77 0 0 1-2.135-.829 2.907 2.907 0 0 0-1.615-.671.469.469 0 1 1 0-.938z"/>
    </g>
</svg>
