<svg id="Open_Program" data-name="Open Program" xmlns="http://www.w3.org/2000/svg" viewBox="0 0 18 18"><title>open program</title><path id="open_program_Icon" data-name="open program Icon" d="M9,0a9,9,0,1,0,9,9A9,9,0,0,0,9,0Zm6,11.86a4.61,4.61,0,0,1-2.56,2.5.22.22,0,0,1-.19-.4A3.8,3.8,0,0,0,14,11.52a3.55,3.55,0,0,0-.5-2.7,3.24,3.24,0,0,0-2.09-1.38,2.94,2.94,0,0,0-1.95.35l.48,1.85a.5.5,0,0,1-.63.6L3,8.35a.5.5,0,0,1-.21-.83L7.4,2.81A.5.5,0,0,1,8.24,3L8.74,5a5.56,5.56,0,0,1,3.38.22A5.29,5.29,0,0,1,15,8,4.91,4.91,0,0,1,15,11.86Z"/></svg>