<svg xmlns="http://www.w3.org/2000/svg" viewBox="0 0 19 19" preserveAspectRatio="xMidYMid meet"><path fill="#fffb00" d="M10.52,13.43,9,15A3.49,3.49,0,0,1,4,15H4A3.42,3.42,0,0,1,3,12.5,3.46,3.46,0,0,1,4,10L6.5,7.55a3.59,3.59,0,0,1,4.95,0,3.89,3.89,0,0,1,.32.39L10.38,9.33l-.07,0A1.71,1.71,0,0,0,10,9,1.53,1.53,0,0,0,7.91,9L5.44,11.44a1.5,1.5,0,0,0,0,2.12h0a1.49,1.49,0,0,0,2.12,0L8.1,13a4.35,4.35,0,0,0,1.93.45C10.19,13.47,10.36,13.44,10.52,13.43ZM15,4A3.48,3.48,0,0,0,10,4L8.44,5.61A4.71,4.71,0,0,1,9,5.56H9A4.6,4.6,0,0,1,10.89,6l.55-.55a1.5,1.5,0,1,1,2.12,2.12L11.09,10A1.56,1.56,0,0,1,9,10a1.58,1.58,0,0,1-.27-.42l-.07.05L7.23,11.06a3,3,0,0,0,.32.39,3.51,3.51,0,0,0,5,0L15,9A3.46,3.46,0,0,0,16,6.5,3.42,3.42,0,0,0,15,4Z"/></svg>
